%TF.GenerationSoftware,KiCad,Pcbnew,8.0.4*%
%TF.CreationDate,2024-08-20T14:49:07-07:00*%
%TF.ProjectId,oscillator,6f736369-6c6c-4617-946f-722e6b696361,rev?*%
%TF.SameCoordinates,Original*%
%TF.FileFunction,Copper,L2,Bot*%
%TF.FilePolarity,Positive*%
%FSLAX46Y46*%
G04 Gerber Fmt 4.6, Leading zero omitted, Abs format (unit mm)*
G04 Created by KiCad (PCBNEW 8.0.4) date 2024-08-20 14:49:07*
%MOMM*%
%LPD*%
G01*
G04 APERTURE LIST*
%TA.AperFunction,Conductor*%
%ADD10C,2.300000*%
%TD*%
%TA.AperFunction,ComponentPad*%
%ADD11C,1.600000*%
%TD*%
%TA.AperFunction,ComponentPad*%
%ADD12O,1.600000X1.600000*%
%TD*%
%TA.AperFunction,ComponentPad*%
%ADD13R,1.600000X1.600000*%
%TD*%
%TA.AperFunction,ComponentPad*%
%ADD14R,1.800000X1.800000*%
%TD*%
%TA.AperFunction,ComponentPad*%
%ADD15O,1.800000X1.800000*%
%TD*%
%TA.AperFunction,ComponentPad*%
%ADD16C,2.000000*%
%TD*%
%TA.AperFunction,ComponentPad*%
%ADD17R,2.000000X1.905000*%
%TD*%
%TA.AperFunction,ComponentPad*%
%ADD18O,2.000000X1.905000*%
%TD*%
%TA.AperFunction,ComponentPad*%
%ADD19R,1.700000X1.700000*%
%TD*%
%TA.AperFunction,ComponentPad*%
%ADD20O,1.700000X1.700000*%
%TD*%
%TA.AperFunction,ComponentPad*%
%ADD21O,2.000000X2.000000*%
%TD*%
%TA.AperFunction,ComponentPad*%
%ADD22C,1.440000*%
%TD*%
%TA.AperFunction,ViaPad*%
%ADD23C,0.600000*%
%TD*%
%TA.AperFunction,Conductor*%
%ADD24C,1.000000*%
%TD*%
%TA.AperFunction,Conductor*%
%ADD25C,0.500000*%
%TD*%
G04 APERTURE END LIST*
%TO.N,GND*%
D10*
X184150000Y-84000000D02*
G75*
G02*
X181850000Y-84000000I-1150000J0D01*
G01*
X181850000Y-84000000D02*
G75*
G02*
X184150000Y-84000000I1150000J0D01*
G01*
%TD*%
D11*
%TO.P,C7,1*%
%TO.N,Net-(D2-K)*%
X150420000Y-105000000D03*
D12*
%TO.P,C7,2*%
%TO.N,GND*%
X160420000Y-105000000D03*
%TD*%
D11*
%TO.P,C2,1*%
%TO.N,Net-(U1-VI)*%
X132000000Y-70500000D03*
D12*
%TO.P,C2,2*%
%TO.N,GND*%
X132000000Y-80500000D03*
%TD*%
D11*
%TO.P,C8,1*%
%TO.N,Net-(C8-Pad1)*%
X129500000Y-112000000D03*
D12*
%TO.P,C8,2*%
%TO.N,Net-(J1-Pin_6)*%
X139500000Y-112000000D03*
%TD*%
D11*
%TO.P,C1,1*%
%TO.N,Net-(U1-VI)*%
X135500000Y-70500000D03*
D12*
%TO.P,C1,2*%
%TO.N,GND*%
X135500000Y-80500000D03*
%TD*%
D13*
%TO.P,U2,1*%
%TO.N,Net-(U2-Pad1)*%
X126880000Y-90960000D03*
D11*
%TO.P,U2,2*%
%TO.N,Net-(Y1-OUT)*%
X126880000Y-93500000D03*
%TO.P,U2,3*%
%TO.N,Net-(U2-Pad3)*%
X126880000Y-96040000D03*
%TO.P,U2,4*%
X126880000Y-98580000D03*
%TO.P,U2,5*%
X126880000Y-101120000D03*
%TO.P,U2,6*%
%TO.N,Net-(C8-Pad1)*%
X126880000Y-103660000D03*
%TO.P,U2,7,GND*%
%TO.N,GND*%
X126880000Y-106200000D03*
%TO.P,U2,8*%
%TO.N,Net-(U2-Pad1)*%
X134500000Y-106200000D03*
%TO.P,U2,9*%
%TO.N,Net-(U2-Pad10)*%
X134500000Y-103660000D03*
%TO.P,U2,10*%
X134500000Y-101120000D03*
%TO.P,U2,11*%
X134500000Y-98580000D03*
%TO.P,U2,12*%
%TO.N,Net-(D2-K)*%
X134500000Y-96040000D03*
%TO.P,U2,13*%
X134500000Y-93500000D03*
%TO.P,U2,14,VCC*%
%TO.N,Net-(D1-K)*%
X134500000Y-90960000D03*
%TD*%
D14*
%TO.P,D1,1,K*%
%TO.N,Net-(D1-K)*%
X142500000Y-87500000D03*
D15*
%TO.P,D1,2,A*%
%TO.N,GND*%
X142500000Y-97660000D03*
%TD*%
D11*
%TO.P,C6,1*%
%TO.N,Net-(Y1-Vcontrol)*%
X104500000Y-82500000D03*
D12*
%TO.P,C6,2*%
%TO.N,GND*%
X114500000Y-82500000D03*
%TD*%
D13*
%TO.P,Y1,1,Vcontrol*%
%TO.N,Net-(Y1-Vcontrol)*%
X105880000Y-90000000D03*
D11*
%TO.P,Y1,7,GND*%
%TO.N,GND*%
X105880000Y-105240000D03*
%TO.P,Y1,8,OUT*%
%TO.N,Net-(Y1-OUT)*%
X113500000Y-105240000D03*
%TO.P,Y1,14,Vcc*%
%TO.N,Net-(D1-K)*%
X113500000Y-90000000D03*
%TD*%
D16*
%TO.P,F1,1*%
%TO.N,Net-(U1-VI)*%
X151500000Y-84000000D03*
%TO.P,F1,2*%
%TO.N,Net-(P2-C)*%
X151500000Y-89080000D03*
%TD*%
D17*
%TO.P,U1,1,VI*%
%TO.N,Net-(U1-VI)*%
X143500000Y-70500000D03*
D18*
%TO.P,U1,2,GND*%
%TO.N,GND*%
X143500000Y-73040000D03*
%TO.P,U1,3,VO*%
%TO.N,Net-(D1-K)*%
X143500000Y-75580000D03*
%TD*%
D11*
%TO.P,C3,1*%
%TO.N,Net-(D1-K)*%
X120000000Y-70500000D03*
D12*
%TO.P,C3,2*%
%TO.N,GND*%
X120000000Y-80500000D03*
%TD*%
D11*
%TO.P,C4,1*%
%TO.N,Net-(D1-K)*%
X123500000Y-70500000D03*
D12*
%TO.P,C4,2*%
%TO.N,GND*%
X123500000Y-80500000D03*
%TD*%
D11*
%TO.P,R1,1*%
%TO.N,Net-(J1-Pin_4)*%
X150340000Y-101500000D03*
D12*
%TO.P,R1,2*%
%TO.N,Net-(D2-K)*%
X160500000Y-101500000D03*
%TD*%
D11*
%TO.P,R4,1*%
%TO.N,Net-(D2-K)*%
X150340000Y-108500000D03*
D12*
%TO.P,R4,2*%
%TO.N,GND*%
X160500000Y-108500000D03*
%TD*%
D14*
%TO.P,D2,1,K*%
%TO.N,Net-(D2-K)*%
X150340000Y-112000000D03*
D15*
%TO.P,D2,2,A*%
%TO.N,GND*%
X160500000Y-112000000D03*
%TD*%
D19*
%TO.P,P2,1,A*%
%TO.N,Net-(J1-Pin_7)*%
X160645504Y-91248248D03*
D20*
%TO.P,P2,2,C*%
%TO.N,Net-(P2-C)*%
X163185504Y-91248248D03*
%TO.P,P2,3,B*%
%TO.N,Net-(J1-Pin_4)*%
X165725504Y-91248248D03*
%TD*%
D19*
%TO.P,J1,1,Pin_1*%
%TO.N,unconnected-(J1-Pin_1-Pad1)*%
X171500000Y-73500000D03*
D20*
%TO.P,J1,2,Pin_2*%
%TO.N,unconnected-(J1-Pin_2-Pad2)*%
X171500000Y-76040000D03*
%TO.P,J1,3,Pin_3*%
%TO.N,unconnected-(J1-Pin_3-Pad3)*%
X171500000Y-78580000D03*
%TO.P,J1,4,Pin_4*%
%TO.N,Net-(J1-Pin_4)*%
X171500000Y-81120000D03*
%TO.P,J1,5,Pin_5*%
%TO.N,unconnected-(J1-Pin_5-Pad5)*%
X171500000Y-83660000D03*
%TO.P,J1,6,Pin_6*%
%TO.N,Net-(J1-Pin_6)*%
X171500000Y-86200000D03*
%TO.P,J1,7,Pin_7*%
%TO.N,Net-(J1-Pin_7)*%
X171500000Y-88740000D03*
%TO.P,J1,8,Pin_8*%
%TO.N,GND*%
X171500000Y-91280000D03*
%TO.P,J1,9,Pin_9*%
X171500000Y-93820000D03*
%TO.P,J1,10,Pin_10*%
X171500000Y-96360000D03*
D21*
%TO.P,J1,11,Pin_11*%
%TO.N,unconnected-(J1-Pin_11-Pad11)*%
X174040000Y-73500000D03*
%TO.P,J1,12,Pin_12*%
%TO.N,unconnected-(J1-Pin_12-Pad12)*%
X174040000Y-76040000D03*
%TO.P,J1,13,Pin_13*%
%TO.N,unconnected-(J1-Pin_13-Pad13)*%
X174040000Y-78580000D03*
%TO.P,J1,14,Pin_14*%
%TO.N,unconnected-(J1-Pin_14-Pad14)*%
X174040000Y-81120000D03*
%TO.P,J1,15,Pin_15*%
%TO.N,unconnected-(J1-Pin_15-Pad15)*%
X174040000Y-83660000D03*
%TO.P,J1,16,Pin_16*%
%TO.N,unconnected-(J1-Pin_16-Pad16)*%
X174040000Y-86200000D03*
%TO.P,J1,17,Pin_17*%
%TO.N,unconnected-(J1-Pin_17-Pad17)*%
X174040000Y-88740000D03*
%TO.P,J1,18,Pin_18*%
%TO.N,unconnected-(J1-Pin_18-Pad18)*%
X174040000Y-91280000D03*
%TO.P,J1,19,Pin_19*%
%TO.N,unconnected-(J1-Pin_19-Pad19)*%
X174040000Y-93820000D03*
%TO.P,J1,20,Pin_20*%
%TO.N,unconnected-(J1-Pin_20-Pad20)*%
X174040000Y-96360000D03*
%TD*%
D22*
%TO.P,R2,1,1*%
%TO.N,Net-(D1-K)*%
X110500000Y-70500000D03*
%TO.P,R2,2,2*%
%TO.N,Net-(Y1-Vcontrol)*%
X107960000Y-70500000D03*
%TO.P,R2,3,3*%
%TO.N,GND*%
X105420000Y-70500000D03*
%TD*%
D11*
%TO.P,R5,1*%
%TO.N,Net-(C8-Pad1)*%
X121000000Y-112000000D03*
D12*
%TO.P,R5,2*%
%TO.N,GND*%
X110840000Y-112000000D03*
%TD*%
D11*
%TO.P,C5,1*%
%TO.N,GND*%
X124500000Y-85000000D03*
D12*
%TO.P,C5,2*%
%TO.N,Net-(D1-K)*%
X134500000Y-85000000D03*
%TD*%
D23*
%TO.N,GND*%
X137680220Y-92124959D03*
X146298969Y-98378808D03*
X133843826Y-79039175D03*
X164955408Y-99640088D03*
X152395158Y-66636585D03*
X106989065Y-101426902D03*
X102732243Y-75938528D03*
X121966769Y-78881515D03*
X102259263Y-67109565D03*
X156942360Y-69856231D03*
X131636585Y-91809639D03*
X174625224Y-67372332D03*
X146929610Y-111149272D03*
X161312670Y-76870310D03*
X121336129Y-93018366D03*
X120337615Y-84820044D03*
X111403546Y-85871111D03*
X157072406Y-86238984D03*
X115870581Y-67792759D03*
X146351523Y-87237498D03*
X122649963Y-105578617D03*
X101996496Y-104632656D03*
X153974865Y-75953084D03*
X167500000Y-70000000D03*
X128693598Y-100060515D03*
X155390699Y-94227093D03*
X112191846Y-95330714D03*
X165796262Y-81982163D03*
X164692642Y-110781398D03*
X131741692Y-108416497D03*
X167228297Y-89262955D03*
X138521074Y-73100647D03*
X165350355Y-94135789D03*
X111666313Y-77094702D03*
X107199278Y-111674805D03*
X128798704Y-67372332D03*
X171524577Y-104580103D03*
X132539724Y-100553579D03*
X151061325Y-70179958D03*
X148363602Y-76951242D03*
X138994054Y-84031744D03*
X136837420Y-101285433D03*
X139940014Y-107312877D03*
%TO.N,Net-(U1-VI)*%
X141842817Y-70467140D03*
X151541564Y-81844410D03*
X136937838Y-70420426D03*
X145112803Y-70490497D03*
X133714566Y-70467140D03*
%TO.N,Net-(D1-K)*%
X123526913Y-74929132D03*
X123480199Y-71799288D03*
X135695933Y-85650015D03*
X121798492Y-70491294D03*
X137517782Y-87518579D03*
X118598577Y-70444580D03*
X115311427Y-89392716D03*
X141044696Y-87471865D03*
X143505149Y-77095144D03*
X111941819Y-70491294D03*
X133033230Y-84505520D03*
X143473829Y-85930300D03*
X135555791Y-89971068D03*
%TO.N,Net-(D2-K)*%
X149013813Y-104989619D03*
X146863122Y-104363122D03*
X150373712Y-106712849D03*
X159501716Y-102510380D03*
X143156386Y-102500000D03*
X135605690Y-97067098D03*
X134501716Y-94771620D03*
X151920468Y-104948095D03*
%TO.N,Net-(C8-Pad1)*%
X129500055Y-110541468D03*
X122302625Y-112001716D03*
X128294139Y-103660862D03*
X128192060Y-112001716D03*
%TO.N,Net-(J1-Pin_6)*%
X140693721Y-110828673D03*
X155247637Y-98888947D03*
X170020761Y-86275052D03*
%TO.N,Net-(Y1-OUT)*%
X125477521Y-93496567D03*
X114844286Y-103910004D03*
%TO.N,Net-(Y1-Vcontrol)*%
X107971122Y-71892716D03*
X104504901Y-88178150D03*
X104467565Y-83851523D03*
X105588703Y-81399033D03*
%TO.N,Net-(U2-Pad1)*%
X128044997Y-92102133D03*
X133294139Y-105077856D03*
%TO.N,Net-(U2-Pad3)*%
X126913684Y-97305180D03*
X126877145Y-99877021D03*
%TO.N,Net-(U2-Pad10)*%
X134522478Y-102375429D03*
X134532859Y-99795979D03*
%TO.N,Net-(J1-Pin_4)*%
X151939430Y-101471493D03*
X164674593Y-92327122D03*
X165723065Y-89638467D03*
%TO.N,Net-(J1-Pin_7)*%
X161788701Y-92379026D03*
X170041523Y-88724947D03*
%TO.N,Net-(P2-C)*%
X162712602Y-89690371D03*
X155769189Y-89155164D03*
%TD*%
D24*
%TO.N,Net-(U1-VI)*%
X151541564Y-81844410D02*
X151540768Y-81843614D01*
X145122306Y-70500000D02*
X145112803Y-70490497D01*
X151500000Y-84000000D02*
X151540768Y-83959232D01*
X145103300Y-70500000D02*
X143500000Y-70500000D01*
X145849559Y-70500000D02*
X145122306Y-70500000D01*
X151540768Y-83959232D02*
X151540768Y-81845206D01*
X151540768Y-76191209D02*
X145849559Y-70500000D01*
X151540768Y-81845206D02*
X151541564Y-81844410D01*
X151540768Y-81843614D02*
X151540768Y-76191209D01*
X145112803Y-70490497D02*
X145103300Y-70500000D01*
%TO.N,Net-(D2-K)*%
X146863122Y-104363122D02*
X145000000Y-102500000D01*
X145000000Y-102500000D02*
X143156386Y-102500000D01*
%TO.N,Net-(J1-Pin_6)*%
X168512138Y-87804437D02*
X170020761Y-86295814D01*
X157737551Y-96399033D02*
X157737551Y-90487313D01*
X170020761Y-86295814D02*
X170020761Y-86275052D01*
X170020761Y-86275052D02*
X170041523Y-86275052D01*
X155247637Y-98888947D02*
X157737551Y-96399033D01*
X170041523Y-86275052D02*
X170116575Y-86200000D01*
X157737551Y-90487313D02*
X160420427Y-87804437D01*
X170116575Y-86200000D02*
X171500000Y-86200000D01*
X160420427Y-87804437D02*
X168512138Y-87804437D01*
D25*
%TO.N,Net-(J1-Pin_7)*%
X161788701Y-92379026D02*
X161776282Y-92379026D01*
X161776282Y-92379026D02*
X160645504Y-91248248D01*
X168030192Y-90163529D02*
X168030192Y-91367714D01*
X169453721Y-88740000D02*
X168030192Y-90163529D01*
X168030192Y-91367714D02*
X166143492Y-93254414D01*
X170056576Y-88740000D02*
X170041523Y-88724947D01*
X171500000Y-88740000D02*
X170056576Y-88740000D01*
X161788701Y-92391445D02*
X161788701Y-92379026D01*
X166143492Y-93254414D02*
X162651670Y-93254414D01*
X162651670Y-93254414D02*
X161788701Y-92391445D01*
X170026470Y-88740000D02*
X169453721Y-88740000D01*
X170041523Y-88724947D02*
X170026470Y-88740000D01*
%TD*%
%TA.AperFunction,Conductor*%
%TO.N,GND*%
G36*
X171750000Y-95926988D02*
G01*
X171692993Y-95894075D01*
X171565826Y-95860000D01*
X171434174Y-95860000D01*
X171307007Y-95894075D01*
X171250000Y-95926988D01*
X171250000Y-94253012D01*
X171307007Y-94285925D01*
X171434174Y-94320000D01*
X171565826Y-94320000D01*
X171692993Y-94285925D01*
X171750000Y-94253012D01*
X171750000Y-95926988D01*
G37*
%TD.AperFunction*%
%TA.AperFunction,Conductor*%
G36*
X171750000Y-93386988D02*
G01*
X171692993Y-93354075D01*
X171565826Y-93320000D01*
X171434174Y-93320000D01*
X171307007Y-93354075D01*
X171250000Y-93386988D01*
X171250000Y-91713012D01*
X171307007Y-91745925D01*
X171434174Y-91780000D01*
X171565826Y-91780000D01*
X171692993Y-91745925D01*
X171750000Y-91713012D01*
X171750000Y-93386988D01*
G37*
%TD.AperFunction*%
%TA.AperFunction,Conductor*%
G36*
X168095093Y-88824622D02*
G01*
X168140848Y-88877426D01*
X168150792Y-88946584D01*
X168121767Y-89010140D01*
X168115735Y-89016618D01*
X167447244Y-89685107D01*
X167447241Y-89685110D01*
X167409070Y-89742237D01*
X167409071Y-89742238D01*
X167365106Y-89808037D01*
X167308535Y-89944611D01*
X167308532Y-89944621D01*
X167279692Y-90089608D01*
X167279692Y-90888750D01*
X167260007Y-90955789D01*
X167207203Y-91001544D01*
X167138045Y-91011488D01*
X167074489Y-90982463D01*
X167036715Y-90923685D01*
X167035917Y-90920843D01*
X166999409Y-90784592D01*
X166999408Y-90784591D01*
X166999407Y-90784585D01*
X166899539Y-90570419D01*
X166899128Y-90569831D01*
X166763998Y-90376845D01*
X166596906Y-90209754D01*
X166596900Y-90209749D01*
X166492602Y-90136719D01*
X166448977Y-90082142D01*
X166441783Y-90012644D01*
X166446684Y-89994189D01*
X166448919Y-89987804D01*
X166479986Y-89899016D01*
X166508431Y-89817729D01*
X166508434Y-89817716D01*
X166528630Y-89638470D01*
X166528630Y-89638463D01*
X166508434Y-89459217D01*
X166508433Y-89459212D01*
X166464766Y-89334419D01*
X166448854Y-89288945D01*
X166352881Y-89136205D01*
X166233294Y-89016618D01*
X166199809Y-88955295D01*
X166204793Y-88885603D01*
X166246665Y-88829670D01*
X166312129Y-88805253D01*
X166320975Y-88804937D01*
X168028054Y-88804937D01*
X168095093Y-88824622D01*
G37*
%TD.AperFunction*%
%TA.AperFunction,Conductor*%
G36*
X176417539Y-65520185D02*
G01*
X176463294Y-65572989D01*
X176474500Y-65624500D01*
X176474500Y-114375500D01*
X176454815Y-114442539D01*
X176402011Y-114488294D01*
X176350500Y-114499500D01*
X100649500Y-114499500D01*
X100582461Y-114479815D01*
X100536706Y-114427011D01*
X100525500Y-114375500D01*
X100525500Y-111749999D01*
X109561127Y-111749999D01*
X109561128Y-111750000D01*
X110524314Y-111750000D01*
X110519920Y-111754394D01*
X110467259Y-111845606D01*
X110440000Y-111947339D01*
X110440000Y-112052661D01*
X110467259Y-112154394D01*
X110519920Y-112245606D01*
X110524314Y-112250000D01*
X109561128Y-112250000D01*
X109613730Y-112446317D01*
X109613734Y-112446326D01*
X109709865Y-112652482D01*
X109840342Y-112838820D01*
X110001179Y-112999657D01*
X110187517Y-113130134D01*
X110393673Y-113226265D01*
X110393682Y-113226269D01*
X110589999Y-113278872D01*
X110590000Y-113278871D01*
X110590000Y-112315686D01*
X110594394Y-112320080D01*
X110685606Y-112372741D01*
X110787339Y-112400000D01*
X110892661Y-112400000D01*
X110994394Y-112372741D01*
X111085606Y-112320080D01*
X111090000Y-112315686D01*
X111090000Y-113278872D01*
X111286317Y-113226269D01*
X111286326Y-113226265D01*
X111492482Y-113130134D01*
X111678820Y-112999657D01*
X111839657Y-112838820D01*
X111970134Y-112652482D01*
X112066265Y-112446326D01*
X112066269Y-112446317D01*
X112118872Y-112250000D01*
X111155686Y-112250000D01*
X111160080Y-112245606D01*
X111212741Y-112154394D01*
X111240000Y-112052661D01*
X111240000Y-111999998D01*
X119694532Y-111999998D01*
X119694532Y-112000001D01*
X119714364Y-112226686D01*
X119714366Y-112226697D01*
X119773258Y-112446488D01*
X119773261Y-112446497D01*
X119869431Y-112652732D01*
X119869432Y-112652734D01*
X119999954Y-112839141D01*
X120160858Y-113000045D01*
X120160861Y-113000047D01*
X120347266Y-113130568D01*
X120553504Y-113226739D01*
X120773308Y-113285635D01*
X120935230Y-113299801D01*
X120999998Y-113305468D01*
X121000000Y-113305468D01*
X121000002Y-113305468D01*
X121056673Y-113300509D01*
X121226692Y-113285635D01*
X121446496Y-113226739D01*
X121652734Y-113130568D01*
X121839139Y-113000047D01*
X122000047Y-112839139D01*
X122000615Y-112838326D01*
X122000961Y-112838050D01*
X122003526Y-112834994D01*
X122004139Y-112835509D01*
X122055185Y-112794698D01*
X122116215Y-112788373D01*
X122116449Y-112786305D01*
X122302621Y-112807281D01*
X122302625Y-112807281D01*
X122302629Y-112807281D01*
X122481874Y-112787085D01*
X122481877Y-112787084D01*
X122481880Y-112787084D01*
X122652147Y-112727505D01*
X122804887Y-112631532D01*
X122932441Y-112503978D01*
X123028414Y-112351238D01*
X123087993Y-112180971D01*
X123088813Y-112173694D01*
X123108190Y-112001719D01*
X123108190Y-112001712D01*
X127386495Y-112001712D01*
X127386495Y-112001719D01*
X127406690Y-112180965D01*
X127406691Y-112180970D01*
X127466271Y-112351239D01*
X127526126Y-112446497D01*
X127562244Y-112503978D01*
X127689798Y-112631532D01*
X127842538Y-112727505D01*
X128010579Y-112786305D01*
X128012805Y-112787084D01*
X128012810Y-112787085D01*
X128192056Y-112807281D01*
X128192060Y-112807281D01*
X128192064Y-112807281D01*
X128378236Y-112786305D01*
X128378433Y-112788056D01*
X128439195Y-112791768D01*
X128495560Y-112833057D01*
X128498643Y-112837269D01*
X128499386Y-112838329D01*
X128499955Y-112839142D01*
X128660858Y-113000045D01*
X128660861Y-113000047D01*
X128847266Y-113130568D01*
X129053504Y-113226739D01*
X129273308Y-113285635D01*
X129435230Y-113299801D01*
X129499998Y-113305468D01*
X129500000Y-113305468D01*
X129500002Y-113305468D01*
X129556673Y-113300509D01*
X129726692Y-113285635D01*
X129946496Y-113226739D01*
X130152734Y-113130568D01*
X130339139Y-113000047D01*
X130500047Y-112839139D01*
X130630568Y-112652734D01*
X130726739Y-112446496D01*
X130785635Y-112226692D01*
X130805468Y-112000000D01*
X130805468Y-111999998D01*
X138194532Y-111999998D01*
X138194532Y-112000001D01*
X138214364Y-112226686D01*
X138214366Y-112226697D01*
X138273258Y-112446488D01*
X138273261Y-112446497D01*
X138369431Y-112652732D01*
X138369432Y-112652734D01*
X138499954Y-112839141D01*
X138660858Y-113000045D01*
X138660861Y-113000047D01*
X138847266Y-113130568D01*
X139053504Y-113226739D01*
X139273308Y-113285635D01*
X139435230Y-113299801D01*
X139499998Y-113305468D01*
X139500000Y-113305468D01*
X139500002Y-113305468D01*
X139556673Y-113300509D01*
X139726692Y-113285635D01*
X139946496Y-113226739D01*
X140152734Y-113130568D01*
X140339139Y-113000047D01*
X140500047Y-112839139D01*
X140630568Y-112652734D01*
X140726739Y-112446496D01*
X140785635Y-112226692D01*
X140805468Y-112000000D01*
X140785635Y-111773308D01*
X140783770Y-111766348D01*
X140785431Y-111696501D01*
X140824591Y-111638637D01*
X140866916Y-111617809D01*
X140866403Y-111616341D01*
X140968353Y-111580667D01*
X141043243Y-111554462D01*
X141195983Y-111458489D01*
X141323537Y-111330935D01*
X141419510Y-111178195D01*
X141463620Y-111052135D01*
X148939500Y-111052135D01*
X148939500Y-112947870D01*
X148939501Y-112947876D01*
X148945908Y-113007483D01*
X148996202Y-113142328D01*
X148996206Y-113142335D01*
X149082452Y-113257544D01*
X149082455Y-113257547D01*
X149197664Y-113343793D01*
X149197671Y-113343797D01*
X149332517Y-113394091D01*
X149332516Y-113394091D01*
X149339444Y-113394835D01*
X149392127Y-113400500D01*
X151287872Y-113400499D01*
X151347483Y-113394091D01*
X151482331Y-113343796D01*
X151597546Y-113257546D01*
X151683796Y-113142331D01*
X151734091Y-113007483D01*
X151740500Y-112947873D01*
X151740499Y-111750000D01*
X159119117Y-111750000D01*
X160124722Y-111750000D01*
X160080667Y-111826306D01*
X160050000Y-111940756D01*
X160050000Y-112059244D01*
X160080667Y-112173694D01*
X160124722Y-112250000D01*
X159119117Y-112250000D01*
X159171317Y-112456135D01*
X159264516Y-112668609D01*
X159391414Y-112862842D01*
X159548558Y-113033545D01*
X159548562Y-113033548D01*
X159731644Y-113176047D01*
X159731648Y-113176050D01*
X159935697Y-113286476D01*
X159935706Y-113286479D01*
X160155139Y-113361811D01*
X160249999Y-113377640D01*
X160250000Y-113377639D01*
X160250000Y-112375277D01*
X160326306Y-112419333D01*
X160440756Y-112450000D01*
X160559244Y-112450000D01*
X160673694Y-112419333D01*
X160750000Y-112375277D01*
X160750000Y-113377640D01*
X160844860Y-113361811D01*
X161064293Y-113286479D01*
X161064302Y-113286476D01*
X161268351Y-113176050D01*
X161268355Y-113176047D01*
X161451437Y-113033548D01*
X161451441Y-113033545D01*
X161608585Y-112862842D01*
X161735483Y-112668609D01*
X161828682Y-112456135D01*
X161880883Y-112250000D01*
X160875278Y-112250000D01*
X160919333Y-112173694D01*
X160950000Y-112059244D01*
X160950000Y-111940756D01*
X160919333Y-111826306D01*
X160875278Y-111750000D01*
X161880883Y-111750000D01*
X161828682Y-111543864D01*
X161735483Y-111331390D01*
X161608585Y-111137157D01*
X161451441Y-110966454D01*
X161451437Y-110966451D01*
X161268355Y-110823952D01*
X161268351Y-110823949D01*
X161064302Y-110713523D01*
X161064293Y-110713520D01*
X160844861Y-110638188D01*
X160750000Y-110622359D01*
X160750000Y-111624722D01*
X160673694Y-111580667D01*
X160559244Y-111550000D01*
X160440756Y-111550000D01*
X160326306Y-111580667D01*
X160250000Y-111624722D01*
X160250000Y-110622359D01*
X160249999Y-110622359D01*
X160155138Y-110638188D01*
X159935706Y-110713520D01*
X159935697Y-110713523D01*
X159731648Y-110823949D01*
X159731644Y-110823952D01*
X159548562Y-110966451D01*
X159548558Y-110966454D01*
X159391414Y-111137157D01*
X159264516Y-111331390D01*
X159171317Y-111543864D01*
X159119117Y-111750000D01*
X151740499Y-111750000D01*
X151740499Y-111052128D01*
X151734091Y-110992517D01*
X151704839Y-110914089D01*
X151683797Y-110857671D01*
X151683793Y-110857664D01*
X151597547Y-110742455D01*
X151597544Y-110742452D01*
X151482335Y-110656206D01*
X151482328Y-110656202D01*
X151347482Y-110605908D01*
X151347483Y-110605908D01*
X151287883Y-110599501D01*
X151287881Y-110599500D01*
X151287873Y-110599500D01*
X151287864Y-110599500D01*
X149392129Y-110599500D01*
X149392123Y-110599501D01*
X149332516Y-110605908D01*
X149197671Y-110656202D01*
X149197664Y-110656206D01*
X149082455Y-110742452D01*
X149082452Y-110742455D01*
X148996206Y-110857664D01*
X148996202Y-110857671D01*
X148945908Y-110992517D01*
X148939501Y-111052116D01*
X148939501Y-111052123D01*
X148939500Y-111052135D01*
X141463620Y-111052135D01*
X141479089Y-111007928D01*
X141479944Y-111000342D01*
X141499286Y-110828676D01*
X141499286Y-110828669D01*
X141479090Y-110649423D01*
X141479089Y-110649418D01*
X141469621Y-110622359D01*
X141419510Y-110479151D01*
X141323537Y-110326411D01*
X141195983Y-110198857D01*
X141184981Y-110191944D01*
X141043244Y-110102884D01*
X140872975Y-110043304D01*
X140872970Y-110043303D01*
X140693725Y-110023108D01*
X140693717Y-110023108D01*
X140514471Y-110043303D01*
X140514466Y-110043304D01*
X140344197Y-110102884D01*
X140191458Y-110198857D01*
X140063905Y-110326410D01*
X139967930Y-110479153D01*
X139910002Y-110644702D01*
X139869281Y-110701478D01*
X139804328Y-110727225D01*
X139760869Y-110723522D01*
X139726697Y-110714366D01*
X139726693Y-110714365D01*
X139726692Y-110714365D01*
X139579393Y-110701478D01*
X139500001Y-110694532D01*
X139499998Y-110694532D01*
X139273313Y-110714364D01*
X139273302Y-110714366D01*
X139053511Y-110773258D01*
X139053502Y-110773261D01*
X138847267Y-110869431D01*
X138847265Y-110869432D01*
X138660858Y-110999954D01*
X138499954Y-111160858D01*
X138369432Y-111347265D01*
X138369431Y-111347267D01*
X138273261Y-111553502D01*
X138273258Y-111553511D01*
X138214366Y-111773302D01*
X138214364Y-111773313D01*
X138194532Y-111999998D01*
X130805468Y-111999998D01*
X130785635Y-111773308D01*
X130726739Y-111553504D01*
X130630568Y-111347266D01*
X130500047Y-111160861D01*
X130500045Y-111160858D01*
X130339141Y-110999954D01*
X130294455Y-110968665D01*
X130250830Y-110914089D01*
X130243636Y-110844590D01*
X130248533Y-110826146D01*
X130285423Y-110720723D01*
X130285424Y-110720717D01*
X130305620Y-110541471D01*
X130305620Y-110541464D01*
X130285424Y-110362218D01*
X130285423Y-110362213D01*
X130225843Y-110191944D01*
X130186637Y-110129548D01*
X130129871Y-110039206D01*
X130002317Y-109911652D01*
X129849578Y-109815679D01*
X129679309Y-109756099D01*
X129679304Y-109756098D01*
X129500059Y-109735903D01*
X129500051Y-109735903D01*
X129320805Y-109756098D01*
X129320800Y-109756099D01*
X129150531Y-109815679D01*
X128997792Y-109911652D01*
X128870239Y-110039205D01*
X128774266Y-110191944D01*
X128714686Y-110362213D01*
X128714685Y-110362218D01*
X128694490Y-110541464D01*
X128694490Y-110541471D01*
X128714685Y-110720717D01*
X128714688Y-110720730D01*
X128751550Y-110826073D01*
X128755112Y-110895852D01*
X128720384Y-110956479D01*
X128705635Y-110968601D01*
X128660859Y-110999954D01*
X128499956Y-111160857D01*
X128499944Y-111160871D01*
X128496569Y-111165692D01*
X128441990Y-111209315D01*
X128378373Y-111215895D01*
X128378235Y-111217127D01*
X128372603Y-111216492D01*
X128372492Y-111216504D01*
X128372234Y-111216450D01*
X128192064Y-111196151D01*
X128192056Y-111196151D01*
X128012810Y-111216346D01*
X128012805Y-111216347D01*
X127842536Y-111275927D01*
X127689797Y-111371900D01*
X127562244Y-111499453D01*
X127466271Y-111652192D01*
X127406691Y-111822461D01*
X127406690Y-111822466D01*
X127386495Y-112001712D01*
X123108190Y-112001712D01*
X123087994Y-111822466D01*
X123087993Y-111822461D01*
X123070794Y-111773308D01*
X123028414Y-111652194D01*
X123020695Y-111639910D01*
X122966403Y-111553504D01*
X122932441Y-111499454D01*
X122804887Y-111371900D01*
X122765684Y-111347267D01*
X122652148Y-111275927D01*
X122481879Y-111216347D01*
X122481874Y-111216346D01*
X122302629Y-111196151D01*
X122302621Y-111196151D01*
X122118280Y-111216920D01*
X122049458Y-111204865D01*
X122002824Y-111164826D01*
X122000046Y-111160859D01*
X121839141Y-110999954D01*
X121652734Y-110869432D01*
X121652732Y-110869431D01*
X121446497Y-110773261D01*
X121446488Y-110773258D01*
X121226697Y-110714366D01*
X121226693Y-110714365D01*
X121226692Y-110714365D01*
X121226691Y-110714364D01*
X121226686Y-110714364D01*
X121000002Y-110694532D01*
X120999998Y-110694532D01*
X120773313Y-110714364D01*
X120773302Y-110714366D01*
X120553511Y-110773258D01*
X120553502Y-110773261D01*
X120347267Y-110869431D01*
X120347265Y-110869432D01*
X120160858Y-110999954D01*
X119999954Y-111160858D01*
X119869432Y-111347265D01*
X119869431Y-111347267D01*
X119773261Y-111553502D01*
X119773258Y-111553511D01*
X119714366Y-111773302D01*
X119714364Y-111773313D01*
X119694532Y-111999998D01*
X111240000Y-111999998D01*
X111240000Y-111947339D01*
X111212741Y-111845606D01*
X111160080Y-111754394D01*
X111155686Y-111750000D01*
X112118872Y-111750000D01*
X112118872Y-111749999D01*
X112066269Y-111553682D01*
X112066265Y-111553673D01*
X111970134Y-111347517D01*
X111839657Y-111161179D01*
X111678820Y-111000342D01*
X111492482Y-110869865D01*
X111286328Y-110773734D01*
X111090000Y-110721127D01*
X111090000Y-111684314D01*
X111085606Y-111679920D01*
X110994394Y-111627259D01*
X110892661Y-111600000D01*
X110787339Y-111600000D01*
X110685606Y-111627259D01*
X110594394Y-111679920D01*
X110590000Y-111684314D01*
X110590000Y-110721127D01*
X110393671Y-110773734D01*
X110187517Y-110869865D01*
X110001179Y-111000342D01*
X109840342Y-111161179D01*
X109709865Y-111347517D01*
X109613734Y-111553673D01*
X109613730Y-111553682D01*
X109561127Y-111749999D01*
X100525500Y-111749999D01*
X100525500Y-105239997D01*
X104575034Y-105239997D01*
X104575034Y-105240002D01*
X104594858Y-105466599D01*
X104594860Y-105466610D01*
X104653730Y-105686317D01*
X104653735Y-105686331D01*
X104749863Y-105892478D01*
X104800974Y-105965472D01*
X105480000Y-105286446D01*
X105480000Y-105292661D01*
X105507259Y-105394394D01*
X105559920Y-105485606D01*
X105634394Y-105560080D01*
X105725606Y-105612741D01*
X105827339Y-105640000D01*
X105833553Y-105640000D01*
X105154526Y-106319025D01*
X105227513Y-106370132D01*
X105227521Y-106370136D01*
X105433668Y-106466264D01*
X105433682Y-106466269D01*
X105653389Y-106525139D01*
X105653400Y-106525141D01*
X105879998Y-106544966D01*
X105880002Y-106544966D01*
X106106599Y-106525141D01*
X106106610Y-106525139D01*
X106326317Y-106466269D01*
X106326331Y-106466264D01*
X106532478Y-106370136D01*
X106605471Y-106319024D01*
X105926447Y-105640000D01*
X105932661Y-105640000D01*
X106034394Y-105612741D01*
X106125606Y-105560080D01*
X106200080Y-105485606D01*
X106252741Y-105394394D01*
X106280000Y-105292661D01*
X106280000Y-105286447D01*
X106959024Y-105965471D01*
X107010136Y-105892478D01*
X107106264Y-105686331D01*
X107106269Y-105686317D01*
X107165139Y-105466610D01*
X107165141Y-105466599D01*
X107184966Y-105240002D01*
X107184966Y-105239998D01*
X112194532Y-105239998D01*
X112194532Y-105240001D01*
X112214364Y-105466686D01*
X112214366Y-105466697D01*
X112273258Y-105686488D01*
X112273261Y-105686497D01*
X112369431Y-105892732D01*
X112369432Y-105892734D01*
X112499954Y-106079141D01*
X112660858Y-106240045D01*
X112660861Y-106240047D01*
X112847266Y-106370568D01*
X113053504Y-106466739D01*
X113273308Y-106525635D01*
X113435230Y-106539801D01*
X113499998Y-106545468D01*
X113500000Y-106545468D01*
X113500002Y-106545468D01*
X113556673Y-106540509D01*
X113726692Y-106525635D01*
X113946496Y-106466739D01*
X114152734Y-106370568D01*
X114339139Y-106240047D01*
X114500047Y-106079139D01*
X114630568Y-105892734D01*
X114726739Y-105686496D01*
X114785635Y-105466692D01*
X114805468Y-105240000D01*
X114785635Y-105013308D01*
X114747206Y-104869888D01*
X114748869Y-104800040D01*
X114788031Y-104742177D01*
X114852260Y-104714673D01*
X114853054Y-104714581D01*
X114903305Y-104708919D01*
X115023535Y-104695373D01*
X115023538Y-104695372D01*
X115023541Y-104695372D01*
X115193808Y-104635793D01*
X115346548Y-104539820D01*
X115474102Y-104412266D01*
X115570075Y-104259526D01*
X115629654Y-104089259D01*
X115629655Y-104089253D01*
X115649851Y-103910007D01*
X115649851Y-103910000D01*
X115629655Y-103730754D01*
X115629654Y-103730749D01*
X115616981Y-103694532D01*
X115570075Y-103560482D01*
X115474102Y-103407742D01*
X115346548Y-103280188D01*
X115341691Y-103277136D01*
X115193809Y-103184215D01*
X115023540Y-103124635D01*
X115023535Y-103124634D01*
X114844290Y-103104439D01*
X114844282Y-103104439D01*
X114665036Y-103124634D01*
X114665031Y-103124635D01*
X114494762Y-103184215D01*
X114342023Y-103280188D01*
X114214470Y-103407741D01*
X114118497Y-103560480D01*
X114058917Y-103730749D01*
X114058916Y-103730753D01*
X114040857Y-103891037D01*
X114013790Y-103955451D01*
X113956195Y-103995006D01*
X113886358Y-103997143D01*
X113885544Y-103996928D01*
X113726697Y-103954366D01*
X113726693Y-103954365D01*
X113726692Y-103954365D01*
X113726691Y-103954364D01*
X113726686Y-103954364D01*
X113500002Y-103934532D01*
X113499998Y-103934532D01*
X113273313Y-103954364D01*
X113273302Y-103954366D01*
X113053511Y-104013258D01*
X113053502Y-104013261D01*
X112847267Y-104109431D01*
X112847265Y-104109432D01*
X112660858Y-104239954D01*
X112499954Y-104400858D01*
X112369432Y-104587265D01*
X112369431Y-104587267D01*
X112273261Y-104793502D01*
X112273258Y-104793511D01*
X112214366Y-105013302D01*
X112214364Y-105013313D01*
X112194532Y-105239998D01*
X107184966Y-105239998D01*
X107184966Y-105239997D01*
X107165141Y-105013400D01*
X107165139Y-105013389D01*
X107106269Y-104793682D01*
X107106264Y-104793668D01*
X107010136Y-104587521D01*
X107010132Y-104587513D01*
X106959025Y-104514526D01*
X106280000Y-105193551D01*
X106280000Y-105187339D01*
X106252741Y-105085606D01*
X106200080Y-104994394D01*
X106125606Y-104919920D01*
X106034394Y-104867259D01*
X105932661Y-104840000D01*
X105926448Y-104840000D01*
X106605472Y-104160974D01*
X106532478Y-104109863D01*
X106326331Y-104013735D01*
X106326317Y-104013730D01*
X106106610Y-103954860D01*
X106106599Y-103954858D01*
X105880002Y-103935034D01*
X105879998Y-103935034D01*
X105653400Y-103954858D01*
X105653389Y-103954860D01*
X105433682Y-104013730D01*
X105433673Y-104013734D01*
X105227516Y-104109866D01*
X105227512Y-104109868D01*
X105154526Y-104160973D01*
X105154526Y-104160974D01*
X105833553Y-104840000D01*
X105827339Y-104840000D01*
X105725606Y-104867259D01*
X105634394Y-104919920D01*
X105559920Y-104994394D01*
X105507259Y-105085606D01*
X105480000Y-105187339D01*
X105480000Y-105193552D01*
X104800974Y-104514526D01*
X104800973Y-104514526D01*
X104749868Y-104587512D01*
X104749866Y-104587516D01*
X104653734Y-104793673D01*
X104653730Y-104793682D01*
X104594860Y-105013389D01*
X104594858Y-105013400D01*
X104575034Y-105239997D01*
X100525500Y-105239997D01*
X100525500Y-93496563D01*
X124671956Y-93496563D01*
X124671956Y-93496570D01*
X124692151Y-93675816D01*
X124692152Y-93675821D01*
X124751732Y-93846090D01*
X124833406Y-93976072D01*
X124847705Y-93998829D01*
X124975259Y-94126383D01*
X125127999Y-94222356D01*
X125239835Y-94261489D01*
X125298266Y-94281935D01*
X125298271Y-94281936D01*
X125477517Y-94302132D01*
X125477521Y-94302132D01*
X125477525Y-94302132D01*
X125656770Y-94281936D01*
X125656771Y-94281935D01*
X125656776Y-94281935D01*
X125715207Y-94261488D01*
X125784981Y-94257926D01*
X125845609Y-94292654D01*
X125857734Y-94307407D01*
X125879954Y-94339141D01*
X126040858Y-94500045D01*
X126046741Y-94504164D01*
X126227266Y-94630568D01*
X126285275Y-94657618D01*
X126337714Y-94703791D01*
X126356866Y-94770984D01*
X126336650Y-94837865D01*
X126285275Y-94882382D01*
X126227267Y-94909431D01*
X126227265Y-94909432D01*
X126040858Y-95039954D01*
X125879954Y-95200858D01*
X125749432Y-95387265D01*
X125749431Y-95387267D01*
X125653261Y-95593502D01*
X125653258Y-95593511D01*
X125594366Y-95813302D01*
X125594364Y-95813313D01*
X125574532Y-96039998D01*
X125574532Y-96040001D01*
X125594364Y-96266686D01*
X125594366Y-96266697D01*
X125653258Y-96486488D01*
X125653261Y-96486497D01*
X125749431Y-96692732D01*
X125749432Y-96692734D01*
X125879954Y-96879141D01*
X126040856Y-97040043D01*
X126040859Y-97040045D01*
X126040861Y-97040047D01*
X126065521Y-97057314D01*
X126070544Y-97060831D01*
X126114168Y-97115408D01*
X126122640Y-97176289D01*
X126108119Y-97305175D01*
X126108119Y-97305184D01*
X126123647Y-97443005D01*
X126111592Y-97511827D01*
X126071552Y-97558462D01*
X126040858Y-97579954D01*
X125879954Y-97740858D01*
X125749432Y-97927265D01*
X125749431Y-97927267D01*
X125653261Y-98133502D01*
X125653258Y-98133511D01*
X125594366Y-98353302D01*
X125594364Y-98353313D01*
X125574532Y-98579998D01*
X125574532Y-98580001D01*
X125594364Y-98806686D01*
X125594366Y-98806697D01*
X125653258Y-99026488D01*
X125653261Y-99026497D01*
X125749431Y-99232732D01*
X125749432Y-99232734D01*
X125879954Y-99419141D01*
X126040861Y-99580048D01*
X126045006Y-99583526D01*
X126044112Y-99584590D01*
X126083624Y-99634017D01*
X126092098Y-99694903D01*
X126071580Y-99877016D01*
X126071580Y-99877025D01*
X126086484Y-100009310D01*
X126074429Y-100078132D01*
X126044633Y-100116070D01*
X126044689Y-100116126D01*
X126044228Y-100116586D01*
X126042984Y-100118171D01*
X126040867Y-100119947D01*
X125879951Y-100280862D01*
X125749432Y-100467265D01*
X125749431Y-100467267D01*
X125653261Y-100673502D01*
X125653258Y-100673511D01*
X125594366Y-100893302D01*
X125594364Y-100893313D01*
X125574532Y-101119998D01*
X125574532Y-101120001D01*
X125594364Y-101346686D01*
X125594366Y-101346697D01*
X125653258Y-101566488D01*
X125653261Y-101566497D01*
X125749431Y-101772732D01*
X125749432Y-101772734D01*
X125879954Y-101959141D01*
X126040858Y-102120045D01*
X126040861Y-102120047D01*
X126227266Y-102250568D01*
X126284074Y-102277058D01*
X126285275Y-102277618D01*
X126337714Y-102323791D01*
X126356866Y-102390984D01*
X126336650Y-102457865D01*
X126285275Y-102502382D01*
X126227267Y-102529431D01*
X126227265Y-102529432D01*
X126040858Y-102659954D01*
X125879954Y-102820858D01*
X125749432Y-103007265D01*
X125749431Y-103007267D01*
X125653261Y-103213502D01*
X125653258Y-103213511D01*
X125594366Y-103433302D01*
X125594364Y-103433313D01*
X125574532Y-103659998D01*
X125574532Y-103660001D01*
X125594364Y-103886686D01*
X125594366Y-103886697D01*
X125653258Y-104106488D01*
X125653261Y-104106497D01*
X125749431Y-104312732D01*
X125749432Y-104312734D01*
X125879954Y-104499141D01*
X126040858Y-104660045D01*
X126040861Y-104660047D01*
X126227266Y-104790568D01*
X126285865Y-104817893D01*
X126338305Y-104864065D01*
X126357457Y-104931258D01*
X126337242Y-104998139D01*
X126285867Y-105042657D01*
X126227513Y-105069868D01*
X126227512Y-105069868D01*
X126154526Y-105120973D01*
X126154526Y-105120974D01*
X126833553Y-105800000D01*
X126827339Y-105800000D01*
X126725606Y-105827259D01*
X126634394Y-105879920D01*
X126559920Y-105954394D01*
X126507259Y-106045606D01*
X126480000Y-106147339D01*
X126480000Y-106153552D01*
X125800974Y-105474526D01*
X125800973Y-105474526D01*
X125749868Y-105547512D01*
X125749866Y-105547516D01*
X125653734Y-105753673D01*
X125653730Y-105753682D01*
X125594860Y-105973389D01*
X125594858Y-105973400D01*
X125575034Y-106199997D01*
X125575034Y-106200002D01*
X125594858Y-106426599D01*
X125594860Y-106426610D01*
X125653730Y-106646317D01*
X125653735Y-106646331D01*
X125749863Y-106852478D01*
X125800974Y-106925472D01*
X126480000Y-106246446D01*
X126480000Y-106252661D01*
X126507259Y-106354394D01*
X126559920Y-106445606D01*
X126634394Y-106520080D01*
X126725606Y-106572741D01*
X126827339Y-106600000D01*
X126833553Y-106600000D01*
X126154526Y-107279025D01*
X126227513Y-107330132D01*
X126227521Y-107330136D01*
X126433668Y-107426264D01*
X126433682Y-107426269D01*
X126653389Y-107485139D01*
X126653400Y-107485141D01*
X126879998Y-107504966D01*
X126880002Y-107504966D01*
X127106599Y-107485141D01*
X127106610Y-107485139D01*
X127326317Y-107426269D01*
X127326331Y-107426264D01*
X127532478Y-107330136D01*
X127605471Y-107279024D01*
X126926447Y-106600000D01*
X126932661Y-106600000D01*
X127034394Y-106572741D01*
X127125606Y-106520080D01*
X127200080Y-106445606D01*
X127252741Y-106354394D01*
X127280000Y-106252661D01*
X127280000Y-106246447D01*
X127959024Y-106925471D01*
X128010136Y-106852478D01*
X128106264Y-106646331D01*
X128106269Y-106646317D01*
X128165139Y-106426610D01*
X128165141Y-106426599D01*
X128184966Y-106200002D01*
X128184966Y-106199997D01*
X128165141Y-105973400D01*
X128165139Y-105973389D01*
X128106269Y-105753682D01*
X128106264Y-105753668D01*
X128010136Y-105547521D01*
X128010132Y-105547513D01*
X127959025Y-105474526D01*
X127280000Y-106153551D01*
X127280000Y-106147339D01*
X127252741Y-106045606D01*
X127200080Y-105954394D01*
X127125606Y-105879920D01*
X127034394Y-105827259D01*
X126932661Y-105800000D01*
X126926448Y-105800000D01*
X127605472Y-105120974D01*
X127543888Y-105077852D01*
X132488574Y-105077852D01*
X132488574Y-105077859D01*
X132508769Y-105257105D01*
X132508770Y-105257110D01*
X132568350Y-105427379D01*
X132597975Y-105474526D01*
X132664323Y-105580118D01*
X132791877Y-105707672D01*
X132866986Y-105754866D01*
X132916584Y-105786031D01*
X132944617Y-105803645D01*
X133066938Y-105846447D01*
X133114887Y-105863225D01*
X133116495Y-105863592D01*
X133117430Y-105864114D01*
X133121457Y-105865524D01*
X133121210Y-105866228D01*
X133177477Y-105897695D01*
X133210340Y-105959354D01*
X133212441Y-105995292D01*
X133194532Y-106199997D01*
X133194532Y-106200001D01*
X133214364Y-106426686D01*
X133214366Y-106426697D01*
X133273258Y-106646488D01*
X133273261Y-106646497D01*
X133369431Y-106852732D01*
X133369432Y-106852734D01*
X133499954Y-107039141D01*
X133660858Y-107200045D01*
X133660861Y-107200047D01*
X133847266Y-107330568D01*
X134053504Y-107426739D01*
X134273308Y-107485635D01*
X134435230Y-107499801D01*
X134499998Y-107505468D01*
X134500000Y-107505468D01*
X134500002Y-107505468D01*
X134563025Y-107499954D01*
X134726692Y-107485635D01*
X134946496Y-107426739D01*
X135152734Y-107330568D01*
X135339139Y-107200047D01*
X135500047Y-107039139D01*
X135630568Y-106852734D01*
X135726739Y-106646496D01*
X135785635Y-106426692D01*
X135805468Y-106200000D01*
X135785635Y-105973308D01*
X135726739Y-105753504D01*
X135630568Y-105547266D01*
X135500047Y-105360861D01*
X135500045Y-105360858D01*
X135339141Y-105199954D01*
X135152734Y-105069432D01*
X135152728Y-105069429D01*
X135094725Y-105042382D01*
X135042285Y-104996210D01*
X135023133Y-104929017D01*
X135043348Y-104862135D01*
X135094725Y-104817618D01*
X135152734Y-104790568D01*
X135339139Y-104660047D01*
X135500047Y-104499139D01*
X135630568Y-104312734D01*
X135726739Y-104106496D01*
X135785635Y-103886692D01*
X135805468Y-103660000D01*
X135785635Y-103433308D01*
X135726739Y-103213504D01*
X135630568Y-103007266D01*
X135500047Y-102820861D01*
X135500045Y-102820858D01*
X135342559Y-102663372D01*
X135309074Y-102602049D01*
X135309095Y-102598543D01*
X142155885Y-102598543D01*
X142194333Y-102791829D01*
X142194336Y-102791839D01*
X142269750Y-102973907D01*
X142269757Y-102973920D01*
X142379246Y-103137781D01*
X142379249Y-103137785D01*
X142518600Y-103277136D01*
X142518604Y-103277139D01*
X142682465Y-103386628D01*
X142682478Y-103386635D01*
X142864546Y-103462049D01*
X142864551Y-103462051D01*
X142864555Y-103462051D01*
X142864556Y-103462052D01*
X143057842Y-103500500D01*
X143057845Y-103500500D01*
X144534218Y-103500500D01*
X144601257Y-103520185D01*
X144621899Y-103536819D01*
X146225336Y-105140258D01*
X146225340Y-105140261D01*
X146389200Y-105249749D01*
X146389209Y-105249754D01*
X146430455Y-105266838D01*
X146571286Y-105325173D01*
X146750686Y-105360858D01*
X146764576Y-105363621D01*
X146764579Y-105363622D01*
X146764581Y-105363622D01*
X146961664Y-105363622D01*
X146961665Y-105363621D01*
X147154957Y-105325173D01*
X147337036Y-105249753D01*
X147500903Y-105140261D01*
X147640261Y-105000903D01*
X147647803Y-104989615D01*
X148208248Y-104989615D01*
X148208248Y-104989622D01*
X148228443Y-105168868D01*
X148228444Y-105168873D01*
X148288024Y-105339142D01*
X148355367Y-105446317D01*
X148383997Y-105491881D01*
X148511551Y-105619435D01*
X148544280Y-105640000D01*
X148651977Y-105707671D01*
X148664291Y-105715408D01*
X148834558Y-105774987D01*
X148834563Y-105774988D01*
X149013809Y-105795184D01*
X149013813Y-105795184D01*
X149013817Y-105795184D01*
X149193061Y-105774988D01*
X149193061Y-105774987D01*
X149193068Y-105774987D01*
X149250570Y-105754865D01*
X149320343Y-105751303D01*
X149380971Y-105786031D01*
X149393096Y-105800783D01*
X149419956Y-105839143D01*
X149580858Y-106000045D01*
X149689320Y-106075990D01*
X149732945Y-106130566D01*
X149740139Y-106200065D01*
X149723191Y-106243537D01*
X149647923Y-106363325D01*
X149588343Y-106533594D01*
X149588342Y-106533599D01*
X149568147Y-106712845D01*
X149568147Y-106712852D01*
X149588342Y-106892098D01*
X149588343Y-106892103D01*
X149647924Y-107062375D01*
X149731487Y-107195363D01*
X149750488Y-107262599D01*
X149730121Y-107329434D01*
X149691437Y-107365950D01*
X149691701Y-107366327D01*
X149689135Y-107368123D01*
X149688513Y-107368711D01*
X149687275Y-107369425D01*
X149500858Y-107499954D01*
X149339954Y-107660858D01*
X149209432Y-107847265D01*
X149209431Y-107847267D01*
X149113261Y-108053502D01*
X149113258Y-108053511D01*
X149054366Y-108273302D01*
X149054364Y-108273313D01*
X149034532Y-108499998D01*
X149034532Y-108500001D01*
X149054364Y-108726686D01*
X149054366Y-108726697D01*
X149113258Y-108946488D01*
X149113261Y-108946497D01*
X149209431Y-109152732D01*
X149209432Y-109152734D01*
X149339954Y-109339141D01*
X149500858Y-109500045D01*
X149500861Y-109500047D01*
X149687266Y-109630568D01*
X149893504Y-109726739D01*
X150113308Y-109785635D01*
X150275230Y-109799801D01*
X150339998Y-109805468D01*
X150340000Y-109805468D01*
X150340002Y-109805468D01*
X150396673Y-109800509D01*
X150566692Y-109785635D01*
X150786496Y-109726739D01*
X150992734Y-109630568D01*
X151179139Y-109500047D01*
X151340047Y-109339139D01*
X151470568Y-109152734D01*
X151566739Y-108946496D01*
X151625635Y-108726692D01*
X151645468Y-108500000D01*
X151625635Y-108273308D01*
X151619389Y-108249999D01*
X159221127Y-108249999D01*
X159221128Y-108250000D01*
X160184314Y-108250000D01*
X160179920Y-108254394D01*
X160127259Y-108345606D01*
X160100000Y-108447339D01*
X160100000Y-108552661D01*
X160127259Y-108654394D01*
X160179920Y-108745606D01*
X160184314Y-108750000D01*
X159221128Y-108750000D01*
X159273730Y-108946317D01*
X159273734Y-108946326D01*
X159369865Y-109152482D01*
X159500342Y-109338820D01*
X159661179Y-109499657D01*
X159847517Y-109630134D01*
X160053673Y-109726265D01*
X160053682Y-109726269D01*
X160249999Y-109778872D01*
X160250000Y-109778871D01*
X160250000Y-108815686D01*
X160254394Y-108820080D01*
X160345606Y-108872741D01*
X160447339Y-108900000D01*
X160552661Y-108900000D01*
X160654394Y-108872741D01*
X160745606Y-108820080D01*
X160750000Y-108815686D01*
X160750000Y-109778872D01*
X160946317Y-109726269D01*
X160946326Y-109726265D01*
X161152482Y-109630134D01*
X161338820Y-109499657D01*
X161499657Y-109338820D01*
X161630134Y-109152482D01*
X161726265Y-108946326D01*
X161726269Y-108946317D01*
X161778872Y-108750000D01*
X160815686Y-108750000D01*
X160820080Y-108745606D01*
X160872741Y-108654394D01*
X160900000Y-108552661D01*
X160900000Y-108447339D01*
X160872741Y-108345606D01*
X160820080Y-108254394D01*
X160815686Y-108250000D01*
X161778872Y-108250000D01*
X161778872Y-108249999D01*
X161726269Y-108053682D01*
X161726265Y-108053673D01*
X161630134Y-107847517D01*
X161499657Y-107661179D01*
X161338820Y-107500342D01*
X161152482Y-107369865D01*
X160946328Y-107273734D01*
X160750000Y-107221127D01*
X160750000Y-108184314D01*
X160745606Y-108179920D01*
X160654394Y-108127259D01*
X160552661Y-108100000D01*
X160447339Y-108100000D01*
X160345606Y-108127259D01*
X160254394Y-108179920D01*
X160250000Y-108184314D01*
X160250000Y-107221127D01*
X160053671Y-107273734D01*
X159847517Y-107369865D01*
X159661179Y-107500342D01*
X159500342Y-107661179D01*
X159369865Y-107847517D01*
X159273734Y-108053673D01*
X159273730Y-108053682D01*
X159221127Y-108249999D01*
X151619389Y-108249999D01*
X151566739Y-108053504D01*
X151470568Y-107847266D01*
X151340047Y-107660861D01*
X151340045Y-107660858D01*
X151179141Y-107499954D01*
X151028802Y-107394687D01*
X150985177Y-107340111D01*
X150977983Y-107270612D01*
X151000431Y-107221389D01*
X150999823Y-107221007D01*
X151002679Y-107216460D01*
X151002986Y-107215789D01*
X151003519Y-107215119D01*
X151003528Y-107215111D01*
X151099501Y-107062371D01*
X151159080Y-106892104D01*
X151179277Y-106712849D01*
X151171782Y-106646331D01*
X151159081Y-106533599D01*
X151159080Y-106533594D01*
X151121671Y-106426686D01*
X151099501Y-106363327D01*
X151052518Y-106288554D01*
X151033518Y-106221318D01*
X151053886Y-106154482D01*
X151086389Y-106121007D01*
X151194073Y-106045606D01*
X151259139Y-106000047D01*
X151420047Y-105839139D01*
X151488808Y-105740935D01*
X151543385Y-105697310D01*
X151612883Y-105690116D01*
X151631339Y-105695017D01*
X151741205Y-105733461D01*
X151741211Y-105733462D01*
X151741213Y-105733463D01*
X151741214Y-105733463D01*
X151741218Y-105733464D01*
X151920464Y-105753660D01*
X151920468Y-105753660D01*
X151920472Y-105753660D01*
X152099717Y-105733464D01*
X152099720Y-105733463D01*
X152099723Y-105733463D01*
X152269990Y-105673884D01*
X152422730Y-105577911D01*
X152550284Y-105450357D01*
X152646257Y-105297617D01*
X152705836Y-105127350D01*
X152705837Y-105127344D01*
X152726033Y-104948098D01*
X152726033Y-104948091D01*
X152705837Y-104768845D01*
X152705836Y-104768840D01*
X152699243Y-104749999D01*
X159141127Y-104749999D01*
X159141128Y-104750000D01*
X160104314Y-104750000D01*
X160099920Y-104754394D01*
X160047259Y-104845606D01*
X160020000Y-104947339D01*
X160020000Y-105052661D01*
X160047259Y-105154394D01*
X160099920Y-105245606D01*
X160104314Y-105250000D01*
X159141128Y-105250000D01*
X159193730Y-105446317D01*
X159193734Y-105446326D01*
X159289865Y-105652482D01*
X159420342Y-105838820D01*
X159581179Y-105999657D01*
X159767517Y-106130134D01*
X159973673Y-106226265D01*
X159973682Y-106226269D01*
X160169999Y-106278872D01*
X160170000Y-106278871D01*
X160170000Y-105315686D01*
X160174394Y-105320080D01*
X160265606Y-105372741D01*
X160367339Y-105400000D01*
X160472661Y-105400000D01*
X160574394Y-105372741D01*
X160665606Y-105320080D01*
X160670000Y-105315686D01*
X160670000Y-106278872D01*
X160866317Y-106226269D01*
X160866326Y-106226265D01*
X161072482Y-106130134D01*
X161258820Y-105999657D01*
X161419657Y-105838820D01*
X161550134Y-105652482D01*
X161646265Y-105446326D01*
X161646269Y-105446317D01*
X161698872Y-105250000D01*
X160735686Y-105250000D01*
X160740080Y-105245606D01*
X160792741Y-105154394D01*
X160820000Y-105052661D01*
X160820000Y-104947339D01*
X160792741Y-104845606D01*
X160740080Y-104754394D01*
X160735686Y-104750000D01*
X161698872Y-104750000D01*
X161698872Y-104749999D01*
X161646269Y-104553682D01*
X161646265Y-104553673D01*
X161550134Y-104347517D01*
X161419657Y-104161179D01*
X161258820Y-104000342D01*
X161072482Y-103869865D01*
X160866328Y-103773734D01*
X160670000Y-103721127D01*
X160670000Y-104684314D01*
X160665606Y-104679920D01*
X160574394Y-104627259D01*
X160472661Y-104600000D01*
X160367339Y-104600000D01*
X160265606Y-104627259D01*
X160174394Y-104679920D01*
X160170000Y-104684314D01*
X160170000Y-103721127D01*
X159973671Y-103773734D01*
X159767517Y-103869865D01*
X159581179Y-104000342D01*
X159420342Y-104161179D01*
X159289865Y-104347517D01*
X159193734Y-104553673D01*
X159193730Y-104553682D01*
X159141127Y-104749999D01*
X152699243Y-104749999D01*
X152680128Y-104695372D01*
X152646257Y-104598573D01*
X152639309Y-104587516D01*
X152576375Y-104487357D01*
X152550284Y-104445833D01*
X152422730Y-104318279D01*
X152381684Y-104292488D01*
X152269991Y-104222306D01*
X152099722Y-104162726D01*
X152099717Y-104162725D01*
X151920472Y-104142530D01*
X151920464Y-104142530D01*
X151741218Y-104162725D01*
X151741210Y-104162727D01*
X151572955Y-104221602D01*
X151503176Y-104225163D01*
X151442549Y-104190434D01*
X151430426Y-104175684D01*
X151430067Y-104175172D01*
X151420047Y-104160861D01*
X151420045Y-104160859D01*
X151420043Y-104160856D01*
X151259141Y-103999954D01*
X151072734Y-103869432D01*
X151072732Y-103869431D01*
X150866497Y-103773261D01*
X150866488Y-103773258D01*
X150646697Y-103714366D01*
X150646693Y-103714365D01*
X150646692Y-103714365D01*
X150646691Y-103714364D01*
X150646686Y-103714364D01*
X150420002Y-103694532D01*
X150419998Y-103694532D01*
X150193313Y-103714364D01*
X150193302Y-103714366D01*
X149973511Y-103773258D01*
X149973502Y-103773261D01*
X149767267Y-103869431D01*
X149767265Y-103869432D01*
X149580862Y-103999951D01*
X149419951Y-104160863D01*
X149404771Y-104182542D01*
X149350192Y-104226165D01*
X149280694Y-104233356D01*
X149262246Y-104228457D01*
X149193068Y-104204251D01*
X149193067Y-104204250D01*
X149193065Y-104204250D01*
X149193059Y-104204249D01*
X149013817Y-104184054D01*
X149013809Y-104184054D01*
X148834563Y-104204249D01*
X148834558Y-104204250D01*
X148664289Y-104263830D01*
X148511550Y-104359803D01*
X148383997Y-104487356D01*
X148288024Y-104640095D01*
X148228444Y-104810364D01*
X148228443Y-104810369D01*
X148208248Y-104989615D01*
X147647803Y-104989615D01*
X147749753Y-104837036D01*
X147825173Y-104654957D01*
X147863622Y-104461662D01*
X147863622Y-104264581D01*
X147863622Y-104264578D01*
X147863621Y-104264576D01*
X147856436Y-104228457D01*
X147825173Y-104071286D01*
X147758369Y-103910007D01*
X147749754Y-103889209D01*
X147749749Y-103889200D01*
X147640261Y-103725340D01*
X147640258Y-103725336D01*
X145784209Y-101869289D01*
X145784206Y-101869285D01*
X145784206Y-101869286D01*
X145777139Y-101862219D01*
X145777139Y-101862218D01*
X145637782Y-101722861D01*
X145637781Y-101722860D01*
X145637780Y-101722859D01*
X145473920Y-101613371D01*
X145473907Y-101613364D01*
X145312596Y-101546548D01*
X145291838Y-101537950D01*
X145291836Y-101537949D01*
X145291834Y-101537948D01*
X145291833Y-101537948D01*
X145291829Y-101537946D01*
X145195188Y-101518724D01*
X145101048Y-101499998D01*
X149034532Y-101499998D01*
X149034532Y-101500001D01*
X149054364Y-101726686D01*
X149054366Y-101726697D01*
X149113258Y-101946488D01*
X149113261Y-101946497D01*
X149209431Y-102152732D01*
X149209432Y-102152734D01*
X149339954Y-102339141D01*
X149500858Y-102500045D01*
X149543017Y-102529565D01*
X149687266Y-102630568D01*
X149893504Y-102726739D01*
X150113308Y-102785635D01*
X150275230Y-102799801D01*
X150339998Y-102805468D01*
X150340000Y-102805468D01*
X150340002Y-102805468D01*
X150396673Y-102800509D01*
X150566692Y-102785635D01*
X150786496Y-102726739D01*
X150992734Y-102630568D01*
X151164388Y-102510376D01*
X158696151Y-102510376D01*
X158696151Y-102510383D01*
X158716346Y-102689629D01*
X158716347Y-102689634D01*
X158775927Y-102859903D01*
X158847569Y-102973920D01*
X158871900Y-103012642D01*
X158999454Y-103140196D01*
X159152194Y-103236169D01*
X159269271Y-103277136D01*
X159322461Y-103295748D01*
X159322466Y-103295749D01*
X159501712Y-103315945D01*
X159501716Y-103315945D01*
X159501720Y-103315945D01*
X159680965Y-103295749D01*
X159680968Y-103295748D01*
X159680971Y-103295748D01*
X159851238Y-103236169D01*
X160003978Y-103140196D01*
X160131532Y-103012642D01*
X160227505Y-102859902D01*
X160227505Y-102859900D01*
X160231210Y-102854005D01*
X160232806Y-102855008D01*
X160273307Y-102810136D01*
X160340731Y-102791812D01*
X160349007Y-102792257D01*
X160483954Y-102804064D01*
X160499999Y-102805468D01*
X160500000Y-102805468D01*
X160500002Y-102805468D01*
X160556673Y-102800509D01*
X160726692Y-102785635D01*
X160946496Y-102726739D01*
X161152734Y-102630568D01*
X161339139Y-102500047D01*
X161500047Y-102339139D01*
X161630568Y-102152734D01*
X161726739Y-101946496D01*
X161785635Y-101726692D01*
X161805468Y-101500000D01*
X161785635Y-101273308D01*
X161726739Y-101053504D01*
X161630568Y-100847266D01*
X161517736Y-100686124D01*
X161500045Y-100660858D01*
X161339141Y-100499954D01*
X161152734Y-100369432D01*
X161152732Y-100369431D01*
X160946497Y-100273261D01*
X160946488Y-100273258D01*
X160726697Y-100214366D01*
X160726693Y-100214365D01*
X160726692Y-100214365D01*
X160726691Y-100214364D01*
X160726686Y-100214364D01*
X160500002Y-100194532D01*
X160499998Y-100194532D01*
X160273313Y-100214364D01*
X160273302Y-100214366D01*
X160053511Y-100273258D01*
X160053502Y-100273261D01*
X159847267Y-100369431D01*
X159847265Y-100369432D01*
X159660858Y-100499954D01*
X159499954Y-100660858D01*
X159369432Y-100847265D01*
X159369431Y-100847267D01*
X159273261Y-101053502D01*
X159273258Y-101053511D01*
X159214366Y-101273302D01*
X159214364Y-101273313D01*
X159194532Y-101499998D01*
X159194532Y-101500002D01*
X159209322Y-101669058D01*
X159195555Y-101737558D01*
X159151767Y-101784858D01*
X158999455Y-101880562D01*
X158871900Y-102008117D01*
X158775927Y-102160856D01*
X158716347Y-102331125D01*
X158716346Y-102331130D01*
X158696151Y-102510376D01*
X151164388Y-102510376D01*
X151179139Y-102500047D01*
X151340047Y-102339139D01*
X151417707Y-102228226D01*
X151472282Y-102184603D01*
X151541780Y-102177409D01*
X151585256Y-102194359D01*
X151589908Y-102197282D01*
X151760175Y-102256861D01*
X151760180Y-102256862D01*
X151939426Y-102277058D01*
X151939430Y-102277058D01*
X151939434Y-102277058D01*
X152118679Y-102256862D01*
X152118682Y-102256861D01*
X152118685Y-102256861D01*
X152288952Y-102197282D01*
X152441692Y-102101309D01*
X152569246Y-101973755D01*
X152665219Y-101821015D01*
X152724798Y-101650748D01*
X152724799Y-101650742D01*
X152744995Y-101471496D01*
X152744995Y-101471489D01*
X152724799Y-101292243D01*
X152724798Y-101292238D01*
X152665218Y-101121969D01*
X152569245Y-100969230D01*
X152441692Y-100841677D01*
X152288953Y-100745704D01*
X152118684Y-100686124D01*
X152118679Y-100686123D01*
X151939434Y-100665928D01*
X151939426Y-100665928D01*
X151760180Y-100686123D01*
X151760167Y-100686126D01*
X151589910Y-100745702D01*
X151557528Y-100766049D01*
X151490291Y-100785048D01*
X151423457Y-100764679D01*
X151389983Y-100732177D01*
X151340045Y-100660858D01*
X151179141Y-100499954D01*
X150992734Y-100369432D01*
X150992732Y-100369431D01*
X150786497Y-100273261D01*
X150786488Y-100273258D01*
X150566697Y-100214366D01*
X150566693Y-100214365D01*
X150566692Y-100214365D01*
X150566691Y-100214364D01*
X150566686Y-100214364D01*
X150340002Y-100194532D01*
X150339998Y-100194532D01*
X150113313Y-100214364D01*
X150113302Y-100214366D01*
X149893511Y-100273258D01*
X149893502Y-100273261D01*
X149687267Y-100369431D01*
X149687265Y-100369432D01*
X149500858Y-100499954D01*
X149339954Y-100660858D01*
X149209432Y-100847265D01*
X149209431Y-100847267D01*
X149113261Y-101053502D01*
X149113258Y-101053511D01*
X149054366Y-101273302D01*
X149054364Y-101273313D01*
X149034532Y-101499998D01*
X145101048Y-101499998D01*
X145098544Y-101499500D01*
X145098541Y-101499500D01*
X143057845Y-101499500D01*
X143057843Y-101499500D01*
X142864556Y-101537947D01*
X142864546Y-101537950D01*
X142682478Y-101613364D01*
X142682465Y-101613371D01*
X142518604Y-101722860D01*
X142518600Y-101722863D01*
X142379249Y-101862214D01*
X142379246Y-101862218D01*
X142269757Y-102026079D01*
X142269750Y-102026092D01*
X142194336Y-102208160D01*
X142194333Y-102208170D01*
X142155886Y-102401456D01*
X142155886Y-102401459D01*
X142155886Y-102598541D01*
X142155886Y-102598543D01*
X142155885Y-102598543D01*
X135309095Y-102598543D01*
X135309320Y-102561857D01*
X135307067Y-102561604D01*
X135328043Y-102375432D01*
X135328043Y-102375426D01*
X135309992Y-102215220D01*
X135322046Y-102146398D01*
X135345528Y-102113657D01*
X135500047Y-101959139D01*
X135630568Y-101772734D01*
X135726739Y-101566496D01*
X135785635Y-101346692D01*
X135805468Y-101120000D01*
X135785635Y-100893308D01*
X135726739Y-100673504D01*
X135630568Y-100467266D01*
X135500047Y-100280861D01*
X135500045Y-100280858D01*
X135341228Y-100122041D01*
X135307743Y-100060718D01*
X135311867Y-99993407D01*
X135318227Y-99975234D01*
X135327893Y-99889446D01*
X135338424Y-99795982D01*
X135338424Y-99795975D01*
X135323317Y-99661894D01*
X135335372Y-99593072D01*
X135358853Y-99560332D01*
X135500047Y-99419139D01*
X135630568Y-99232734D01*
X135726739Y-99026496D01*
X135785635Y-98806692D01*
X135805468Y-98580000D01*
X135785635Y-98353308D01*
X135726739Y-98133504D01*
X135678025Y-98029039D01*
X135667534Y-97959963D01*
X135696054Y-97896179D01*
X135754530Y-97857939D01*
X135776524Y-97853414D01*
X135784945Y-97852466D01*
X135955212Y-97792887D01*
X136107952Y-97696914D01*
X136235506Y-97569360D01*
X136331479Y-97416620D01*
X136333795Y-97410000D01*
X141119117Y-97410000D01*
X142124722Y-97410000D01*
X142080667Y-97486306D01*
X142050000Y-97600756D01*
X142050000Y-97719244D01*
X142080667Y-97833694D01*
X142124722Y-97910000D01*
X141119117Y-97910000D01*
X141171317Y-98116135D01*
X141264516Y-98328609D01*
X141391414Y-98522842D01*
X141548558Y-98693545D01*
X141548562Y-98693548D01*
X141731644Y-98836047D01*
X141731648Y-98836050D01*
X141935697Y-98946476D01*
X141935706Y-98946479D01*
X142155139Y-99021811D01*
X142249999Y-99037640D01*
X142250000Y-99037639D01*
X142250000Y-98035277D01*
X142326306Y-98079333D01*
X142440756Y-98110000D01*
X142559244Y-98110000D01*
X142673694Y-98079333D01*
X142750000Y-98035277D01*
X142750000Y-99037640D01*
X142844860Y-99021811D01*
X143064293Y-98946479D01*
X143064302Y-98946476D01*
X143268351Y-98836050D01*
X143268355Y-98836047D01*
X143326999Y-98790402D01*
X154247137Y-98790402D01*
X154247137Y-98987491D01*
X154285584Y-99180775D01*
X154285586Y-99180783D01*
X154361004Y-99362857D01*
X154361009Y-99362867D01*
X154470497Y-99526727D01*
X154470500Y-99526731D01*
X154609852Y-99666083D01*
X154609856Y-99666086D01*
X154773716Y-99775574D01*
X154773720Y-99775576D01*
X154773723Y-99775578D01*
X154955801Y-99850998D01*
X155149092Y-99889446D01*
X155149095Y-99889447D01*
X155149097Y-99889447D01*
X155346179Y-99889447D01*
X155346180Y-99889446D01*
X155539473Y-99850998D01*
X155721551Y-99775578D01*
X155885418Y-99666086D01*
X158375329Y-97176174D01*
X158375333Y-97176172D01*
X158514690Y-97036815D01*
X158624183Y-96872947D01*
X158699602Y-96690868D01*
X158724672Y-96564835D01*
X158738051Y-96497576D01*
X158738051Y-90953094D01*
X158757736Y-90886055D01*
X158774366Y-90865417D01*
X159083323Y-90556459D01*
X159144646Y-90522975D01*
X159214338Y-90527959D01*
X159270271Y-90569831D01*
X159294688Y-90635295D01*
X159295004Y-90644141D01*
X159295004Y-92146118D01*
X159295005Y-92146124D01*
X159301412Y-92205731D01*
X159351706Y-92340576D01*
X159351710Y-92340583D01*
X159437956Y-92455792D01*
X159437959Y-92455795D01*
X159553168Y-92542041D01*
X159553175Y-92542045D01*
X159688021Y-92592339D01*
X159688020Y-92592339D01*
X159694948Y-92593083D01*
X159747631Y-92598748D01*
X160883274Y-92598747D01*
X160950313Y-92618432D01*
X160970955Y-92635066D01*
X161050453Y-92714564D01*
X161067765Y-92736272D01*
X161158885Y-92881288D01*
X161286439Y-93008842D01*
X161361672Y-93056114D01*
X161431451Y-93099959D01*
X161453160Y-93117272D01*
X161832452Y-93496563D01*
X162068718Y-93732829D01*
X162068719Y-93732830D01*
X162155883Y-93819994D01*
X162173255Y-93837366D01*
X162296168Y-93919494D01*
X162296181Y-93919501D01*
X162361356Y-93946497D01*
X162432757Y-93976072D01*
X162432761Y-93976072D01*
X162432762Y-93976073D01*
X162577749Y-94004914D01*
X162577752Y-94004914D01*
X166217412Y-94004914D01*
X166314954Y-93985510D01*
X166362405Y-93976072D01*
X166498987Y-93919498D01*
X166548221Y-93886600D01*
X166549380Y-93885826D01*
X166572563Y-93870335D01*
X166621908Y-93837366D01*
X168613144Y-91846130D01*
X168664759Y-91768881D01*
X168695276Y-91723209D01*
X168734495Y-91628526D01*
X168741037Y-91612734D01*
X168743986Y-91605611D01*
X168751851Y-91586626D01*
X168775614Y-91467160D01*
X168780692Y-91441632D01*
X168780692Y-90525759D01*
X168800377Y-90458720D01*
X168817011Y-90438078D01*
X169267285Y-89987804D01*
X169720137Y-89534951D01*
X169781458Y-89501468D01*
X169848772Y-89505593D01*
X169862263Y-89510314D01*
X169862273Y-89510316D01*
X170041519Y-89530512D01*
X170041523Y-89530512D01*
X170041527Y-89530512D01*
X170220772Y-89510316D01*
X170220774Y-89510315D01*
X170220778Y-89510315D01*
X170220781Y-89510313D01*
X170220785Y-89510313D01*
X170257521Y-89497459D01*
X170298476Y-89490500D01*
X170312299Y-89490500D01*
X170379338Y-89510185D01*
X170413873Y-89543376D01*
X170461505Y-89611401D01*
X170628597Y-89778493D01*
X170628603Y-89778498D01*
X170706697Y-89833180D01*
X170808061Y-89904156D01*
X170814594Y-89908730D01*
X170858219Y-89963307D01*
X170865413Y-90032805D01*
X170833890Y-90095160D01*
X170814595Y-90111880D01*
X170628922Y-90241890D01*
X170628920Y-90241891D01*
X170461891Y-90408920D01*
X170461886Y-90408926D01*
X170326400Y-90602420D01*
X170326399Y-90602422D01*
X170226570Y-90816507D01*
X170226567Y-90816513D01*
X170169364Y-91029999D01*
X170169364Y-91030000D01*
X171066988Y-91030000D01*
X171034075Y-91087007D01*
X171000000Y-91214174D01*
X171000000Y-91345826D01*
X171034075Y-91472993D01*
X171066988Y-91530000D01*
X170169364Y-91530000D01*
X170226567Y-91743486D01*
X170226570Y-91743492D01*
X170326399Y-91957578D01*
X170461894Y-92151082D01*
X170628917Y-92318105D01*
X170815031Y-92448425D01*
X170858656Y-92503003D01*
X170865848Y-92572501D01*
X170834326Y-92634856D01*
X170815031Y-92651575D01*
X170628922Y-92781890D01*
X170628920Y-92781891D01*
X170461891Y-92948920D01*
X170461886Y-92948926D01*
X170326400Y-93142420D01*
X170326399Y-93142422D01*
X170226570Y-93356507D01*
X170226567Y-93356513D01*
X170169364Y-93569999D01*
X170169364Y-93570000D01*
X171066988Y-93570000D01*
X171034075Y-93627007D01*
X171000000Y-93754174D01*
X171000000Y-93885826D01*
X171034075Y-94012993D01*
X171066988Y-94070000D01*
X170169364Y-94070000D01*
X170226567Y-94283484D01*
X170226570Y-94283492D01*
X170326399Y-94497578D01*
X170461894Y-94691082D01*
X170628917Y-94858105D01*
X170815031Y-94988425D01*
X170858656Y-95043003D01*
X170865848Y-95112501D01*
X170834326Y-95174856D01*
X170815031Y-95191575D01*
X170628922Y-95321890D01*
X170628920Y-95321891D01*
X170461891Y-95488920D01*
X170461886Y-95488926D01*
X170326400Y-95682420D01*
X170326399Y-95682422D01*
X170226570Y-95896507D01*
X170226567Y-95896513D01*
X170169364Y-96109999D01*
X170169364Y-96110000D01*
X171066988Y-96110000D01*
X171034075Y-96167007D01*
X171000000Y-96294174D01*
X171000000Y-96425826D01*
X171034075Y-96552993D01*
X171066988Y-96610000D01*
X170169364Y-96610000D01*
X170226567Y-96823486D01*
X170226570Y-96823492D01*
X170326399Y-97037578D01*
X170461894Y-97231082D01*
X170628917Y-97398105D01*
X170822421Y-97533600D01*
X171036507Y-97633429D01*
X171036516Y-97633433D01*
X171250000Y-97690634D01*
X171250000Y-96793012D01*
X171307007Y-96825925D01*
X171434174Y-96860000D01*
X171565826Y-96860000D01*
X171692993Y-96825925D01*
X171750000Y-96793012D01*
X171750000Y-97690633D01*
X171963483Y-97633433D01*
X171963492Y-97633429D01*
X172177578Y-97533600D01*
X172371082Y-97398105D01*
X172538107Y-97231080D01*
X172577120Y-97175364D01*
X172631696Y-97131739D01*
X172701194Y-97124545D01*
X172763549Y-97156067D01*
X172782503Y-97178665D01*
X172851832Y-97284780D01*
X172851834Y-97284782D01*
X172851836Y-97284785D01*
X173020256Y-97467738D01*
X173216491Y-97620474D01*
X173435190Y-97738828D01*
X173670386Y-97819571D01*
X173915665Y-97860500D01*
X174164335Y-97860500D01*
X174409614Y-97819571D01*
X174644810Y-97738828D01*
X174863509Y-97620474D01*
X175059744Y-97467738D01*
X175228164Y-97284785D01*
X175364173Y-97076607D01*
X175464063Y-96848881D01*
X175525108Y-96607821D01*
X175534243Y-96497576D01*
X175545643Y-96360005D01*
X175545643Y-96359994D01*
X175525109Y-96112187D01*
X175525107Y-96112175D01*
X175464063Y-95871118D01*
X175364173Y-95643393D01*
X175228166Y-95435217D01*
X175184023Y-95387265D01*
X175059744Y-95252262D01*
X174976991Y-95187852D01*
X174936179Y-95131143D01*
X174932504Y-95061370D01*
X174967136Y-95000687D01*
X174976985Y-94992151D01*
X175059744Y-94927738D01*
X175228164Y-94744785D01*
X175364173Y-94536607D01*
X175464063Y-94308881D01*
X175525108Y-94067821D01*
X175530825Y-93998829D01*
X175545643Y-93820005D01*
X175545643Y-93819994D01*
X175525109Y-93572187D01*
X175525107Y-93572175D01*
X175464063Y-93331118D01*
X175364173Y-93103393D01*
X175228166Y-92895217D01*
X175166216Y-92827922D01*
X175059744Y-92712262D01*
X174976991Y-92647852D01*
X174936179Y-92591143D01*
X174932504Y-92521370D01*
X174967136Y-92460687D01*
X174976985Y-92452151D01*
X175059744Y-92387738D01*
X175228164Y-92204785D01*
X175228810Y-92203797D01*
X175254947Y-92163791D01*
X175364173Y-91996607D01*
X175464063Y-91768881D01*
X175525108Y-91527821D01*
X175529707Y-91472317D01*
X175545643Y-91280005D01*
X175545643Y-91279994D01*
X175525109Y-91032187D01*
X175525107Y-91032175D01*
X175464063Y-90791118D01*
X175364173Y-90563393D01*
X175228166Y-90355217D01*
X175184023Y-90307265D01*
X175059744Y-90172262D01*
X174976991Y-90107852D01*
X174936179Y-90051143D01*
X174932504Y-89981370D01*
X174967136Y-89920687D01*
X174976985Y-89912151D01*
X175059744Y-89847738D01*
X175228164Y-89664785D01*
X175364173Y-89456607D01*
X175464063Y-89228881D01*
X175525108Y-88987821D01*
X175526095Y-88975909D01*
X175545643Y-88740005D01*
X175545643Y-88739994D01*
X175525109Y-88492187D01*
X175525107Y-88492175D01*
X175464063Y-88251118D01*
X175364173Y-88023393D01*
X175228166Y-87815217D01*
X175186984Y-87770482D01*
X175059744Y-87632262D01*
X174976991Y-87567852D01*
X174936179Y-87511143D01*
X174932504Y-87441370D01*
X174967136Y-87380687D01*
X174976985Y-87372151D01*
X175059744Y-87307738D01*
X175228164Y-87124785D01*
X175364173Y-86916607D01*
X175464063Y-86688881D01*
X175525108Y-86447821D01*
X175526139Y-86435383D01*
X175545643Y-86200005D01*
X175545643Y-86199994D01*
X175525109Y-85952187D01*
X175525107Y-85952175D01*
X175464063Y-85711118D01*
X175364173Y-85483393D01*
X175228166Y-85275217D01*
X175158463Y-85199500D01*
X175059744Y-85092262D01*
X174976991Y-85027852D01*
X174936179Y-84971143D01*
X174932504Y-84901370D01*
X174967136Y-84840687D01*
X174976985Y-84832151D01*
X175059744Y-84767738D01*
X175228164Y-84584785D01*
X175364173Y-84376607D01*
X175464063Y-84148881D01*
X175525108Y-83907821D01*
X175526137Y-83895403D01*
X175545643Y-83660005D01*
X175545643Y-83659994D01*
X175525109Y-83412187D01*
X175525107Y-83412175D01*
X175464063Y-83171118D01*
X175364173Y-82943393D01*
X175228166Y-82735217D01*
X175153763Y-82654394D01*
X175059744Y-82552262D01*
X174976991Y-82487852D01*
X174936179Y-82431143D01*
X174932504Y-82361370D01*
X174967136Y-82300687D01*
X174976985Y-82292151D01*
X175059744Y-82227738D01*
X175228164Y-82044785D01*
X175364173Y-81836607D01*
X175464063Y-81608881D01*
X175525108Y-81367821D01*
X175527511Y-81338820D01*
X175545643Y-81120005D01*
X175545643Y-81119994D01*
X175525109Y-80872187D01*
X175525107Y-80872175D01*
X175464063Y-80631118D01*
X175364173Y-80403393D01*
X175228166Y-80195217D01*
X175140512Y-80100000D01*
X175059744Y-80012262D01*
X174976991Y-79947852D01*
X174936179Y-79891143D01*
X174932504Y-79821370D01*
X174967136Y-79760687D01*
X174976985Y-79752151D01*
X175059744Y-79687738D01*
X175228164Y-79504785D01*
X175364173Y-79296607D01*
X175464063Y-79068881D01*
X175525108Y-78827821D01*
X175545643Y-78580000D01*
X175525108Y-78332179D01*
X175464063Y-78091119D01*
X175364173Y-77863393D01*
X175326833Y-77806239D01*
X175228166Y-77655217D01*
X175174947Y-77597406D01*
X175059744Y-77472262D01*
X174976991Y-77407852D01*
X174936179Y-77351143D01*
X174932504Y-77281370D01*
X174967136Y-77220687D01*
X174976985Y-77212151D01*
X175059744Y-77147738D01*
X175228164Y-76964785D01*
X175364173Y-76756607D01*
X175464063Y-76528881D01*
X175525108Y-76287821D01*
X175541279Y-76092665D01*
X175545643Y-76040005D01*
X175545643Y-76039994D01*
X175525109Y-75792187D01*
X175525107Y-75792175D01*
X175464063Y-75551118D01*
X175364173Y-75323393D01*
X175228166Y-75115217D01*
X175206557Y-75091744D01*
X175059744Y-74932262D01*
X174976991Y-74867852D01*
X174936179Y-74811143D01*
X174932504Y-74741370D01*
X174967136Y-74680687D01*
X174976985Y-74672151D01*
X175059744Y-74607738D01*
X175228164Y-74424785D01*
X175364173Y-74216607D01*
X175464063Y-73988881D01*
X175525108Y-73747821D01*
X175525109Y-73747812D01*
X175545643Y-73500005D01*
X175545643Y-73499994D01*
X175525109Y-73252187D01*
X175525107Y-73252175D01*
X175464063Y-73011118D01*
X175364173Y-72783393D01*
X175228166Y-72575217D01*
X175149718Y-72490000D01*
X175059744Y-72392262D01*
X174863509Y-72239526D01*
X174863507Y-72239525D01*
X174863506Y-72239524D01*
X174644811Y-72121172D01*
X174644802Y-72121169D01*
X174409616Y-72040429D01*
X174164335Y-71999500D01*
X173915665Y-71999500D01*
X173670383Y-72040429D01*
X173435197Y-72121169D01*
X173435188Y-72121172D01*
X173216493Y-72239524D01*
X173020256Y-72392262D01*
X172989987Y-72425142D01*
X172930099Y-72461131D01*
X172860261Y-72459029D01*
X172802646Y-72419504D01*
X172799347Y-72414592D01*
X172799112Y-72414769D01*
X172707547Y-72292455D01*
X172707544Y-72292452D01*
X172592335Y-72206206D01*
X172592328Y-72206202D01*
X172457482Y-72155908D01*
X172457483Y-72155908D01*
X172397883Y-72149501D01*
X172397881Y-72149500D01*
X172397873Y-72149500D01*
X172397864Y-72149500D01*
X170602129Y-72149500D01*
X170602123Y-72149501D01*
X170542516Y-72155908D01*
X170407671Y-72206202D01*
X170407664Y-72206206D01*
X170292455Y-72292452D01*
X170292452Y-72292455D01*
X170206206Y-72407664D01*
X170206202Y-72407671D01*
X170155908Y-72542517D01*
X170149501Y-72602116D01*
X170149500Y-72602135D01*
X170149500Y-74397870D01*
X170149501Y-74397876D01*
X170155908Y-74457483D01*
X170206202Y-74592328D01*
X170206206Y-74592335D01*
X170292452Y-74707544D01*
X170292455Y-74707547D01*
X170407664Y-74793793D01*
X170407671Y-74793797D01*
X170539081Y-74842810D01*
X170595015Y-74884681D01*
X170619432Y-74950145D01*
X170604580Y-75018418D01*
X170583430Y-75046673D01*
X170461503Y-75168600D01*
X170325965Y-75362169D01*
X170325964Y-75362171D01*
X170226098Y-75576335D01*
X170226094Y-75576344D01*
X170164938Y-75804586D01*
X170164937Y-75804593D01*
X170144341Y-76039999D01*
X170144341Y-76040000D01*
X170164936Y-76275403D01*
X170164938Y-76275413D01*
X170226094Y-76503655D01*
X170226096Y-76503659D01*
X170226097Y-76503663D01*
X170256709Y-76569310D01*
X170325965Y-76717830D01*
X170325967Y-76717834D01*
X170418005Y-76849277D01*
X170461501Y-76911396D01*
X170461506Y-76911402D01*
X170628597Y-77078493D01*
X170628603Y-77078498D01*
X170814158Y-77208425D01*
X170857783Y-77263002D01*
X170864977Y-77332500D01*
X170833454Y-77394855D01*
X170814158Y-77411575D01*
X170628597Y-77541505D01*
X170461505Y-77708597D01*
X170325965Y-77902169D01*
X170325964Y-77902171D01*
X170226098Y-78116335D01*
X170226094Y-78116344D01*
X170164938Y-78344586D01*
X170164936Y-78344596D01*
X170144341Y-78579999D01*
X170144341Y-78580000D01*
X170164936Y-78815403D01*
X170164938Y-78815413D01*
X170226094Y-79043655D01*
X170226096Y-79043659D01*
X170226097Y-79043663D01*
X170308850Y-79221127D01*
X170325965Y-79257830D01*
X170325967Y-79257834D01*
X170387000Y-79344997D01*
X170461501Y-79451396D01*
X170461506Y-79451402D01*
X170628597Y-79618493D01*
X170628603Y-79618498D01*
X170814158Y-79748425D01*
X170857783Y-79803002D01*
X170864977Y-79872500D01*
X170833454Y-79934855D01*
X170814158Y-79951575D01*
X170628597Y-80081505D01*
X170461505Y-80248597D01*
X170325965Y-80442169D01*
X170325964Y-80442171D01*
X170226098Y-80656335D01*
X170226094Y-80656344D01*
X170164938Y-80884586D01*
X170164936Y-80884596D01*
X170144341Y-81119999D01*
X170144341Y-81120000D01*
X170164936Y-81355403D01*
X170164938Y-81355413D01*
X170226094Y-81583655D01*
X170226096Y-81583659D01*
X170226097Y-81583663D01*
X170300793Y-81743849D01*
X170325965Y-81797830D01*
X170325967Y-81797834D01*
X170427579Y-81942950D01*
X170461501Y-81991396D01*
X170461506Y-81991402D01*
X170628597Y-82158493D01*
X170628603Y-82158498D01*
X170814158Y-82288425D01*
X170857783Y-82343002D01*
X170864977Y-82412500D01*
X170833454Y-82474855D01*
X170814158Y-82491575D01*
X170628597Y-82621505D01*
X170461505Y-82788597D01*
X170325965Y-82982169D01*
X170325964Y-82982171D01*
X170226098Y-83196335D01*
X170226094Y-83196344D01*
X170164938Y-83424586D01*
X170164936Y-83424596D01*
X170144341Y-83659999D01*
X170144341Y-83660000D01*
X170164936Y-83895403D01*
X170164938Y-83895413D01*
X170226094Y-84123655D01*
X170226096Y-84123659D01*
X170226097Y-84123663D01*
X170296446Y-84274526D01*
X170325965Y-84337830D01*
X170325967Y-84337834D01*
X170387000Y-84424997D01*
X170461501Y-84531396D01*
X170461506Y-84531402D01*
X170628597Y-84698493D01*
X170628603Y-84698498D01*
X170814158Y-84828425D01*
X170857783Y-84883002D01*
X170864977Y-84952500D01*
X170833454Y-85014855D01*
X170814158Y-85031575D01*
X170628597Y-85161505D01*
X170626922Y-85163181D01*
X170626000Y-85163684D01*
X170624449Y-85164986D01*
X170624187Y-85164674D01*
X170565599Y-85196666D01*
X170539241Y-85199500D01*
X170221250Y-85199500D01*
X170221230Y-85199499D01*
X170215116Y-85199499D01*
X170018035Y-85199499D01*
X170018032Y-85199499D01*
X169824747Y-85237946D01*
X169824739Y-85237948D01*
X169642663Y-85313366D01*
X169642654Y-85313371D01*
X169499265Y-85409182D01*
X169499263Y-85409183D01*
X169478798Y-85422856D01*
X169478791Y-85422862D01*
X169454181Y-85447471D01*
X169435396Y-85462887D01*
X169382981Y-85497910D01*
X169243623Y-85637268D01*
X169208592Y-85689693D01*
X169193173Y-85708480D01*
X168134037Y-86767618D01*
X168072714Y-86801103D01*
X168046356Y-86803937D01*
X160321881Y-86803937D01*
X160289818Y-86810313D01*
X160289819Y-86810314D01*
X160128597Y-86842383D01*
X160128591Y-86842385D01*
X159946515Y-86917803D01*
X159946506Y-86917808D01*
X159782646Y-87027296D01*
X159782642Y-87027299D01*
X157766751Y-89043192D01*
X157099771Y-89710172D01*
X157099769Y-89710174D01*
X157053842Y-89756101D01*
X156960410Y-89849532D01*
X156850922Y-90013392D01*
X156850915Y-90013405D01*
X156809184Y-90114157D01*
X156807383Y-90118505D01*
X156795044Y-90148294D01*
X156782705Y-90178083D01*
X156775501Y-90195474D01*
X156775498Y-90195482D01*
X156737051Y-90388769D01*
X156737051Y-95933250D01*
X156717366Y-96000289D01*
X156700732Y-96020931D01*
X154470500Y-98251162D01*
X154470497Y-98251166D01*
X154361009Y-98415026D01*
X154361004Y-98415036D01*
X154285586Y-98597110D01*
X154285584Y-98597118D01*
X154247137Y-98790402D01*
X143326999Y-98790402D01*
X143451437Y-98693548D01*
X143451441Y-98693545D01*
X143608585Y-98522842D01*
X143735483Y-98328609D01*
X143828682Y-98116135D01*
X143880883Y-97910000D01*
X142875278Y-97910000D01*
X142919333Y-97833694D01*
X142950000Y-97719244D01*
X142950000Y-97600756D01*
X142919333Y-97486306D01*
X142875278Y-97410000D01*
X143880883Y-97410000D01*
X143828682Y-97203864D01*
X143735483Y-96991390D01*
X143608585Y-96797157D01*
X143451441Y-96626454D01*
X143451437Y-96626451D01*
X143268355Y-96483952D01*
X143268351Y-96483949D01*
X143064302Y-96373523D01*
X143064293Y-96373520D01*
X142844861Y-96298188D01*
X142750000Y-96282359D01*
X142750000Y-97284722D01*
X142673694Y-97240667D01*
X142559244Y-97210000D01*
X142440756Y-97210000D01*
X142326306Y-97240667D01*
X142250000Y-97284722D01*
X142250000Y-96282359D01*
X142249999Y-96282359D01*
X142155138Y-96298188D01*
X141935706Y-96373520D01*
X141935697Y-96373523D01*
X141731648Y-96483949D01*
X141731644Y-96483952D01*
X141548562Y-96626451D01*
X141548558Y-96626454D01*
X141391414Y-96797157D01*
X141264516Y-96991390D01*
X141171317Y-97203864D01*
X141119117Y-97410000D01*
X136333795Y-97410000D01*
X136391058Y-97246353D01*
X136395154Y-97210000D01*
X136411255Y-97067101D01*
X136411255Y-97067094D01*
X136391059Y-96887848D01*
X136391058Y-96887843D01*
X136369392Y-96825925D01*
X136331479Y-96717576D01*
X136315868Y-96692732D01*
X136262515Y-96607821D01*
X136235506Y-96564836D01*
X136107952Y-96437282D01*
X136006480Y-96373523D01*
X135955209Y-96341307D01*
X135875311Y-96313349D01*
X135818535Y-96272627D01*
X135792788Y-96207675D01*
X135792738Y-96185500D01*
X135805468Y-96040000D01*
X135805468Y-96039998D01*
X135798460Y-95959901D01*
X135785635Y-95813308D01*
X135726739Y-95593504D01*
X135630568Y-95387266D01*
X135500047Y-95200861D01*
X135339139Y-95039953D01*
X135339135Y-95039950D01*
X135339132Y-95039947D01*
X135334994Y-95036475D01*
X135336322Y-95034891D01*
X135298308Y-94987335D01*
X135289836Y-94926451D01*
X135307281Y-94771622D01*
X135307281Y-94771616D01*
X135289498Y-94613784D01*
X135301553Y-94544962D01*
X135336059Y-94504786D01*
X135334998Y-94503521D01*
X135339146Y-94500041D01*
X135500045Y-94339141D01*
X135500047Y-94339139D01*
X135630568Y-94152734D01*
X135726739Y-93946496D01*
X135785635Y-93726692D01*
X135805468Y-93500000D01*
X135785635Y-93273308D01*
X135726739Y-93053504D01*
X135630568Y-92847266D01*
X135500050Y-92660865D01*
X135500045Y-92660858D01*
X135339141Y-92499954D01*
X135152734Y-92369432D01*
X135152728Y-92369429D01*
X135094725Y-92342382D01*
X135042285Y-92296210D01*
X135023133Y-92229017D01*
X135043348Y-92162135D01*
X135094725Y-92117618D01*
X135152734Y-92090568D01*
X135339139Y-91960047D01*
X135500047Y-91799139D01*
X135630568Y-91612734D01*
X135726739Y-91406496D01*
X135785635Y-91186692D01*
X135805468Y-90960000D01*
X135794495Y-90834586D01*
X135808261Y-90766089D01*
X135856876Y-90715906D01*
X135877061Y-90706742D01*
X135905313Y-90696857D01*
X136058053Y-90600884D01*
X136185607Y-90473330D01*
X136281580Y-90320590D01*
X136341159Y-90150323D01*
X136341160Y-90150317D01*
X136361356Y-89971071D01*
X136361356Y-89971064D01*
X136341160Y-89791818D01*
X136341159Y-89791813D01*
X136314702Y-89716204D01*
X136281580Y-89621546D01*
X136278108Y-89616021D01*
X136232462Y-89543376D01*
X136185607Y-89468806D01*
X136058053Y-89341252D01*
X136047169Y-89334413D01*
X135905314Y-89245279D01*
X135735045Y-89185699D01*
X135735040Y-89185698D01*
X135555795Y-89165503D01*
X135555787Y-89165503D01*
X135376541Y-89185698D01*
X135376536Y-89185699D01*
X135206267Y-89245279D01*
X135053528Y-89341252D01*
X134925973Y-89468807D01*
X134833472Y-89616021D01*
X134781137Y-89662311D01*
X134717672Y-89673575D01*
X134617158Y-89664782D01*
X134500002Y-89654532D01*
X134499998Y-89654532D01*
X134273313Y-89674364D01*
X134273302Y-89674366D01*
X134053511Y-89733258D01*
X134053502Y-89733261D01*
X133847267Y-89829431D01*
X133847265Y-89829432D01*
X133660858Y-89959954D01*
X133499954Y-90120858D01*
X133369432Y-90307265D01*
X133369431Y-90307267D01*
X133273261Y-90513502D01*
X133273258Y-90513511D01*
X133214366Y-90733302D01*
X133214364Y-90733313D01*
X133194532Y-90959998D01*
X133194532Y-90960001D01*
X133214364Y-91186686D01*
X133214366Y-91186697D01*
X133273258Y-91406488D01*
X133273261Y-91406497D01*
X133369431Y-91612732D01*
X133369432Y-91612734D01*
X133499954Y-91799141D01*
X133660858Y-91960045D01*
X133660861Y-91960047D01*
X133847266Y-92090568D01*
X133905275Y-92117618D01*
X133957714Y-92163791D01*
X133976866Y-92230984D01*
X133956650Y-92297865D01*
X133905275Y-92342382D01*
X133847267Y-92369431D01*
X133847265Y-92369432D01*
X133660858Y-92499954D01*
X133499954Y-92660858D01*
X133369432Y-92847265D01*
X133369431Y-92847267D01*
X133273261Y-93053502D01*
X133273258Y-93053511D01*
X133214366Y-93273302D01*
X133214364Y-93273313D01*
X133194532Y-93499998D01*
X133194532Y-93500001D01*
X133214364Y-93726686D01*
X133214366Y-93726697D01*
X133273258Y-93946488D01*
X133273261Y-93946497D01*
X133369431Y-94152732D01*
X133369432Y-94152734D01*
X133499954Y-94339141D01*
X133660857Y-94500044D01*
X133661581Y-94500551D01*
X133661826Y-94500858D01*
X133665006Y-94503526D01*
X133664469Y-94504164D01*
X133705208Y-94555126D01*
X133713682Y-94616012D01*
X133696151Y-94771615D01*
X133696151Y-94771624D01*
X133713344Y-94924224D01*
X133701289Y-94993046D01*
X133664515Y-95035879D01*
X133665011Y-95036471D01*
X133661421Y-95039483D01*
X133661256Y-95039676D01*
X133660867Y-95039948D01*
X133660863Y-95039951D01*
X133499951Y-95200862D01*
X133369432Y-95387265D01*
X133369431Y-95387267D01*
X133273261Y-95593502D01*
X133273258Y-95593511D01*
X133214366Y-95813302D01*
X133214364Y-95813313D01*
X133194532Y-96039998D01*
X133194532Y-96040001D01*
X133214364Y-96266686D01*
X133214366Y-96266697D01*
X133273258Y-96486488D01*
X133273261Y-96486497D01*
X133369431Y-96692732D01*
X133369432Y-96692734D01*
X133499954Y-96879141D01*
X133660858Y-97040045D01*
X133660861Y-97040047D01*
X133847266Y-97170568D01*
X133874435Y-97183237D01*
X133905275Y-97197618D01*
X133957714Y-97243791D01*
X133976866Y-97310984D01*
X133956650Y-97377865D01*
X133905275Y-97422382D01*
X133847267Y-97449431D01*
X133847265Y-97449432D01*
X133660858Y-97579954D01*
X133499954Y-97740858D01*
X133369432Y-97927265D01*
X133369431Y-97927267D01*
X133273261Y-98133502D01*
X133273258Y-98133511D01*
X133214366Y-98353302D01*
X133214364Y-98353313D01*
X133194532Y-98579998D01*
X133194532Y-98580001D01*
X133214364Y-98806686D01*
X133214366Y-98806697D01*
X133273258Y-99026488D01*
X133273261Y-99026497D01*
X133369431Y-99232732D01*
X133369432Y-99232734D01*
X133499954Y-99419141D01*
X133660858Y-99580045D01*
X133660861Y-99580047D01*
X133684639Y-99596696D01*
X133728265Y-99651270D01*
X133736738Y-99712155D01*
X133727294Y-99795976D01*
X133727294Y-99795983D01*
X133748020Y-99979943D01*
X133735965Y-100048765D01*
X133695926Y-100095399D01*
X133660865Y-100119949D01*
X133660863Y-100119951D01*
X133499951Y-100280862D01*
X133369432Y-100467265D01*
X133369431Y-100467267D01*
X133273261Y-100673502D01*
X133273258Y-100673511D01*
X133214366Y-100893302D01*
X133214364Y-100893313D01*
X133194532Y-101119998D01*
X133194532Y-101120001D01*
X133214364Y-101346686D01*
X133214366Y-101346697D01*
X133273258Y-101566488D01*
X133273261Y-101566497D01*
X133369431Y-101772732D01*
X133369432Y-101772734D01*
X133499954Y-101959141D01*
X133660858Y-102120045D01*
X133679138Y-102132845D01*
X133722763Y-102187422D01*
X133731235Y-102248302D01*
X133716913Y-102375423D01*
X133716913Y-102375432D01*
X133734279Y-102529565D01*
X133722224Y-102598387D01*
X133682184Y-102645021D01*
X133660870Y-102659945D01*
X133660863Y-102659951D01*
X133499951Y-102820862D01*
X133369432Y-103007265D01*
X133369431Y-103007267D01*
X133273261Y-103213502D01*
X133273258Y-103213511D01*
X133214366Y-103433302D01*
X133214364Y-103433313D01*
X133194532Y-103659998D01*
X133194532Y-103660001D01*
X133214364Y-103886686D01*
X133214366Y-103886697D01*
X133273258Y-104106488D01*
X133273264Y-104106504D01*
X133274868Y-104109944D01*
X133285355Y-104179022D01*
X133256830Y-104242804D01*
X133198350Y-104281039D01*
X133176366Y-104285560D01*
X133114888Y-104292486D01*
X133114884Y-104292487D01*
X132944615Y-104352067D01*
X132791876Y-104448040D01*
X132664323Y-104575593D01*
X132568350Y-104728332D01*
X132508770Y-104898601D01*
X132508769Y-104898606D01*
X132488574Y-105077852D01*
X127543888Y-105077852D01*
X127532480Y-105069864D01*
X127474134Y-105042657D01*
X127421695Y-104996484D01*
X127402543Y-104929291D01*
X127422759Y-104862410D01*
X127474134Y-104817893D01*
X127532734Y-104790568D01*
X127719139Y-104660047D01*
X127880047Y-104499139D01*
X127902143Y-104467580D01*
X127956717Y-104423957D01*
X128026215Y-104416762D01*
X128044673Y-104421663D01*
X128114876Y-104446228D01*
X128114882Y-104446229D01*
X128114884Y-104446230D01*
X128114885Y-104446230D01*
X128114889Y-104446231D01*
X128294135Y-104466427D01*
X128294139Y-104466427D01*
X128294143Y-104466427D01*
X128473388Y-104446231D01*
X128473391Y-104446230D01*
X128473394Y-104446230D01*
X128643661Y-104386651D01*
X128796401Y-104290678D01*
X128923955Y-104163124D01*
X129019928Y-104010384D01*
X129079507Y-103840117D01*
X129079508Y-103840111D01*
X129099704Y-103660865D01*
X129099704Y-103660858D01*
X129079508Y-103481612D01*
X129079507Y-103481607D01*
X129062604Y-103433302D01*
X129019928Y-103311340D01*
X128923955Y-103158600D01*
X128796401Y-103031046D01*
X128758557Y-103007267D01*
X128643662Y-102935073D01*
X128473393Y-102875493D01*
X128473388Y-102875492D01*
X128294143Y-102855297D01*
X128294135Y-102855297D01*
X128114885Y-102875493D01*
X128114884Y-102875493D01*
X128045641Y-102899722D01*
X127975863Y-102903283D01*
X127915236Y-102868554D01*
X127903112Y-102853802D01*
X127880044Y-102820857D01*
X127719141Y-102659954D01*
X127532734Y-102529432D01*
X127532728Y-102529429D01*
X127505038Y-102516517D01*
X127474724Y-102502381D01*
X127422285Y-102456210D01*
X127403133Y-102389017D01*
X127423348Y-102322135D01*
X127474725Y-102277618D01*
X127475926Y-102277058D01*
X127532734Y-102250568D01*
X127719139Y-102120047D01*
X127880047Y-101959139D01*
X128010568Y-101772734D01*
X128106739Y-101566496D01*
X128165635Y-101346692D01*
X128185468Y-101120000D01*
X128165635Y-100893308D01*
X128106739Y-100673504D01*
X128010568Y-100467266D01*
X127880047Y-100280861D01*
X127719139Y-100119953D01*
X127719135Y-100119950D01*
X127714989Y-100116471D01*
X127715961Y-100115312D01*
X127676722Y-100066220D01*
X127668252Y-100005341D01*
X127682710Y-99877023D01*
X127682710Y-99877018D01*
X127662608Y-99698610D01*
X127674662Y-99629788D01*
X127714710Y-99583147D01*
X127719139Y-99580047D01*
X127880047Y-99419139D01*
X128010568Y-99232734D01*
X128106739Y-99026496D01*
X128165635Y-98806692D01*
X128185468Y-98580000D01*
X128165635Y-98353308D01*
X128106739Y-98133504D01*
X128010568Y-97927266D01*
X127880047Y-97740861D01*
X127733492Y-97594306D01*
X127700009Y-97532985D01*
X127700237Y-97491577D01*
X127698273Y-97491356D01*
X127719249Y-97305183D01*
X127719249Y-97305177D01*
X127699076Y-97126136D01*
X127711130Y-97057314D01*
X127734612Y-97024573D01*
X127880047Y-96879139D01*
X128010568Y-96692734D01*
X128106739Y-96486496D01*
X128165635Y-96266692D01*
X128185468Y-96040000D01*
X128165635Y-95813308D01*
X128106739Y-95593504D01*
X128010568Y-95387266D01*
X127880047Y-95200861D01*
X127880045Y-95200858D01*
X127719141Y-95039954D01*
X127532734Y-94909432D01*
X127532728Y-94909429D01*
X127474725Y-94882382D01*
X127422285Y-94836210D01*
X127403133Y-94769017D01*
X127423348Y-94702135D01*
X127474725Y-94657618D01*
X127532734Y-94630568D01*
X127719139Y-94500047D01*
X127880047Y-94339139D01*
X128010568Y-94152734D01*
X128106739Y-93946496D01*
X128165635Y-93726692D01*
X128185468Y-93500000D01*
X128165635Y-93273308D01*
X128130564Y-93142420D01*
X128105338Y-93048274D01*
X128106765Y-93047891D01*
X128102755Y-92985060D01*
X128136709Y-92923995D01*
X128198287Y-92890981D01*
X128209823Y-92889126D01*
X128224252Y-92887501D01*
X128394519Y-92827922D01*
X128547259Y-92731949D01*
X128674813Y-92604395D01*
X128770786Y-92451655D01*
X128830365Y-92281388D01*
X128831281Y-92273261D01*
X128850562Y-92102136D01*
X128850562Y-92102129D01*
X128830366Y-91922883D01*
X128830365Y-91922878D01*
X128790124Y-91807876D01*
X128770786Y-91752611D01*
X128765052Y-91743486D01*
X128674812Y-91599870D01*
X128547259Y-91472317D01*
X128394520Y-91376344D01*
X128263544Y-91330514D01*
X128206768Y-91289792D01*
X128181021Y-91224839D01*
X128180499Y-91213472D01*
X128180499Y-90112129D01*
X128180498Y-90112123D01*
X128180497Y-90112116D01*
X128174091Y-90052517D01*
X128169684Y-90040702D01*
X128123797Y-89917671D01*
X128123793Y-89917664D01*
X128037547Y-89802455D01*
X128037544Y-89802452D01*
X127922335Y-89716206D01*
X127922328Y-89716202D01*
X127787482Y-89665908D01*
X127787483Y-89665908D01*
X127727883Y-89659501D01*
X127727881Y-89659500D01*
X127727873Y-89659500D01*
X127727864Y-89659500D01*
X126032129Y-89659500D01*
X126032123Y-89659501D01*
X125972516Y-89665908D01*
X125837671Y-89716202D01*
X125837664Y-89716206D01*
X125722455Y-89802452D01*
X125722452Y-89802455D01*
X125636206Y-89917664D01*
X125636202Y-89917671D01*
X125585908Y-90052517D01*
X125579501Y-90112116D01*
X125579501Y-90112123D01*
X125579500Y-90112135D01*
X125579500Y-91807870D01*
X125579501Y-91807876D01*
X125585908Y-91867483D01*
X125636202Y-92002328D01*
X125636206Y-92002335D01*
X125722452Y-92117544D01*
X125722455Y-92117547D01*
X125837664Y-92203793D01*
X125837671Y-92203797D01*
X125882618Y-92220561D01*
X125972517Y-92254091D01*
X126007596Y-92257862D01*
X126072144Y-92284599D01*
X126111993Y-92341991D01*
X126114488Y-92411816D01*
X126078836Y-92471905D01*
X126065464Y-92482725D01*
X126040861Y-92499952D01*
X125879951Y-92660863D01*
X125879949Y-92660865D01*
X125861594Y-92687079D01*
X125807017Y-92730702D01*
X125737518Y-92737894D01*
X125719067Y-92732995D01*
X125656778Y-92711199D01*
X125656770Y-92711197D01*
X125477525Y-92691002D01*
X125477517Y-92691002D01*
X125298271Y-92711197D01*
X125298266Y-92711198D01*
X125127997Y-92770778D01*
X124975258Y-92866751D01*
X124847705Y-92994304D01*
X124751732Y-93147043D01*
X124692152Y-93317312D01*
X124692151Y-93317317D01*
X124671956Y-93496563D01*
X100525500Y-93496563D01*
X100525500Y-88178146D01*
X103699336Y-88178146D01*
X103699336Y-88178153D01*
X103719531Y-88357399D01*
X103719532Y-88357404D01*
X103779112Y-88527673D01*
X103857799Y-88652901D01*
X103875085Y-88680412D01*
X104002639Y-88807966D01*
X104059662Y-88843796D01*
X104149905Y-88900500D01*
X104155379Y-88903939D01*
X104302146Y-88955295D01*
X104325646Y-88963518D01*
X104325650Y-88963519D01*
X104423374Y-88974529D01*
X104473902Y-88980222D01*
X104538316Y-89007288D01*
X104577871Y-89064883D01*
X104583309Y-89116694D01*
X104579500Y-89152127D01*
X104579500Y-90847870D01*
X104579501Y-90847876D01*
X104585908Y-90907483D01*
X104636202Y-91042328D01*
X104636206Y-91042335D01*
X104722452Y-91157544D01*
X104722455Y-91157547D01*
X104837664Y-91243793D01*
X104837671Y-91243797D01*
X104972517Y-91294091D01*
X104972516Y-91294091D01*
X104979444Y-91294835D01*
X105032127Y-91300500D01*
X106727872Y-91300499D01*
X106787483Y-91294091D01*
X106922331Y-91243796D01*
X107037546Y-91157546D01*
X107123796Y-91042331D01*
X107174091Y-90907483D01*
X107180500Y-90847873D01*
X107180499Y-89999998D01*
X112194532Y-89999998D01*
X112194532Y-90000001D01*
X112214364Y-90226686D01*
X112214366Y-90226697D01*
X112273258Y-90446488D01*
X112273261Y-90446497D01*
X112369431Y-90652732D01*
X112369432Y-90652734D01*
X112499954Y-90839141D01*
X112660858Y-91000045D01*
X112679131Y-91012840D01*
X112847266Y-91130568D01*
X113053504Y-91226739D01*
X113273308Y-91285635D01*
X113435230Y-91299801D01*
X113499998Y-91305468D01*
X113500000Y-91305468D01*
X113500002Y-91305468D01*
X113556807Y-91300498D01*
X113726692Y-91285635D01*
X113946496Y-91226739D01*
X114152734Y-91130568D01*
X114339139Y-91000047D01*
X114500047Y-90839139D01*
X114630568Y-90652734D01*
X114726739Y-90446496D01*
X114785635Y-90226692D01*
X114786202Y-90220203D01*
X114811650Y-90155138D01*
X114868239Y-90114157D01*
X114938001Y-90110275D01*
X114955273Y-90116373D01*
X114955332Y-90116205D01*
X114961904Y-90118504D01*
X114961905Y-90118505D01*
X114968638Y-90120861D01*
X115132172Y-90178084D01*
X115132177Y-90178085D01*
X115311423Y-90198281D01*
X115311427Y-90198281D01*
X115311431Y-90198281D01*
X115490676Y-90178085D01*
X115490679Y-90178084D01*
X115490682Y-90178084D01*
X115660949Y-90118505D01*
X115813689Y-90022532D01*
X115941243Y-89894978D01*
X116037216Y-89742238D01*
X116096795Y-89571971D01*
X116097143Y-89568881D01*
X116116992Y-89392719D01*
X116116992Y-89392712D01*
X116096796Y-89213466D01*
X116096795Y-89213461D01*
X116076396Y-89155164D01*
X116050093Y-89079994D01*
X149994357Y-89079994D01*
X149994357Y-89080005D01*
X150014890Y-89327812D01*
X150014892Y-89327824D01*
X150075936Y-89568881D01*
X150175826Y-89796606D01*
X150311833Y-90004782D01*
X150311836Y-90004785D01*
X150480256Y-90187738D01*
X150676491Y-90340474D01*
X150895190Y-90458828D01*
X151130386Y-90539571D01*
X151375665Y-90580500D01*
X151624335Y-90580500D01*
X151869614Y-90539571D01*
X152104810Y-90458828D01*
X152323509Y-90340474D01*
X152519744Y-90187738D01*
X152688164Y-90004785D01*
X152691292Y-89999998D01*
X152730142Y-89940532D01*
X152824173Y-89796607D01*
X152924063Y-89568881D01*
X152985108Y-89327821D01*
X152985109Y-89327812D01*
X152999415Y-89155160D01*
X154963624Y-89155160D01*
X154963624Y-89155167D01*
X154983819Y-89334413D01*
X154983820Y-89334418D01*
X155043400Y-89504687D01*
X155110454Y-89611402D01*
X155139373Y-89657426D01*
X155266927Y-89784980D01*
X155303622Y-89808037D01*
X155415067Y-89878063D01*
X155419667Y-89880953D01*
X155540408Y-89923202D01*
X155589934Y-89940532D01*
X155589939Y-89940533D01*
X155769185Y-89960729D01*
X155769189Y-89960729D01*
X155769193Y-89960729D01*
X155948438Y-89940533D01*
X155948441Y-89940532D01*
X155948444Y-89940532D01*
X156118711Y-89880953D01*
X156271451Y-89784980D01*
X156399005Y-89657426D01*
X156494978Y-89504686D01*
X156554557Y-89334419D01*
X156555300Y-89327824D01*
X156574754Y-89155167D01*
X156574754Y-89155160D01*
X156554558Y-88975914D01*
X156554557Y-88975909D01*
X156552284Y-88969414D01*
X156494978Y-88805642D01*
X156399005Y-88652902D01*
X156271451Y-88525348D01*
X156243019Y-88507483D01*
X156118712Y-88429375D01*
X155948443Y-88369795D01*
X155948438Y-88369794D01*
X155769193Y-88349599D01*
X155769185Y-88349599D01*
X155589939Y-88369794D01*
X155589934Y-88369795D01*
X155419665Y-88429375D01*
X155266926Y-88525348D01*
X155139373Y-88652901D01*
X155043400Y-88805640D01*
X154983820Y-88975909D01*
X154983819Y-88975914D01*
X154963624Y-89155160D01*
X152999415Y-89155160D01*
X153005643Y-89080005D01*
X153005643Y-89079994D01*
X152985109Y-88832187D01*
X152985107Y-88832175D01*
X152924063Y-88591118D01*
X152824173Y-88363393D01*
X152688166Y-88155217D01*
X152666557Y-88131744D01*
X152519744Y-87972262D01*
X152323509Y-87819526D01*
X152323507Y-87819525D01*
X152323506Y-87819524D01*
X152104811Y-87701172D01*
X152104802Y-87701169D01*
X151869616Y-87620429D01*
X151624335Y-87579500D01*
X151375665Y-87579500D01*
X151130383Y-87620429D01*
X150895197Y-87701169D01*
X150895188Y-87701172D01*
X150676493Y-87819524D01*
X150480257Y-87972261D01*
X150311833Y-88155217D01*
X150175826Y-88363393D01*
X150075936Y-88591118D01*
X150014892Y-88832175D01*
X150014890Y-88832187D01*
X149994357Y-89079994D01*
X116050093Y-89079994D01*
X116037216Y-89043194D01*
X116010046Y-88999954D01*
X115955122Y-88912542D01*
X115941243Y-88890454D01*
X115813689Y-88762900D01*
X115777244Y-88740000D01*
X115660950Y-88666927D01*
X115490681Y-88607347D01*
X115490676Y-88607346D01*
X115311431Y-88587151D01*
X115311423Y-88587151D01*
X115132177Y-88607346D01*
X115132172Y-88607347D01*
X114961903Y-88666927D01*
X114809164Y-88762900D01*
X114681609Y-88890455D01*
X114589930Y-89036361D01*
X114537595Y-89082651D01*
X114468542Y-89093299D01*
X114404694Y-89064924D01*
X114397256Y-89058069D01*
X114339141Y-88999954D01*
X114152734Y-88869432D01*
X114152732Y-88869431D01*
X113946497Y-88773261D01*
X113946488Y-88773258D01*
X113726697Y-88714366D01*
X113726693Y-88714365D01*
X113726692Y-88714365D01*
X113726691Y-88714364D01*
X113726686Y-88714364D01*
X113500002Y-88694532D01*
X113499998Y-88694532D01*
X113273313Y-88714364D01*
X113273302Y-88714366D01*
X113053511Y-88773258D01*
X113053502Y-88773261D01*
X112847267Y-88869431D01*
X112847265Y-88869432D01*
X112660858Y-88999954D01*
X112499954Y-89160858D01*
X112369432Y-89347265D01*
X112369431Y-89347267D01*
X112273261Y-89553502D01*
X112273258Y-89553511D01*
X112214366Y-89773302D01*
X112214364Y-89773313D01*
X112194532Y-89999998D01*
X107180499Y-89999998D01*
X107180499Y-89152128D01*
X107174091Y-89092517D01*
X107170411Y-89082651D01*
X107123797Y-88957671D01*
X107123793Y-88957664D01*
X107037547Y-88842455D01*
X107037544Y-88842452D01*
X106922335Y-88756206D01*
X106922328Y-88756202D01*
X106787482Y-88705908D01*
X106787483Y-88705908D01*
X106727883Y-88699501D01*
X106727881Y-88699500D01*
X106727873Y-88699500D01*
X106727865Y-88699500D01*
X105345288Y-88699500D01*
X105278249Y-88679815D01*
X105232494Y-88627011D01*
X105222550Y-88557853D01*
X105229599Y-88534668D01*
X105228390Y-88534245D01*
X105243107Y-88492187D01*
X105290269Y-88357405D01*
X105290270Y-88357399D01*
X105310466Y-88178153D01*
X105310466Y-88178146D01*
X105290270Y-87998900D01*
X105290269Y-87998895D01*
X105244676Y-87868598D01*
X105230690Y-87828628D01*
X105222263Y-87815217D01*
X105150813Y-87701505D01*
X105134717Y-87675888D01*
X105007163Y-87548334D01*
X104959813Y-87518582D01*
X104959802Y-87518575D01*
X136712217Y-87518575D01*
X136712217Y-87518582D01*
X136732412Y-87697828D01*
X136732413Y-87697833D01*
X136791993Y-87868102D01*
X136887966Y-88020841D01*
X137015520Y-88148395D01*
X137168260Y-88244368D01*
X137244936Y-88271198D01*
X137338527Y-88303947D01*
X137338532Y-88303948D01*
X137517778Y-88324144D01*
X137517782Y-88324144D01*
X137517786Y-88324144D01*
X137697031Y-88303948D01*
X137697034Y-88303947D01*
X137697037Y-88303947D01*
X137867304Y-88244368D01*
X138020044Y-88148395D01*
X138147598Y-88020841D01*
X138243571Y-87868101D01*
X138303150Y-87697834D01*
X138305623Y-87675887D01*
X138323347Y-87518582D01*
X138323347Y-87518575D01*
X138318084Y-87471861D01*
X140239131Y-87471861D01*
X140239131Y-87471868D01*
X140259326Y-87651114D01*
X140259327Y-87651119D01*
X140318907Y-87821388D01*
X140383999Y-87924980D01*
X140414880Y-87974127D01*
X140542434Y-88101681D01*
X140616777Y-88148394D01*
X140664133Y-88178150D01*
X140695174Y-88197654D01*
X140828672Y-88244367D01*
X140865441Y-88257233D01*
X140865446Y-88257234D01*
X140989383Y-88271198D01*
X141053797Y-88298264D01*
X141093352Y-88355859D01*
X141099500Y-88394416D01*
X141099500Y-88447869D01*
X141099501Y-88447876D01*
X141105908Y-88507483D01*
X141156202Y-88642328D01*
X141156206Y-88642335D01*
X141242452Y-88757544D01*
X141242455Y-88757547D01*
X141357664Y-88843793D01*
X141357671Y-88843797D01*
X141492517Y-88894091D01*
X141492516Y-88894091D01*
X141499444Y-88894835D01*
X141552127Y-88900500D01*
X143447872Y-88900499D01*
X143507483Y-88894091D01*
X143642331Y-88843796D01*
X143757546Y-88757546D01*
X143843796Y-88642331D01*
X143894091Y-88507483D01*
X143900500Y-88447873D01*
X143900499Y-86676144D01*
X143920184Y-86609106D01*
X143958526Y-86571152D01*
X143976091Y-86560116D01*
X144103645Y-86432562D01*
X144199618Y-86279822D01*
X144259197Y-86109555D01*
X144260330Y-86099500D01*
X144279394Y-85930303D01*
X144279394Y-85930296D01*
X144259198Y-85751050D01*
X144259197Y-85751045D01*
X144223845Y-85650015D01*
X144199618Y-85580778D01*
X144103645Y-85428038D01*
X143976091Y-85300484D01*
X143935876Y-85275215D01*
X143823352Y-85204511D01*
X143653083Y-85144931D01*
X143653078Y-85144930D01*
X143473833Y-85124735D01*
X143473825Y-85124735D01*
X143294579Y-85144930D01*
X143294574Y-85144931D01*
X143124305Y-85204511D01*
X142971566Y-85300484D01*
X142844013Y-85428037D01*
X142748040Y-85580776D01*
X142688460Y-85751045D01*
X142688459Y-85751050D01*
X142668264Y-85930296D01*
X142668264Y-85930303D01*
X142671792Y-85961617D01*
X142659737Y-86030439D01*
X142612388Y-86081818D01*
X142548572Y-86099500D01*
X141552129Y-86099500D01*
X141552123Y-86099501D01*
X141492516Y-86105908D01*
X141357671Y-86156202D01*
X141357664Y-86156206D01*
X141242455Y-86242452D01*
X141242452Y-86242455D01*
X141156206Y-86357664D01*
X141156202Y-86357671D01*
X141105908Y-86492517D01*
X141099501Y-86552116D01*
X141099322Y-86555452D01*
X141097722Y-86555366D01*
X141079815Y-86616350D01*
X141027011Y-86662105D01*
X140989384Y-86672531D01*
X140865445Y-86686495D01*
X140865441Y-86686496D01*
X140695172Y-86746076D01*
X140542433Y-86842049D01*
X140414880Y-86969602D01*
X140318907Y-87122341D01*
X140259327Y-87292610D01*
X140259326Y-87292615D01*
X140239131Y-87471861D01*
X138318084Y-87471861D01*
X138303151Y-87339329D01*
X138303150Y-87339324D01*
X138243570Y-87169055D01*
X138182210Y-87071402D01*
X138147598Y-87016317D01*
X138020044Y-86888763D01*
X137946231Y-86842383D01*
X137867305Y-86792790D01*
X137697036Y-86733210D01*
X137697031Y-86733209D01*
X137517786Y-86713014D01*
X137517778Y-86713014D01*
X137338532Y-86733209D01*
X137338527Y-86733210D01*
X137168258Y-86792790D01*
X137015519Y-86888763D01*
X136887966Y-87016316D01*
X136791993Y-87169055D01*
X136732413Y-87339324D01*
X136732412Y-87339329D01*
X136712217Y-87518575D01*
X104959802Y-87518575D01*
X104854424Y-87452361D01*
X104684155Y-87392781D01*
X104684150Y-87392780D01*
X104504905Y-87372585D01*
X104504897Y-87372585D01*
X104325651Y-87392780D01*
X104325646Y-87392781D01*
X104155377Y-87452361D01*
X104002638Y-87548334D01*
X103875085Y-87675887D01*
X103779112Y-87828626D01*
X103719532Y-87998895D01*
X103719531Y-87998900D01*
X103699336Y-88178146D01*
X100525500Y-88178146D01*
X100525500Y-84999997D01*
X123195034Y-84999997D01*
X123195034Y-85000002D01*
X123214858Y-85226599D01*
X123214860Y-85226610D01*
X123273730Y-85446317D01*
X123273735Y-85446331D01*
X123369863Y-85652478D01*
X123420974Y-85725472D01*
X124100000Y-85046446D01*
X124100000Y-85052661D01*
X124127259Y-85154394D01*
X124179920Y-85245606D01*
X124254394Y-85320080D01*
X124345606Y-85372741D01*
X124447339Y-85400000D01*
X124453553Y-85400000D01*
X123774526Y-86079025D01*
X123847513Y-86130132D01*
X123847521Y-86130136D01*
X124053668Y-86226264D01*
X124053682Y-86226269D01*
X124273389Y-86285139D01*
X124273400Y-86285141D01*
X124499998Y-86304966D01*
X124500002Y-86304966D01*
X124726599Y-86285141D01*
X124726610Y-86285139D01*
X124946317Y-86226269D01*
X124946331Y-86226264D01*
X125152478Y-86130136D01*
X125225471Y-86079024D01*
X124546447Y-85400000D01*
X124552661Y-85400000D01*
X124654394Y-85372741D01*
X124745606Y-85320080D01*
X124820080Y-85245606D01*
X124872741Y-85154394D01*
X124900000Y-85052661D01*
X124900000Y-85046447D01*
X125579024Y-85725471D01*
X125630136Y-85652478D01*
X125726264Y-85446331D01*
X125726269Y-85446317D01*
X125785139Y-85226610D01*
X125785141Y-85226599D01*
X125804966Y-85000002D01*
X125804966Y-84999997D01*
X125785141Y-84773400D01*
X125785139Y-84773389D01*
X125726269Y-84553682D01*
X125726264Y-84553668D01*
X125703810Y-84505516D01*
X132227665Y-84505516D01*
X132227665Y-84505523D01*
X132247860Y-84684769D01*
X132247861Y-84684774D01*
X132307441Y-84855043D01*
X132351263Y-84924785D01*
X132403414Y-85007782D01*
X132530968Y-85135336D01*
X132575283Y-85163181D01*
X132676229Y-85226610D01*
X132683708Y-85231309D01*
X132767057Y-85260474D01*
X132853975Y-85290888D01*
X132853980Y-85290889D01*
X133033226Y-85311085D01*
X133033230Y-85311085D01*
X133033233Y-85311085D01*
X133124966Y-85300749D01*
X133193788Y-85312803D01*
X133245168Y-85360152D01*
X133258625Y-85391875D01*
X133273259Y-85446490D01*
X133273261Y-85446497D01*
X133369431Y-85652732D01*
X133369432Y-85652734D01*
X133499954Y-85839141D01*
X133660858Y-86000045D01*
X133660861Y-86000047D01*
X133847266Y-86130568D01*
X134053504Y-86226739D01*
X134273308Y-86285635D01*
X134435230Y-86299801D01*
X134499998Y-86305468D01*
X134500000Y-86305468D01*
X134500002Y-86305468D01*
X134556673Y-86300509D01*
X134726692Y-86285635D01*
X134946496Y-86226739D01*
X135000165Y-86201711D01*
X135069242Y-86191219D01*
X135133026Y-86219738D01*
X135140252Y-86226412D01*
X135193671Y-86279831D01*
X135233673Y-86304966D01*
X135317552Y-86357671D01*
X135346411Y-86375804D01*
X135508616Y-86432562D01*
X135516678Y-86435383D01*
X135516683Y-86435384D01*
X135695929Y-86455580D01*
X135695933Y-86455580D01*
X135695937Y-86455580D01*
X135875182Y-86435384D01*
X135875185Y-86435383D01*
X135875188Y-86435383D01*
X136045455Y-86375804D01*
X136198195Y-86279831D01*
X136325749Y-86152277D01*
X136421722Y-85999537D01*
X136481301Y-85829270D01*
X136481302Y-85829264D01*
X136501498Y-85650018D01*
X136501498Y-85650011D01*
X136481302Y-85470765D01*
X136481301Y-85470760D01*
X136449133Y-85378830D01*
X136421722Y-85300493D01*
X136421716Y-85300484D01*
X136335443Y-85163181D01*
X136325749Y-85147753D01*
X136198195Y-85020199D01*
X136189690Y-85014855D01*
X136045454Y-84924225D01*
X135944376Y-84888857D01*
X135875188Y-84864647D01*
X135875185Y-84864646D01*
X135868616Y-84862348D01*
X135869360Y-84860220D01*
X135817735Y-84831343D01*
X135786531Y-84776654D01*
X135785635Y-84773311D01*
X135785635Y-84773308D01*
X135726739Y-84553504D01*
X135630568Y-84347266D01*
X135500047Y-84160861D01*
X135500045Y-84160858D01*
X135339141Y-83999954D01*
X135152734Y-83869432D01*
X135152732Y-83869431D01*
X134946497Y-83773261D01*
X134946488Y-83773258D01*
X134726697Y-83714366D01*
X134726693Y-83714365D01*
X134726692Y-83714365D01*
X134726691Y-83714364D01*
X134726686Y-83714364D01*
X134500002Y-83694532D01*
X134499998Y-83694532D01*
X134273313Y-83714364D01*
X134273302Y-83714366D01*
X134053511Y-83773258D01*
X134053502Y-83773261D01*
X133847267Y-83869431D01*
X133745432Y-83940736D01*
X133679226Y-83963063D01*
X133611459Y-83946051D01*
X133586629Y-83926841D01*
X133535492Y-83875704D01*
X133382753Y-83779731D01*
X133212484Y-83720151D01*
X133212479Y-83720150D01*
X133033234Y-83699955D01*
X133033226Y-83699955D01*
X132853980Y-83720150D01*
X132853975Y-83720151D01*
X132683706Y-83779731D01*
X132530967Y-83875704D01*
X132403414Y-84003257D01*
X132307441Y-84155996D01*
X132247861Y-84326265D01*
X132247860Y-84326270D01*
X132227665Y-84505516D01*
X125703810Y-84505516D01*
X125630136Y-84347521D01*
X125630132Y-84347513D01*
X125579025Y-84274526D01*
X124900000Y-84953551D01*
X124900000Y-84947339D01*
X124872741Y-84845606D01*
X124820080Y-84754394D01*
X124745606Y-84679920D01*
X124654394Y-84627259D01*
X124552661Y-84600000D01*
X124546448Y-84600000D01*
X125225472Y-83920974D01*
X125152478Y-83869863D01*
X124946331Y-83773735D01*
X124946317Y-83773730D01*
X124726610Y-83714860D01*
X124726599Y-83714858D01*
X124500002Y-83695034D01*
X124499998Y-83695034D01*
X124273400Y-83714858D01*
X124273389Y-83714860D01*
X124053682Y-83773730D01*
X124053673Y-83773734D01*
X123847516Y-83869866D01*
X123847512Y-83869868D01*
X123774526Y-83920973D01*
X123774526Y-83920974D01*
X124453553Y-84600000D01*
X124447339Y-84600000D01*
X124345606Y-84627259D01*
X124254394Y-84679920D01*
X124179920Y-84754394D01*
X124127259Y-84845606D01*
X124100000Y-84947339D01*
X124100000Y-84953552D01*
X123420974Y-84274526D01*
X123420973Y-84274526D01*
X123369868Y-84347512D01*
X123369866Y-84347516D01*
X123273734Y-84553673D01*
X123273730Y-84553682D01*
X123214860Y-84773389D01*
X123214858Y-84773400D01*
X123195034Y-84999997D01*
X100525500Y-84999997D01*
X100525500Y-82499998D01*
X103194532Y-82499998D01*
X103194532Y-82500001D01*
X103214364Y-82726686D01*
X103214366Y-82726697D01*
X103273258Y-82946488D01*
X103273261Y-82946497D01*
X103369431Y-83152732D01*
X103369432Y-83152734D01*
X103499954Y-83339141D01*
X103664689Y-83503876D01*
X103663241Y-83505323D01*
X103697007Y-83556074D01*
X103698116Y-83625934D01*
X103695641Y-83633846D01*
X103682196Y-83672270D01*
X103662000Y-83851519D01*
X103662000Y-83851526D01*
X103682195Y-84030772D01*
X103682196Y-84030777D01*
X103741776Y-84201046D01*
X103771167Y-84247821D01*
X103837749Y-84353785D01*
X103965303Y-84481339D01*
X104003787Y-84505520D01*
X104080149Y-84553502D01*
X104118043Y-84577312D01*
X104139397Y-84584784D01*
X104288310Y-84636891D01*
X104288315Y-84636892D01*
X104467561Y-84657088D01*
X104467565Y-84657088D01*
X104467569Y-84657088D01*
X104646814Y-84636892D01*
X104646817Y-84636891D01*
X104646820Y-84636891D01*
X104817087Y-84577312D01*
X104969827Y-84481339D01*
X105097381Y-84353785D01*
X105193354Y-84201045D01*
X105252933Y-84030778D01*
X105256343Y-84000513D01*
X105273130Y-83851526D01*
X105273130Y-83851519D01*
X105252934Y-83672276D01*
X105252933Y-83672275D01*
X105252933Y-83672268D01*
X105252517Y-83671081D01*
X105252476Y-83670268D01*
X105251384Y-83665484D01*
X105252221Y-83665292D01*
X105248952Y-83601307D01*
X105283676Y-83540677D01*
X105298436Y-83528547D01*
X105323326Y-83511119D01*
X105339139Y-83500047D01*
X105500047Y-83339139D01*
X105630568Y-83152734D01*
X105726739Y-82946496D01*
X105785635Y-82726692D01*
X105805468Y-82500000D01*
X105785962Y-82277053D01*
X105791399Y-82249999D01*
X113221127Y-82249999D01*
X113221128Y-82250000D01*
X114184314Y-82250000D01*
X114179920Y-82254394D01*
X114127259Y-82345606D01*
X114100000Y-82447339D01*
X114100000Y-82552661D01*
X114127259Y-82654394D01*
X114179920Y-82745606D01*
X114184314Y-82750000D01*
X113221128Y-82750000D01*
X113273730Y-82946317D01*
X113273734Y-82946326D01*
X113369865Y-83152482D01*
X113500342Y-83338820D01*
X113661179Y-83499657D01*
X113847517Y-83630134D01*
X114053673Y-83726265D01*
X114053682Y-83726269D01*
X114249999Y-83778872D01*
X114250000Y-83778871D01*
X114250000Y-82815686D01*
X114254394Y-82820080D01*
X114345606Y-82872741D01*
X114447339Y-82900000D01*
X114552661Y-82900000D01*
X114654394Y-82872741D01*
X114745606Y-82820080D01*
X114750000Y-82815686D01*
X114750000Y-83778872D01*
X114946317Y-83726269D01*
X114946326Y-83726265D01*
X115152482Y-83630134D01*
X115338820Y-83499657D01*
X115499657Y-83338820D01*
X115630134Y-83152482D01*
X115726265Y-82946326D01*
X115726269Y-82946317D01*
X115778872Y-82750000D01*
X114815686Y-82750000D01*
X114820080Y-82745606D01*
X114872741Y-82654394D01*
X114900000Y-82552661D01*
X114900000Y-82447339D01*
X114872741Y-82345606D01*
X114820080Y-82254394D01*
X114815686Y-82250000D01*
X115778872Y-82250000D01*
X115778872Y-82249999D01*
X115726269Y-82053682D01*
X115726265Y-82053673D01*
X115630134Y-81847517D01*
X115499657Y-81661179D01*
X115338820Y-81500342D01*
X115152482Y-81369865D01*
X114946328Y-81273734D01*
X114750000Y-81221127D01*
X114750000Y-82184314D01*
X114745606Y-82179920D01*
X114654394Y-82127259D01*
X114552661Y-82100000D01*
X114447339Y-82100000D01*
X114345606Y-82127259D01*
X114254394Y-82179920D01*
X114250000Y-82184314D01*
X114250000Y-81221127D01*
X114053671Y-81273734D01*
X113847517Y-81369865D01*
X113661179Y-81500342D01*
X113500342Y-81661179D01*
X113369865Y-81847517D01*
X113273734Y-82053673D01*
X113273730Y-82053682D01*
X113221127Y-82249999D01*
X105791399Y-82249999D01*
X105799728Y-82208557D01*
X105848343Y-82158374D01*
X105868533Y-82149208D01*
X105938225Y-82124822D01*
X106090965Y-82028849D01*
X106218519Y-81901295D01*
X106314492Y-81748555D01*
X106374071Y-81578288D01*
X106374072Y-81578282D01*
X106394268Y-81399036D01*
X106394268Y-81399029D01*
X106374072Y-81219783D01*
X106374071Y-81219778D01*
X106350523Y-81152482D01*
X106314492Y-81049511D01*
X106218519Y-80896771D01*
X106090965Y-80769217D01*
X105938226Y-80673244D01*
X105767957Y-80613664D01*
X105767952Y-80613663D01*
X105588707Y-80593468D01*
X105588699Y-80593468D01*
X105409453Y-80613663D01*
X105409448Y-80613664D01*
X105239179Y-80673244D01*
X105086440Y-80769217D01*
X104958887Y-80896770D01*
X104862912Y-81049513D01*
X104834728Y-81130058D01*
X104794006Y-81186834D01*
X104729054Y-81212581D01*
X104706880Y-81212631D01*
X104500002Y-81194532D01*
X104499998Y-81194532D01*
X104273313Y-81214364D01*
X104273302Y-81214366D01*
X104053511Y-81273258D01*
X104053502Y-81273261D01*
X103847267Y-81369431D01*
X103847265Y-81369432D01*
X103660858Y-81499954D01*
X103499954Y-81660858D01*
X103369432Y-81847265D01*
X103369431Y-81847267D01*
X103273261Y-82053502D01*
X103273258Y-82053511D01*
X103214366Y-82273302D01*
X103214364Y-82273313D01*
X103194532Y-82499998D01*
X100525500Y-82499998D01*
X100525500Y-80249999D01*
X118721127Y-80249999D01*
X118721128Y-80250000D01*
X119684314Y-80250000D01*
X119679920Y-80254394D01*
X119627259Y-80345606D01*
X119600000Y-80447339D01*
X119600000Y-80552661D01*
X119627259Y-80654394D01*
X119679920Y-80745606D01*
X119684314Y-80750000D01*
X118721128Y-80750000D01*
X118773730Y-80946317D01*
X118773734Y-80946326D01*
X118869865Y-81152482D01*
X119000342Y-81338820D01*
X119161179Y-81499657D01*
X119347517Y-81630134D01*
X119553673Y-81726265D01*
X119553682Y-81726269D01*
X119749999Y-81778872D01*
X119750000Y-81778871D01*
X119750000Y-80815686D01*
X119754394Y-80820080D01*
X119845606Y-80872741D01*
X119947339Y-80900000D01*
X120052661Y-80900000D01*
X120154394Y-80872741D01*
X120245606Y-80820080D01*
X120250000Y-80815686D01*
X120250000Y-81778872D01*
X120446317Y-81726269D01*
X120446326Y-81726265D01*
X120652482Y-81630134D01*
X120838820Y-81499657D01*
X120999657Y-81338820D01*
X121130134Y-81152482D01*
X121226265Y-80946326D01*
X121226269Y-80946317D01*
X121278872Y-80750000D01*
X120315686Y-80750000D01*
X120320080Y-80745606D01*
X120372741Y-80654394D01*
X120400000Y-80552661D01*
X120400000Y-80447339D01*
X120372741Y-80345606D01*
X120320080Y-80254394D01*
X120315686Y-80250000D01*
X121278872Y-80250000D01*
X121278872Y-80249999D01*
X122221127Y-80249999D01*
X122221128Y-80250000D01*
X123184314Y-80250000D01*
X123179920Y-80254394D01*
X123127259Y-80345606D01*
X123100000Y-80447339D01*
X123100000Y-80552661D01*
X123127259Y-80654394D01*
X123179920Y-80745606D01*
X123184314Y-80750000D01*
X122221128Y-80750000D01*
X122273730Y-80946317D01*
X122273734Y-80946326D01*
X122369865Y-81152482D01*
X122500342Y-81338820D01*
X122661179Y-81499657D01*
X122847517Y-81630134D01*
X123053673Y-81726265D01*
X123053682Y-81726269D01*
X123249999Y-81778872D01*
X123250000Y-81778871D01*
X123250000Y-80815686D01*
X123254394Y-80820080D01*
X123345606Y-80872741D01*
X123447339Y-80900000D01*
X123552661Y-80900000D01*
X123654394Y-80872741D01*
X123745606Y-80820080D01*
X123750000Y-80815686D01*
X123750000Y-81778872D01*
X123946317Y-81726269D01*
X123946326Y-81726265D01*
X124152482Y-81630134D01*
X124338820Y-81499657D01*
X124499657Y-81338820D01*
X124630134Y-81152482D01*
X124726265Y-80946326D01*
X124726269Y-80946317D01*
X124778872Y-80750000D01*
X123815686Y-80750000D01*
X123820080Y-80745606D01*
X123872741Y-80654394D01*
X123900000Y-80552661D01*
X123900000Y-80447339D01*
X123872741Y-80345606D01*
X123820080Y-80254394D01*
X123815686Y-80250000D01*
X124778872Y-80250000D01*
X124778872Y-80249999D01*
X130721127Y-80249999D01*
X130721128Y-80250000D01*
X131684314Y-80250000D01*
X131679920Y-80254394D01*
X131627259Y-80345606D01*
X131600000Y-80447339D01*
X131600000Y-80552661D01*
X131627259Y-80654394D01*
X131679920Y-80745606D01*
X131684314Y-80750000D01*
X130721128Y-80750000D01*
X130773730Y-80946317D01*
X130773734Y-80946326D01*
X130869865Y-81152482D01*
X131000342Y-81338820D01*
X131161179Y-81499657D01*
X131347517Y-81630134D01*
X131553673Y-81726265D01*
X131553682Y-81726269D01*
X131749999Y-81778872D01*
X131750000Y-81778871D01*
X131750000Y-80815686D01*
X131754394Y-80820080D01*
X131845606Y-80872741D01*
X131947339Y-80900000D01*
X132052661Y-80900000D01*
X132154394Y-80872741D01*
X132245606Y-80820080D01*
X132250000Y-80815686D01*
X132250000Y-81778872D01*
X132446317Y-81726269D01*
X132446326Y-81726265D01*
X132652482Y-81630134D01*
X132838820Y-81499657D01*
X132999657Y-81338820D01*
X133130134Y-81152482D01*
X133226265Y-80946326D01*
X133226269Y-80946317D01*
X133278872Y-80750000D01*
X132315686Y-80750000D01*
X132320080Y-80745606D01*
X132372741Y-80654394D01*
X132400000Y-80552661D01*
X132400000Y-80447339D01*
X132372741Y-80345606D01*
X132320080Y-80254394D01*
X132315686Y-80250000D01*
X133278872Y-80250000D01*
X133278872Y-80249999D01*
X134221127Y-80249999D01*
X134221128Y-80250000D01*
X135184314Y-80250000D01*
X135179920Y-80254394D01*
X135127259Y-80345606D01*
X135100000Y-80447339D01*
X135100000Y-80552661D01*
X135127259Y-80654394D01*
X135179920Y-80745606D01*
X135184314Y-80750000D01*
X134221128Y-80750000D01*
X134273730Y-80946317D01*
X134273734Y-80946326D01*
X134369865Y-81152482D01*
X134500342Y-81338820D01*
X134661179Y-81499657D01*
X134847517Y-81630134D01*
X135053673Y-81726265D01*
X135053682Y-81726269D01*
X135249999Y-81778872D01*
X135250000Y-81778871D01*
X135250000Y-80815686D01*
X135254394Y-80820080D01*
X135345606Y-80872741D01*
X135447339Y-80900000D01*
X135552661Y-80900000D01*
X135654394Y-80872741D01*
X135745606Y-80820080D01*
X135750000Y-80815686D01*
X135750000Y-81778872D01*
X135946317Y-81726269D01*
X135946326Y-81726265D01*
X136152482Y-81630134D01*
X136338820Y-81499657D01*
X136499657Y-81338820D01*
X136630134Y-81152482D01*
X136726265Y-80946326D01*
X136726269Y-80946317D01*
X136778872Y-80750000D01*
X135815686Y-80750000D01*
X135820080Y-80745606D01*
X135872741Y-80654394D01*
X135900000Y-80552661D01*
X135900000Y-80447339D01*
X135872741Y-80345606D01*
X135820080Y-80254394D01*
X135815686Y-80250000D01*
X136778872Y-80250000D01*
X136778872Y-80249999D01*
X136726269Y-80053682D01*
X136726265Y-80053673D01*
X136630134Y-79847517D01*
X136499657Y-79661179D01*
X136338820Y-79500342D01*
X136152482Y-79369865D01*
X135946328Y-79273734D01*
X135750000Y-79221127D01*
X135750000Y-80184314D01*
X135745606Y-80179920D01*
X135654394Y-80127259D01*
X135552661Y-80100000D01*
X135447339Y-80100000D01*
X135345606Y-80127259D01*
X135254394Y-80179920D01*
X135250000Y-80184314D01*
X135250000Y-79221127D01*
X135053671Y-79273734D01*
X134847517Y-79369865D01*
X134661179Y-79500342D01*
X134500342Y-79661179D01*
X134369865Y-79847517D01*
X134273734Y-80053673D01*
X134273730Y-80053682D01*
X134221127Y-80249999D01*
X133278872Y-80249999D01*
X133226269Y-80053682D01*
X133226265Y-80053673D01*
X133130134Y-79847517D01*
X132999657Y-79661179D01*
X132838820Y-79500342D01*
X132652482Y-79369865D01*
X132446328Y-79273734D01*
X132250000Y-79221127D01*
X132250000Y-80184314D01*
X132245606Y-80179920D01*
X132154394Y-80127259D01*
X132052661Y-80100000D01*
X131947339Y-80100000D01*
X131845606Y-80127259D01*
X131754394Y-80179920D01*
X131750000Y-80184314D01*
X131750000Y-79221127D01*
X131553671Y-79273734D01*
X131347517Y-79369865D01*
X131161179Y-79500342D01*
X131000342Y-79661179D01*
X130869865Y-79847517D01*
X130773734Y-80053673D01*
X130773730Y-80053682D01*
X130721127Y-80249999D01*
X124778872Y-80249999D01*
X124726269Y-80053682D01*
X124726265Y-80053673D01*
X124630134Y-79847517D01*
X124499657Y-79661179D01*
X124338820Y-79500342D01*
X124152482Y-79369865D01*
X123946328Y-79273734D01*
X123750000Y-79221127D01*
X123750000Y-80184314D01*
X123745606Y-80179920D01*
X123654394Y-80127259D01*
X123552661Y-80100000D01*
X123447339Y-80100000D01*
X123345606Y-80127259D01*
X123254394Y-80179920D01*
X123250000Y-80184314D01*
X123250000Y-79221127D01*
X123053671Y-79273734D01*
X122847517Y-79369865D01*
X122661179Y-79500342D01*
X122500342Y-79661179D01*
X122369865Y-79847517D01*
X122273734Y-80053673D01*
X122273730Y-80053682D01*
X122221127Y-80249999D01*
X121278872Y-80249999D01*
X121226269Y-80053682D01*
X121226265Y-80053673D01*
X121130134Y-79847517D01*
X120999657Y-79661179D01*
X120838820Y-79500342D01*
X120652482Y-79369865D01*
X120446328Y-79273734D01*
X120250000Y-79221127D01*
X120250000Y-80184314D01*
X120245606Y-80179920D01*
X120154394Y-80127259D01*
X120052661Y-80100000D01*
X119947339Y-80100000D01*
X119845606Y-80127259D01*
X119754394Y-80179920D01*
X119750000Y-80184314D01*
X119750000Y-79221127D01*
X119553671Y-79273734D01*
X119347517Y-79369865D01*
X119161179Y-79500342D01*
X119000342Y-79661179D01*
X118869865Y-79847517D01*
X118773734Y-80053673D01*
X118773730Y-80053682D01*
X118721127Y-80249999D01*
X100525500Y-80249999D01*
X100525500Y-74929128D01*
X122721348Y-74929128D01*
X122721348Y-74929135D01*
X122741543Y-75108381D01*
X122741544Y-75108386D01*
X122801124Y-75278655D01*
X122829235Y-75323393D01*
X122897097Y-75431394D01*
X123024651Y-75558948D01*
X123177391Y-75654921D01*
X123290081Y-75694353D01*
X123347658Y-75714500D01*
X123347663Y-75714501D01*
X123526909Y-75734697D01*
X123526913Y-75734697D01*
X123526917Y-75734697D01*
X123706162Y-75714501D01*
X123706165Y-75714500D01*
X123706168Y-75714500D01*
X123876435Y-75654921D01*
X124029175Y-75558948D01*
X124156729Y-75431394D01*
X124252702Y-75278654D01*
X124312281Y-75108387D01*
X124312282Y-75108381D01*
X124332478Y-74929135D01*
X124332478Y-74929128D01*
X124312282Y-74749882D01*
X124312281Y-74749877D01*
X124262544Y-74607738D01*
X124252702Y-74579610D01*
X124156729Y-74426870D01*
X124029175Y-74299316D01*
X123974086Y-74264701D01*
X123876436Y-74203343D01*
X123706167Y-74143763D01*
X123706162Y-74143762D01*
X123526917Y-74123567D01*
X123526909Y-74123567D01*
X123347663Y-74143762D01*
X123347658Y-74143763D01*
X123177389Y-74203343D01*
X123024650Y-74299316D01*
X122897097Y-74426869D01*
X122801124Y-74579608D01*
X122741544Y-74749877D01*
X122741543Y-74749882D01*
X122721348Y-74929128D01*
X100525500Y-74929128D01*
X100525500Y-70499997D01*
X104195340Y-70499997D01*
X104195340Y-70500002D01*
X104213944Y-70712654D01*
X104213945Y-70712662D01*
X104269194Y-70918853D01*
X104269197Y-70918859D01*
X104359413Y-71112329D01*
X104398415Y-71168030D01*
X105020000Y-70546445D01*
X105020000Y-70552661D01*
X105047259Y-70654394D01*
X105099920Y-70745606D01*
X105174394Y-70820080D01*
X105265606Y-70872741D01*
X105367339Y-70900000D01*
X105373553Y-70900000D01*
X104751968Y-71521584D01*
X104807663Y-71560582D01*
X104807669Y-71560586D01*
X105001140Y-71650802D01*
X105001146Y-71650805D01*
X105207337Y-71706054D01*
X105207345Y-71706055D01*
X105419998Y-71724660D01*
X105420002Y-71724660D01*
X105632654Y-71706055D01*
X105632662Y-71706054D01*
X105838853Y-71650805D01*
X105838864Y-71650801D01*
X106032325Y-71560589D01*
X106088030Y-71521583D01*
X105466448Y-70900000D01*
X105472661Y-70900000D01*
X105574394Y-70872741D01*
X105665606Y-70820080D01*
X105740080Y-70745606D01*
X105792741Y-70654394D01*
X105820000Y-70552661D01*
X105820000Y-70546446D01*
X106441583Y-71168029D01*
X106480589Y-71112325D01*
X106570801Y-70918864D01*
X106572658Y-70913764D01*
X106574567Y-70914458D01*
X106606291Y-70862362D01*
X106669125Y-70831806D01*
X106738504Y-70840071D01*
X106792401Y-70884533D01*
X106805989Y-70914256D01*
X106806870Y-70913936D01*
X106808722Y-70919023D01*
X106808724Y-70919030D01*
X106832213Y-70969402D01*
X106898977Y-71112578D01*
X107021472Y-71287521D01*
X107172478Y-71438527D01*
X107183473Y-71446226D01*
X107227097Y-71500804D01*
X107234289Y-71570302D01*
X107229390Y-71588754D01*
X107185754Y-71713458D01*
X107185752Y-71713466D01*
X107165557Y-71892712D01*
X107165557Y-71892719D01*
X107185752Y-72071965D01*
X107185753Y-72071970D01*
X107245333Y-72242239D01*
X107276886Y-72292455D01*
X107341306Y-72394978D01*
X107468860Y-72522532D01*
X107476738Y-72527482D01*
X107595534Y-72602127D01*
X107621600Y-72618505D01*
X107791867Y-72678084D01*
X107791872Y-72678085D01*
X107971118Y-72698281D01*
X107971122Y-72698281D01*
X107971126Y-72698281D01*
X108150371Y-72678085D01*
X108150374Y-72678084D01*
X108150377Y-72678084D01*
X108320644Y-72618505D01*
X108473384Y-72522532D01*
X108600938Y-72394978D01*
X108696911Y-72242238D01*
X108756490Y-72071971D01*
X108761204Y-72030133D01*
X108776687Y-71892719D01*
X108776687Y-71892712D01*
X108756491Y-71713466D01*
X108756490Y-71713461D01*
X108708384Y-71575982D01*
X108704823Y-71506203D01*
X108739552Y-71445575D01*
X108745732Y-71440027D01*
X108747505Y-71438538D01*
X108747519Y-71438529D01*
X108898529Y-71287519D01*
X109021021Y-71112581D01*
X109111276Y-70919030D01*
X109111280Y-70919013D01*
X109113130Y-70913936D01*
X109115253Y-70914709D01*
X109146576Y-70863305D01*
X109209419Y-70832766D01*
X109278796Y-70841050D01*
X109332680Y-70885528D01*
X109345827Y-70914315D01*
X109346870Y-70913936D01*
X109348722Y-70919023D01*
X109348724Y-70919030D01*
X109372213Y-70969402D01*
X109438977Y-71112578D01*
X109561472Y-71287521D01*
X109712478Y-71438527D01*
X109747607Y-71463124D01*
X109887419Y-71561021D01*
X109887421Y-71561022D01*
X109887420Y-71561022D01*
X109930622Y-71581167D01*
X110080970Y-71651276D01*
X110287253Y-71706549D01*
X110439215Y-71719844D01*
X110499998Y-71725162D01*
X110500000Y-71725162D01*
X110500002Y-71725162D01*
X110553186Y-71720508D01*
X110712747Y-71706549D01*
X110919030Y-71651276D01*
X111112581Y-71561021D01*
X111287519Y-71438529D01*
X111438529Y-71287519D01*
X111454528Y-71264670D01*
X111509104Y-71221044D01*
X111578602Y-71213849D01*
X111597059Y-71218750D01*
X111762556Y-71276660D01*
X111762562Y-71276661D01*
X111762564Y-71276662D01*
X111762565Y-71276662D01*
X111762569Y-71276663D01*
X111941815Y-71296859D01*
X111941819Y-71296859D01*
X111941823Y-71296859D01*
X112121068Y-71276663D01*
X112121071Y-71276662D01*
X112121074Y-71276662D01*
X112291341Y-71217083D01*
X112444081Y-71121110D01*
X112571635Y-70993556D01*
X112667608Y-70840816D01*
X112727187Y-70670549D01*
X112727188Y-70670543D01*
X112747384Y-70491297D01*
X112747384Y-70491290D01*
X112742121Y-70444576D01*
X117793012Y-70444576D01*
X117793012Y-70444583D01*
X117813207Y-70623829D01*
X117813208Y-70623834D01*
X117872788Y-70794103D01*
X117951286Y-70919031D01*
X117968761Y-70946842D01*
X118096315Y-71074396D01*
X118155351Y-71111491D01*
X118245332Y-71168030D01*
X118249055Y-71170369D01*
X118350294Y-71205794D01*
X118419322Y-71229948D01*
X118419327Y-71229949D01*
X118598573Y-71250145D01*
X118598577Y-71250145D01*
X118598581Y-71250145D01*
X118777823Y-71229949D01*
X118777822Y-71229949D01*
X118777832Y-71229948D01*
X118806176Y-71220029D01*
X118875951Y-71216467D01*
X118936579Y-71251195D01*
X118948704Y-71265948D01*
X118999953Y-71339140D01*
X119160858Y-71500045D01*
X119189621Y-71520185D01*
X119347266Y-71630568D01*
X119553504Y-71726739D01*
X119773308Y-71785635D01*
X119929397Y-71799291D01*
X119999998Y-71805468D01*
X120000000Y-71805468D01*
X120000002Y-71805468D01*
X120070603Y-71799291D01*
X120226692Y-71785635D01*
X120446496Y-71726739D01*
X120652734Y-71630568D01*
X120839139Y-71500047D01*
X121000047Y-71339139D01*
X121128901Y-71155114D01*
X121183475Y-71111491D01*
X121252973Y-71104297D01*
X121296445Y-71121245D01*
X121328034Y-71141094D01*
X121448967Y-71217082D01*
X121619237Y-71276662D01*
X121619242Y-71276663D01*
X121798488Y-71296859D01*
X121798492Y-71296859D01*
X121798496Y-71296859D01*
X121977741Y-71276663D01*
X121977744Y-71276662D01*
X121977747Y-71276662D01*
X122148014Y-71217083D01*
X122148995Y-71216467D01*
X122215044Y-71174965D01*
X122233186Y-71163565D01*
X122300422Y-71144565D01*
X122367257Y-71164932D01*
X122400731Y-71197434D01*
X122447810Y-71264670D01*
X122499954Y-71339141D01*
X122662354Y-71501541D01*
X122695839Y-71562864D01*
X122695585Y-71613110D01*
X122695610Y-71613113D01*
X122695584Y-71613339D01*
X122695567Y-71616800D01*
X122694831Y-71620025D01*
X122674634Y-71799284D01*
X122674634Y-71799291D01*
X122694829Y-71978537D01*
X122694830Y-71978542D01*
X122754410Y-72148811D01*
X122813115Y-72242238D01*
X122850383Y-72301550D01*
X122977937Y-72429104D01*
X123028908Y-72461131D01*
X123126626Y-72522532D01*
X123130677Y-72525077D01*
X123180518Y-72542517D01*
X123300944Y-72584656D01*
X123300949Y-72584657D01*
X123480195Y-72604853D01*
X123480199Y-72604853D01*
X123480203Y-72604853D01*
X123659448Y-72584657D01*
X123659451Y-72584656D01*
X123659454Y-72584656D01*
X123829721Y-72525077D01*
X123982461Y-72429104D01*
X124110015Y-72301550D01*
X124205988Y-72148810D01*
X124265567Y-71978543D01*
X124273027Y-71912334D01*
X124285764Y-71799291D01*
X124285764Y-71799284D01*
X124266665Y-71629773D01*
X124278720Y-71560951D01*
X124318763Y-71514314D01*
X124339139Y-71500047D01*
X124500047Y-71339139D01*
X124630568Y-71152734D01*
X124726739Y-70946496D01*
X124785635Y-70726692D01*
X124805468Y-70500000D01*
X124805468Y-70499998D01*
X130694532Y-70499998D01*
X130694532Y-70500001D01*
X130714364Y-70726686D01*
X130714366Y-70726697D01*
X130773258Y-70946488D01*
X130773261Y-70946497D01*
X130869431Y-71152732D01*
X130869432Y-71152734D01*
X130999954Y-71339141D01*
X131160858Y-71500045D01*
X131189621Y-71520185D01*
X131347266Y-71630568D01*
X131553504Y-71726739D01*
X131773308Y-71785635D01*
X131929397Y-71799291D01*
X131999998Y-71805468D01*
X132000000Y-71805468D01*
X132000002Y-71805468D01*
X132070603Y-71799291D01*
X132226692Y-71785635D01*
X132446496Y-71726739D01*
X132652734Y-71630568D01*
X132839139Y-71500047D01*
X133000047Y-71339139D01*
X133115004Y-71174961D01*
X133169577Y-71131339D01*
X133239075Y-71124145D01*
X133282549Y-71141094D01*
X133365041Y-71192928D01*
X133535311Y-71252508D01*
X133535316Y-71252509D01*
X133714562Y-71272705D01*
X133714566Y-71272705D01*
X133714570Y-71272705D01*
X133893815Y-71252509D01*
X133893818Y-71252508D01*
X133893821Y-71252508D01*
X134064088Y-71192929D01*
X134064474Y-71192687D01*
X134146583Y-71141094D01*
X134196182Y-71109928D01*
X134263418Y-71090928D01*
X134330253Y-71111295D01*
X134365635Y-71148783D01*
X134366327Y-71148299D01*
X134369431Y-71152732D01*
X134369432Y-71152734D01*
X134416553Y-71220030D01*
X134499954Y-71339141D01*
X134660858Y-71500045D01*
X134689621Y-71520185D01*
X134847266Y-71630568D01*
X135053504Y-71726739D01*
X135273308Y-71785635D01*
X135429397Y-71799291D01*
X135499998Y-71805468D01*
X135500000Y-71805468D01*
X135500002Y-71805468D01*
X135570603Y-71799291D01*
X135726692Y-71785635D01*
X135946496Y-71726739D01*
X136152734Y-71630568D01*
X136339139Y-71500047D01*
X136500047Y-71339139D01*
X136572046Y-71236310D01*
X136626620Y-71192687D01*
X136696118Y-71185493D01*
X136714561Y-71190389D01*
X136758583Y-71205794D01*
X136758587Y-71205794D01*
X136758589Y-71205795D01*
X136937834Y-71225991D01*
X136937838Y-71225991D01*
X136937842Y-71225991D01*
X137117087Y-71205795D01*
X137117090Y-71205794D01*
X137117093Y-71205794D01*
X137287360Y-71146215D01*
X137440100Y-71050242D01*
X137567654Y-70922688D01*
X137663627Y-70769948D01*
X137723206Y-70599681D01*
X137734437Y-70500001D01*
X137738140Y-70467136D01*
X141037252Y-70467136D01*
X141037252Y-70467143D01*
X141057447Y-70646389D01*
X141057448Y-70646394D01*
X141117028Y-70816663D01*
X141198603Y-70946488D01*
X141213001Y-70969402D01*
X141340555Y-71096956D01*
X141383826Y-71124145D01*
X141492909Y-71192687D01*
X141493295Y-71192929D01*
X141658472Y-71250727D01*
X141663562Y-71252508D01*
X141663567Y-71252509D01*
X141842813Y-71272705D01*
X141842817Y-71272705D01*
X141842819Y-71272705D01*
X141861616Y-71270587D01*
X141930438Y-71282641D01*
X141981817Y-71329990D01*
X141999500Y-71393806D01*
X141999500Y-71500369D01*
X141999501Y-71500376D01*
X142005908Y-71559983D01*
X142056202Y-71694828D01*
X142056206Y-71694835D01*
X142142452Y-71810044D01*
X142142455Y-71810047D01*
X142257664Y-71896293D01*
X142257667Y-71896295D01*
X142257668Y-71896295D01*
X142257669Y-71896296D01*
X142286025Y-71906872D01*
X142341958Y-71948742D01*
X142366376Y-72014206D01*
X142351525Y-72082479D01*
X142343010Y-72095939D01*
X142210213Y-72278719D01*
X142106417Y-72482429D01*
X142035765Y-72699871D01*
X142021491Y-72790000D01*
X143009252Y-72790000D01*
X142987482Y-72827708D01*
X142950000Y-72967591D01*
X142950000Y-73112409D01*
X142987482Y-73252292D01*
X143009252Y-73290000D01*
X142021491Y-73290000D01*
X142035765Y-73380128D01*
X142106417Y-73597570D01*
X142210211Y-73801276D01*
X142344597Y-73986242D01*
X142506257Y-74147902D01*
X142506263Y-74147907D01*
X142590863Y-74209372D01*
X142633529Y-74264701D01*
X142639508Y-74334315D01*
X142606903Y-74396110D01*
X142590864Y-74410007D01*
X142505940Y-74471709D01*
X142505931Y-74471716D01*
X142344216Y-74633431D01*
X142344216Y-74633432D01*
X142344214Y-74633434D01*
X142316088Y-74672146D01*
X142209783Y-74818461D01*
X142105950Y-75022244D01*
X142035278Y-75239750D01*
X142035278Y-75239753D01*
X142008164Y-75410944D01*
X141999500Y-75465646D01*
X141999500Y-75694354D01*
X142014994Y-75792179D01*
X142035278Y-75920246D01*
X142035278Y-75920249D01*
X142105950Y-76137755D01*
X142176088Y-76275408D01*
X142209783Y-76341538D01*
X142344214Y-76526566D01*
X142505934Y-76688286D01*
X142666573Y-76804997D01*
X142668884Y-76806676D01*
X142711549Y-76862006D01*
X142719218Y-76920877D01*
X142699584Y-77095140D01*
X142699584Y-77095147D01*
X142719779Y-77274393D01*
X142719780Y-77274398D01*
X142779360Y-77444667D01*
X142875333Y-77597406D01*
X143002887Y-77724960D01*
X143065312Y-77764184D01*
X143132241Y-77806239D01*
X143155627Y-77820933D01*
X143276971Y-77863393D01*
X143325894Y-77880512D01*
X143325899Y-77880513D01*
X143505145Y-77900709D01*
X143505149Y-77900709D01*
X143505153Y-77900709D01*
X143684398Y-77880513D01*
X143684401Y-77880512D01*
X143684404Y-77880512D01*
X143854671Y-77820933D01*
X144007411Y-77724960D01*
X144134965Y-77597406D01*
X144230938Y-77444666D01*
X144290517Y-77274399D01*
X144290518Y-77274393D01*
X144310714Y-77095147D01*
X144310714Y-77095141D01*
X144290300Y-76913962D01*
X144302354Y-76845140D01*
X144340634Y-76799760D01*
X144494066Y-76688286D01*
X144655786Y-76526566D01*
X144790217Y-76341538D01*
X144894048Y-76137758D01*
X144925810Y-76040005D01*
X144964721Y-75920249D01*
X144964721Y-75920248D01*
X144964722Y-75920245D01*
X145000500Y-75694354D01*
X145000500Y-75465646D01*
X144964722Y-75239755D01*
X144964721Y-75239751D01*
X144964721Y-75239750D01*
X144894049Y-75022244D01*
X144848200Y-74932261D01*
X144790217Y-74818462D01*
X144655786Y-74633434D01*
X144494066Y-74471714D01*
X144409134Y-74410007D01*
X144366470Y-74354678D01*
X144360491Y-74285064D01*
X144393097Y-74223269D01*
X144409137Y-74209371D01*
X144493739Y-74147905D01*
X144655402Y-73986242D01*
X144789788Y-73801276D01*
X144893582Y-73597570D01*
X144964234Y-73380128D01*
X144978509Y-73290000D01*
X143990748Y-73290000D01*
X144012518Y-73252292D01*
X144050000Y-73112409D01*
X144050000Y-72967591D01*
X144012518Y-72827708D01*
X143990748Y-72790000D01*
X144978509Y-72790000D01*
X144964234Y-72699871D01*
X144893582Y-72482429D01*
X144789788Y-72278723D01*
X144656988Y-72095940D01*
X144633508Y-72030133D01*
X144649333Y-71962079D01*
X144699439Y-71913384D01*
X144713966Y-71906875D01*
X144742331Y-71896296D01*
X144857546Y-71810046D01*
X144943796Y-71694831D01*
X144986190Y-71581167D01*
X145028061Y-71525233D01*
X145093525Y-71500816D01*
X145102372Y-71500500D01*
X145220846Y-71500500D01*
X145383777Y-71500500D01*
X145450816Y-71520185D01*
X145471458Y-71536819D01*
X150503949Y-76569310D01*
X150537434Y-76630633D01*
X150540268Y-76656991D01*
X150540268Y-82784932D01*
X150520583Y-82851971D01*
X150492434Y-82882783D01*
X150480257Y-82892260D01*
X150311833Y-83075217D01*
X150175826Y-83283393D01*
X150075936Y-83511118D01*
X150014892Y-83752175D01*
X150014890Y-83752187D01*
X149994357Y-83999994D01*
X149994357Y-84000005D01*
X150014890Y-84247812D01*
X150014892Y-84247824D01*
X150075936Y-84488881D01*
X150175826Y-84716606D01*
X150311833Y-84924782D01*
X150311836Y-84924785D01*
X150480256Y-85107738D01*
X150676491Y-85260474D01*
X150895190Y-85378828D01*
X151130386Y-85459571D01*
X151375665Y-85500500D01*
X151624335Y-85500500D01*
X151869614Y-85459571D01*
X152104810Y-85378828D01*
X152323509Y-85260474D01*
X152519744Y-85107738D01*
X152688164Y-84924785D01*
X152824173Y-84716607D01*
X152924063Y-84488881D01*
X152985108Y-84247821D01*
X152992717Y-84155996D01*
X153005643Y-84000005D01*
X153005643Y-83999994D01*
X152985109Y-83752187D01*
X152985107Y-83752175D01*
X152924063Y-83511118D01*
X152824173Y-83283393D01*
X152750820Y-83171118D01*
X152688164Y-83075215D01*
X152627317Y-83009118D01*
X152574038Y-82951240D01*
X152543116Y-82888586D01*
X152541268Y-82867258D01*
X152541268Y-81957120D01*
X152541866Y-81944959D01*
X152542064Y-81942949D01*
X152542064Y-81745869D01*
X152541865Y-81743849D01*
X152541268Y-81731696D01*
X152541268Y-76092665D01*
X152541267Y-76092663D01*
X152506971Y-75920246D01*
X152502819Y-75899374D01*
X152497453Y-75886420D01*
X152463559Y-75804592D01*
X152427400Y-75717295D01*
X152385723Y-75654921D01*
X152317907Y-75553426D01*
X152175454Y-75410973D01*
X152175423Y-75410944D01*
X149804471Y-73039992D01*
X157904671Y-73039992D01*
X157904671Y-73040007D01*
X157923964Y-73334363D01*
X157923965Y-73334373D01*
X157923966Y-73334380D01*
X157974811Y-73590000D01*
X157981518Y-73623716D01*
X157981521Y-73623730D01*
X158076349Y-73903080D01*
X158206825Y-74167660D01*
X158206829Y-74167667D01*
X158370725Y-74412955D01*
X158565241Y-74634758D01*
X158787044Y-74829274D01*
X159020630Y-74985351D01*
X159032335Y-74993172D01*
X159296923Y-75123652D01*
X159576278Y-75218481D01*
X159865620Y-75276034D01*
X159893888Y-75277886D01*
X160159993Y-75295329D01*
X160160000Y-75295329D01*
X160160007Y-75295329D01*
X160395675Y-75279881D01*
X160454380Y-75276034D01*
X160743722Y-75218481D01*
X161023077Y-75123652D01*
X161287665Y-74993172D01*
X161532957Y-74829273D01*
X161754758Y-74634758D01*
X161949273Y-74412957D01*
X162113172Y-74167665D01*
X162243652Y-73903077D01*
X162338481Y-73623722D01*
X162396034Y-73334380D01*
X162415329Y-73040000D01*
X162415329Y-73039992D01*
X162396035Y-72745636D01*
X162396034Y-72745620D01*
X162338481Y-72456278D01*
X162243652Y-72176923D01*
X162113172Y-71912336D01*
X162109520Y-71906871D01*
X162028512Y-71785633D01*
X161949273Y-71667043D01*
X161902176Y-71613339D01*
X161754758Y-71445241D01*
X161532955Y-71250725D01*
X161287667Y-71086829D01*
X161287660Y-71086825D01*
X161023080Y-70956349D01*
X160743730Y-70861521D01*
X160743724Y-70861519D01*
X160743722Y-70861519D01*
X160454380Y-70803966D01*
X160454373Y-70803965D01*
X160454363Y-70803964D01*
X160160007Y-70784671D01*
X160159993Y-70784671D01*
X159865636Y-70803964D01*
X159865624Y-70803965D01*
X159865620Y-70803966D01*
X159865612Y-70803967D01*
X159865609Y-70803968D01*
X159576283Y-70861518D01*
X159576269Y-70861521D01*
X159296919Y-70956349D01*
X159032334Y-71086828D01*
X158787041Y-71250728D01*
X158565241Y-71445241D01*
X158370728Y-71667041D01*
X158206828Y-71912334D01*
X158076349Y-72176919D01*
X157981521Y-72456269D01*
X157981518Y-72456283D01*
X157923968Y-72745609D01*
X157923964Y-72745636D01*
X157904671Y-73039992D01*
X149804471Y-73039992D01*
X146631038Y-69866559D01*
X146631018Y-69866537D01*
X146487344Y-69722863D01*
X146487340Y-69722860D01*
X146323479Y-69613371D01*
X146323470Y-69613366D01*
X146250874Y-69583296D01*
X146194724Y-69560038D01*
X146141395Y-69537949D01*
X146141391Y-69537948D01*
X146141387Y-69537946D01*
X146044747Y-69518724D01*
X145948103Y-69499500D01*
X145948100Y-69499500D01*
X145271329Y-69499500D01*
X145247138Y-69497117D01*
X145225832Y-69492879D01*
X145211344Y-69489997D01*
X145211343Y-69489997D01*
X145098828Y-69489997D01*
X145031789Y-69470312D01*
X144986034Y-69417508D01*
X144982646Y-69409330D01*
X144943797Y-69305171D01*
X144943793Y-69305164D01*
X144857547Y-69189955D01*
X144857544Y-69189952D01*
X144742335Y-69103706D01*
X144742328Y-69103702D01*
X144607482Y-69053408D01*
X144607483Y-69053408D01*
X144547883Y-69047001D01*
X144547881Y-69047000D01*
X144547873Y-69047000D01*
X144547864Y-69047000D01*
X142452129Y-69047000D01*
X142452123Y-69047001D01*
X142392516Y-69053408D01*
X142257671Y-69103702D01*
X142257664Y-69103706D01*
X142142455Y-69189952D01*
X142142452Y-69189955D01*
X142056206Y-69305164D01*
X142056202Y-69305171D01*
X142005908Y-69440017D01*
X141999501Y-69499616D01*
X141999500Y-69499635D01*
X141999500Y-69540472D01*
X141979815Y-69607511D01*
X141927011Y-69653266D01*
X141861621Y-69663693D01*
X141842817Y-69661575D01*
X141842813Y-69661575D01*
X141663567Y-69681770D01*
X141663562Y-69681771D01*
X141493293Y-69741351D01*
X141340554Y-69837324D01*
X141213001Y-69964877D01*
X141117028Y-70117616D01*
X141057448Y-70287885D01*
X141057447Y-70287890D01*
X141037252Y-70467136D01*
X137738140Y-70467136D01*
X137743403Y-70420429D01*
X137743403Y-70420422D01*
X137723207Y-70241176D01*
X137723206Y-70241171D01*
X137701773Y-70179920D01*
X137663627Y-70070904D01*
X137567654Y-69918164D01*
X137440100Y-69790610D01*
X137402947Y-69767265D01*
X137287361Y-69694637D01*
X137117092Y-69635057D01*
X137117087Y-69635056D01*
X136937842Y-69614861D01*
X136937834Y-69614861D01*
X136758588Y-69635056D01*
X136758580Y-69635058D01*
X136621489Y-69683028D01*
X136551710Y-69686589D01*
X136492854Y-69653667D01*
X136339141Y-69499954D01*
X136152734Y-69369432D01*
X136152732Y-69369431D01*
X135946497Y-69273261D01*
X135946488Y-69273258D01*
X135726697Y-69214366D01*
X135726693Y-69214365D01*
X135726692Y-69214365D01*
X135726691Y-69214364D01*
X135726686Y-69214364D01*
X135500002Y-69194532D01*
X135499998Y-69194532D01*
X135273313Y-69214364D01*
X135273302Y-69214366D01*
X135053511Y-69273258D01*
X135053502Y-69273261D01*
X134847267Y-69369431D01*
X134847265Y-69369432D01*
X134660858Y-69499954D01*
X134499953Y-69660859D01*
X134394919Y-69810865D01*
X134340342Y-69854490D01*
X134270844Y-69861684D01*
X134223353Y-69840027D01*
X134222724Y-69841029D01*
X134211690Y-69834096D01*
X134124633Y-69779394D01*
X134064089Y-69741351D01*
X133893820Y-69681771D01*
X133893815Y-69681770D01*
X133714570Y-69661575D01*
X133714562Y-69661575D01*
X133535316Y-69681770D01*
X133535311Y-69681771D01*
X133365042Y-69741351D01*
X133250591Y-69813266D01*
X133183354Y-69832266D01*
X133116519Y-69811898D01*
X133083045Y-69779396D01*
X133000047Y-69660861D01*
X133000045Y-69660859D01*
X133000044Y-69660857D01*
X132839141Y-69499954D01*
X132652734Y-69369432D01*
X132652732Y-69369431D01*
X132446497Y-69273261D01*
X132446488Y-69273258D01*
X132226697Y-69214366D01*
X132226693Y-69214365D01*
X132226692Y-69214365D01*
X132226691Y-69214364D01*
X132226686Y-69214364D01*
X132000002Y-69194532D01*
X131999998Y-69194532D01*
X131773313Y-69214364D01*
X131773302Y-69214366D01*
X131553511Y-69273258D01*
X131553502Y-69273261D01*
X131347267Y-69369431D01*
X131347265Y-69369432D01*
X131160858Y-69499954D01*
X130999954Y-69660858D01*
X130869432Y-69847265D01*
X130869431Y-69847267D01*
X130773261Y-70053502D01*
X130773258Y-70053511D01*
X130714366Y-70273302D01*
X130714364Y-70273313D01*
X130694532Y-70499998D01*
X124805468Y-70499998D01*
X124785635Y-70273308D01*
X124737873Y-70095056D01*
X124726741Y-70053511D01*
X124726738Y-70053502D01*
X124696675Y-69989032D01*
X124630568Y-69847266D01*
X124500047Y-69660861D01*
X124500045Y-69660858D01*
X124339141Y-69499954D01*
X124152734Y-69369432D01*
X124152732Y-69369431D01*
X123946497Y-69273261D01*
X123946488Y-69273258D01*
X123726697Y-69214366D01*
X123726693Y-69214365D01*
X123726692Y-69214365D01*
X123726691Y-69214364D01*
X123726686Y-69214364D01*
X123500002Y-69194532D01*
X123499998Y-69194532D01*
X123273313Y-69214364D01*
X123273302Y-69214366D01*
X123053511Y-69273258D01*
X123053502Y-69273261D01*
X122847267Y-69369431D01*
X122847265Y-69369432D01*
X122660858Y-69499954D01*
X122499953Y-69660859D01*
X122409199Y-69790471D01*
X122354622Y-69834096D01*
X122285124Y-69841290D01*
X122241652Y-69824341D01*
X122148018Y-69765506D01*
X121977746Y-69705925D01*
X121977741Y-69705924D01*
X121798496Y-69685729D01*
X121798488Y-69685729D01*
X121619242Y-69705924D01*
X121619237Y-69705925D01*
X121448968Y-69765505D01*
X121341479Y-69833046D01*
X121307352Y-69854490D01*
X121290334Y-69865183D01*
X121289052Y-69863143D01*
X121234767Y-69885283D01*
X121166076Y-69872502D01*
X121120611Y-69833046D01*
X121000045Y-69660858D01*
X120839141Y-69499954D01*
X120652734Y-69369432D01*
X120652732Y-69369431D01*
X120446497Y-69273261D01*
X120446488Y-69273258D01*
X120226697Y-69214366D01*
X120226693Y-69214365D01*
X120226692Y-69214365D01*
X120226691Y-69214364D01*
X120226686Y-69214364D01*
X120000002Y-69194532D01*
X119999998Y-69194532D01*
X119773313Y-69214364D01*
X119773302Y-69214366D01*
X119553511Y-69273258D01*
X119553502Y-69273261D01*
X119347267Y-69369431D01*
X119347265Y-69369432D01*
X119160858Y-69499954D01*
X118998691Y-69662122D01*
X118937368Y-69695607D01*
X118870055Y-69691482D01*
X118777839Y-69659213D01*
X118777826Y-69659210D01*
X118598581Y-69639015D01*
X118598573Y-69639015D01*
X118419327Y-69659210D01*
X118419322Y-69659211D01*
X118249053Y-69718791D01*
X118096314Y-69814764D01*
X117968761Y-69942317D01*
X117872788Y-70095056D01*
X117813208Y-70265325D01*
X117813207Y-70265330D01*
X117793012Y-70444576D01*
X112742121Y-70444576D01*
X112727188Y-70312044D01*
X112727187Y-70312039D01*
X112702389Y-70241171D01*
X112667608Y-70141772D01*
X112664427Y-70136710D01*
X112571634Y-69989031D01*
X112444081Y-69861478D01*
X112291342Y-69765505D01*
X112121073Y-69705925D01*
X112121068Y-69705924D01*
X111941823Y-69685729D01*
X111941815Y-69685729D01*
X111762569Y-69705924D01*
X111762561Y-69705926D01*
X111587265Y-69767265D01*
X111517487Y-69770826D01*
X111456859Y-69736097D01*
X111444740Y-69721352D01*
X111438529Y-69712481D01*
X111438526Y-69712478D01*
X111438524Y-69712475D01*
X111287521Y-69561472D01*
X111112578Y-69438977D01*
X111112579Y-69438977D01*
X110963436Y-69369431D01*
X110919030Y-69348724D01*
X110919026Y-69348723D01*
X110919022Y-69348721D01*
X110712752Y-69293452D01*
X110712748Y-69293451D01*
X110712747Y-69293451D01*
X110712746Y-69293450D01*
X110712741Y-69293450D01*
X110500002Y-69274838D01*
X110499998Y-69274838D01*
X110287258Y-69293450D01*
X110287247Y-69293452D01*
X110080977Y-69348721D01*
X110080968Y-69348725D01*
X109887421Y-69438977D01*
X109712478Y-69561472D01*
X109561472Y-69712478D01*
X109438977Y-69887421D01*
X109348725Y-70080968D01*
X109346870Y-70086064D01*
X109344749Y-70085292D01*
X109313406Y-70136710D01*
X109250558Y-70167237D01*
X109181183Y-70158939D01*
X109127307Y-70114452D01*
X109114169Y-70085685D01*
X109113130Y-70086064D01*
X109111279Y-70080983D01*
X109111276Y-70080970D01*
X109021021Y-69887419D01*
X108898529Y-69712481D01*
X108898527Y-69712478D01*
X108747521Y-69561472D01*
X108572578Y-69438977D01*
X108572579Y-69438977D01*
X108423436Y-69369431D01*
X108379030Y-69348724D01*
X108379026Y-69348723D01*
X108379022Y-69348721D01*
X108172752Y-69293452D01*
X108172748Y-69293451D01*
X108172747Y-69293451D01*
X108172746Y-69293450D01*
X108172741Y-69293450D01*
X107960002Y-69274838D01*
X107959998Y-69274838D01*
X107747258Y-69293450D01*
X107747247Y-69293452D01*
X107540977Y-69348721D01*
X107540968Y-69348725D01*
X107347421Y-69438977D01*
X107172478Y-69561472D01*
X107021472Y-69712478D01*
X106898977Y-69887421D01*
X106808725Y-70080968D01*
X106806870Y-70086064D01*
X106805031Y-70085394D01*
X106773104Y-70137715D01*
X106710242Y-70168212D01*
X106640870Y-70159883D01*
X106587015Y-70115371D01*
X106573571Y-70085903D01*
X106572658Y-70086236D01*
X106570802Y-70081140D01*
X106480586Y-69887669D01*
X106480582Y-69887663D01*
X106441584Y-69831968D01*
X105820000Y-70453552D01*
X105820000Y-70447339D01*
X105792741Y-70345606D01*
X105740080Y-70254394D01*
X105665606Y-70179920D01*
X105574394Y-70127259D01*
X105472661Y-70100000D01*
X105466447Y-70100000D01*
X106088030Y-69478415D01*
X106032329Y-69439413D01*
X105838859Y-69349197D01*
X105838853Y-69349194D01*
X105632662Y-69293945D01*
X105632654Y-69293944D01*
X105420002Y-69275340D01*
X105419998Y-69275340D01*
X105207345Y-69293944D01*
X105207337Y-69293945D01*
X105001146Y-69349194D01*
X105001140Y-69349197D01*
X104807671Y-69439412D01*
X104807669Y-69439413D01*
X104751969Y-69478415D01*
X104751968Y-69478415D01*
X105373554Y-70100000D01*
X105367339Y-70100000D01*
X105265606Y-70127259D01*
X105174394Y-70179920D01*
X105099920Y-70254394D01*
X105047259Y-70345606D01*
X105020000Y-70447339D01*
X105020000Y-70453553D01*
X104398415Y-69831968D01*
X104398415Y-69831969D01*
X104359413Y-69887669D01*
X104359412Y-69887671D01*
X104269197Y-70081140D01*
X104269194Y-70081146D01*
X104213945Y-70287337D01*
X104213944Y-70287345D01*
X104195340Y-70499997D01*
X100525500Y-70499997D01*
X100525500Y-65624500D01*
X100545185Y-65557461D01*
X100597989Y-65511706D01*
X100649500Y-65500500D01*
X176350500Y-65500500D01*
X176417539Y-65520185D01*
G37*
%TD.AperFunction*%
%TD*%
M02*
