%TF.GenerationSoftware,KiCad,Pcbnew,8.0.4*%
%TF.CreationDate,2024-08-20T14:49:07-07:00*%
%TF.ProjectId,oscillator,6f736369-6c6c-4617-946f-722e6b696361,rev?*%
%TF.SameCoordinates,Original*%
%TF.FileFunction,Copper,L1,Top*%
%TF.FilePolarity,Positive*%
%FSLAX46Y46*%
G04 Gerber Fmt 4.6, Leading zero omitted, Abs format (unit mm)*
G04 Created by KiCad (PCBNEW 8.0.4) date 2024-08-20 14:49:07*
%MOMM*%
%LPD*%
G01*
G04 APERTURE LIST*
%TA.AperFunction,Conductor*%
%ADD10C,2.300000*%
%TD*%
%TA.AperFunction,ComponentPad*%
%ADD11C,1.600000*%
%TD*%
%TA.AperFunction,ComponentPad*%
%ADD12O,1.600000X1.600000*%
%TD*%
%TA.AperFunction,ComponentPad*%
%ADD13R,1.600000X1.600000*%
%TD*%
%TA.AperFunction,ComponentPad*%
%ADD14R,1.800000X1.800000*%
%TD*%
%TA.AperFunction,ComponentPad*%
%ADD15O,1.800000X1.800000*%
%TD*%
%TA.AperFunction,ComponentPad*%
%ADD16C,2.000000*%
%TD*%
%TA.AperFunction,ComponentPad*%
%ADD17R,2.000000X1.905000*%
%TD*%
%TA.AperFunction,ComponentPad*%
%ADD18O,2.000000X1.905000*%
%TD*%
%TA.AperFunction,ComponentPad*%
%ADD19R,1.700000X1.700000*%
%TD*%
%TA.AperFunction,ComponentPad*%
%ADD20O,1.700000X1.700000*%
%TD*%
%TA.AperFunction,ComponentPad*%
%ADD21O,2.000000X2.000000*%
%TD*%
%TA.AperFunction,ComponentPad*%
%ADD22C,1.440000*%
%TD*%
%TA.AperFunction,ViaPad*%
%ADD23C,0.600000*%
%TD*%
%TA.AperFunction,Conductor*%
%ADD24C,1.000000*%
%TD*%
%TA.AperFunction,Conductor*%
%ADD25C,0.500000*%
%TD*%
G04 APERTURE END LIST*
%TO.N,GND*%
D10*
X184150000Y-84000000D02*
G75*
G02*
X181850000Y-84000000I-1150000J0D01*
G01*
X181850000Y-84000000D02*
G75*
G02*
X184150000Y-84000000I1150000J0D01*
G01*
%TD*%
D11*
%TO.P,C7,1*%
%TO.N,Net-(D2-K)*%
X150420000Y-105000000D03*
D12*
%TO.P,C7,2*%
%TO.N,GND*%
X160420000Y-105000000D03*
%TD*%
D11*
%TO.P,C2,1*%
%TO.N,Net-(U1-VI)*%
X132000000Y-70500000D03*
D12*
%TO.P,C2,2*%
%TO.N,GND*%
X132000000Y-80500000D03*
%TD*%
D11*
%TO.P,C8,1*%
%TO.N,Net-(C8-Pad1)*%
X129500000Y-112000000D03*
D12*
%TO.P,C8,2*%
%TO.N,Net-(J1-Pin_6)*%
X139500000Y-112000000D03*
%TD*%
D11*
%TO.P,C1,1*%
%TO.N,Net-(U1-VI)*%
X135500000Y-70500000D03*
D12*
%TO.P,C1,2*%
%TO.N,GND*%
X135500000Y-80500000D03*
%TD*%
D13*
%TO.P,U2,1*%
%TO.N,Net-(U2-Pad1)*%
X126880000Y-90960000D03*
D11*
%TO.P,U2,2*%
%TO.N,Net-(Y1-OUT)*%
X126880000Y-93500000D03*
%TO.P,U2,3*%
%TO.N,Net-(U2-Pad3)*%
X126880000Y-96040000D03*
%TO.P,U2,4*%
X126880000Y-98580000D03*
%TO.P,U2,5*%
X126880000Y-101120000D03*
%TO.P,U2,6*%
%TO.N,Net-(C8-Pad1)*%
X126880000Y-103660000D03*
%TO.P,U2,7,GND*%
%TO.N,GND*%
X126880000Y-106200000D03*
%TO.P,U2,8*%
%TO.N,Net-(U2-Pad1)*%
X134500000Y-106200000D03*
%TO.P,U2,9*%
%TO.N,Net-(U2-Pad10)*%
X134500000Y-103660000D03*
%TO.P,U2,10*%
X134500000Y-101120000D03*
%TO.P,U2,11*%
X134500000Y-98580000D03*
%TO.P,U2,12*%
%TO.N,Net-(D2-K)*%
X134500000Y-96040000D03*
%TO.P,U2,13*%
X134500000Y-93500000D03*
%TO.P,U2,14,VCC*%
%TO.N,Net-(D1-K)*%
X134500000Y-90960000D03*
%TD*%
D14*
%TO.P,D1,1,K*%
%TO.N,Net-(D1-K)*%
X142500000Y-87500000D03*
D15*
%TO.P,D1,2,A*%
%TO.N,GND*%
X142500000Y-97660000D03*
%TD*%
D11*
%TO.P,C6,1*%
%TO.N,Net-(Y1-Vcontrol)*%
X104500000Y-82500000D03*
D12*
%TO.P,C6,2*%
%TO.N,GND*%
X114500000Y-82500000D03*
%TD*%
D13*
%TO.P,Y1,1,Vcontrol*%
%TO.N,Net-(Y1-Vcontrol)*%
X105880000Y-90000000D03*
D11*
%TO.P,Y1,7,GND*%
%TO.N,GND*%
X105880000Y-105240000D03*
%TO.P,Y1,8,OUT*%
%TO.N,Net-(Y1-OUT)*%
X113500000Y-105240000D03*
%TO.P,Y1,14,Vcc*%
%TO.N,Net-(D1-K)*%
X113500000Y-90000000D03*
%TD*%
D16*
%TO.P,F1,1*%
%TO.N,Net-(U1-VI)*%
X151500000Y-84000000D03*
%TO.P,F1,2*%
%TO.N,Net-(P2-C)*%
X151500000Y-89080000D03*
%TD*%
D17*
%TO.P,U1,1,VI*%
%TO.N,Net-(U1-VI)*%
X143500000Y-70500000D03*
D18*
%TO.P,U1,2,GND*%
%TO.N,GND*%
X143500000Y-73040000D03*
%TO.P,U1,3,VO*%
%TO.N,Net-(D1-K)*%
X143500000Y-75580000D03*
%TD*%
D11*
%TO.P,C3,1*%
%TO.N,Net-(D1-K)*%
X120000000Y-70500000D03*
D12*
%TO.P,C3,2*%
%TO.N,GND*%
X120000000Y-80500000D03*
%TD*%
D11*
%TO.P,C4,1*%
%TO.N,Net-(D1-K)*%
X123500000Y-70500000D03*
D12*
%TO.P,C4,2*%
%TO.N,GND*%
X123500000Y-80500000D03*
%TD*%
D11*
%TO.P,R1,1*%
%TO.N,Net-(J1-Pin_4)*%
X150340000Y-101500000D03*
D12*
%TO.P,R1,2*%
%TO.N,Net-(D2-K)*%
X160500000Y-101500000D03*
%TD*%
D11*
%TO.P,R4,1*%
%TO.N,Net-(D2-K)*%
X150340000Y-108500000D03*
D12*
%TO.P,R4,2*%
%TO.N,GND*%
X160500000Y-108500000D03*
%TD*%
D14*
%TO.P,D2,1,K*%
%TO.N,Net-(D2-K)*%
X150340000Y-112000000D03*
D15*
%TO.P,D2,2,A*%
%TO.N,GND*%
X160500000Y-112000000D03*
%TD*%
D19*
%TO.P,P2,1,A*%
%TO.N,Net-(J1-Pin_7)*%
X160645504Y-91248248D03*
D20*
%TO.P,P2,2,C*%
%TO.N,Net-(P2-C)*%
X163185504Y-91248248D03*
%TO.P,P2,3,B*%
%TO.N,Net-(J1-Pin_4)*%
X165725504Y-91248248D03*
%TD*%
D19*
%TO.P,J1,1,Pin_1*%
%TO.N,unconnected-(J1-Pin_1-Pad1)*%
X171500000Y-73500000D03*
D20*
%TO.P,J1,2,Pin_2*%
%TO.N,unconnected-(J1-Pin_2-Pad2)*%
X171500000Y-76040000D03*
%TO.P,J1,3,Pin_3*%
%TO.N,unconnected-(J1-Pin_3-Pad3)*%
X171500000Y-78580000D03*
%TO.P,J1,4,Pin_4*%
%TO.N,Net-(J1-Pin_4)*%
X171500000Y-81120000D03*
%TO.P,J1,5,Pin_5*%
%TO.N,unconnected-(J1-Pin_5-Pad5)*%
X171500000Y-83660000D03*
%TO.P,J1,6,Pin_6*%
%TO.N,Net-(J1-Pin_6)*%
X171500000Y-86200000D03*
%TO.P,J1,7,Pin_7*%
%TO.N,Net-(J1-Pin_7)*%
X171500000Y-88740000D03*
%TO.P,J1,8,Pin_8*%
%TO.N,GND*%
X171500000Y-91280000D03*
%TO.P,J1,9,Pin_9*%
X171500000Y-93820000D03*
%TO.P,J1,10,Pin_10*%
X171500000Y-96360000D03*
D21*
%TO.P,J1,11,Pin_11*%
%TO.N,unconnected-(J1-Pin_11-Pad11)*%
X174040000Y-73500000D03*
%TO.P,J1,12,Pin_12*%
%TO.N,unconnected-(J1-Pin_12-Pad12)*%
X174040000Y-76040000D03*
%TO.P,J1,13,Pin_13*%
%TO.N,unconnected-(J1-Pin_13-Pad13)*%
X174040000Y-78580000D03*
%TO.P,J1,14,Pin_14*%
%TO.N,unconnected-(J1-Pin_14-Pad14)*%
X174040000Y-81120000D03*
%TO.P,J1,15,Pin_15*%
%TO.N,unconnected-(J1-Pin_15-Pad15)*%
X174040000Y-83660000D03*
%TO.P,J1,16,Pin_16*%
%TO.N,unconnected-(J1-Pin_16-Pad16)*%
X174040000Y-86200000D03*
%TO.P,J1,17,Pin_17*%
%TO.N,unconnected-(J1-Pin_17-Pad17)*%
X174040000Y-88740000D03*
%TO.P,J1,18,Pin_18*%
%TO.N,unconnected-(J1-Pin_18-Pad18)*%
X174040000Y-91280000D03*
%TO.P,J1,19,Pin_19*%
%TO.N,unconnected-(J1-Pin_19-Pad19)*%
X174040000Y-93820000D03*
%TO.P,J1,20,Pin_20*%
%TO.N,unconnected-(J1-Pin_20-Pad20)*%
X174040000Y-96360000D03*
%TD*%
D22*
%TO.P,R2,1,1*%
%TO.N,Net-(D1-K)*%
X110500000Y-70500000D03*
%TO.P,R2,2,2*%
%TO.N,Net-(Y1-Vcontrol)*%
X107960000Y-70500000D03*
%TO.P,R2,3,3*%
%TO.N,GND*%
X105420000Y-70500000D03*
%TD*%
D11*
%TO.P,R5,1*%
%TO.N,Net-(C8-Pad1)*%
X121000000Y-112000000D03*
D12*
%TO.P,R5,2*%
%TO.N,GND*%
X110840000Y-112000000D03*
%TD*%
D11*
%TO.P,C5,1*%
%TO.N,GND*%
X124500000Y-85000000D03*
D12*
%TO.P,C5,2*%
%TO.N,Net-(D1-K)*%
X134500000Y-85000000D03*
%TD*%
D23*
%TO.N,GND*%
X137680220Y-92124959D03*
X146298969Y-98378808D03*
X133843826Y-79039175D03*
X164955408Y-99640088D03*
X152395158Y-66636585D03*
X106989065Y-101426902D03*
X102732243Y-75938528D03*
X121966769Y-78881515D03*
X102259263Y-67109565D03*
X156942360Y-69856231D03*
X131636585Y-91809639D03*
X174625224Y-67372332D03*
X146929610Y-111149272D03*
X161312670Y-76870310D03*
X121336129Y-93018366D03*
X120337615Y-84820044D03*
X111403546Y-85871111D03*
X157072406Y-86238984D03*
X115870581Y-67792759D03*
X146351523Y-87237498D03*
X122649963Y-105578617D03*
X101996496Y-104632656D03*
X153974865Y-75953084D03*
X167500000Y-70000000D03*
X128693598Y-100060515D03*
X155390699Y-94227093D03*
X112191846Y-95330714D03*
X165796262Y-81982163D03*
X164692642Y-110781398D03*
X131741692Y-108416497D03*
X167228297Y-89262955D03*
X138521074Y-73100647D03*
X165350355Y-94135789D03*
X111666313Y-77094702D03*
X107199278Y-111674805D03*
X128798704Y-67372332D03*
X171524577Y-104580103D03*
X132539724Y-100553579D03*
X151061325Y-70179958D03*
X148363602Y-76951242D03*
X138994054Y-84031744D03*
X136837420Y-101285433D03*
X139940014Y-107312877D03*
%TO.N,Net-(U1-VI)*%
X141842817Y-70467140D03*
X151541564Y-81844410D03*
X136937838Y-70420426D03*
X145112803Y-70490497D03*
X133714566Y-70467140D03*
%TO.N,Net-(D1-K)*%
X123526913Y-74929132D03*
X123480199Y-71799288D03*
X135695933Y-85650015D03*
X121798492Y-70491294D03*
X137517782Y-87518579D03*
X118598577Y-70444580D03*
X115311427Y-89392716D03*
X141044696Y-87471865D03*
X143505149Y-77095144D03*
X111941819Y-70491294D03*
X133033230Y-84505520D03*
X143473829Y-85930300D03*
X135555791Y-89971068D03*
%TO.N,Net-(D2-K)*%
X149013813Y-104989619D03*
X146863122Y-104363122D03*
X150373712Y-106712849D03*
X159501716Y-102510380D03*
X143156386Y-102500000D03*
X135605690Y-97067098D03*
X134501716Y-94771620D03*
X151920468Y-104948095D03*
%TO.N,Net-(C8-Pad1)*%
X129500055Y-110541468D03*
X122302625Y-112001716D03*
X128294139Y-103660862D03*
X128192060Y-112001716D03*
%TO.N,Net-(J1-Pin_6)*%
X140693721Y-110828673D03*
X155247637Y-98888947D03*
X170020761Y-86275052D03*
%TO.N,Net-(Y1-OUT)*%
X125477521Y-93496567D03*
X114844286Y-103910004D03*
%TO.N,Net-(Y1-Vcontrol)*%
X107971122Y-71892716D03*
X104504901Y-88178150D03*
X104467565Y-83851523D03*
X105588703Y-81399033D03*
%TO.N,Net-(U2-Pad1)*%
X128044997Y-92102133D03*
X133294139Y-105077856D03*
%TO.N,Net-(U2-Pad3)*%
X126913684Y-97305180D03*
X126877145Y-99877021D03*
%TO.N,Net-(U2-Pad10)*%
X134522478Y-102375429D03*
X134532859Y-99795979D03*
%TO.N,Net-(J1-Pin_4)*%
X151939430Y-101471493D03*
X164674593Y-92327122D03*
X165723065Y-89638467D03*
%TO.N,Net-(J1-Pin_7)*%
X161788701Y-92379026D03*
X170041523Y-88724947D03*
%TO.N,Net-(P2-C)*%
X162712602Y-89690371D03*
X155769189Y-89155164D03*
%TD*%
D24*
%TO.N,Net-(U1-VI)*%
X141842817Y-70467140D02*
X141875677Y-70500000D01*
X133747426Y-70500000D02*
X135500000Y-70500000D01*
X141875677Y-70500000D02*
X143500000Y-70500000D01*
X137017412Y-70500000D02*
X141809957Y-70500000D01*
X133681706Y-70500000D02*
X133714566Y-70467140D01*
X136858264Y-70500000D02*
X136937838Y-70420426D01*
X136937838Y-70420426D02*
X137017412Y-70500000D01*
X135500000Y-70500000D02*
X136858264Y-70500000D01*
X132000000Y-70500000D02*
X133681706Y-70500000D01*
X141809957Y-70500000D02*
X141842817Y-70467140D01*
X133714566Y-70467140D02*
X133747426Y-70500000D01*
D25*
%TO.N,Net-(D1-K)*%
X143500000Y-77100293D02*
X143500000Y-85904129D01*
X117086349Y-79118964D02*
X117086349Y-87613193D01*
X137500000Y-87500000D02*
X141016561Y-87500000D01*
X123500000Y-71819089D02*
X123500000Y-74902219D01*
X133005520Y-84505520D02*
X133033230Y-84505520D01*
X118598577Y-70444580D02*
X118543157Y-70500000D01*
X123500000Y-70500000D02*
X121807198Y-70500000D01*
X118543157Y-70500000D02*
X111950525Y-70500000D01*
X120000000Y-70500000D02*
X118653997Y-70500000D01*
X123500000Y-70500000D02*
X123500000Y-71779487D01*
X118653997Y-70500000D02*
X118598577Y-70444580D01*
X143505149Y-77095144D02*
X143500000Y-77100293D01*
X143500000Y-75580000D02*
X143500000Y-77089995D01*
X121798492Y-70491294D02*
X121789786Y-70500000D01*
X137500000Y-87536361D02*
X137517782Y-87518579D01*
X123500000Y-75000000D02*
X121205313Y-75000000D01*
X137517782Y-87518579D02*
X137500000Y-87500797D01*
X115311427Y-89392716D02*
X115306826Y-89392716D01*
X133033230Y-84533230D02*
X133500000Y-85000000D01*
X143500000Y-86500000D02*
X142500000Y-87500000D01*
X117086349Y-87613193D02*
X115311427Y-89388115D01*
X121205313Y-75000000D02*
X117086349Y-79118964D01*
X133500000Y-85000000D02*
X134500000Y-85000000D01*
X141072831Y-87500000D02*
X142500000Y-87500000D01*
X135555791Y-89904209D02*
X137500000Y-87960000D01*
X123500000Y-74956045D02*
X123500000Y-75000000D01*
X114699542Y-90000000D02*
X113500000Y-90000000D01*
X123526913Y-74929132D02*
X123500000Y-74956045D01*
X135000000Y-85000000D02*
X135650015Y-85650015D01*
X123500000Y-71779487D02*
X123480199Y-71799288D01*
X115306826Y-89392716D02*
X114699542Y-90000000D01*
X121807198Y-70500000D02*
X121798492Y-70491294D01*
X111941819Y-70491294D02*
X111933113Y-70500000D01*
X137500000Y-87960000D02*
X137500000Y-87536361D01*
X134500000Y-90960000D02*
X135488932Y-89971068D01*
X135650015Y-85650015D02*
X135695933Y-85650015D01*
X123480199Y-71799288D02*
X123500000Y-71819089D01*
X143500000Y-85956471D02*
X143500000Y-86500000D01*
X137500000Y-87500797D02*
X137500000Y-87500000D01*
X143500000Y-77089995D02*
X143505149Y-77095144D01*
X135555791Y-89971068D02*
X135555791Y-89904209D01*
X111933113Y-70500000D02*
X110500000Y-70500000D01*
X123500000Y-75000000D02*
X133005520Y-84505520D01*
X135695933Y-85650015D02*
X135695933Y-85695933D01*
X115311427Y-89388115D02*
X115311427Y-89392716D01*
X135488932Y-89971068D02*
X135555791Y-89971068D01*
X134500000Y-85000000D02*
X135000000Y-85000000D01*
X135695933Y-85695933D02*
X137500000Y-87500000D01*
X143473829Y-85930300D02*
X143500000Y-85956471D01*
X141044696Y-87471865D02*
X141072831Y-87500000D01*
X143500000Y-85904129D02*
X143473829Y-85930300D01*
X121789786Y-70500000D02*
X120000000Y-70500000D01*
X111950525Y-70500000D02*
X111941819Y-70491294D01*
X133033230Y-84505520D02*
X133033230Y-84533230D01*
X123500000Y-74902219D02*
X123526913Y-74929132D01*
X141016561Y-87500000D02*
X141044696Y-87471865D01*
D24*
%TO.N,Net-(D2-K)*%
X135605690Y-97067098D02*
X135527098Y-97067098D01*
X150340000Y-106746561D02*
X150373712Y-106712849D01*
X149003432Y-105000000D02*
X147500000Y-105000000D01*
X150340000Y-108500000D02*
X150340000Y-106746561D01*
X143156386Y-102500000D02*
X140960000Y-102500000D01*
X134501716Y-94771620D02*
X134500000Y-94769904D01*
X150420000Y-105000000D02*
X151868563Y-105000000D01*
X151920468Y-104948095D02*
X151972373Y-105000000D01*
X159489620Y-102510380D02*
X159501716Y-102510380D01*
X149013813Y-104989619D02*
X149003432Y-105000000D01*
X134500000Y-94769904D02*
X134500000Y-93500000D01*
X150340000Y-105080000D02*
X150420000Y-105000000D01*
X150420000Y-105000000D02*
X149024194Y-105000000D01*
X150373712Y-106712849D02*
X150340000Y-106679137D01*
X147500000Y-105000000D02*
X146863122Y-104363122D01*
X135605690Y-97145690D02*
X135605690Y-97067098D01*
X150340000Y-108500000D02*
X150340000Y-112000000D01*
X135527098Y-97067098D02*
X134500000Y-96040000D01*
X151868563Y-105000000D02*
X151920468Y-104948095D01*
X134500000Y-96040000D02*
X134500000Y-94773336D01*
X157000000Y-105000000D02*
X159489620Y-102510380D01*
X159501716Y-102510380D02*
X159501716Y-102498284D01*
X150340000Y-106679137D02*
X150340000Y-105080000D01*
X140960000Y-102500000D02*
X135605690Y-97145690D01*
X134500000Y-94773336D02*
X134501716Y-94771620D01*
X159501716Y-102498284D02*
X160500000Y-101500000D01*
X151972373Y-105000000D02*
X157000000Y-105000000D01*
X149024194Y-105000000D02*
X149013813Y-104989619D01*
D25*
%TO.N,Net-(C8-Pad1)*%
X128192060Y-112001716D02*
X128190344Y-112000000D01*
X129500000Y-104851152D02*
X128308848Y-103660000D01*
X128295001Y-103660000D02*
X128294139Y-103660862D01*
X128293277Y-103660000D02*
X126880000Y-103660000D01*
X129500000Y-112000000D02*
X128193776Y-112000000D01*
X122300909Y-112000000D02*
X121000000Y-112000000D01*
X122304341Y-112000000D02*
X122302625Y-112001716D01*
X128294139Y-103660862D02*
X128293277Y-103660000D01*
X128308848Y-103660000D02*
X128295001Y-103660000D01*
X129500000Y-110541523D02*
X129500055Y-110541468D01*
X129500055Y-110541468D02*
X129500000Y-110541413D01*
X128193776Y-112000000D02*
X128192060Y-112001716D01*
X129500000Y-112000000D02*
X129500000Y-110541523D01*
X129500000Y-110541413D02*
X129500000Y-104851152D01*
X128190344Y-112000000D02*
X122304341Y-112000000D01*
X122302625Y-112001716D02*
X122300909Y-112000000D01*
D24*
%TO.N,Net-(J1-Pin_6)*%
X140671327Y-110828673D02*
X140693721Y-110828673D01*
X145095020Y-103060569D02*
X149266642Y-98888947D01*
X140693721Y-110828673D02*
X140693721Y-110806279D01*
X139500000Y-112000000D02*
X140671327Y-110828673D01*
X149266642Y-98888947D02*
X155247637Y-98888947D01*
X140693721Y-110806279D02*
X145095020Y-106404980D01*
X145095020Y-106404980D02*
X145095020Y-103060569D01*
D25*
%TO.N,Net-(Y1-OUT)*%
X114829996Y-103910004D02*
X114844286Y-103910004D01*
X114844286Y-103910004D02*
X114844286Y-103895714D01*
X114844286Y-103895714D02*
X125240000Y-93500000D01*
X113500000Y-105240000D02*
X114829996Y-103910004D01*
X125480954Y-93500000D02*
X126880000Y-93500000D01*
X125240000Y-93500000D02*
X125474088Y-93500000D01*
X125474088Y-93500000D02*
X125477521Y-93496567D01*
X125477521Y-93496567D02*
X125480954Y-93500000D01*
%TO.N,Net-(Y1-Vcontrol)*%
X104500000Y-82500000D02*
X104500000Y-83819088D01*
X107960000Y-70500000D02*
X107960000Y-71881594D01*
X107960000Y-71903838D02*
X107960000Y-79040000D01*
X104500000Y-88183051D02*
X104500000Y-88620000D01*
X105588703Y-81411297D02*
X104500000Y-82500000D01*
X104500000Y-83819088D02*
X104467565Y-83851523D01*
X107960000Y-71881594D02*
X107971122Y-71892716D01*
X104504901Y-88178150D02*
X104500000Y-88183051D01*
X105600967Y-81399033D02*
X105588703Y-81399033D01*
X104500000Y-88173249D02*
X104504901Y-88178150D01*
X105588703Y-81399033D02*
X105588703Y-81411297D01*
X107960000Y-79040000D02*
X105600967Y-81399033D01*
X104500000Y-83883958D02*
X104500000Y-88173249D01*
X107971122Y-71892716D02*
X107960000Y-71903838D01*
X104500000Y-88620000D02*
X105880000Y-90000000D01*
X104467565Y-83851523D02*
X104500000Y-83883958D01*
D24*
%TO.N,Net-(U2-Pad1)*%
X130443783Y-102143783D02*
X133294139Y-104994139D01*
X128044997Y-92124997D02*
X130443783Y-94523783D01*
X128022133Y-92102133D02*
X128044997Y-92102133D01*
X133294139Y-105077856D02*
X133377856Y-105077856D01*
X130443783Y-94523783D02*
X130443783Y-102143783D01*
X126880000Y-90960000D02*
X128022133Y-92102133D01*
X133377856Y-105077856D02*
X134500000Y-106200000D01*
X133294139Y-104994139D02*
X133294139Y-105077856D01*
X128044997Y-92102133D02*
X128044997Y-92124997D01*
D25*
%TO.N,Net-(U2-Pad3)*%
X126877145Y-99877021D02*
X126880000Y-99879876D01*
X126880000Y-96040000D02*
X126880000Y-97271496D01*
X126880000Y-97271496D02*
X126913684Y-97305180D01*
X126880000Y-98580000D02*
X126880000Y-99874166D01*
X126880000Y-99874166D02*
X126877145Y-99877021D01*
X126913684Y-97305180D02*
X126880000Y-97338864D01*
X126880000Y-97338864D02*
X126880000Y-98580000D01*
X126880000Y-99879876D02*
X126880000Y-101120000D01*
D24*
%TO.N,Net-(U2-Pad10)*%
X134532859Y-99795979D02*
X134500000Y-99828838D01*
X134500000Y-102397907D02*
X134500000Y-103660000D01*
X134500000Y-102352951D02*
X134522478Y-102375429D01*
X134500000Y-99763120D02*
X134532859Y-99795979D01*
X134500000Y-99828838D02*
X134500000Y-101120000D01*
X134500000Y-101120000D02*
X134500000Y-102352951D01*
X134500000Y-98580000D02*
X134500000Y-99763120D01*
X134522478Y-102375429D02*
X134500000Y-102397907D01*
D25*
%TO.N,Net-(J1-Pin_4)*%
X151939430Y-101471493D02*
X151910923Y-101500000D01*
X165725504Y-91248248D02*
X164674593Y-92299159D01*
X165725504Y-86894496D02*
X171500000Y-81120000D01*
X164674593Y-92327122D02*
X164646630Y-92327122D01*
X155473752Y-101500000D02*
X151967937Y-101500000D01*
X165723065Y-89638467D02*
X165725504Y-89636028D01*
X164674593Y-92299159D02*
X164674593Y-92327122D01*
X165725504Y-89636028D02*
X165725504Y-86894496D01*
X151967937Y-101500000D02*
X151939430Y-101471493D01*
X164646630Y-92327122D02*
X155473752Y-101500000D01*
X151910923Y-101500000D02*
X150340000Y-101500000D01*
X165725504Y-91248248D02*
X165725504Y-89640906D01*
X165725504Y-89640906D02*
X165723065Y-89638467D01*
D24*
%TO.N,Net-(P2-C)*%
X163185504Y-90226945D02*
X162712602Y-89754043D01*
X162648930Y-89690371D02*
X162038559Y-89080000D01*
X163185504Y-91248248D02*
X163185504Y-90226945D01*
X155694025Y-89080000D02*
X151500000Y-89080000D01*
X162712602Y-89754043D02*
X162712602Y-89690371D01*
X162712602Y-89690371D02*
X162648930Y-89690371D01*
X162038559Y-89080000D02*
X155844353Y-89080000D01*
X155769189Y-89155164D02*
X155694025Y-89080000D01*
X155844353Y-89080000D02*
X155769189Y-89155164D01*
%TD*%
%TA.AperFunction,Conductor*%
%TO.N,GND*%
G36*
X171750000Y-95926988D02*
G01*
X171692993Y-95894075D01*
X171565826Y-95860000D01*
X171434174Y-95860000D01*
X171307007Y-95894075D01*
X171250000Y-95926988D01*
X171250000Y-94253012D01*
X171307007Y-94285925D01*
X171434174Y-94320000D01*
X171565826Y-94320000D01*
X171692993Y-94285925D01*
X171750000Y-94253012D01*
X171750000Y-95926988D01*
G37*
%TD.AperFunction*%
%TA.AperFunction,Conductor*%
G36*
X171750000Y-93386988D02*
G01*
X171692993Y-93354075D01*
X171565826Y-93320000D01*
X171434174Y-93320000D01*
X171307007Y-93354075D01*
X171250000Y-93386988D01*
X171250000Y-91713012D01*
X171307007Y-91745925D01*
X171434174Y-91780000D01*
X171565826Y-91780000D01*
X171692993Y-91745925D01*
X171750000Y-91713012D01*
X171750000Y-93386988D01*
G37*
%TD.AperFunction*%
%TA.AperFunction,Conductor*%
G36*
X176417539Y-65520185D02*
G01*
X176463294Y-65572989D01*
X176474500Y-65624500D01*
X176474500Y-114375500D01*
X176454815Y-114442539D01*
X176402011Y-114488294D01*
X176350500Y-114499500D01*
X100649500Y-114499500D01*
X100582461Y-114479815D01*
X100536706Y-114427011D01*
X100525500Y-114375500D01*
X100525500Y-111749999D01*
X109561127Y-111749999D01*
X109561128Y-111750000D01*
X110524314Y-111750000D01*
X110519920Y-111754394D01*
X110467259Y-111845606D01*
X110440000Y-111947339D01*
X110440000Y-112052661D01*
X110467259Y-112154394D01*
X110519920Y-112245606D01*
X110524314Y-112250000D01*
X109561128Y-112250000D01*
X109613730Y-112446317D01*
X109613734Y-112446326D01*
X109709865Y-112652482D01*
X109840342Y-112838820D01*
X110001179Y-112999657D01*
X110187517Y-113130134D01*
X110393673Y-113226265D01*
X110393682Y-113226269D01*
X110589999Y-113278872D01*
X110590000Y-113278871D01*
X110590000Y-112315686D01*
X110594394Y-112320080D01*
X110685606Y-112372741D01*
X110787339Y-112400000D01*
X110892661Y-112400000D01*
X110994394Y-112372741D01*
X111085606Y-112320080D01*
X111090000Y-112315686D01*
X111090000Y-113278872D01*
X111286317Y-113226269D01*
X111286326Y-113226265D01*
X111492482Y-113130134D01*
X111678820Y-112999657D01*
X111839657Y-112838820D01*
X111970134Y-112652482D01*
X112066265Y-112446326D01*
X112066269Y-112446317D01*
X112118872Y-112250000D01*
X111155686Y-112250000D01*
X111160080Y-112245606D01*
X111212741Y-112154394D01*
X111240000Y-112052661D01*
X111240000Y-111947339D01*
X111212741Y-111845606D01*
X111160080Y-111754394D01*
X111155686Y-111750000D01*
X112118872Y-111750000D01*
X112118872Y-111749999D01*
X112066269Y-111553682D01*
X112066265Y-111553673D01*
X111970134Y-111347517D01*
X111839657Y-111161179D01*
X111678820Y-111000342D01*
X111492482Y-110869865D01*
X111286328Y-110773734D01*
X111090000Y-110721127D01*
X111090000Y-111684314D01*
X111085606Y-111679920D01*
X110994394Y-111627259D01*
X110892661Y-111600000D01*
X110787339Y-111600000D01*
X110685606Y-111627259D01*
X110594394Y-111679920D01*
X110590000Y-111684314D01*
X110590000Y-110721127D01*
X110393671Y-110773734D01*
X110187517Y-110869865D01*
X110001179Y-111000342D01*
X109840342Y-111161179D01*
X109709865Y-111347517D01*
X109613734Y-111553673D01*
X109613730Y-111553682D01*
X109561127Y-111749999D01*
X100525500Y-111749999D01*
X100525500Y-105239997D01*
X104575034Y-105239997D01*
X104575034Y-105240002D01*
X104594858Y-105466599D01*
X104594860Y-105466610D01*
X104653730Y-105686317D01*
X104653735Y-105686331D01*
X104749863Y-105892478D01*
X104800974Y-105965472D01*
X105480000Y-105286446D01*
X105480000Y-105292661D01*
X105507259Y-105394394D01*
X105559920Y-105485606D01*
X105634394Y-105560080D01*
X105725606Y-105612741D01*
X105827339Y-105640000D01*
X105833553Y-105640000D01*
X105154526Y-106319025D01*
X105227513Y-106370132D01*
X105227521Y-106370136D01*
X105433668Y-106466264D01*
X105433682Y-106466269D01*
X105653389Y-106525139D01*
X105653400Y-106525141D01*
X105879998Y-106544966D01*
X105880002Y-106544966D01*
X106106599Y-106525141D01*
X106106610Y-106525139D01*
X106326317Y-106466269D01*
X106326331Y-106466264D01*
X106532478Y-106370136D01*
X106605471Y-106319024D01*
X105926447Y-105640000D01*
X105932661Y-105640000D01*
X106034394Y-105612741D01*
X106125606Y-105560080D01*
X106200080Y-105485606D01*
X106252741Y-105394394D01*
X106280000Y-105292661D01*
X106280000Y-105286447D01*
X106959024Y-105965471D01*
X107010136Y-105892478D01*
X107106264Y-105686331D01*
X107106269Y-105686317D01*
X107165139Y-105466610D01*
X107165141Y-105466599D01*
X107184966Y-105240002D01*
X107184966Y-105239997D01*
X107165141Y-105013400D01*
X107165139Y-105013389D01*
X107106269Y-104793682D01*
X107106264Y-104793668D01*
X107010136Y-104587521D01*
X107010132Y-104587513D01*
X106959025Y-104514526D01*
X106280000Y-105193551D01*
X106280000Y-105187339D01*
X106252741Y-105085606D01*
X106200080Y-104994394D01*
X106125606Y-104919920D01*
X106034394Y-104867259D01*
X105932661Y-104840000D01*
X105926448Y-104840000D01*
X106605472Y-104160974D01*
X106532478Y-104109863D01*
X106326331Y-104013735D01*
X106326317Y-104013730D01*
X106106610Y-103954860D01*
X106106599Y-103954858D01*
X105880002Y-103935034D01*
X105879998Y-103935034D01*
X105653400Y-103954858D01*
X105653389Y-103954860D01*
X105433682Y-104013730D01*
X105433673Y-104013734D01*
X105227516Y-104109866D01*
X105227512Y-104109868D01*
X105154526Y-104160973D01*
X105154526Y-104160974D01*
X105833553Y-104840000D01*
X105827339Y-104840000D01*
X105725606Y-104867259D01*
X105634394Y-104919920D01*
X105559920Y-104994394D01*
X105507259Y-105085606D01*
X105480000Y-105187339D01*
X105480000Y-105193552D01*
X104800974Y-104514526D01*
X104800973Y-104514526D01*
X104749868Y-104587512D01*
X104749866Y-104587516D01*
X104653734Y-104793673D01*
X104653730Y-104793682D01*
X104594860Y-105013389D01*
X104594858Y-105013400D01*
X104575034Y-105239997D01*
X100525500Y-105239997D01*
X100525500Y-82499998D01*
X103194532Y-82499998D01*
X103194532Y-82500001D01*
X103214364Y-82726686D01*
X103214366Y-82726697D01*
X103273258Y-82946488D01*
X103273261Y-82946497D01*
X103369431Y-83152732D01*
X103369432Y-83152734D01*
X103499954Y-83339141D01*
X103664689Y-83503876D01*
X103663241Y-83505323D01*
X103697007Y-83556074D01*
X103698116Y-83625934D01*
X103695641Y-83633846D01*
X103682196Y-83672270D01*
X103662000Y-83851519D01*
X103662000Y-83851526D01*
X103682195Y-84030772D01*
X103682198Y-84030785D01*
X103742541Y-84203231D01*
X103749500Y-84244186D01*
X103749500Y-87892183D01*
X103742542Y-87933137D01*
X103719533Y-87998892D01*
X103719531Y-87998900D01*
X103699336Y-88178146D01*
X103699336Y-88178153D01*
X103719531Y-88357396D01*
X103719533Y-88357406D01*
X103742541Y-88423157D01*
X103749500Y-88464112D01*
X103749500Y-88693918D01*
X103749500Y-88693920D01*
X103749499Y-88693920D01*
X103778340Y-88838907D01*
X103778343Y-88838917D01*
X103834914Y-88975492D01*
X103857069Y-89008649D01*
X103857070Y-89008652D01*
X103917046Y-89098414D01*
X103917052Y-89098421D01*
X104543181Y-89724549D01*
X104576666Y-89785872D01*
X104579500Y-89812230D01*
X104579500Y-90847870D01*
X104579501Y-90847876D01*
X104585908Y-90907483D01*
X104636202Y-91042328D01*
X104636206Y-91042335D01*
X104722452Y-91157544D01*
X104722455Y-91157547D01*
X104837664Y-91243793D01*
X104837671Y-91243797D01*
X104972517Y-91294091D01*
X104972516Y-91294091D01*
X104979444Y-91294835D01*
X105032127Y-91300500D01*
X106727872Y-91300499D01*
X106787483Y-91294091D01*
X106922331Y-91243796D01*
X107037546Y-91157546D01*
X107123796Y-91042331D01*
X107174091Y-90907483D01*
X107180500Y-90847873D01*
X107180499Y-89152128D01*
X107174091Y-89092517D01*
X107169424Y-89080005D01*
X107123797Y-88957671D01*
X107123793Y-88957664D01*
X107037547Y-88842455D01*
X107037544Y-88842452D01*
X106922335Y-88756206D01*
X106922328Y-88756202D01*
X106787482Y-88705908D01*
X106787483Y-88705908D01*
X106727883Y-88699501D01*
X106727881Y-88699500D01*
X106727873Y-88699500D01*
X106727865Y-88699500D01*
X105692230Y-88699500D01*
X105625191Y-88679815D01*
X105604549Y-88663181D01*
X105333355Y-88391987D01*
X105299870Y-88330664D01*
X105297816Y-88290422D01*
X105310466Y-88178152D01*
X105310466Y-88178146D01*
X105291650Y-88011151D01*
X105290269Y-87998895D01*
X105262971Y-87920882D01*
X105257458Y-87905125D01*
X105250500Y-87864171D01*
X105250500Y-84055410D01*
X105252491Y-84037737D01*
X105252154Y-84037699D01*
X105273130Y-83851526D01*
X105273130Y-83851519D01*
X105252154Y-83665349D01*
X105252491Y-83665310D01*
X105250500Y-83647637D01*
X105250500Y-83626662D01*
X105270185Y-83559623D01*
X105303379Y-83525086D01*
X105323326Y-83511119D01*
X105339139Y-83500047D01*
X105500047Y-83339139D01*
X105630568Y-83152734D01*
X105726739Y-82946496D01*
X105785635Y-82726692D01*
X105802634Y-82532384D01*
X105805468Y-82500001D01*
X105805468Y-82499999D01*
X105799444Y-82431143D01*
X105790869Y-82333137D01*
X105804635Y-82264639D01*
X105815414Y-82249999D01*
X113221127Y-82249999D01*
X113221128Y-82250000D01*
X114184314Y-82250000D01*
X114179920Y-82254394D01*
X114127259Y-82345606D01*
X114100000Y-82447339D01*
X114100000Y-82552661D01*
X114127259Y-82654394D01*
X114179920Y-82745606D01*
X114184314Y-82750000D01*
X113221128Y-82750000D01*
X113273730Y-82946317D01*
X113273734Y-82946326D01*
X113369865Y-83152482D01*
X113500342Y-83338820D01*
X113661179Y-83499657D01*
X113847517Y-83630134D01*
X114053673Y-83726265D01*
X114053682Y-83726269D01*
X114249999Y-83778872D01*
X114250000Y-83778871D01*
X114250000Y-82815686D01*
X114254394Y-82820080D01*
X114345606Y-82872741D01*
X114447339Y-82900000D01*
X114552661Y-82900000D01*
X114654394Y-82872741D01*
X114745606Y-82820080D01*
X114750000Y-82815686D01*
X114750000Y-83778872D01*
X114946317Y-83726269D01*
X114946326Y-83726265D01*
X115152482Y-83630134D01*
X115338820Y-83499657D01*
X115499657Y-83338820D01*
X115630134Y-83152482D01*
X115726265Y-82946326D01*
X115726269Y-82946317D01*
X115778872Y-82750000D01*
X114815686Y-82750000D01*
X114820080Y-82745606D01*
X114872741Y-82654394D01*
X114900000Y-82552661D01*
X114900000Y-82447339D01*
X114872741Y-82345606D01*
X114820080Y-82254394D01*
X114815686Y-82250000D01*
X115778872Y-82250000D01*
X115778872Y-82249999D01*
X115726269Y-82053682D01*
X115726265Y-82053673D01*
X115630134Y-81847517D01*
X115499657Y-81661179D01*
X115338820Y-81500342D01*
X115152482Y-81369865D01*
X114946328Y-81273734D01*
X114750000Y-81221127D01*
X114750000Y-82184314D01*
X114745606Y-82179920D01*
X114654394Y-82127259D01*
X114552661Y-82100000D01*
X114447339Y-82100000D01*
X114345606Y-82127259D01*
X114254394Y-82179920D01*
X114250000Y-82184314D01*
X114250000Y-81221127D01*
X114053671Y-81273734D01*
X113847517Y-81369865D01*
X113661179Y-81500342D01*
X113500342Y-81661179D01*
X113369865Y-81847517D01*
X113273734Y-82053673D01*
X113273730Y-82053682D01*
X113221127Y-82249999D01*
X105815414Y-82249999D01*
X105826713Y-82234653D01*
X105923827Y-82137539D01*
X105945527Y-82120233D01*
X106090965Y-82028849D01*
X106218519Y-81901295D01*
X106309901Y-81755860D01*
X106327207Y-81734159D01*
X108542951Y-79518416D01*
X108625084Y-79395495D01*
X108681658Y-79258913D01*
X108686334Y-79235405D01*
X108710500Y-79113918D01*
X108710500Y-72224469D01*
X108717459Y-72183514D01*
X108725371Y-72160902D01*
X108756490Y-72071971D01*
X108762165Y-72021602D01*
X108776687Y-71892719D01*
X108776687Y-71892712D01*
X108756491Y-71713466D01*
X108756489Y-71713458D01*
X108717458Y-71601912D01*
X108710500Y-71560958D01*
X108710500Y-71526911D01*
X108730185Y-71459872D01*
X108746819Y-71439230D01*
X108898527Y-71287521D01*
X108898529Y-71287519D01*
X109021021Y-71112581D01*
X109111276Y-70919030D01*
X109111280Y-70919013D01*
X109113130Y-70913936D01*
X109115253Y-70914709D01*
X109146576Y-70863305D01*
X109209419Y-70832766D01*
X109278796Y-70841050D01*
X109332680Y-70885528D01*
X109345827Y-70914315D01*
X109346870Y-70913936D01*
X109348722Y-70919023D01*
X109348724Y-70919030D01*
X109383105Y-70992759D01*
X109438977Y-71112578D01*
X109561472Y-71287521D01*
X109712478Y-71438527D01*
X109712481Y-71438529D01*
X109887419Y-71561021D01*
X109887421Y-71561022D01*
X109887420Y-71561022D01*
X109930622Y-71581167D01*
X110080970Y-71651276D01*
X110287253Y-71706549D01*
X110439215Y-71719844D01*
X110499998Y-71725162D01*
X110500000Y-71725162D01*
X110500002Y-71725162D01*
X110553186Y-71720508D01*
X110712747Y-71706549D01*
X110919030Y-71651276D01*
X111112581Y-71561021D01*
X111287519Y-71438529D01*
X111438529Y-71287519D01*
X111438531Y-71287515D01*
X111439228Y-71286819D01*
X111500552Y-71253334D01*
X111526910Y-71250500D01*
X111666728Y-71250500D01*
X111707683Y-71257459D01*
X111762556Y-71276660D01*
X111762562Y-71276661D01*
X111762564Y-71276662D01*
X111762565Y-71276662D01*
X111762569Y-71276663D01*
X111941815Y-71296859D01*
X111941819Y-71296859D01*
X111941823Y-71296859D01*
X112121068Y-71276663D01*
X112121070Y-71276662D01*
X112121074Y-71276662D01*
X112121077Y-71276660D01*
X112121081Y-71276660D01*
X112175955Y-71257459D01*
X112216910Y-71250500D01*
X118469240Y-71250500D01*
X118580079Y-71250500D01*
X118580080Y-71250500D01*
X118727915Y-71250500D01*
X118873337Y-71250500D01*
X118940376Y-71270185D01*
X118974912Y-71303377D01*
X118999954Y-71339141D01*
X119160858Y-71500045D01*
X119189621Y-71520185D01*
X119347266Y-71630568D01*
X119553504Y-71726739D01*
X119773308Y-71785635D01*
X119929397Y-71799291D01*
X119999998Y-71805468D01*
X120000000Y-71805468D01*
X120000002Y-71805468D01*
X120070603Y-71799291D01*
X120226692Y-71785635D01*
X120446496Y-71726739D01*
X120652734Y-71630568D01*
X120839139Y-71500047D01*
X121000047Y-71339139D01*
X121025088Y-71303377D01*
X121079665Y-71259752D01*
X121126663Y-71250500D01*
X121523401Y-71250500D01*
X121564356Y-71257459D01*
X121619229Y-71276660D01*
X121619235Y-71276661D01*
X121619237Y-71276662D01*
X121619238Y-71276662D01*
X121619242Y-71276663D01*
X121798488Y-71296859D01*
X121798492Y-71296859D01*
X121798496Y-71296859D01*
X121977741Y-71276663D01*
X121977743Y-71276662D01*
X121977747Y-71276662D01*
X121977750Y-71276660D01*
X121977754Y-71276660D01*
X122032628Y-71257459D01*
X122073583Y-71250500D01*
X122373337Y-71250500D01*
X122440376Y-71270185D01*
X122474912Y-71303377D01*
X122499954Y-71339141D01*
X122662354Y-71501541D01*
X122695839Y-71562864D01*
X122695585Y-71613110D01*
X122695610Y-71613113D01*
X122695584Y-71613339D01*
X122695567Y-71616800D01*
X122694831Y-71620025D01*
X122674634Y-71799284D01*
X122674634Y-71799291D01*
X122694829Y-71978537D01*
X122694830Y-71978542D01*
X122742542Y-72114893D01*
X122749500Y-72155848D01*
X122749500Y-74125500D01*
X122729815Y-74192539D01*
X122677011Y-74238294D01*
X122625500Y-74249500D01*
X121131389Y-74249500D01*
X121102555Y-74255234D01*
X121102556Y-74255235D01*
X120986405Y-74278339D01*
X120986399Y-74278341D01*
X120935763Y-74299316D01*
X120849821Y-74334914D01*
X120849812Y-74334919D01*
X120809508Y-74361850D01*
X120809507Y-74361851D01*
X120726892Y-74417051D01*
X120726891Y-74417052D01*
X116503396Y-78640548D01*
X116503394Y-78640550D01*
X116482402Y-78671969D01*
X116474026Y-78684506D01*
X116447554Y-78724123D01*
X116421263Y-78763471D01*
X116364692Y-78900046D01*
X116364689Y-78900056D01*
X116335849Y-79045043D01*
X116335849Y-87250962D01*
X116316164Y-87318001D01*
X116299530Y-87338643D01*
X114994821Y-88643351D01*
X114967497Y-88662741D01*
X114967800Y-88663223D01*
X114809164Y-88762900D01*
X114681611Y-88890453D01*
X114589931Y-89036361D01*
X114537596Y-89082652D01*
X114468542Y-89093300D01*
X114404694Y-89064925D01*
X114397267Y-89058081D01*
X114339139Y-88999953D01*
X114339138Y-88999952D01*
X114339137Y-88999951D01*
X114152734Y-88869432D01*
X114152732Y-88869431D01*
X113946497Y-88773261D01*
X113946488Y-88773258D01*
X113726697Y-88714366D01*
X113726693Y-88714365D01*
X113726692Y-88714365D01*
X113726691Y-88714364D01*
X113726686Y-88714364D01*
X113500002Y-88694532D01*
X113499998Y-88694532D01*
X113273313Y-88714364D01*
X113273302Y-88714366D01*
X113053511Y-88773258D01*
X113053502Y-88773261D01*
X112847267Y-88869431D01*
X112847265Y-88869432D01*
X112660858Y-88999954D01*
X112499954Y-89160858D01*
X112369432Y-89347265D01*
X112369431Y-89347267D01*
X112273261Y-89553502D01*
X112273258Y-89553511D01*
X112214366Y-89773302D01*
X112214364Y-89773313D01*
X112194532Y-89999998D01*
X112194532Y-90000001D01*
X112214364Y-90226686D01*
X112214366Y-90226697D01*
X112273258Y-90446488D01*
X112273261Y-90446497D01*
X112369431Y-90652732D01*
X112369432Y-90652734D01*
X112499954Y-90839141D01*
X112660858Y-91000045D01*
X112660861Y-91000047D01*
X112847266Y-91130568D01*
X113053504Y-91226739D01*
X113273308Y-91285635D01*
X113435230Y-91299801D01*
X113499998Y-91305468D01*
X113500000Y-91305468D01*
X113500002Y-91305468D01*
X113556807Y-91300498D01*
X113726692Y-91285635D01*
X113946496Y-91226739D01*
X114152734Y-91130568D01*
X114339139Y-91000047D01*
X114500047Y-90839139D01*
X114525088Y-90803377D01*
X114579665Y-90759752D01*
X114626663Y-90750500D01*
X114773462Y-90750500D01*
X114871004Y-90731096D01*
X114918455Y-90721658D01*
X115055037Y-90665084D01*
X115115633Y-90624595D01*
X115177958Y-90582952D01*
X115612408Y-90148499D01*
X115654825Y-90121848D01*
X115654671Y-90121529D01*
X115657510Y-90120161D01*
X115659138Y-90119139D01*
X115660946Y-90118506D01*
X115660945Y-90118506D01*
X115660949Y-90118505D01*
X115813689Y-90022532D01*
X115941243Y-89894978D01*
X116037216Y-89742238D01*
X116037847Y-89740432D01*
X116038864Y-89738814D01*
X116040237Y-89735964D01*
X116040558Y-89736118D01*
X116067208Y-89693700D01*
X117669301Y-88091609D01*
X117723062Y-88011148D01*
X117751433Y-87968688D01*
X117808007Y-87832106D01*
X117836849Y-87687111D01*
X117836849Y-84999997D01*
X123195034Y-84999997D01*
X123195034Y-85000002D01*
X123214858Y-85226599D01*
X123214860Y-85226610D01*
X123273730Y-85446317D01*
X123273735Y-85446331D01*
X123369863Y-85652478D01*
X123420974Y-85725472D01*
X124100000Y-85046446D01*
X124100000Y-85052661D01*
X124127259Y-85154394D01*
X124179920Y-85245606D01*
X124254394Y-85320080D01*
X124345606Y-85372741D01*
X124447339Y-85400000D01*
X124453553Y-85400000D01*
X123774526Y-86079025D01*
X123847513Y-86130132D01*
X123847521Y-86130136D01*
X124053668Y-86226264D01*
X124053682Y-86226269D01*
X124273389Y-86285139D01*
X124273400Y-86285141D01*
X124499998Y-86304966D01*
X124500002Y-86304966D01*
X124726599Y-86285141D01*
X124726610Y-86285139D01*
X124946317Y-86226269D01*
X124946331Y-86226264D01*
X125152478Y-86130136D01*
X125225471Y-86079024D01*
X124546447Y-85400000D01*
X124552661Y-85400000D01*
X124654394Y-85372741D01*
X124745606Y-85320080D01*
X124820080Y-85245606D01*
X124872741Y-85154394D01*
X124900000Y-85052661D01*
X124900000Y-85046447D01*
X125579024Y-85725471D01*
X125630136Y-85652478D01*
X125726264Y-85446331D01*
X125726269Y-85446317D01*
X125785139Y-85226610D01*
X125785141Y-85226599D01*
X125804966Y-85000002D01*
X125804966Y-84999997D01*
X125785141Y-84773400D01*
X125785139Y-84773389D01*
X125726269Y-84553682D01*
X125726264Y-84553668D01*
X125630136Y-84347521D01*
X125630132Y-84347513D01*
X125579025Y-84274526D01*
X124900000Y-84953551D01*
X124900000Y-84947339D01*
X124872741Y-84845606D01*
X124820080Y-84754394D01*
X124745606Y-84679920D01*
X124654394Y-84627259D01*
X124552661Y-84600000D01*
X124546448Y-84600000D01*
X125225472Y-83920974D01*
X125152478Y-83869863D01*
X124946331Y-83773735D01*
X124946317Y-83773730D01*
X124726610Y-83714860D01*
X124726599Y-83714858D01*
X124500002Y-83695034D01*
X124499998Y-83695034D01*
X124273400Y-83714858D01*
X124273389Y-83714860D01*
X124053682Y-83773730D01*
X124053673Y-83773734D01*
X123847516Y-83869866D01*
X123847512Y-83869868D01*
X123774526Y-83920973D01*
X123774526Y-83920974D01*
X124453553Y-84600000D01*
X124447339Y-84600000D01*
X124345606Y-84627259D01*
X124254394Y-84679920D01*
X124179920Y-84754394D01*
X124127259Y-84845606D01*
X124100000Y-84947339D01*
X124100000Y-84953552D01*
X123420974Y-84274526D01*
X123420973Y-84274526D01*
X123369868Y-84347512D01*
X123369866Y-84347516D01*
X123273734Y-84553673D01*
X123273730Y-84553682D01*
X123214860Y-84773389D01*
X123214858Y-84773400D01*
X123195034Y-84999997D01*
X117836849Y-84999997D01*
X117836849Y-80249999D01*
X118721127Y-80249999D01*
X118721128Y-80250000D01*
X119684314Y-80250000D01*
X119679920Y-80254394D01*
X119627259Y-80345606D01*
X119600000Y-80447339D01*
X119600000Y-80552661D01*
X119627259Y-80654394D01*
X119679920Y-80745606D01*
X119684314Y-80750000D01*
X118721128Y-80750000D01*
X118773730Y-80946317D01*
X118773734Y-80946326D01*
X118869865Y-81152482D01*
X119000342Y-81338820D01*
X119161179Y-81499657D01*
X119347517Y-81630134D01*
X119553673Y-81726265D01*
X119553682Y-81726269D01*
X119749999Y-81778872D01*
X119750000Y-81778871D01*
X119750000Y-80815686D01*
X119754394Y-80820080D01*
X119845606Y-80872741D01*
X119947339Y-80900000D01*
X120052661Y-80900000D01*
X120154394Y-80872741D01*
X120245606Y-80820080D01*
X120250000Y-80815686D01*
X120250000Y-81778872D01*
X120446317Y-81726269D01*
X120446326Y-81726265D01*
X120652482Y-81630134D01*
X120838820Y-81499657D01*
X120999657Y-81338820D01*
X121130134Y-81152482D01*
X121226265Y-80946326D01*
X121226269Y-80946317D01*
X121278872Y-80750000D01*
X120315686Y-80750000D01*
X120320080Y-80745606D01*
X120372741Y-80654394D01*
X120400000Y-80552661D01*
X120400000Y-80447339D01*
X120372741Y-80345606D01*
X120320080Y-80254394D01*
X120315686Y-80250000D01*
X121278872Y-80250000D01*
X121278872Y-80249999D01*
X122221127Y-80249999D01*
X122221128Y-80250000D01*
X123184314Y-80250000D01*
X123179920Y-80254394D01*
X123127259Y-80345606D01*
X123100000Y-80447339D01*
X123100000Y-80552661D01*
X123127259Y-80654394D01*
X123179920Y-80745606D01*
X123184314Y-80750000D01*
X122221128Y-80750000D01*
X122273730Y-80946317D01*
X122273734Y-80946326D01*
X122369865Y-81152482D01*
X122500342Y-81338820D01*
X122661179Y-81499657D01*
X122847517Y-81630134D01*
X123053673Y-81726265D01*
X123053682Y-81726269D01*
X123249999Y-81778872D01*
X123250000Y-81778871D01*
X123250000Y-80815686D01*
X123254394Y-80820080D01*
X123345606Y-80872741D01*
X123447339Y-80900000D01*
X123552661Y-80900000D01*
X123654394Y-80872741D01*
X123745606Y-80820080D01*
X123750000Y-80815686D01*
X123750000Y-81778872D01*
X123946317Y-81726269D01*
X123946326Y-81726265D01*
X124152482Y-81630134D01*
X124338820Y-81499657D01*
X124499657Y-81338820D01*
X124630134Y-81152482D01*
X124726265Y-80946326D01*
X124726269Y-80946317D01*
X124778872Y-80750000D01*
X123815686Y-80750000D01*
X123820080Y-80745606D01*
X123872741Y-80654394D01*
X123900000Y-80552661D01*
X123900000Y-80447339D01*
X123872741Y-80345606D01*
X123820080Y-80254394D01*
X123815686Y-80250000D01*
X124778872Y-80250000D01*
X124778872Y-80249999D01*
X124726269Y-80053682D01*
X124726265Y-80053673D01*
X124630134Y-79847517D01*
X124499657Y-79661179D01*
X124338820Y-79500342D01*
X124152482Y-79369865D01*
X123946328Y-79273734D01*
X123750000Y-79221127D01*
X123750000Y-80184314D01*
X123745606Y-80179920D01*
X123654394Y-80127259D01*
X123552661Y-80100000D01*
X123447339Y-80100000D01*
X123345606Y-80127259D01*
X123254394Y-80179920D01*
X123250000Y-80184314D01*
X123250000Y-79221127D01*
X123053671Y-79273734D01*
X122847517Y-79369865D01*
X122661179Y-79500342D01*
X122500342Y-79661179D01*
X122369865Y-79847517D01*
X122273734Y-80053673D01*
X122273730Y-80053682D01*
X122221127Y-80249999D01*
X121278872Y-80249999D01*
X121226269Y-80053682D01*
X121226265Y-80053673D01*
X121130134Y-79847517D01*
X120999657Y-79661179D01*
X120838820Y-79500342D01*
X120652482Y-79369865D01*
X120446328Y-79273734D01*
X120250000Y-79221127D01*
X120250000Y-80184314D01*
X120245606Y-80179920D01*
X120154394Y-80127259D01*
X120052661Y-80100000D01*
X119947339Y-80100000D01*
X119845606Y-80127259D01*
X119754394Y-80179920D01*
X119750000Y-80184314D01*
X119750000Y-79221127D01*
X119553671Y-79273734D01*
X119347517Y-79369865D01*
X119161179Y-79500342D01*
X119000342Y-79661179D01*
X118869865Y-79847517D01*
X118773734Y-80053673D01*
X118773730Y-80053682D01*
X118721127Y-80249999D01*
X117836849Y-80249999D01*
X117836849Y-79481194D01*
X117856534Y-79414155D01*
X117873168Y-79393513D01*
X121479862Y-75786819D01*
X121541185Y-75753334D01*
X121567543Y-75750500D01*
X123137770Y-75750500D01*
X123204809Y-75770185D01*
X123225451Y-75786819D01*
X132320833Y-84882200D01*
X132338146Y-84903909D01*
X132403414Y-85007782D01*
X132530968Y-85135336D01*
X132634838Y-85200602D01*
X132656546Y-85217914D01*
X132917048Y-85478415D01*
X132917049Y-85478416D01*
X132970763Y-85532130D01*
X133021585Y-85582952D01*
X133144498Y-85665080D01*
X133144511Y-85665087D01*
X133281082Y-85721656D01*
X133281087Y-85721658D01*
X133281091Y-85721658D01*
X133281092Y-85721659D01*
X133390970Y-85743516D01*
X133452881Y-85775901D01*
X133468353Y-85794010D01*
X133499953Y-85839140D01*
X133660858Y-86000045D01*
X133660861Y-86000047D01*
X133847266Y-86130568D01*
X134053504Y-86226739D01*
X134273308Y-86285635D01*
X134435230Y-86299801D01*
X134499998Y-86305468D01*
X134500000Y-86305468D01*
X134500002Y-86305468D01*
X134556673Y-86300509D01*
X134726692Y-86285635D01*
X134946496Y-86226739D01*
X135000165Y-86201711D01*
X135069242Y-86191219D01*
X135133026Y-86219738D01*
X135140252Y-86226412D01*
X135193671Y-86279831D01*
X135248550Y-86314313D01*
X135270257Y-86331625D01*
X136580950Y-87642318D01*
X136614435Y-87703641D01*
X136609451Y-87773333D01*
X136580950Y-87817680D01*
X135073767Y-89324863D01*
X135058853Y-89336758D01*
X135058974Y-89336910D01*
X135053526Y-89341254D01*
X134925977Y-89468803D01*
X134921633Y-89474251D01*
X134921481Y-89474130D01*
X134909586Y-89489044D01*
X134765348Y-89633282D01*
X134704025Y-89666767D01*
X134666861Y-89669129D01*
X134500003Y-89654532D01*
X134499998Y-89654532D01*
X134273313Y-89674364D01*
X134273302Y-89674366D01*
X134053511Y-89733258D01*
X134053502Y-89733261D01*
X133847267Y-89829431D01*
X133847265Y-89829432D01*
X133660858Y-89959954D01*
X133499954Y-90120858D01*
X133369432Y-90307265D01*
X133369431Y-90307267D01*
X133273261Y-90513502D01*
X133273258Y-90513511D01*
X133214366Y-90733302D01*
X133214364Y-90733313D01*
X133194532Y-90959998D01*
X133194532Y-90960001D01*
X133214364Y-91186686D01*
X133214366Y-91186697D01*
X133273258Y-91406488D01*
X133273261Y-91406497D01*
X133369431Y-91612732D01*
X133369432Y-91612734D01*
X133499954Y-91799141D01*
X133660858Y-91960045D01*
X133660861Y-91960047D01*
X133847266Y-92090568D01*
X133905275Y-92117618D01*
X133957714Y-92163791D01*
X133976866Y-92230984D01*
X133956650Y-92297865D01*
X133905275Y-92342382D01*
X133847267Y-92369431D01*
X133847265Y-92369432D01*
X133660858Y-92499954D01*
X133499954Y-92660858D01*
X133369432Y-92847265D01*
X133369431Y-92847267D01*
X133273261Y-93053502D01*
X133273258Y-93053511D01*
X133214366Y-93273302D01*
X133214364Y-93273313D01*
X133194532Y-93499998D01*
X133194532Y-93500001D01*
X133214364Y-93726686D01*
X133214366Y-93726697D01*
X133273258Y-93946488D01*
X133273261Y-93946497D01*
X133330852Y-94070000D01*
X133369432Y-94152734D01*
X133460983Y-94283484D01*
X133477075Y-94306465D01*
X133499402Y-94372671D01*
X133499500Y-94377588D01*
X133499500Y-95162410D01*
X133479815Y-95229449D01*
X133477076Y-95233532D01*
X133369431Y-95387267D01*
X133273261Y-95593502D01*
X133273258Y-95593511D01*
X133214366Y-95813302D01*
X133214364Y-95813313D01*
X133194532Y-96039998D01*
X133194532Y-96040001D01*
X133214364Y-96266686D01*
X133214366Y-96266697D01*
X133273258Y-96486488D01*
X133273261Y-96486497D01*
X133369431Y-96692732D01*
X133369432Y-96692734D01*
X133499954Y-96879141D01*
X133660858Y-97040045D01*
X133660861Y-97040047D01*
X133847266Y-97170568D01*
X133905275Y-97197618D01*
X133957714Y-97243791D01*
X133976866Y-97310984D01*
X133956650Y-97377865D01*
X133905275Y-97422382D01*
X133847267Y-97449431D01*
X133847265Y-97449432D01*
X133660858Y-97579954D01*
X133499954Y-97740858D01*
X133369432Y-97927265D01*
X133369431Y-97927267D01*
X133273261Y-98133502D01*
X133273258Y-98133511D01*
X133214366Y-98353302D01*
X133214364Y-98353313D01*
X133194532Y-98579998D01*
X133194532Y-98580001D01*
X133214364Y-98806686D01*
X133214366Y-98806697D01*
X133273258Y-99026488D01*
X133273261Y-99026497D01*
X133345203Y-99180776D01*
X133369432Y-99232734D01*
X133460551Y-99362867D01*
X133477075Y-99386465D01*
X133499402Y-99452671D01*
X133499500Y-99457588D01*
X133499500Y-100242410D01*
X133479815Y-100309449D01*
X133477076Y-100313532D01*
X133369431Y-100467267D01*
X133273261Y-100673502D01*
X133273258Y-100673511D01*
X133214366Y-100893302D01*
X133214364Y-100893313D01*
X133194532Y-101119998D01*
X133194532Y-101120001D01*
X133214364Y-101346686D01*
X133214366Y-101346697D01*
X133273258Y-101566488D01*
X133273261Y-101566497D01*
X133369431Y-101772732D01*
X133369432Y-101772734D01*
X133477075Y-101926465D01*
X133499402Y-101992671D01*
X133499500Y-101997588D01*
X133499500Y-102782410D01*
X133479815Y-102849449D01*
X133477076Y-102853532D01*
X133369431Y-103007267D01*
X133273261Y-103213502D01*
X133273256Y-103213517D01*
X133255974Y-103278013D01*
X133219609Y-103337673D01*
X133156761Y-103368201D01*
X133087386Y-103359906D01*
X133048519Y-103333599D01*
X131480602Y-101765682D01*
X131447117Y-101704359D01*
X131444283Y-101678001D01*
X131444283Y-94425239D01*
X131431437Y-94360664D01*
X131427156Y-94339139D01*
X131427156Y-94339135D01*
X131405836Y-94231955D01*
X131405835Y-94231948D01*
X131330415Y-94049869D01*
X131330414Y-94049868D01*
X131330411Y-94049862D01*
X131220923Y-93886002D01*
X131220920Y-93885998D01*
X128876815Y-91541895D01*
X128861393Y-91523104D01*
X128822134Y-91464348D01*
X128682782Y-91324996D01*
X128682778Y-91324993D01*
X128624023Y-91285734D01*
X128605233Y-91270313D01*
X128216818Y-90881898D01*
X128183333Y-90820575D01*
X128180499Y-90794217D01*
X128180499Y-90112129D01*
X128180498Y-90112123D01*
X128180497Y-90112116D01*
X128174091Y-90052517D01*
X128168911Y-90038630D01*
X128123797Y-89917671D01*
X128123793Y-89917664D01*
X128037547Y-89802455D01*
X128037544Y-89802452D01*
X127922335Y-89716206D01*
X127922328Y-89716202D01*
X127787482Y-89665908D01*
X127787483Y-89665908D01*
X127727883Y-89659501D01*
X127727881Y-89659500D01*
X127727873Y-89659500D01*
X127727864Y-89659500D01*
X126032129Y-89659500D01*
X126032123Y-89659501D01*
X125972516Y-89665908D01*
X125837671Y-89716202D01*
X125837664Y-89716206D01*
X125722455Y-89802452D01*
X125722452Y-89802455D01*
X125636206Y-89917664D01*
X125636202Y-89917671D01*
X125585908Y-90052517D01*
X125579501Y-90112116D01*
X125579501Y-90112123D01*
X125579500Y-90112135D01*
X125579500Y-91807870D01*
X125579501Y-91807876D01*
X125585908Y-91867483D01*
X125636202Y-92002328D01*
X125636206Y-92002335D01*
X125722452Y-92117544D01*
X125722455Y-92117547D01*
X125837664Y-92203793D01*
X125837671Y-92203797D01*
X125882618Y-92220561D01*
X125972517Y-92254091D01*
X126007596Y-92257862D01*
X126072144Y-92284599D01*
X126111993Y-92341991D01*
X126114488Y-92411816D01*
X126078836Y-92471905D01*
X126065464Y-92482725D01*
X126040858Y-92499954D01*
X125879954Y-92660858D01*
X125861595Y-92687078D01*
X125807017Y-92730702D01*
X125737519Y-92737894D01*
X125719067Y-92732995D01*
X125656778Y-92711199D01*
X125656770Y-92711197D01*
X125477525Y-92691002D01*
X125477517Y-92691002D01*
X125298271Y-92711197D01*
X125298266Y-92711198D01*
X125208693Y-92742542D01*
X125172127Y-92748754D01*
X125172142Y-92748903D01*
X125170024Y-92749111D01*
X125167738Y-92749500D01*
X125166082Y-92749500D01*
X125150332Y-92752633D01*
X125150331Y-92752633D01*
X125021095Y-92778339D01*
X125021087Y-92778341D01*
X124955429Y-92805538D01*
X124884507Y-92834914D01*
X124843645Y-92862218D01*
X124843643Y-92862219D01*
X124761589Y-92917043D01*
X124761584Y-92917047D01*
X114503708Y-103174922D01*
X114481999Y-103192235D01*
X114342024Y-103280187D01*
X114214468Y-103407743D01*
X114214467Y-103407745D01*
X114126513Y-103547722D01*
X114109201Y-103569430D01*
X113765348Y-103913282D01*
X113704025Y-103946767D01*
X113666861Y-103949129D01*
X113500003Y-103934532D01*
X113499998Y-103934532D01*
X113273313Y-103954364D01*
X113273302Y-103954366D01*
X113053511Y-104013258D01*
X113053502Y-104013261D01*
X112847267Y-104109431D01*
X112847265Y-104109432D01*
X112660858Y-104239954D01*
X112499954Y-104400858D01*
X112369432Y-104587265D01*
X112369431Y-104587267D01*
X112273261Y-104793502D01*
X112273258Y-104793511D01*
X112214366Y-105013302D01*
X112214364Y-105013313D01*
X112194532Y-105239998D01*
X112194532Y-105240001D01*
X112214364Y-105466686D01*
X112214366Y-105466697D01*
X112273258Y-105686488D01*
X112273261Y-105686497D01*
X112369431Y-105892732D01*
X112369432Y-105892734D01*
X112499954Y-106079141D01*
X112660858Y-106240045D01*
X112660861Y-106240047D01*
X112847266Y-106370568D01*
X113053504Y-106466739D01*
X113273308Y-106525635D01*
X113435230Y-106539801D01*
X113499998Y-106545468D01*
X113500000Y-106545468D01*
X113500002Y-106545468D01*
X113556673Y-106540509D01*
X113726692Y-106525635D01*
X113946496Y-106466739D01*
X114152734Y-106370568D01*
X114339139Y-106240047D01*
X114500047Y-106079139D01*
X114630568Y-105892734D01*
X114726739Y-105686496D01*
X114785635Y-105466692D01*
X114805468Y-105240000D01*
X114790869Y-105073137D01*
X114804635Y-105004639D01*
X114826713Y-104974653D01*
X115130365Y-104671001D01*
X115177090Y-104641642D01*
X115193808Y-104635793D01*
X115346548Y-104539820D01*
X115474102Y-104412266D01*
X115570075Y-104259526D01*
X115575923Y-104242812D01*
X115605282Y-104196084D01*
X125471313Y-94330053D01*
X125532634Y-94296570D01*
X125545107Y-94294516D01*
X125575142Y-94291132D01*
X125656770Y-94281936D01*
X125656773Y-94281935D01*
X125656776Y-94281935D01*
X125656777Y-94281934D01*
X125656780Y-94281934D01*
X125715204Y-94261490D01*
X125784983Y-94257927D01*
X125845611Y-94292656D01*
X125857733Y-94307406D01*
X125866552Y-94320000D01*
X125879955Y-94339142D01*
X126040858Y-94500045D01*
X126040861Y-94500047D01*
X126227266Y-94630568D01*
X126285275Y-94657618D01*
X126337714Y-94703791D01*
X126356866Y-94770984D01*
X126336650Y-94837865D01*
X126285275Y-94882382D01*
X126227267Y-94909431D01*
X126227265Y-94909432D01*
X126040858Y-95039954D01*
X125879954Y-95200858D01*
X125749432Y-95387265D01*
X125749431Y-95387267D01*
X125653261Y-95593502D01*
X125653258Y-95593511D01*
X125594366Y-95813302D01*
X125594364Y-95813313D01*
X125574532Y-96039998D01*
X125574532Y-96040001D01*
X125594364Y-96266686D01*
X125594366Y-96266697D01*
X125653258Y-96486488D01*
X125653261Y-96486497D01*
X125749431Y-96692732D01*
X125749432Y-96692734D01*
X125879954Y-96879141D01*
X126040856Y-97040043D01*
X126040859Y-97040045D01*
X126040861Y-97040047D01*
X126065521Y-97057314D01*
X126070544Y-97060831D01*
X126114168Y-97115408D01*
X126122640Y-97176289D01*
X126108119Y-97305175D01*
X126108119Y-97305184D01*
X126123647Y-97443005D01*
X126111592Y-97511827D01*
X126071553Y-97558461D01*
X126040865Y-97579949D01*
X126040863Y-97579951D01*
X125879951Y-97740862D01*
X125749432Y-97927265D01*
X125749431Y-97927267D01*
X125653261Y-98133502D01*
X125653258Y-98133511D01*
X125594366Y-98353302D01*
X125594364Y-98353313D01*
X125574532Y-98579998D01*
X125574532Y-98580001D01*
X125594364Y-98806686D01*
X125594366Y-98806697D01*
X125653258Y-99026488D01*
X125653261Y-99026497D01*
X125749431Y-99232732D01*
X125749432Y-99232734D01*
X125879954Y-99419141D01*
X126040861Y-99580048D01*
X126045006Y-99583526D01*
X126044112Y-99584590D01*
X126083624Y-99634017D01*
X126092098Y-99694903D01*
X126071580Y-99877016D01*
X126071580Y-99877025D01*
X126086484Y-100009310D01*
X126074429Y-100078132D01*
X126044633Y-100116070D01*
X126044689Y-100116126D01*
X126044228Y-100116586D01*
X126042984Y-100118171D01*
X126040867Y-100119947D01*
X125879951Y-100280862D01*
X125749432Y-100467265D01*
X125749431Y-100467267D01*
X125653261Y-100673502D01*
X125653258Y-100673511D01*
X125594366Y-100893302D01*
X125594364Y-100893313D01*
X125574532Y-101119998D01*
X125574532Y-101120001D01*
X125594364Y-101346686D01*
X125594366Y-101346697D01*
X125653258Y-101566488D01*
X125653261Y-101566497D01*
X125749431Y-101772732D01*
X125749432Y-101772734D01*
X125879954Y-101959141D01*
X126040858Y-102120045D01*
X126040861Y-102120047D01*
X126227266Y-102250568D01*
X126284074Y-102277058D01*
X126285275Y-102277618D01*
X126337714Y-102323791D01*
X126356866Y-102390984D01*
X126336650Y-102457865D01*
X126285275Y-102502382D01*
X126227267Y-102529431D01*
X126227265Y-102529432D01*
X126040858Y-102659954D01*
X125879954Y-102820858D01*
X125749432Y-103007265D01*
X125749431Y-103007267D01*
X125653261Y-103213502D01*
X125653258Y-103213511D01*
X125594366Y-103433302D01*
X125594364Y-103433313D01*
X125574532Y-103659998D01*
X125574532Y-103660001D01*
X125594364Y-103886686D01*
X125594366Y-103886697D01*
X125653258Y-104106488D01*
X125653261Y-104106497D01*
X125749431Y-104312732D01*
X125749432Y-104312734D01*
X125879954Y-104499141D01*
X126040858Y-104660045D01*
X126040861Y-104660047D01*
X126227266Y-104790568D01*
X126285865Y-104817893D01*
X126338305Y-104864065D01*
X126357457Y-104931258D01*
X126337242Y-104998139D01*
X126285867Y-105042657D01*
X126227513Y-105069868D01*
X126227512Y-105069868D01*
X126154526Y-105120973D01*
X126154526Y-105120974D01*
X126833553Y-105800000D01*
X126827339Y-105800000D01*
X126725606Y-105827259D01*
X126634394Y-105879920D01*
X126559920Y-105954394D01*
X126507259Y-106045606D01*
X126480000Y-106147339D01*
X126480000Y-106153552D01*
X125800974Y-105474526D01*
X125800973Y-105474526D01*
X125749868Y-105547512D01*
X125749866Y-105547516D01*
X125653734Y-105753673D01*
X125653730Y-105753682D01*
X125594860Y-105973389D01*
X125594858Y-105973400D01*
X125575034Y-106199997D01*
X125575034Y-106200002D01*
X125594858Y-106426599D01*
X125594860Y-106426610D01*
X125653730Y-106646317D01*
X125653735Y-106646331D01*
X125749863Y-106852478D01*
X125800974Y-106925472D01*
X126480000Y-106246446D01*
X126480000Y-106252661D01*
X126507259Y-106354394D01*
X126559920Y-106445606D01*
X126634394Y-106520080D01*
X126725606Y-106572741D01*
X126827339Y-106600000D01*
X126833553Y-106600000D01*
X126154526Y-107279025D01*
X126227513Y-107330132D01*
X126227521Y-107330136D01*
X126433668Y-107426264D01*
X126433682Y-107426269D01*
X126653389Y-107485139D01*
X126653400Y-107485141D01*
X126879998Y-107504966D01*
X126880002Y-107504966D01*
X127106599Y-107485141D01*
X127106610Y-107485139D01*
X127326317Y-107426269D01*
X127326331Y-107426264D01*
X127532478Y-107330136D01*
X127605471Y-107279024D01*
X126926447Y-106600000D01*
X126932661Y-106600000D01*
X127034394Y-106572741D01*
X127125606Y-106520080D01*
X127200080Y-106445606D01*
X127252741Y-106354394D01*
X127280000Y-106252661D01*
X127280000Y-106246447D01*
X127959024Y-106925471D01*
X128010136Y-106852478D01*
X128106264Y-106646331D01*
X128106269Y-106646317D01*
X128165139Y-106426610D01*
X128165141Y-106426599D01*
X128184966Y-106200002D01*
X128184966Y-106199997D01*
X128165141Y-105973400D01*
X128165139Y-105973389D01*
X128106269Y-105753682D01*
X128106264Y-105753668D01*
X128010136Y-105547521D01*
X128010132Y-105547513D01*
X127959025Y-105474526D01*
X127280000Y-106153551D01*
X127280000Y-106147339D01*
X127252741Y-106045606D01*
X127200080Y-105954394D01*
X127125606Y-105879920D01*
X127034394Y-105827259D01*
X126932661Y-105800000D01*
X126926448Y-105800000D01*
X127605472Y-105120974D01*
X127532480Y-105069864D01*
X127474134Y-105042657D01*
X127421695Y-104996484D01*
X127402543Y-104929291D01*
X127422759Y-104862410D01*
X127474134Y-104817893D01*
X127532734Y-104790568D01*
X127719139Y-104660047D01*
X127880047Y-104499139D01*
X127880354Y-104498700D01*
X127880542Y-104498549D01*
X127883526Y-104494994D01*
X127884240Y-104495593D01*
X127934925Y-104455072D01*
X128004423Y-104447872D01*
X128066780Y-104479389D01*
X128069615Y-104482135D01*
X128713181Y-105125700D01*
X128746666Y-105187023D01*
X128749500Y-105213381D01*
X128749500Y-110241652D01*
X128742542Y-110282606D01*
X128714687Y-110362210D01*
X128714685Y-110362218D01*
X128694490Y-110541464D01*
X128694490Y-110541471D01*
X128714685Y-110720714D01*
X128714687Y-110720724D01*
X128742541Y-110800324D01*
X128749500Y-110841279D01*
X128749500Y-110873336D01*
X128729815Y-110940375D01*
X128696625Y-110974910D01*
X128660863Y-110999951D01*
X128660857Y-110999956D01*
X128499956Y-111160857D01*
X128499944Y-111160871D01*
X128496569Y-111165692D01*
X128441990Y-111209315D01*
X128378373Y-111215895D01*
X128378235Y-111217127D01*
X128372603Y-111216492D01*
X128372492Y-111216504D01*
X128372234Y-111216450D01*
X128192064Y-111196151D01*
X128192056Y-111196151D01*
X128012810Y-111216346D01*
X128012805Y-111216347D01*
X127937947Y-111242542D01*
X127896992Y-111249500D01*
X122597693Y-111249500D01*
X122556738Y-111242542D01*
X122481879Y-111216347D01*
X122481874Y-111216346D01*
X122302629Y-111196151D01*
X122302621Y-111196151D01*
X122118280Y-111216920D01*
X122049458Y-111204865D01*
X122002824Y-111164826D01*
X122000046Y-111160859D01*
X121839141Y-110999954D01*
X121652734Y-110869432D01*
X121652732Y-110869431D01*
X121446497Y-110773261D01*
X121446488Y-110773258D01*
X121226697Y-110714366D01*
X121226693Y-110714365D01*
X121226692Y-110714365D01*
X121226691Y-110714364D01*
X121226686Y-110714364D01*
X121000002Y-110694532D01*
X120999998Y-110694532D01*
X120773313Y-110714364D01*
X120773302Y-110714366D01*
X120553511Y-110773258D01*
X120553502Y-110773261D01*
X120347267Y-110869431D01*
X120347265Y-110869432D01*
X120160858Y-110999954D01*
X119999954Y-111160858D01*
X119869432Y-111347265D01*
X119869431Y-111347267D01*
X119773261Y-111553502D01*
X119773258Y-111553511D01*
X119714366Y-111773302D01*
X119714364Y-111773313D01*
X119694532Y-111999998D01*
X119694532Y-112000001D01*
X119714364Y-112226686D01*
X119714366Y-112226697D01*
X119773258Y-112446488D01*
X119773261Y-112446497D01*
X119869431Y-112652732D01*
X119869432Y-112652734D01*
X119999954Y-112839141D01*
X120160858Y-113000045D01*
X120160861Y-113000047D01*
X120347266Y-113130568D01*
X120553504Y-113226739D01*
X120773308Y-113285635D01*
X120935230Y-113299801D01*
X120999998Y-113305468D01*
X121000000Y-113305468D01*
X121000002Y-113305468D01*
X121056673Y-113300509D01*
X121226692Y-113285635D01*
X121446496Y-113226739D01*
X121652734Y-113130568D01*
X121839139Y-113000047D01*
X122000047Y-112839139D01*
X122000615Y-112838326D01*
X122000961Y-112838050D01*
X122003526Y-112834994D01*
X122004139Y-112835509D01*
X122055185Y-112794698D01*
X122116215Y-112788373D01*
X122116449Y-112786305D01*
X122302621Y-112807281D01*
X122302625Y-112807281D01*
X122302629Y-112807281D01*
X122481874Y-112787085D01*
X122481876Y-112787084D01*
X122481880Y-112787084D01*
X122481883Y-112787082D01*
X122481887Y-112787082D01*
X122566546Y-112757459D01*
X122607501Y-112750500D01*
X127887184Y-112750500D01*
X127928139Y-112757459D01*
X128012797Y-112787082D01*
X128012803Y-112787083D01*
X128012805Y-112787084D01*
X128012806Y-112787084D01*
X128012810Y-112787085D01*
X128192056Y-112807281D01*
X128192060Y-112807281D01*
X128192064Y-112807281D01*
X128378236Y-112786305D01*
X128378433Y-112788056D01*
X128439195Y-112791768D01*
X128495560Y-112833057D01*
X128498643Y-112837269D01*
X128499386Y-112838329D01*
X128499955Y-112839142D01*
X128660858Y-113000045D01*
X128660861Y-113000047D01*
X128847266Y-113130568D01*
X129053504Y-113226739D01*
X129273308Y-113285635D01*
X129435230Y-113299801D01*
X129499998Y-113305468D01*
X129500000Y-113305468D01*
X129500002Y-113305468D01*
X129556673Y-113300509D01*
X129726692Y-113285635D01*
X129946496Y-113226739D01*
X130152734Y-113130568D01*
X130339139Y-113000047D01*
X130500047Y-112839139D01*
X130630568Y-112652734D01*
X130726739Y-112446496D01*
X130785635Y-112226692D01*
X130805468Y-112000000D01*
X130785635Y-111773308D01*
X130726739Y-111553504D01*
X130630568Y-111347266D01*
X130539000Y-111216492D01*
X130500048Y-111160862D01*
X130476343Y-111137157D01*
X130339139Y-110999953D01*
X130334373Y-110996615D01*
X130303375Y-110974910D01*
X130259751Y-110920332D01*
X130250500Y-110873336D01*
X130250500Y-110841596D01*
X130257458Y-110800642D01*
X130257569Y-110800324D01*
X130285423Y-110720723D01*
X130292692Y-110656206D01*
X130305620Y-110541471D01*
X130305620Y-110541464D01*
X130292155Y-110421964D01*
X130285423Y-110362213D01*
X130257458Y-110282292D01*
X130250500Y-110241338D01*
X130250500Y-104777231D01*
X130221659Y-104632244D01*
X130221658Y-104632243D01*
X130221658Y-104632239D01*
X130189115Y-104553673D01*
X130165087Y-104495663D01*
X130165080Y-104495650D01*
X130082952Y-104372737D01*
X130057732Y-104347517D01*
X129978416Y-104268201D01*
X129027056Y-103316841D01*
X129009743Y-103295132D01*
X129004961Y-103287522D01*
X128923955Y-103158600D01*
X128796401Y-103031046D01*
X128758557Y-103007267D01*
X128643662Y-102935073D01*
X128473393Y-102875493D01*
X128473388Y-102875492D01*
X128294143Y-102855297D01*
X128294135Y-102855297D01*
X128114889Y-102875492D01*
X128114881Y-102875494D01*
X128045642Y-102899722D01*
X127975863Y-102903283D01*
X127915236Y-102868554D01*
X127903112Y-102853802D01*
X127880044Y-102820857D01*
X127719141Y-102659954D01*
X127532734Y-102529432D01*
X127532728Y-102529429D01*
X127474725Y-102502382D01*
X127422285Y-102456210D01*
X127403133Y-102389017D01*
X127423348Y-102322135D01*
X127474725Y-102277618D01*
X127475926Y-102277058D01*
X127532734Y-102250568D01*
X127719139Y-102120047D01*
X127880047Y-101959139D01*
X128010568Y-101772734D01*
X128106739Y-101566496D01*
X128165635Y-101346692D01*
X128185468Y-101120000D01*
X128165635Y-100893308D01*
X128106739Y-100673504D01*
X128010568Y-100467266D01*
X127902923Y-100313532D01*
X127880048Y-100280862D01*
X127813550Y-100214364D01*
X127719139Y-100119953D01*
X127719135Y-100119950D01*
X127714989Y-100116471D01*
X127715961Y-100115312D01*
X127676722Y-100066220D01*
X127668252Y-100005341D01*
X127682710Y-99877023D01*
X127682710Y-99877018D01*
X127662608Y-99698610D01*
X127674662Y-99629788D01*
X127714710Y-99583147D01*
X127719139Y-99580047D01*
X127880047Y-99419139D01*
X128010568Y-99232734D01*
X128106739Y-99026496D01*
X128165635Y-98806692D01*
X128185468Y-98580000D01*
X128165635Y-98353308D01*
X128106739Y-98133504D01*
X128010568Y-97927266D01*
X127880047Y-97740861D01*
X127733492Y-97594306D01*
X127700009Y-97532985D01*
X127700237Y-97491577D01*
X127698273Y-97491356D01*
X127719249Y-97305183D01*
X127719249Y-97305177D01*
X127699076Y-97126136D01*
X127711130Y-97057314D01*
X127734612Y-97024573D01*
X127880047Y-96879139D01*
X128010568Y-96692734D01*
X128106739Y-96486496D01*
X128165635Y-96266692D01*
X128185468Y-96040000D01*
X128165635Y-95813308D01*
X128106739Y-95593504D01*
X128010568Y-95387266D01*
X127880047Y-95200861D01*
X127880045Y-95200858D01*
X127719141Y-95039954D01*
X127532734Y-94909432D01*
X127532728Y-94909429D01*
X127474725Y-94882382D01*
X127422285Y-94836210D01*
X127403133Y-94769017D01*
X127423348Y-94702135D01*
X127474725Y-94657618D01*
X127532734Y-94630568D01*
X127719139Y-94500047D01*
X127793947Y-94425239D01*
X127880047Y-94339140D01*
X127963399Y-94220099D01*
X128010568Y-94152734D01*
X128106739Y-93946496D01*
X128124023Y-93881987D01*
X128160387Y-93822328D01*
X128223233Y-93791798D01*
X128292609Y-93800092D01*
X128331479Y-93826400D01*
X129406964Y-94901884D01*
X129440449Y-94963207D01*
X129443283Y-94989565D01*
X129443283Y-102242325D01*
X129446001Y-102255988D01*
X129451459Y-102283428D01*
X129454630Y-102299366D01*
X129454630Y-102299368D01*
X129481730Y-102435612D01*
X129481733Y-102435622D01*
X129488307Y-102451493D01*
X129557149Y-102617694D01*
X129557154Y-102617703D01*
X129666643Y-102781564D01*
X129666646Y-102781568D01*
X129810320Y-102925242D01*
X129810342Y-102925262D01*
X132369316Y-105484236D01*
X132396196Y-105524463D01*
X132407507Y-105551770D01*
X132407510Y-105551776D01*
X132516999Y-105715637D01*
X132517002Y-105715641D01*
X132656353Y-105854992D01*
X132656357Y-105854995D01*
X132820218Y-105964484D01*
X132820225Y-105964488D01*
X132847527Y-105975797D01*
X132887756Y-106002677D01*
X133173111Y-106288032D01*
X133206596Y-106349355D01*
X133208958Y-106364903D01*
X133214364Y-106426688D01*
X133214366Y-106426697D01*
X133273258Y-106646488D01*
X133273261Y-106646497D01*
X133369431Y-106852732D01*
X133369432Y-106852734D01*
X133499954Y-107039141D01*
X133660858Y-107200045D01*
X133660861Y-107200047D01*
X133847266Y-107330568D01*
X134053504Y-107426739D01*
X134273308Y-107485635D01*
X134435230Y-107499801D01*
X134499998Y-107505468D01*
X134500000Y-107505468D01*
X134500002Y-107505468D01*
X134558590Y-107500342D01*
X134726692Y-107485635D01*
X134946496Y-107426739D01*
X135152734Y-107330568D01*
X135339139Y-107200047D01*
X135500047Y-107039139D01*
X135630568Y-106852734D01*
X135726739Y-106646496D01*
X135785635Y-106426692D01*
X135805468Y-106200000D01*
X135785635Y-105973308D01*
X135726739Y-105753504D01*
X135630568Y-105547266D01*
X135500047Y-105360861D01*
X135500045Y-105360858D01*
X135339141Y-105199954D01*
X135152734Y-105069432D01*
X135152728Y-105069429D01*
X135094725Y-105042382D01*
X135042285Y-104996210D01*
X135023133Y-104929017D01*
X135043348Y-104862135D01*
X135094725Y-104817618D01*
X135152734Y-104790568D01*
X135339139Y-104660047D01*
X135500047Y-104499139D01*
X135630568Y-104312734D01*
X135726739Y-104106496D01*
X135785635Y-103886692D01*
X135805468Y-103660000D01*
X135785635Y-103433308D01*
X135735022Y-103244418D01*
X135726741Y-103213511D01*
X135726738Y-103213502D01*
X135708748Y-103174922D01*
X135630568Y-103007266D01*
X135522924Y-102853532D01*
X135500597Y-102787326D01*
X135500500Y-102782410D01*
X135500500Y-102599186D01*
X135502883Y-102574995D01*
X135511946Y-102529431D01*
X135522978Y-102473969D01*
X135522978Y-102276889D01*
X135507578Y-102199464D01*
X135502881Y-102175851D01*
X135500500Y-102151669D01*
X135500500Y-101997588D01*
X135520185Y-101930549D01*
X135522925Y-101926465D01*
X135567911Y-101862218D01*
X135630568Y-101772734D01*
X135726739Y-101566496D01*
X135785635Y-101346692D01*
X135805468Y-101120000D01*
X135785635Y-100893308D01*
X135726739Y-100673504D01*
X135630568Y-100467266D01*
X135522924Y-100313532D01*
X135500597Y-100247326D01*
X135500500Y-100242410D01*
X135500500Y-100071926D01*
X135502883Y-100047735D01*
X135510526Y-100009310D01*
X135533359Y-99894520D01*
X135533359Y-99697439D01*
X135528760Y-99674315D01*
X135528760Y-99674313D01*
X135528760Y-99674312D01*
X135502883Y-99544221D01*
X135500500Y-99520030D01*
X135500500Y-99457588D01*
X135520185Y-99390549D01*
X135522925Y-99386465D01*
X135630568Y-99232734D01*
X135726739Y-99026496D01*
X135744024Y-98961988D01*
X135780389Y-98902327D01*
X135843236Y-98871798D01*
X135912611Y-98880093D01*
X135951480Y-98906400D01*
X140179735Y-103134655D01*
X140179764Y-103134686D01*
X140322217Y-103277139D01*
X140450152Y-103362622D01*
X140486086Y-103386632D01*
X140594623Y-103431589D01*
X140668164Y-103462051D01*
X140720348Y-103472431D01*
X140733208Y-103474989D01*
X140861456Y-103500500D01*
X140861459Y-103500500D01*
X143254929Y-103500500D01*
X143396043Y-103472430D01*
X143448221Y-103462051D01*
X143589041Y-103403721D01*
X143630293Y-103386635D01*
X143630293Y-103386634D01*
X143630300Y-103386632D01*
X143794168Y-103277139D01*
X143826889Y-103244418D01*
X143882839Y-103188469D01*
X143944162Y-103154984D01*
X144013854Y-103159968D01*
X144069787Y-103201840D01*
X144094204Y-103267304D01*
X144094520Y-103276150D01*
X144094520Y-105939197D01*
X144074835Y-106006236D01*
X144058201Y-106026878D01*
X140033546Y-110051533D01*
X139411966Y-110673111D01*
X139350643Y-110706596D01*
X139335095Y-110708958D01*
X139273307Y-110714365D01*
X139053511Y-110773258D01*
X139053502Y-110773261D01*
X138847267Y-110869431D01*
X138847265Y-110869432D01*
X138660858Y-110999954D01*
X138499954Y-111160858D01*
X138369432Y-111347265D01*
X138369431Y-111347267D01*
X138273261Y-111553502D01*
X138273258Y-111553511D01*
X138214366Y-111773302D01*
X138214364Y-111773313D01*
X138194532Y-111999998D01*
X138194532Y-112000001D01*
X138214364Y-112226686D01*
X138214366Y-112226697D01*
X138273258Y-112446488D01*
X138273261Y-112446497D01*
X138369431Y-112652732D01*
X138369432Y-112652734D01*
X138499954Y-112839141D01*
X138660858Y-113000045D01*
X138660861Y-113000047D01*
X138847266Y-113130568D01*
X139053504Y-113226739D01*
X139273308Y-113285635D01*
X139435230Y-113299801D01*
X139499998Y-113305468D01*
X139500000Y-113305468D01*
X139500002Y-113305468D01*
X139556673Y-113300509D01*
X139726692Y-113285635D01*
X139946496Y-113226739D01*
X140152734Y-113130568D01*
X140339139Y-113000047D01*
X140500047Y-112839139D01*
X140630568Y-112652734D01*
X140726739Y-112446496D01*
X140785635Y-112226692D01*
X140791040Y-112164905D01*
X140816492Y-112099838D01*
X140826879Y-112088040D01*
X141255381Y-111659538D01*
X141274159Y-111644126D01*
X141331503Y-111605812D01*
X141470860Y-111466455D01*
X141509175Y-111409110D01*
X141524588Y-111390330D01*
X145872160Y-107042761D01*
X145920127Y-106970973D01*
X145981652Y-106878894D01*
X146057071Y-106696815D01*
X146073483Y-106614308D01*
X146095520Y-106503523D01*
X146095520Y-105309802D01*
X146115205Y-105242763D01*
X146168009Y-105197008D01*
X146237167Y-105187064D01*
X146300723Y-105216089D01*
X146307201Y-105222121D01*
X146862215Y-105777137D01*
X146862219Y-105777140D01*
X147026079Y-105886628D01*
X147026088Y-105886633D01*
X147040817Y-105892734D01*
X147208165Y-105962052D01*
X147397217Y-105999657D01*
X147401455Y-106000500D01*
X147401458Y-106000501D01*
X147401460Y-106000501D01*
X147604655Y-106000501D01*
X147604675Y-106000500D01*
X148904892Y-106000500D01*
X148925653Y-106000500D01*
X148925654Y-106000500D01*
X149122734Y-106000500D01*
X149215500Y-106000500D01*
X149282539Y-106020185D01*
X149328294Y-106072989D01*
X149339500Y-106124500D01*
X149339500Y-107622410D01*
X149319815Y-107689449D01*
X149317076Y-107693532D01*
X149209431Y-107847267D01*
X149113261Y-108053502D01*
X149113258Y-108053511D01*
X149054366Y-108273302D01*
X149054364Y-108273313D01*
X149034532Y-108499998D01*
X149034532Y-108500001D01*
X149054364Y-108726686D01*
X149054366Y-108726697D01*
X149113258Y-108946488D01*
X149113261Y-108946497D01*
X149209431Y-109152732D01*
X149209432Y-109152734D01*
X149317075Y-109306465D01*
X149339402Y-109372671D01*
X149339500Y-109377588D01*
X149339500Y-110517209D01*
X149319815Y-110584248D01*
X149267011Y-110630003D01*
X149258833Y-110633391D01*
X149197671Y-110656202D01*
X149197664Y-110656206D01*
X149082455Y-110742452D01*
X149082452Y-110742455D01*
X148996206Y-110857664D01*
X148996202Y-110857671D01*
X148945908Y-110992517D01*
X148939501Y-111052116D01*
X148939501Y-111052123D01*
X148939500Y-111052135D01*
X148939500Y-112947870D01*
X148939501Y-112947876D01*
X148945908Y-113007483D01*
X148996202Y-113142328D01*
X148996206Y-113142335D01*
X149082452Y-113257544D01*
X149082455Y-113257547D01*
X149197664Y-113343793D01*
X149197671Y-113343797D01*
X149332517Y-113394091D01*
X149332516Y-113394091D01*
X149339444Y-113394835D01*
X149392127Y-113400500D01*
X151287872Y-113400499D01*
X151347483Y-113394091D01*
X151482331Y-113343796D01*
X151597546Y-113257546D01*
X151683796Y-113142331D01*
X151734091Y-113007483D01*
X151740500Y-112947873D01*
X151740499Y-111750000D01*
X159119117Y-111750000D01*
X160124722Y-111750000D01*
X160080667Y-111826306D01*
X160050000Y-111940756D01*
X160050000Y-112059244D01*
X160080667Y-112173694D01*
X160124722Y-112250000D01*
X159119117Y-112250000D01*
X159171317Y-112456135D01*
X159264516Y-112668609D01*
X159391414Y-112862842D01*
X159548558Y-113033545D01*
X159548562Y-113033548D01*
X159731644Y-113176047D01*
X159731648Y-113176050D01*
X159935697Y-113286476D01*
X159935706Y-113286479D01*
X160155139Y-113361811D01*
X160249999Y-113377640D01*
X160250000Y-113377639D01*
X160250000Y-112375277D01*
X160326306Y-112419333D01*
X160440756Y-112450000D01*
X160559244Y-112450000D01*
X160673694Y-112419333D01*
X160750000Y-112375277D01*
X160750000Y-113377640D01*
X160844860Y-113361811D01*
X161064293Y-113286479D01*
X161064302Y-113286476D01*
X161268351Y-113176050D01*
X161268355Y-113176047D01*
X161451437Y-113033548D01*
X161451441Y-113033545D01*
X161608585Y-112862842D01*
X161735483Y-112668609D01*
X161828682Y-112456135D01*
X161880883Y-112250000D01*
X160875278Y-112250000D01*
X160919333Y-112173694D01*
X160950000Y-112059244D01*
X160950000Y-111940756D01*
X160919333Y-111826306D01*
X160875278Y-111750000D01*
X161880883Y-111750000D01*
X161828682Y-111543864D01*
X161735483Y-111331390D01*
X161608585Y-111137157D01*
X161451441Y-110966454D01*
X161451437Y-110966451D01*
X161268355Y-110823952D01*
X161268351Y-110823949D01*
X161064302Y-110713523D01*
X161064293Y-110713520D01*
X160844861Y-110638188D01*
X160750000Y-110622359D01*
X160750000Y-111624722D01*
X160673694Y-111580667D01*
X160559244Y-111550000D01*
X160440756Y-111550000D01*
X160326306Y-111580667D01*
X160250000Y-111624722D01*
X160250000Y-110622359D01*
X160249999Y-110622359D01*
X160155138Y-110638188D01*
X159935706Y-110713520D01*
X159935697Y-110713523D01*
X159731648Y-110823949D01*
X159731644Y-110823952D01*
X159548562Y-110966451D01*
X159548558Y-110966454D01*
X159391414Y-111137157D01*
X159264516Y-111331390D01*
X159171317Y-111543864D01*
X159119117Y-111750000D01*
X151740499Y-111750000D01*
X151740499Y-111052128D01*
X151734091Y-110992517D01*
X151714643Y-110940375D01*
X151683797Y-110857671D01*
X151683793Y-110857664D01*
X151597547Y-110742455D01*
X151597544Y-110742452D01*
X151482335Y-110656206D01*
X151482328Y-110656202D01*
X151421167Y-110633391D01*
X151365233Y-110591520D01*
X151340816Y-110526056D01*
X151340500Y-110517209D01*
X151340500Y-109377588D01*
X151360185Y-109310549D01*
X151362925Y-109306465D01*
X151470568Y-109152734D01*
X151566739Y-108946496D01*
X151625635Y-108726692D01*
X151645468Y-108500000D01*
X151625635Y-108273308D01*
X151619389Y-108249999D01*
X159221127Y-108249999D01*
X159221128Y-108250000D01*
X160184314Y-108250000D01*
X160179920Y-108254394D01*
X160127259Y-108345606D01*
X160100000Y-108447339D01*
X160100000Y-108552661D01*
X160127259Y-108654394D01*
X160179920Y-108745606D01*
X160184314Y-108750000D01*
X159221128Y-108750000D01*
X159273730Y-108946317D01*
X159273734Y-108946326D01*
X159369865Y-109152482D01*
X159500342Y-109338820D01*
X159661179Y-109499657D01*
X159847517Y-109630134D01*
X160053673Y-109726265D01*
X160053682Y-109726269D01*
X160249999Y-109778872D01*
X160250000Y-109778871D01*
X160250000Y-108815686D01*
X160254394Y-108820080D01*
X160345606Y-108872741D01*
X160447339Y-108900000D01*
X160552661Y-108900000D01*
X160654394Y-108872741D01*
X160745606Y-108820080D01*
X160750000Y-108815686D01*
X160750000Y-109778872D01*
X160946317Y-109726269D01*
X160946326Y-109726265D01*
X161152482Y-109630134D01*
X161338820Y-109499657D01*
X161499657Y-109338820D01*
X161630134Y-109152482D01*
X161726265Y-108946326D01*
X161726269Y-108946317D01*
X161778872Y-108750000D01*
X160815686Y-108750000D01*
X160820080Y-108745606D01*
X160872741Y-108654394D01*
X160900000Y-108552661D01*
X160900000Y-108447339D01*
X160872741Y-108345606D01*
X160820080Y-108254394D01*
X160815686Y-108250000D01*
X161778872Y-108250000D01*
X161778872Y-108249999D01*
X161726269Y-108053682D01*
X161726265Y-108053673D01*
X161630134Y-107847517D01*
X161499657Y-107661179D01*
X161338820Y-107500342D01*
X161152482Y-107369865D01*
X160946328Y-107273734D01*
X160750000Y-107221127D01*
X160750000Y-108184314D01*
X160745606Y-108179920D01*
X160654394Y-108127259D01*
X160552661Y-108100000D01*
X160447339Y-108100000D01*
X160345606Y-108127259D01*
X160254394Y-108179920D01*
X160250000Y-108184314D01*
X160250000Y-107221127D01*
X160053671Y-107273734D01*
X159847517Y-107369865D01*
X159661179Y-107500342D01*
X159500342Y-107661179D01*
X159369865Y-107847517D01*
X159273734Y-108053673D01*
X159273730Y-108053682D01*
X159221127Y-108249999D01*
X151619389Y-108249999D01*
X151566739Y-108053504D01*
X151470568Y-107847266D01*
X151362924Y-107693532D01*
X151340597Y-107627326D01*
X151340500Y-107622410D01*
X151340500Y-106993081D01*
X151342883Y-106968889D01*
X151374212Y-106811391D01*
X151374212Y-106614308D01*
X151374211Y-106614305D01*
X151365943Y-106572741D01*
X151342883Y-106456807D01*
X151340500Y-106432616D01*
X151340500Y-106124500D01*
X151360185Y-106057461D01*
X151412989Y-106011706D01*
X151464500Y-106000500D01*
X157098543Y-106000500D01*
X157189675Y-105982372D01*
X157235243Y-105973308D01*
X157291836Y-105962051D01*
X157346365Y-105939464D01*
X157473914Y-105886632D01*
X157637782Y-105777139D01*
X157777139Y-105637782D01*
X157777139Y-105637780D01*
X157787347Y-105627573D01*
X157787348Y-105627570D01*
X158988497Y-104426422D01*
X159049819Y-104392938D01*
X159119511Y-104397922D01*
X159175444Y-104439794D01*
X159199861Y-104505258D01*
X159193875Y-104548107D01*
X159195134Y-104548445D01*
X159141127Y-104749999D01*
X159141128Y-104750000D01*
X160104314Y-104750000D01*
X160099920Y-104754394D01*
X160047259Y-104845606D01*
X160020000Y-104947339D01*
X160020000Y-105052661D01*
X160047259Y-105154394D01*
X160099920Y-105245606D01*
X160104314Y-105250000D01*
X159141128Y-105250000D01*
X159193730Y-105446317D01*
X159193734Y-105446326D01*
X159289865Y-105652482D01*
X159420342Y-105838820D01*
X159581179Y-105999657D01*
X159767517Y-106130134D01*
X159973673Y-106226265D01*
X159973682Y-106226269D01*
X160169999Y-106278872D01*
X160170000Y-106278871D01*
X160170000Y-105315686D01*
X160174394Y-105320080D01*
X160265606Y-105372741D01*
X160367339Y-105400000D01*
X160472661Y-105400000D01*
X160574394Y-105372741D01*
X160665606Y-105320080D01*
X160670000Y-105315686D01*
X160670000Y-106278872D01*
X160866317Y-106226269D01*
X160866326Y-106226265D01*
X161072482Y-106130134D01*
X161258820Y-105999657D01*
X161419657Y-105838820D01*
X161550134Y-105652482D01*
X161646265Y-105446326D01*
X161646269Y-105446317D01*
X161698872Y-105250000D01*
X160735686Y-105250000D01*
X160740080Y-105245606D01*
X160792741Y-105154394D01*
X160820000Y-105052661D01*
X160820000Y-104947339D01*
X160792741Y-104845606D01*
X160740080Y-104754394D01*
X160735686Y-104750000D01*
X161698872Y-104750000D01*
X161698872Y-104749999D01*
X161646269Y-104553682D01*
X161646265Y-104553673D01*
X161550134Y-104347517D01*
X161419657Y-104161179D01*
X161258820Y-104000342D01*
X161072482Y-103869865D01*
X160866328Y-103773734D01*
X160670000Y-103721127D01*
X160670000Y-104684314D01*
X160665606Y-104679920D01*
X160574394Y-104627259D01*
X160472661Y-104600000D01*
X160367339Y-104600000D01*
X160265606Y-104627259D01*
X160174394Y-104679920D01*
X160170000Y-104684314D01*
X160170000Y-103721127D01*
X159968446Y-103775135D01*
X159967940Y-103773250D01*
X159906757Y-103777125D01*
X159845709Y-103743141D01*
X159812726Y-103681547D01*
X159818279Y-103611898D01*
X159846420Y-103568499D01*
X160094411Y-103320508D01*
X160113197Y-103305091D01*
X160139498Y-103287519D01*
X160278855Y-103148162D01*
X160296434Y-103121853D01*
X160311844Y-103103075D01*
X160588034Y-102826885D01*
X160649355Y-102793402D01*
X160664900Y-102791041D01*
X160726692Y-102785635D01*
X160946496Y-102726739D01*
X161152734Y-102630568D01*
X161339139Y-102500047D01*
X161500047Y-102339139D01*
X161630568Y-102152734D01*
X161726739Y-101946496D01*
X161785635Y-101726692D01*
X161805468Y-101500000D01*
X161785635Y-101273308D01*
X161726739Y-101053504D01*
X161630568Y-100847266D01*
X161517737Y-100686125D01*
X161500045Y-100660858D01*
X161339141Y-100499954D01*
X161152734Y-100369432D01*
X161152732Y-100369431D01*
X160946497Y-100273261D01*
X160946488Y-100273258D01*
X160726697Y-100214366D01*
X160726693Y-100214365D01*
X160726692Y-100214365D01*
X160726691Y-100214364D01*
X160726686Y-100214364D01*
X160500002Y-100194532D01*
X160499998Y-100194532D01*
X160273313Y-100214364D01*
X160273302Y-100214366D01*
X160053511Y-100273258D01*
X160053502Y-100273261D01*
X159847267Y-100369431D01*
X159847265Y-100369432D01*
X159660858Y-100499954D01*
X159499954Y-100660858D01*
X159369432Y-100847265D01*
X159369431Y-100847267D01*
X159273261Y-101053502D01*
X159273258Y-101053511D01*
X159214365Y-101273307D01*
X159208958Y-101335095D01*
X159183504Y-101400163D01*
X159173111Y-101411966D01*
X158863936Y-101721143D01*
X158863934Y-101721145D01*
X158851838Y-101733241D01*
X157729783Y-102855297D01*
X156621899Y-103963181D01*
X156560576Y-103996666D01*
X156534218Y-103999500D01*
X152269455Y-103999500D01*
X152222004Y-103990062D01*
X152212304Y-103986044D01*
X152212300Y-103986043D01*
X152212296Y-103986042D01*
X152019011Y-103947595D01*
X152019008Y-103947595D01*
X151821928Y-103947595D01*
X151821925Y-103947595D01*
X151628639Y-103986042D01*
X151628632Y-103986044D01*
X151621209Y-103989119D01*
X151618932Y-103990062D01*
X151571481Y-103999500D01*
X151297588Y-103999500D01*
X151230549Y-103979815D01*
X151226465Y-103977075D01*
X151206622Y-103963181D01*
X151072734Y-103869432D01*
X151072732Y-103869431D01*
X150866497Y-103773261D01*
X150866488Y-103773258D01*
X150646697Y-103714366D01*
X150646693Y-103714365D01*
X150646692Y-103714365D01*
X150646691Y-103714364D01*
X150646686Y-103714364D01*
X150420002Y-103694532D01*
X150419998Y-103694532D01*
X150193313Y-103714364D01*
X150193302Y-103714366D01*
X149973511Y-103773258D01*
X149973502Y-103773261D01*
X149767267Y-103869431D01*
X149767265Y-103869432D01*
X149704641Y-103913282D01*
X149633378Y-103963181D01*
X149613535Y-103977075D01*
X149547329Y-103999402D01*
X149542412Y-103999500D01*
X149176753Y-103999500D01*
X149152562Y-103997117D01*
X149134608Y-103993545D01*
X149112354Y-103989119D01*
X149112353Y-103989119D01*
X148915273Y-103989119D01*
X148915272Y-103989119D01*
X148893017Y-103993545D01*
X148875063Y-103997117D01*
X148850873Y-103999500D01*
X147965783Y-103999500D01*
X147898744Y-103979815D01*
X147878102Y-103963181D01*
X147500906Y-103585985D01*
X147500902Y-103585982D01*
X147337042Y-103476494D01*
X147337032Y-103476489D01*
X147154958Y-103401071D01*
X147154950Y-103401069D01*
X146961665Y-103362622D01*
X146961662Y-103362622D01*
X146764582Y-103362622D01*
X146764579Y-103362622D01*
X146571293Y-103401069D01*
X146571281Y-103401072D01*
X146461223Y-103446660D01*
X146391754Y-103454129D01*
X146329275Y-103422854D01*
X146293623Y-103362765D01*
X146296117Y-103292940D01*
X146326088Y-103244420D01*
X148070511Y-101499998D01*
X149034532Y-101499998D01*
X149034532Y-101500001D01*
X149054364Y-101726686D01*
X149054366Y-101726697D01*
X149113258Y-101946488D01*
X149113261Y-101946497D01*
X149209431Y-102152732D01*
X149209432Y-102152734D01*
X149339954Y-102339141D01*
X149500858Y-102500045D01*
X149547693Y-102532839D01*
X149687266Y-102630568D01*
X149893504Y-102726739D01*
X150113308Y-102785635D01*
X150275230Y-102799801D01*
X150339998Y-102805468D01*
X150340000Y-102805468D01*
X150340002Y-102805468D01*
X150396673Y-102800509D01*
X150566692Y-102785635D01*
X150786496Y-102726739D01*
X150992734Y-102630568D01*
X151179139Y-102500047D01*
X151340047Y-102339139D01*
X151365088Y-102303377D01*
X151419665Y-102259752D01*
X151466663Y-102250500D01*
X151720927Y-102250500D01*
X151753231Y-102255988D01*
X151753386Y-102255312D01*
X151760173Y-102256860D01*
X151760175Y-102256861D01*
X151785834Y-102259752D01*
X151939426Y-102277058D01*
X151939430Y-102277058D01*
X151939434Y-102277058D01*
X152058933Y-102263593D01*
X152118685Y-102256861D01*
X152118688Y-102256859D01*
X152125474Y-102255312D01*
X152125628Y-102255988D01*
X152157933Y-102250500D01*
X155547672Y-102250500D01*
X155645214Y-102231096D01*
X155692665Y-102221658D01*
X155829247Y-102165084D01*
X155878481Y-102132186D01*
X155952168Y-102082952D01*
X164939639Y-93095478D01*
X164986360Y-93066121D01*
X165024115Y-93052911D01*
X165176855Y-92956938D01*
X165304409Y-92829384D01*
X165400382Y-92676644D01*
X165402901Y-92669443D01*
X165443621Y-92612666D01*
X165508573Y-92586917D01*
X165530740Y-92586867D01*
X165710118Y-92602560D01*
X165725503Y-92603907D01*
X165725504Y-92603907D01*
X165725505Y-92603907D01*
X165784470Y-92598748D01*
X165960912Y-92583311D01*
X166189167Y-92522151D01*
X166403334Y-92422283D01*
X166596905Y-92286743D01*
X166763999Y-92119649D01*
X166899539Y-91926078D01*
X166999407Y-91711911D01*
X167060567Y-91483656D01*
X167081163Y-91248248D01*
X167080773Y-91243796D01*
X167075777Y-91186686D01*
X167060567Y-91012840D01*
X167001158Y-90791119D01*
X166999409Y-90784592D01*
X166999408Y-90784591D01*
X166999407Y-90784585D01*
X166899539Y-90570419D01*
X166894620Y-90563393D01*
X166763998Y-90376845D01*
X166596908Y-90209755D01*
X166528879Y-90162120D01*
X166485255Y-90107542D01*
X166476004Y-90060546D01*
X166476004Y-89931465D01*
X166482963Y-89890510D01*
X166508433Y-89817722D01*
X166510153Y-89802454D01*
X166528630Y-89638470D01*
X166528630Y-89638463D01*
X166508434Y-89459217D01*
X166508432Y-89459209D01*
X166482962Y-89386418D01*
X166476004Y-89345464D01*
X166476004Y-87256724D01*
X166495689Y-87189685D01*
X166512318Y-87169048D01*
X169946417Y-83734948D01*
X170007738Y-83701465D01*
X170077430Y-83706449D01*
X170133363Y-83748321D01*
X170157624Y-83811823D01*
X170164936Y-83895403D01*
X170164938Y-83895413D01*
X170226094Y-84123655D01*
X170226096Y-84123659D01*
X170226097Y-84123663D01*
X170296446Y-84274526D01*
X170325965Y-84337830D01*
X170325967Y-84337834D01*
X170387000Y-84424997D01*
X170461501Y-84531396D01*
X170461506Y-84531402D01*
X170628597Y-84698493D01*
X170628603Y-84698498D01*
X170814158Y-84828425D01*
X170857783Y-84883002D01*
X170864977Y-84952500D01*
X170833454Y-85014855D01*
X170814158Y-85031575D01*
X170628597Y-85161505D01*
X170461508Y-85328594D01*
X170373323Y-85454535D01*
X170318745Y-85498160D01*
X170249247Y-85505352D01*
X170230794Y-85500453D01*
X170200018Y-85489684D01*
X170200010Y-85489682D01*
X170020765Y-85469487D01*
X170020757Y-85469487D01*
X169841511Y-85489682D01*
X169841506Y-85489683D01*
X169671237Y-85549263D01*
X169518498Y-85645236D01*
X169390945Y-85772789D01*
X169294972Y-85925528D01*
X169235392Y-86095797D01*
X169235391Y-86095802D01*
X169215196Y-86275048D01*
X169215196Y-86275055D01*
X169235391Y-86454301D01*
X169235392Y-86454306D01*
X169294972Y-86624575D01*
X169354251Y-86718916D01*
X169390945Y-86777314D01*
X169518499Y-86904868D01*
X169671239Y-87000841D01*
X169815377Y-87051277D01*
X169841506Y-87060420D01*
X169841511Y-87060421D01*
X170020757Y-87080617D01*
X170020761Y-87080617D01*
X170020765Y-87080617D01*
X170200010Y-87060421D01*
X170200012Y-87060420D01*
X170200016Y-87060420D01*
X170200019Y-87060418D01*
X170200023Y-87060418D01*
X170315213Y-87020111D01*
X170384991Y-87016548D01*
X170445619Y-87051277D01*
X170457741Y-87066026D01*
X170461501Y-87071396D01*
X170461508Y-87071405D01*
X170628597Y-87238493D01*
X170628603Y-87238498D01*
X170814158Y-87368425D01*
X170857783Y-87423002D01*
X170864977Y-87492500D01*
X170833454Y-87554855D01*
X170814158Y-87571575D01*
X170628597Y-87701505D01*
X170461508Y-87868595D01*
X170461503Y-87868601D01*
X170428084Y-87916328D01*
X170373506Y-87959952D01*
X170304008Y-87967144D01*
X170285557Y-87962245D01*
X170220776Y-87939578D01*
X170041527Y-87919382D01*
X170041519Y-87919382D01*
X169862273Y-87939577D01*
X169862268Y-87939578D01*
X169691999Y-87999158D01*
X169539260Y-88095131D01*
X169411707Y-88222684D01*
X169315734Y-88375423D01*
X169256154Y-88545692D01*
X169256153Y-88545697D01*
X169235958Y-88724943D01*
X169235958Y-88724950D01*
X169256153Y-88904196D01*
X169256154Y-88904201D01*
X169315734Y-89074470D01*
X169404951Y-89216457D01*
X169411707Y-89227209D01*
X169539261Y-89354763D01*
X169589640Y-89386418D01*
X169690522Y-89449807D01*
X169692001Y-89450736D01*
X169801479Y-89489044D01*
X169862268Y-89510315D01*
X169862273Y-89510316D01*
X170041519Y-89530512D01*
X170041523Y-89530512D01*
X170041527Y-89530512D01*
X170220769Y-89510316D01*
X170220768Y-89510316D01*
X170220778Y-89510315D01*
X170268624Y-89493572D01*
X170338400Y-89490010D01*
X170399028Y-89524739D01*
X170411151Y-89539490D01*
X170461499Y-89611393D01*
X170461506Y-89611402D01*
X170628597Y-89778493D01*
X170628603Y-89778498D01*
X170814594Y-89908730D01*
X170858219Y-89963307D01*
X170865413Y-90032805D01*
X170833890Y-90095160D01*
X170814595Y-90111880D01*
X170628922Y-90241890D01*
X170628920Y-90241891D01*
X170461891Y-90408920D01*
X170461886Y-90408926D01*
X170326400Y-90602420D01*
X170326399Y-90602422D01*
X170226570Y-90816507D01*
X170226567Y-90816513D01*
X170169364Y-91029999D01*
X170169364Y-91030000D01*
X171066988Y-91030000D01*
X171034075Y-91087007D01*
X171000000Y-91214174D01*
X171000000Y-91345826D01*
X171034075Y-91472993D01*
X171066988Y-91530000D01*
X170169364Y-91530000D01*
X170226567Y-91743486D01*
X170226570Y-91743492D01*
X170326399Y-91957578D01*
X170461894Y-92151082D01*
X170628917Y-92318105D01*
X170815031Y-92448425D01*
X170858656Y-92503003D01*
X170865848Y-92572501D01*
X170834326Y-92634856D01*
X170815031Y-92651575D01*
X170628922Y-92781890D01*
X170628920Y-92781891D01*
X170461891Y-92948920D01*
X170461886Y-92948926D01*
X170326400Y-93142420D01*
X170326399Y-93142422D01*
X170226570Y-93356507D01*
X170226567Y-93356513D01*
X170169364Y-93569999D01*
X170169364Y-93570000D01*
X171066988Y-93570000D01*
X171034075Y-93627007D01*
X171000000Y-93754174D01*
X171000000Y-93885826D01*
X171034075Y-94012993D01*
X171066988Y-94070000D01*
X170169364Y-94070000D01*
X170226567Y-94283484D01*
X170226570Y-94283492D01*
X170326399Y-94497578D01*
X170461894Y-94691082D01*
X170628917Y-94858105D01*
X170815031Y-94988425D01*
X170858656Y-95043003D01*
X170865848Y-95112501D01*
X170834326Y-95174856D01*
X170815031Y-95191575D01*
X170628922Y-95321890D01*
X170628920Y-95321891D01*
X170461891Y-95488920D01*
X170461886Y-95488926D01*
X170326400Y-95682420D01*
X170326399Y-95682422D01*
X170226570Y-95896507D01*
X170226567Y-95896513D01*
X170169364Y-96109999D01*
X170169364Y-96110000D01*
X171066988Y-96110000D01*
X171034075Y-96167007D01*
X171000000Y-96294174D01*
X171000000Y-96425826D01*
X171034075Y-96552993D01*
X171066988Y-96610000D01*
X170169364Y-96610000D01*
X170226567Y-96823486D01*
X170226570Y-96823492D01*
X170326399Y-97037578D01*
X170461894Y-97231082D01*
X170628917Y-97398105D01*
X170822421Y-97533600D01*
X171036507Y-97633429D01*
X171036516Y-97633433D01*
X171250000Y-97690634D01*
X171250000Y-96793012D01*
X171307007Y-96825925D01*
X171434174Y-96860000D01*
X171565826Y-96860000D01*
X171692993Y-96825925D01*
X171750000Y-96793012D01*
X171750000Y-97690633D01*
X171963483Y-97633433D01*
X171963492Y-97633429D01*
X172177578Y-97533600D01*
X172371082Y-97398105D01*
X172538107Y-97231080D01*
X172577120Y-97175364D01*
X172631696Y-97131739D01*
X172701194Y-97124545D01*
X172763549Y-97156067D01*
X172782503Y-97178665D01*
X172851832Y-97284780D01*
X172851834Y-97284782D01*
X172851836Y-97284785D01*
X173020256Y-97467738D01*
X173216491Y-97620474D01*
X173435190Y-97738828D01*
X173670386Y-97819571D01*
X173915665Y-97860500D01*
X174164335Y-97860500D01*
X174409614Y-97819571D01*
X174644810Y-97738828D01*
X174863509Y-97620474D01*
X175059744Y-97467738D01*
X175228164Y-97284785D01*
X175364173Y-97076607D01*
X175464063Y-96848881D01*
X175525108Y-96607821D01*
X175526321Y-96593184D01*
X175545643Y-96360005D01*
X175545643Y-96359994D01*
X175525109Y-96112187D01*
X175525107Y-96112175D01*
X175464063Y-95871118D01*
X175364173Y-95643393D01*
X175228166Y-95435217D01*
X175184023Y-95387265D01*
X175059744Y-95252262D01*
X174976991Y-95187852D01*
X174936179Y-95131143D01*
X174932504Y-95061370D01*
X174967136Y-95000687D01*
X174976985Y-94992151D01*
X175059744Y-94927738D01*
X175228164Y-94744785D01*
X175364173Y-94536607D01*
X175464063Y-94308881D01*
X175525108Y-94067821D01*
X175525109Y-94067812D01*
X175545643Y-93820005D01*
X175545643Y-93819994D01*
X175525109Y-93572187D01*
X175525107Y-93572175D01*
X175464063Y-93331118D01*
X175364173Y-93103393D01*
X175228166Y-92895217D01*
X175167562Y-92829384D01*
X175059744Y-92712262D01*
X174976991Y-92647852D01*
X174936179Y-92591143D01*
X174932504Y-92521370D01*
X174967136Y-92460687D01*
X174976985Y-92452151D01*
X175059744Y-92387738D01*
X175228164Y-92204785D01*
X175228810Y-92203797D01*
X175254947Y-92163791D01*
X175364173Y-91996607D01*
X175464063Y-91768881D01*
X175525108Y-91527821D01*
X175529651Y-91472993D01*
X175545643Y-91280005D01*
X175545643Y-91279994D01*
X175525109Y-91032187D01*
X175525107Y-91032175D01*
X175464063Y-90791118D01*
X175364173Y-90563393D01*
X175228166Y-90355217D01*
X175196289Y-90320590D01*
X175059744Y-90172262D01*
X174976991Y-90107852D01*
X174936179Y-90051143D01*
X174932504Y-89981370D01*
X174967136Y-89920687D01*
X174976985Y-89912151D01*
X175059744Y-89847738D01*
X175228164Y-89664785D01*
X175364173Y-89456607D01*
X175464063Y-89228881D01*
X175525108Y-88987821D01*
X175525109Y-88987812D01*
X175545643Y-88740005D01*
X175545643Y-88739994D01*
X175525109Y-88492187D01*
X175525107Y-88492175D01*
X175464063Y-88251118D01*
X175364173Y-88023393D01*
X175228166Y-87815217D01*
X175149718Y-87730000D01*
X175059744Y-87632262D01*
X174976991Y-87567852D01*
X174936179Y-87511143D01*
X174932504Y-87441370D01*
X174967136Y-87380687D01*
X174976985Y-87372151D01*
X175059744Y-87307738D01*
X175228164Y-87124785D01*
X175228320Y-87124547D01*
X175270215Y-87060421D01*
X175364173Y-86916607D01*
X175464063Y-86688881D01*
X175525108Y-86447821D01*
X175525109Y-86447812D01*
X175545643Y-86200005D01*
X175545643Y-86199994D01*
X175525109Y-85952187D01*
X175525107Y-85952175D01*
X175464063Y-85711118D01*
X175364173Y-85483393D01*
X175228166Y-85275217D01*
X175175415Y-85217914D01*
X175059744Y-85092262D01*
X174976991Y-85027852D01*
X174936179Y-84971143D01*
X174932504Y-84901370D01*
X174967136Y-84840687D01*
X174976985Y-84832151D01*
X175059744Y-84767738D01*
X175228164Y-84584785D01*
X175364173Y-84376607D01*
X175464063Y-84148881D01*
X175525108Y-83907821D01*
X175526137Y-83895403D01*
X175545643Y-83660005D01*
X175545643Y-83659994D01*
X175525109Y-83412187D01*
X175525107Y-83412175D01*
X175464063Y-83171118D01*
X175364173Y-82943393D01*
X175228166Y-82735217D01*
X175153763Y-82654394D01*
X175059744Y-82552262D01*
X174976991Y-82487852D01*
X174936179Y-82431143D01*
X174932504Y-82361370D01*
X174967136Y-82300687D01*
X174976985Y-82292151D01*
X175059744Y-82227738D01*
X175228164Y-82044785D01*
X175364173Y-81836607D01*
X175464063Y-81608881D01*
X175525108Y-81367821D01*
X175526137Y-81355408D01*
X175545643Y-81120005D01*
X175545643Y-81119994D01*
X175525109Y-80872187D01*
X175525107Y-80872175D01*
X175464063Y-80631118D01*
X175364173Y-80403393D01*
X175228166Y-80195217D01*
X175140512Y-80100000D01*
X175059744Y-80012262D01*
X174976991Y-79947852D01*
X174936179Y-79891143D01*
X174932504Y-79821370D01*
X174967136Y-79760687D01*
X174976985Y-79752151D01*
X175059744Y-79687738D01*
X175228164Y-79504785D01*
X175364173Y-79296607D01*
X175464063Y-79068881D01*
X175525108Y-78827821D01*
X175530440Y-78763471D01*
X175545643Y-78580005D01*
X175545643Y-78579994D01*
X175525109Y-78332187D01*
X175525107Y-78332175D01*
X175464063Y-78091118D01*
X175364173Y-77863393D01*
X175228166Y-77655217D01*
X175206557Y-77631744D01*
X175059744Y-77472262D01*
X174976991Y-77407852D01*
X174936179Y-77351143D01*
X174932504Y-77281370D01*
X174967136Y-77220687D01*
X174976985Y-77212151D01*
X175059744Y-77147738D01*
X175228164Y-76964785D01*
X175364173Y-76756607D01*
X175464063Y-76528881D01*
X175525108Y-76287821D01*
X175545643Y-76040000D01*
X175535720Y-75920249D01*
X175525109Y-75792187D01*
X175525107Y-75792175D01*
X175464063Y-75551118D01*
X175364173Y-75323393D01*
X175228166Y-75115217D01*
X175206557Y-75091744D01*
X175059744Y-74932262D01*
X174976991Y-74867852D01*
X174936179Y-74811143D01*
X174932504Y-74741370D01*
X174967136Y-74680687D01*
X174976985Y-74672151D01*
X175059744Y-74607738D01*
X175228164Y-74424785D01*
X175364173Y-74216607D01*
X175464063Y-73988881D01*
X175525108Y-73747821D01*
X175525109Y-73747812D01*
X175545643Y-73500005D01*
X175545643Y-73499994D01*
X175525109Y-73252187D01*
X175525107Y-73252175D01*
X175464063Y-73011118D01*
X175364173Y-72783393D01*
X175228166Y-72575217D01*
X175149718Y-72490000D01*
X175059744Y-72392262D01*
X174863509Y-72239526D01*
X174863507Y-72239525D01*
X174863506Y-72239524D01*
X174644811Y-72121172D01*
X174644802Y-72121169D01*
X174409616Y-72040429D01*
X174164335Y-71999500D01*
X173915665Y-71999500D01*
X173670383Y-72040429D01*
X173435197Y-72121169D01*
X173435188Y-72121172D01*
X173216493Y-72239524D01*
X173020256Y-72392262D01*
X172989987Y-72425142D01*
X172930099Y-72461131D01*
X172860261Y-72459029D01*
X172802646Y-72419504D01*
X172799347Y-72414592D01*
X172799112Y-72414769D01*
X172707547Y-72292455D01*
X172707544Y-72292452D01*
X172592335Y-72206206D01*
X172592328Y-72206202D01*
X172457482Y-72155908D01*
X172457483Y-72155908D01*
X172397883Y-72149501D01*
X172397881Y-72149500D01*
X172397873Y-72149500D01*
X172397864Y-72149500D01*
X170602129Y-72149500D01*
X170602123Y-72149501D01*
X170542516Y-72155908D01*
X170407671Y-72206202D01*
X170407664Y-72206206D01*
X170292455Y-72292452D01*
X170292452Y-72292455D01*
X170206206Y-72407664D01*
X170206202Y-72407671D01*
X170155908Y-72542517D01*
X170149501Y-72602116D01*
X170149500Y-72602135D01*
X170149500Y-74397870D01*
X170149501Y-74397876D01*
X170155908Y-74457483D01*
X170206202Y-74592328D01*
X170206206Y-74592335D01*
X170292452Y-74707544D01*
X170292455Y-74707547D01*
X170407664Y-74793793D01*
X170407671Y-74793797D01*
X170539081Y-74842810D01*
X170595015Y-74884681D01*
X170619432Y-74950145D01*
X170604580Y-75018418D01*
X170583430Y-75046673D01*
X170461503Y-75168600D01*
X170325965Y-75362169D01*
X170325964Y-75362171D01*
X170226098Y-75576335D01*
X170226094Y-75576344D01*
X170164938Y-75804586D01*
X170164936Y-75804596D01*
X170144341Y-76039999D01*
X170144341Y-76040000D01*
X170164936Y-76275403D01*
X170164938Y-76275413D01*
X170226094Y-76503655D01*
X170226096Y-76503659D01*
X170226097Y-76503663D01*
X170312187Y-76688283D01*
X170325965Y-76717830D01*
X170325967Y-76717834D01*
X170418005Y-76849277D01*
X170461501Y-76911396D01*
X170461506Y-76911402D01*
X170628597Y-77078493D01*
X170628603Y-77078498D01*
X170814158Y-77208425D01*
X170857783Y-77263002D01*
X170864977Y-77332500D01*
X170833454Y-77394855D01*
X170814158Y-77411575D01*
X170628597Y-77541505D01*
X170461505Y-77708597D01*
X170325965Y-77902169D01*
X170325964Y-77902171D01*
X170226098Y-78116335D01*
X170226094Y-78116344D01*
X170164938Y-78344586D01*
X170164936Y-78344596D01*
X170144341Y-78579999D01*
X170144341Y-78580000D01*
X170164936Y-78815403D01*
X170164938Y-78815413D01*
X170226094Y-79043655D01*
X170226096Y-79043659D01*
X170226097Y-79043663D01*
X170308850Y-79221127D01*
X170325965Y-79257830D01*
X170325967Y-79257834D01*
X170387000Y-79344997D01*
X170461501Y-79451396D01*
X170461506Y-79451402D01*
X170628597Y-79618493D01*
X170628603Y-79618498D01*
X170814158Y-79748425D01*
X170857783Y-79803002D01*
X170864977Y-79872500D01*
X170833454Y-79934855D01*
X170814158Y-79951575D01*
X170628597Y-80081505D01*
X170461505Y-80248597D01*
X170325965Y-80442169D01*
X170325964Y-80442171D01*
X170226098Y-80656335D01*
X170226094Y-80656344D01*
X170164938Y-80884586D01*
X170164936Y-80884596D01*
X170144341Y-81119999D01*
X170144341Y-81120001D01*
X170162977Y-81333013D01*
X170149210Y-81401513D01*
X170127130Y-81431501D01*
X165142556Y-86416074D01*
X165142553Y-86416077D01*
X165095111Y-86487079D01*
X165095112Y-86487080D01*
X165060418Y-86539004D01*
X165003847Y-86675578D01*
X165003844Y-86675588D01*
X164975004Y-86820575D01*
X164975004Y-89331524D01*
X164968046Y-89372478D01*
X164937696Y-89459214D01*
X164917500Y-89638463D01*
X164917500Y-89638470D01*
X164937695Y-89817713D01*
X164937697Y-89817724D01*
X164968045Y-89904451D01*
X164975004Y-89945406D01*
X164975004Y-90060546D01*
X164955319Y-90127585D01*
X164922129Y-90162120D01*
X164854099Y-90209755D01*
X164687009Y-90376845D01*
X164557079Y-90562406D01*
X164502502Y-90606031D01*
X164433004Y-90613225D01*
X164370649Y-90581702D01*
X164353929Y-90562406D01*
X164223998Y-90376845D01*
X164222323Y-90375170D01*
X164221819Y-90374248D01*
X164220518Y-90372697D01*
X164220829Y-90372435D01*
X164188838Y-90313847D01*
X164186004Y-90287489D01*
X164186004Y-90128401D01*
X164161539Y-90005412D01*
X164147555Y-89935109D01*
X164103782Y-89829432D01*
X164072136Y-89753031D01*
X164019573Y-89674365D01*
X163962644Y-89589164D01*
X163898219Y-89524739D01*
X163823286Y-89449806D01*
X163823285Y-89449805D01*
X163622917Y-89249437D01*
X163601238Y-89220205D01*
X163599235Y-89216458D01*
X163489741Y-89052589D01*
X163489738Y-89052585D01*
X163350387Y-88913234D01*
X163350379Y-88913228D01*
X163186522Y-88803742D01*
X163182757Y-88801730D01*
X163153534Y-88780055D01*
X162820038Y-88446559D01*
X162820018Y-88446537D01*
X162676344Y-88302863D01*
X162676340Y-88302860D01*
X162512479Y-88193371D01*
X162512466Y-88193364D01*
X162362567Y-88131275D01*
X162330398Y-88117950D01*
X162330388Y-88117947D01*
X162197975Y-88091609D01*
X162137102Y-88079500D01*
X162137100Y-88079500D01*
X155792566Y-88079500D01*
X152672855Y-88079500D01*
X152605816Y-88059815D01*
X152581626Y-88039483D01*
X152519747Y-87972265D01*
X152519744Y-87972262D01*
X152447880Y-87916328D01*
X152323509Y-87819526D01*
X152323507Y-87819525D01*
X152323506Y-87819524D01*
X152104811Y-87701172D01*
X152104802Y-87701169D01*
X151869616Y-87620429D01*
X151624335Y-87579500D01*
X151375665Y-87579500D01*
X151130383Y-87620429D01*
X150895197Y-87701169D01*
X150895188Y-87701172D01*
X150676493Y-87819524D01*
X150480257Y-87972261D01*
X150311833Y-88155217D01*
X150175826Y-88363393D01*
X150075936Y-88591118D01*
X150014892Y-88832175D01*
X150014890Y-88832187D01*
X149994357Y-89079994D01*
X149994357Y-89080005D01*
X150014890Y-89327812D01*
X150014892Y-89327824D01*
X150075936Y-89568881D01*
X150175826Y-89796606D01*
X150311833Y-90004782D01*
X150311836Y-90004785D01*
X150480256Y-90187738D01*
X150676491Y-90340474D01*
X150895190Y-90458828D01*
X151130386Y-90539571D01*
X151375665Y-90580500D01*
X151624335Y-90580500D01*
X151869614Y-90539571D01*
X152104810Y-90458828D01*
X152323509Y-90340474D01*
X152519744Y-90187738D01*
X152555864Y-90148501D01*
X152581626Y-90120517D01*
X152641513Y-90084526D01*
X152672855Y-90080500D01*
X155364051Y-90080500D01*
X155411503Y-90089938D01*
X155477353Y-90117215D01*
X155657201Y-90152989D01*
X155670644Y-90155663D01*
X155670647Y-90155664D01*
X155670649Y-90155664D01*
X155867731Y-90155664D01*
X155867732Y-90155663D01*
X156061025Y-90117215D01*
X156126874Y-90089938D01*
X156174327Y-90080500D01*
X159201243Y-90080500D01*
X159268282Y-90100185D01*
X159314037Y-90152989D01*
X159323981Y-90222147D01*
X159317425Y-90247832D01*
X159301413Y-90290762D01*
X159301412Y-90290764D01*
X159295005Y-90350364D01*
X159295004Y-90350383D01*
X159295004Y-92146118D01*
X159295005Y-92146124D01*
X159301412Y-92205731D01*
X159351706Y-92340576D01*
X159351710Y-92340583D01*
X159437956Y-92455792D01*
X159437959Y-92455795D01*
X159553168Y-92542041D01*
X159553175Y-92542045D01*
X159688021Y-92592339D01*
X159688020Y-92592339D01*
X159694948Y-92593083D01*
X159747631Y-92598748D01*
X160929510Y-92598747D01*
X160996549Y-92618432D01*
X161042304Y-92671235D01*
X161046551Y-92681792D01*
X161062911Y-92728546D01*
X161062913Y-92728550D01*
X161146903Y-92862219D01*
X161158885Y-92881288D01*
X161286439Y-93008842D01*
X161439179Y-93104815D01*
X161546648Y-93142420D01*
X161609446Y-93164394D01*
X161609451Y-93164395D01*
X161788697Y-93184591D01*
X161788701Y-93184591D01*
X161788705Y-93184591D01*
X161967950Y-93164395D01*
X161967953Y-93164394D01*
X161967956Y-93164394D01*
X162138223Y-93104815D01*
X162290963Y-93008842D01*
X162418517Y-92881288D01*
X162514490Y-92728548D01*
X162560509Y-92597031D01*
X162601229Y-92540258D01*
X162666182Y-92514510D01*
X162716536Y-92521026D01*
X162716611Y-92520750D01*
X162718674Y-92521303D01*
X162719973Y-92521471D01*
X162721833Y-92522147D01*
X162721841Y-92522151D01*
X162950096Y-92583311D01*
X163033678Y-92590623D01*
X163098746Y-92616075D01*
X163139725Y-92672666D01*
X163143603Y-92742428D01*
X163110551Y-92801832D01*
X155199203Y-100713181D01*
X155137880Y-100746666D01*
X155111522Y-100749500D01*
X152320868Y-100749500D01*
X152279913Y-100742541D01*
X152118692Y-100686126D01*
X152118679Y-100686123D01*
X151939434Y-100665928D01*
X151939426Y-100665928D01*
X151760180Y-100686123D01*
X151760167Y-100686126D01*
X151598947Y-100742541D01*
X151557992Y-100749500D01*
X151466663Y-100749500D01*
X151399624Y-100729815D01*
X151365088Y-100696623D01*
X151340045Y-100660858D01*
X151179141Y-100499954D01*
X150992734Y-100369432D01*
X150992732Y-100369431D01*
X150786497Y-100273261D01*
X150786488Y-100273258D01*
X150566697Y-100214366D01*
X150566693Y-100214365D01*
X150566692Y-100214365D01*
X150566691Y-100214364D01*
X150566686Y-100214364D01*
X150340002Y-100194532D01*
X150339998Y-100194532D01*
X150113313Y-100214364D01*
X150113302Y-100214366D01*
X149893511Y-100273258D01*
X149893502Y-100273261D01*
X149687267Y-100369431D01*
X149687265Y-100369432D01*
X149500858Y-100499954D01*
X149339954Y-100660858D01*
X149209432Y-100847265D01*
X149209431Y-100847267D01*
X149113261Y-101053502D01*
X149113258Y-101053511D01*
X149054366Y-101273302D01*
X149054364Y-101273313D01*
X149034532Y-101499998D01*
X148070511Y-101499998D01*
X149644744Y-99925766D01*
X149706067Y-99892281D01*
X149732425Y-99889447D01*
X155346180Y-99889447D01*
X155476219Y-99863579D01*
X155539472Y-99850998D01*
X155721551Y-99775579D01*
X155885419Y-99666086D01*
X156024776Y-99526729D01*
X156134269Y-99362861D01*
X156209688Y-99180782D01*
X156240378Y-99026496D01*
X156248137Y-98987490D01*
X156248137Y-98790403D01*
X156209689Y-98597117D01*
X156209688Y-98597116D01*
X156209688Y-98597112D01*
X156209686Y-98597107D01*
X156134272Y-98415039D01*
X156134265Y-98415026D01*
X156024776Y-98251165D01*
X156024773Y-98251161D01*
X155885422Y-98111810D01*
X155885418Y-98111807D01*
X155721557Y-98002318D01*
X155721544Y-98002311D01*
X155539476Y-97926897D01*
X155539466Y-97926894D01*
X155346180Y-97888447D01*
X155346178Y-97888447D01*
X149365182Y-97888447D01*
X149168101Y-97888447D01*
X149168098Y-97888447D01*
X148974813Y-97926894D01*
X148974805Y-97926896D01*
X148937816Y-97942218D01*
X148937815Y-97942218D01*
X148792734Y-98002311D01*
X148792722Y-98002318D01*
X148712862Y-98055680D01*
X148712861Y-98055681D01*
X148628857Y-98111809D01*
X148628856Y-98111810D01*
X145467366Y-101273302D01*
X144457240Y-102283428D01*
X144457238Y-102283430D01*
X144401529Y-102339139D01*
X144351175Y-102389493D01*
X144289852Y-102422977D01*
X144220160Y-102417993D01*
X144164227Y-102376121D01*
X144141877Y-102326002D01*
X144121121Y-102221658D01*
X144118437Y-102208165D01*
X144100593Y-102165086D01*
X144043021Y-102026092D01*
X144043014Y-102026079D01*
X143933525Y-101862218D01*
X143933522Y-101862214D01*
X143794171Y-101722863D01*
X143794167Y-101722860D01*
X143630306Y-101613371D01*
X143630293Y-101613364D01*
X143448225Y-101537950D01*
X143448215Y-101537947D01*
X143254929Y-101499500D01*
X143254927Y-101499500D01*
X141425782Y-101499500D01*
X141358743Y-101479815D01*
X141338101Y-101463181D01*
X137284920Y-97410000D01*
X141119117Y-97410000D01*
X142124722Y-97410000D01*
X142080667Y-97486306D01*
X142050000Y-97600756D01*
X142050000Y-97719244D01*
X142080667Y-97833694D01*
X142124722Y-97910000D01*
X141119117Y-97910000D01*
X141171317Y-98116135D01*
X141264516Y-98328609D01*
X141391414Y-98522842D01*
X141548558Y-98693545D01*
X141548562Y-98693548D01*
X141731644Y-98836047D01*
X141731648Y-98836050D01*
X141935697Y-98946476D01*
X141935706Y-98946479D01*
X142155139Y-99021811D01*
X142249999Y-99037640D01*
X142250000Y-99037639D01*
X142250000Y-98035277D01*
X142326306Y-98079333D01*
X142440756Y-98110000D01*
X142559244Y-98110000D01*
X142673694Y-98079333D01*
X142750000Y-98035277D01*
X142750000Y-99037640D01*
X142844860Y-99021811D01*
X143064293Y-98946479D01*
X143064302Y-98946476D01*
X143268351Y-98836050D01*
X143268355Y-98836047D01*
X143451437Y-98693548D01*
X143451441Y-98693545D01*
X143608585Y-98522842D01*
X143735483Y-98328609D01*
X143828682Y-98116135D01*
X143880883Y-97910000D01*
X142875278Y-97910000D01*
X142919333Y-97833694D01*
X142950000Y-97719244D01*
X142950000Y-97600756D01*
X142919333Y-97486306D01*
X142875278Y-97410000D01*
X143880883Y-97410000D01*
X143828682Y-97203864D01*
X143735483Y-96991390D01*
X143608585Y-96797157D01*
X143451441Y-96626454D01*
X143451437Y-96626451D01*
X143268355Y-96483952D01*
X143268351Y-96483949D01*
X143064302Y-96373523D01*
X143064293Y-96373520D01*
X142844861Y-96298188D01*
X142750000Y-96282359D01*
X142750000Y-97284722D01*
X142673694Y-97240667D01*
X142559244Y-97210000D01*
X142440756Y-97210000D01*
X142326306Y-97240667D01*
X142250000Y-97284722D01*
X142250000Y-96282359D01*
X142249999Y-96282359D01*
X142155138Y-96298188D01*
X141935706Y-96373520D01*
X141935697Y-96373523D01*
X141731648Y-96483949D01*
X141731644Y-96483952D01*
X141548562Y-96626451D01*
X141548558Y-96626454D01*
X141391414Y-96797157D01*
X141264516Y-96991390D01*
X141171317Y-97203864D01*
X141119117Y-97410000D01*
X137284920Y-97410000D01*
X136526887Y-96651967D01*
X136500007Y-96611739D01*
X136492322Y-96593184D01*
X136465467Y-96552993D01*
X136382829Y-96429315D01*
X136243475Y-96289961D01*
X136243471Y-96289958D01*
X136079610Y-96180469D01*
X136079605Y-96180467D01*
X136079604Y-96180466D01*
X136061045Y-96172778D01*
X136020819Y-96145899D01*
X135826887Y-95951967D01*
X135793402Y-95890644D01*
X135791040Y-95875093D01*
X135790692Y-95871119D01*
X135785635Y-95813308D01*
X135726739Y-95593504D01*
X135630568Y-95387266D01*
X135522924Y-95233532D01*
X135500597Y-95167326D01*
X135500500Y-95162410D01*
X135500500Y-94891001D01*
X135501952Y-94876259D01*
X135501619Y-94876227D01*
X135502216Y-94870164D01*
X135502216Y-94673079D01*
X135501619Y-94667017D01*
X135501952Y-94666984D01*
X135500500Y-94652240D01*
X135500500Y-94377588D01*
X135520185Y-94310549D01*
X135522925Y-94306465D01*
X135527890Y-94299374D01*
X135630568Y-94152734D01*
X135726739Y-93946496D01*
X135785635Y-93726692D01*
X135805468Y-93500000D01*
X135785635Y-93273308D01*
X135726739Y-93053504D01*
X135630568Y-92847266D01*
X135500047Y-92660861D01*
X135500045Y-92660858D01*
X135339141Y-92499954D01*
X135152734Y-92369432D01*
X135152728Y-92369429D01*
X135094725Y-92342382D01*
X135042285Y-92296210D01*
X135023133Y-92229017D01*
X135043348Y-92162135D01*
X135094725Y-92117618D01*
X135152734Y-92090568D01*
X135339139Y-91960047D01*
X135500047Y-91799139D01*
X135630568Y-91612734D01*
X135726739Y-91406496D01*
X135785635Y-91186692D01*
X135805468Y-90960000D01*
X135794495Y-90834586D01*
X135808261Y-90766089D01*
X135856876Y-90715906D01*
X135877061Y-90706742D01*
X135905313Y-90696857D01*
X136058053Y-90600884D01*
X136185607Y-90473330D01*
X136281580Y-90320590D01*
X136315725Y-90223007D01*
X136345083Y-90176283D01*
X138082952Y-88438416D01*
X138133080Y-88363393D01*
X138147160Y-88342321D01*
X138168468Y-88310431D01*
X138169578Y-88311173D01*
X138213745Y-88266206D01*
X138274147Y-88250500D01*
X140825130Y-88250500D01*
X140858539Y-88256176D01*
X140858652Y-88255684D01*
X140865439Y-88257232D01*
X140865441Y-88257233D01*
X140907373Y-88261957D01*
X140989383Y-88271198D01*
X141053797Y-88298264D01*
X141093352Y-88355859D01*
X141099500Y-88394416D01*
X141099500Y-88447869D01*
X141099501Y-88447876D01*
X141105908Y-88507483D01*
X141156202Y-88642328D01*
X141156206Y-88642335D01*
X141242452Y-88757544D01*
X141242455Y-88757547D01*
X141357664Y-88843793D01*
X141357671Y-88843797D01*
X141492517Y-88894091D01*
X141492516Y-88894091D01*
X141499444Y-88894835D01*
X141552127Y-88900500D01*
X143447872Y-88900499D01*
X143507483Y-88894091D01*
X143642331Y-88843796D01*
X143757546Y-88757546D01*
X143843796Y-88642331D01*
X143894091Y-88507483D01*
X143900500Y-88447873D01*
X143900499Y-87212228D01*
X143920184Y-87145190D01*
X143936813Y-87124553D01*
X144082952Y-86978415D01*
X144113576Y-86932582D01*
X144165084Y-86855495D01*
X144203936Y-86761698D01*
X144221659Y-86718912D01*
X144250500Y-86573917D01*
X144250500Y-86426082D01*
X144250500Y-86155476D01*
X144257460Y-86114518D01*
X144259197Y-86109555D01*
X144260748Y-86095797D01*
X144279394Y-85930303D01*
X144279394Y-85930296D01*
X144264038Y-85794010D01*
X144259197Y-85751045D01*
X144257458Y-85746075D01*
X144250500Y-85705121D01*
X144250500Y-83999994D01*
X149994357Y-83999994D01*
X149994357Y-84000005D01*
X150014890Y-84247812D01*
X150014892Y-84247824D01*
X150075936Y-84488881D01*
X150175826Y-84716606D01*
X150311833Y-84924782D01*
X150311836Y-84924785D01*
X150480256Y-85107738D01*
X150676491Y-85260474D01*
X150895190Y-85378828D01*
X151130386Y-85459571D01*
X151375665Y-85500500D01*
X151624335Y-85500500D01*
X151869614Y-85459571D01*
X152104810Y-85378828D01*
X152323509Y-85260474D01*
X152519744Y-85107738D01*
X152688164Y-84924785D01*
X152824173Y-84716607D01*
X152924063Y-84488881D01*
X152985108Y-84247821D01*
X152985409Y-84244186D01*
X153005643Y-84000005D01*
X153005643Y-83999994D01*
X152985109Y-83752187D01*
X152985107Y-83752175D01*
X152924063Y-83511118D01*
X152824173Y-83283393D01*
X152688166Y-83075217D01*
X152666557Y-83051744D01*
X152519744Y-82892262D01*
X152323509Y-82739526D01*
X152323508Y-82739525D01*
X152323505Y-82739523D01*
X152323503Y-82739522D01*
X152116145Y-82627306D01*
X152066554Y-82578086D01*
X152051446Y-82509870D01*
X152075616Y-82444314D01*
X152087468Y-82430583D01*
X152171380Y-82346672D01*
X152267353Y-82193932D01*
X152326932Y-82023665D01*
X152330567Y-81991402D01*
X152347129Y-81844413D01*
X152347129Y-81844406D01*
X152326933Y-81665160D01*
X152326932Y-81665155D01*
X152269261Y-81500342D01*
X152267353Y-81494888D01*
X152171380Y-81342148D01*
X152043826Y-81214594D01*
X152011898Y-81194532D01*
X151891087Y-81118621D01*
X151720818Y-81059041D01*
X151720813Y-81059040D01*
X151541568Y-81038845D01*
X151541560Y-81038845D01*
X151362314Y-81059040D01*
X151362309Y-81059041D01*
X151192040Y-81118621D01*
X151039301Y-81214594D01*
X150911748Y-81342147D01*
X150815775Y-81494886D01*
X150756195Y-81665155D01*
X150756194Y-81665160D01*
X150735999Y-81844406D01*
X150735999Y-81844413D01*
X150756194Y-82023659D01*
X150756195Y-82023664D01*
X150815775Y-82193933D01*
X150911748Y-82346672D01*
X150971401Y-82406325D01*
X151004886Y-82467648D01*
X150999902Y-82537340D01*
X150958030Y-82593273D01*
X150923983Y-82611287D01*
X150895197Y-82621169D01*
X150895188Y-82621172D01*
X150676493Y-82739524D01*
X150480257Y-82892261D01*
X150311833Y-83075217D01*
X150175826Y-83283393D01*
X150075936Y-83511118D01*
X150014892Y-83752175D01*
X150014890Y-83752187D01*
X149994357Y-83999994D01*
X144250500Y-83999994D01*
X144250500Y-77409831D01*
X144257458Y-77368876D01*
X144267756Y-77339446D01*
X144290517Y-77274399D01*
X144290518Y-77274393D01*
X144310714Y-77095147D01*
X144310714Y-77095141D01*
X144290300Y-76913962D01*
X144302354Y-76845140D01*
X144340634Y-76799760D01*
X144494066Y-76688286D01*
X144655786Y-76526566D01*
X144790217Y-76341538D01*
X144894048Y-76137758D01*
X144925810Y-76040005D01*
X144964721Y-75920249D01*
X144964721Y-75920248D01*
X144964722Y-75920245D01*
X145000500Y-75694354D01*
X145000500Y-75465646D01*
X144964722Y-75239755D01*
X144964721Y-75239751D01*
X144964721Y-75239750D01*
X144894049Y-75022244D01*
X144814421Y-74865965D01*
X144790217Y-74818462D01*
X144655786Y-74633434D01*
X144494066Y-74471714D01*
X144409134Y-74410007D01*
X144366470Y-74354678D01*
X144360491Y-74285064D01*
X144393097Y-74223269D01*
X144409137Y-74209371D01*
X144493739Y-74147905D01*
X144655402Y-73986242D01*
X144789788Y-73801276D01*
X144893582Y-73597570D01*
X144964234Y-73380128D01*
X144978509Y-73290000D01*
X143990748Y-73290000D01*
X144012518Y-73252292D01*
X144050000Y-73112409D01*
X144050000Y-73039992D01*
X157904671Y-73039992D01*
X157904671Y-73040007D01*
X157923964Y-73334363D01*
X157923965Y-73334373D01*
X157923966Y-73334380D01*
X157974811Y-73590000D01*
X157981518Y-73623716D01*
X157981521Y-73623730D01*
X158076349Y-73903080D01*
X158206825Y-74167660D01*
X158206829Y-74167667D01*
X158370725Y-74412955D01*
X158565241Y-74634758D01*
X158787044Y-74829274D01*
X159020630Y-74985351D01*
X159032335Y-74993172D01*
X159296923Y-75123652D01*
X159576278Y-75218481D01*
X159865620Y-75276034D01*
X159893888Y-75277886D01*
X160159993Y-75295329D01*
X160160000Y-75295329D01*
X160160007Y-75295329D01*
X160395675Y-75279881D01*
X160454380Y-75276034D01*
X160743722Y-75218481D01*
X161023077Y-75123652D01*
X161287665Y-74993172D01*
X161532957Y-74829273D01*
X161754758Y-74634758D01*
X161949273Y-74412957D01*
X162113172Y-74167665D01*
X162243652Y-73903077D01*
X162338481Y-73623722D01*
X162396034Y-73334380D01*
X162415329Y-73040000D01*
X162415329Y-73039992D01*
X162396035Y-72745636D01*
X162396034Y-72745620D01*
X162338481Y-72456278D01*
X162243652Y-72176923D01*
X162113172Y-71912336D01*
X162109520Y-71906871D01*
X162028512Y-71785633D01*
X161949273Y-71667043D01*
X161902176Y-71613339D01*
X161754758Y-71445241D01*
X161532955Y-71250725D01*
X161287667Y-71086829D01*
X161287660Y-71086825D01*
X161023080Y-70956349D01*
X160743730Y-70861521D01*
X160743724Y-70861519D01*
X160743722Y-70861519D01*
X160454380Y-70803966D01*
X160454373Y-70803965D01*
X160454363Y-70803964D01*
X160160007Y-70784671D01*
X160159993Y-70784671D01*
X159865636Y-70803964D01*
X159865624Y-70803965D01*
X159865620Y-70803966D01*
X159865612Y-70803967D01*
X159865609Y-70803968D01*
X159576283Y-70861518D01*
X159576269Y-70861521D01*
X159296919Y-70956349D01*
X159032334Y-71086828D01*
X158787041Y-71250728D01*
X158565241Y-71445241D01*
X158370728Y-71667041D01*
X158206828Y-71912334D01*
X158076349Y-72176919D01*
X157981521Y-72456269D01*
X157981518Y-72456283D01*
X157923968Y-72745609D01*
X157923964Y-72745636D01*
X157904671Y-73039992D01*
X144050000Y-73039992D01*
X144050000Y-72967591D01*
X144012518Y-72827708D01*
X143990748Y-72790000D01*
X144978509Y-72790000D01*
X144964234Y-72699871D01*
X144893582Y-72482429D01*
X144789788Y-72278723D01*
X144656988Y-72095940D01*
X144633508Y-72030133D01*
X144649333Y-71962079D01*
X144699439Y-71913384D01*
X144713966Y-71906875D01*
X144742331Y-71896296D01*
X144857546Y-71810046D01*
X144943796Y-71694831D01*
X144994091Y-71559983D01*
X145000500Y-71500373D01*
X145000499Y-71419526D01*
X145020183Y-71352490D01*
X145072986Y-71306734D01*
X145110616Y-71296308D01*
X145112801Y-71296061D01*
X145112803Y-71296062D01*
X145212339Y-71284847D01*
X145292052Y-71275866D01*
X145292055Y-71275865D01*
X145292058Y-71275865D01*
X145462325Y-71216286D01*
X145615065Y-71120313D01*
X145742619Y-70992759D01*
X145838592Y-70840019D01*
X145898171Y-70669752D01*
X145898172Y-70669746D01*
X145918368Y-70490500D01*
X145918368Y-70490493D01*
X145898172Y-70311247D01*
X145898171Y-70311242D01*
X145852219Y-70179920D01*
X145838592Y-70140975D01*
X145821926Y-70114452D01*
X145742618Y-69988234D01*
X145615065Y-69860681D01*
X145462326Y-69764708D01*
X145292057Y-69705128D01*
X145292052Y-69705127D01*
X145110616Y-69684685D01*
X145046202Y-69657619D01*
X145006646Y-69600024D01*
X145000499Y-69561465D01*
X145000499Y-69499629D01*
X145000498Y-69499623D01*
X145000474Y-69499402D01*
X144994091Y-69440017D01*
X144993865Y-69439412D01*
X144943797Y-69305171D01*
X144943793Y-69305164D01*
X144857547Y-69189955D01*
X144857544Y-69189952D01*
X144742335Y-69103706D01*
X144742328Y-69103702D01*
X144607482Y-69053408D01*
X144607483Y-69053408D01*
X144547883Y-69047001D01*
X144547881Y-69047000D01*
X144547873Y-69047000D01*
X144547864Y-69047000D01*
X142452129Y-69047000D01*
X142452123Y-69047001D01*
X142392516Y-69053408D01*
X142257671Y-69103702D01*
X142257664Y-69103706D01*
X142142455Y-69189952D01*
X142142452Y-69189955D01*
X142056206Y-69305164D01*
X142056202Y-69305171D01*
X142026066Y-69385973D01*
X141984195Y-69441907D01*
X141918731Y-69466324D01*
X141909884Y-69466640D01*
X141744275Y-69466640D01*
X141637773Y-69487824D01*
X141591058Y-69497117D01*
X141566868Y-69499500D01*
X137353625Y-69499500D01*
X137306172Y-69490061D01*
X137281436Y-69479815D01*
X137229674Y-69458374D01*
X137229666Y-69458372D01*
X137036383Y-69419926D01*
X137036379Y-69419926D01*
X136839298Y-69419926D01*
X136839293Y-69419926D01*
X136646010Y-69458372D01*
X136646002Y-69458374D01*
X136569505Y-69490061D01*
X136522052Y-69499500D01*
X136377588Y-69499500D01*
X136310549Y-69479815D01*
X136306465Y-69477075D01*
X136291562Y-69466640D01*
X136152734Y-69369432D01*
X136152732Y-69369431D01*
X135946497Y-69273261D01*
X135946488Y-69273258D01*
X135726697Y-69214366D01*
X135726693Y-69214365D01*
X135726692Y-69214365D01*
X135726691Y-69214364D01*
X135726686Y-69214364D01*
X135500002Y-69194532D01*
X135499998Y-69194532D01*
X135273313Y-69214364D01*
X135273302Y-69214366D01*
X135053511Y-69273258D01*
X135053502Y-69273261D01*
X134847267Y-69369431D01*
X134847265Y-69369432D01*
X134775152Y-69419926D01*
X134708438Y-69466640D01*
X134693535Y-69477075D01*
X134627329Y-69499402D01*
X134622412Y-69499500D01*
X133990515Y-69499500D01*
X133966324Y-69497117D01*
X133919609Y-69487824D01*
X133813108Y-69466640D01*
X133813106Y-69466640D01*
X133616026Y-69466640D01*
X133616024Y-69466640D01*
X133509522Y-69487824D01*
X133462807Y-69497117D01*
X133438617Y-69499500D01*
X132877588Y-69499500D01*
X132810549Y-69479815D01*
X132806465Y-69477075D01*
X132791562Y-69466640D01*
X132652734Y-69369432D01*
X132652732Y-69369431D01*
X132446497Y-69273261D01*
X132446488Y-69273258D01*
X132226697Y-69214366D01*
X132226693Y-69214365D01*
X132226692Y-69214365D01*
X132226691Y-69214364D01*
X132226686Y-69214364D01*
X132000002Y-69194532D01*
X131999998Y-69194532D01*
X131773313Y-69214364D01*
X131773302Y-69214366D01*
X131553511Y-69273258D01*
X131553502Y-69273261D01*
X131347267Y-69369431D01*
X131347265Y-69369432D01*
X131160858Y-69499954D01*
X130999954Y-69660858D01*
X130869432Y-69847265D01*
X130869431Y-69847267D01*
X130773261Y-70053502D01*
X130773258Y-70053511D01*
X130714366Y-70273302D01*
X130714364Y-70273313D01*
X130694532Y-70499998D01*
X130694532Y-70500001D01*
X130714364Y-70726686D01*
X130714366Y-70726697D01*
X130773258Y-70946488D01*
X130773261Y-70946497D01*
X130869431Y-71152732D01*
X130869432Y-71152734D01*
X130999954Y-71339141D01*
X131160858Y-71500045D01*
X131189621Y-71520185D01*
X131347266Y-71630568D01*
X131553504Y-71726739D01*
X131773308Y-71785635D01*
X131929397Y-71799291D01*
X131999998Y-71805468D01*
X132000000Y-71805468D01*
X132000002Y-71805468D01*
X132070603Y-71799291D01*
X132226692Y-71785635D01*
X132446496Y-71726739D01*
X132652734Y-71630568D01*
X132806465Y-71522924D01*
X132872671Y-71500598D01*
X132877588Y-71500500D01*
X133583166Y-71500500D01*
X133648885Y-71500500D01*
X133648886Y-71500500D01*
X133845966Y-71500500D01*
X134622412Y-71500500D01*
X134689451Y-71520185D01*
X134693523Y-71522917D01*
X134847266Y-71630568D01*
X135053504Y-71726739D01*
X135273308Y-71785635D01*
X135429397Y-71799291D01*
X135499998Y-71805468D01*
X135500000Y-71805468D01*
X135500002Y-71805468D01*
X135570603Y-71799291D01*
X135726692Y-71785635D01*
X135946496Y-71726739D01*
X136152734Y-71630568D01*
X136306465Y-71522924D01*
X136372671Y-71500598D01*
X136377588Y-71500500D01*
X136759724Y-71500500D01*
X136918871Y-71500500D01*
X136918872Y-71500500D01*
X137115953Y-71500500D01*
X141711417Y-71500500D01*
X141777136Y-71500500D01*
X141777137Y-71500500D01*
X141897628Y-71500500D01*
X141964667Y-71520185D01*
X142010422Y-71572989D01*
X142013810Y-71581167D01*
X142056202Y-71694828D01*
X142056206Y-71694835D01*
X142142452Y-71810044D01*
X142142455Y-71810047D01*
X142257664Y-71896293D01*
X142257667Y-71896295D01*
X142257668Y-71896295D01*
X142257669Y-71896296D01*
X142286025Y-71906872D01*
X142341958Y-71948742D01*
X142366376Y-72014206D01*
X142351525Y-72082479D01*
X142343010Y-72095939D01*
X142210213Y-72278719D01*
X142106417Y-72482429D01*
X142035765Y-72699871D01*
X142021491Y-72790000D01*
X143009252Y-72790000D01*
X142987482Y-72827708D01*
X142950000Y-72967591D01*
X142950000Y-73112409D01*
X142987482Y-73252292D01*
X143009252Y-73290000D01*
X142021491Y-73290000D01*
X142035765Y-73380128D01*
X142106417Y-73597570D01*
X142210211Y-73801276D01*
X142344597Y-73986242D01*
X142506257Y-74147902D01*
X142506263Y-74147907D01*
X142590863Y-74209372D01*
X142633529Y-74264701D01*
X142639508Y-74334315D01*
X142606903Y-74396110D01*
X142590864Y-74410007D01*
X142505940Y-74471709D01*
X142505931Y-74471716D01*
X142344216Y-74633431D01*
X142344216Y-74633432D01*
X142344214Y-74633434D01*
X142316088Y-74672146D01*
X142209783Y-74818461D01*
X142105950Y-75022244D01*
X142035278Y-75239750D01*
X142035278Y-75239753D01*
X141999500Y-75465646D01*
X141999500Y-75694354D01*
X142014994Y-75792179D01*
X142035278Y-75920246D01*
X142035278Y-75920249D01*
X142105950Y-76137755D01*
X142176088Y-76275408D01*
X142209783Y-76341538D01*
X142344214Y-76526566D01*
X142505934Y-76688286D01*
X142666573Y-76804997D01*
X142668884Y-76806676D01*
X142711549Y-76862006D01*
X142719218Y-76920877D01*
X142699584Y-77095140D01*
X142699584Y-77095147D01*
X142719779Y-77274393D01*
X142719782Y-77274406D01*
X142742541Y-77339446D01*
X142749500Y-77380401D01*
X142749500Y-85555538D01*
X142742541Y-85596493D01*
X142688462Y-85751037D01*
X142688459Y-85751050D01*
X142668264Y-85930296D01*
X142668264Y-85930303D01*
X142671792Y-85961617D01*
X142659737Y-86030439D01*
X142612388Y-86081818D01*
X142548572Y-86099500D01*
X141552129Y-86099500D01*
X141552123Y-86099501D01*
X141492516Y-86105908D01*
X141357671Y-86156202D01*
X141357664Y-86156206D01*
X141242455Y-86242452D01*
X141242452Y-86242455D01*
X141156206Y-86357664D01*
X141156202Y-86357671D01*
X141105908Y-86492517D01*
X141099501Y-86552116D01*
X141099322Y-86555452D01*
X141097722Y-86555366D01*
X141079815Y-86616350D01*
X141027011Y-86662105D01*
X140989384Y-86672531D01*
X140865445Y-86686495D01*
X140865433Y-86686498D01*
X140705276Y-86742541D01*
X140664321Y-86749500D01*
X137862230Y-86749500D01*
X137795191Y-86729815D01*
X137774549Y-86713181D01*
X136473955Y-85412587D01*
X136444594Y-85365859D01*
X136431556Y-85328599D01*
X136421722Y-85300493D01*
X136421722Y-85300492D01*
X136358956Y-85200601D01*
X136325749Y-85147753D01*
X136198195Y-85020199D01*
X136189690Y-85014855D01*
X136045454Y-84924225D01*
X135997655Y-84907500D01*
X135980085Y-84901352D01*
X135933360Y-84871992D01*
X135791178Y-84729810D01*
X135759084Y-84674221D01*
X135726742Y-84553513D01*
X135726738Y-84553502D01*
X135630568Y-84347266D01*
X135500047Y-84160861D01*
X135500045Y-84160858D01*
X135339141Y-83999954D01*
X135152734Y-83869432D01*
X135152732Y-83869431D01*
X134946497Y-83773261D01*
X134946488Y-83773258D01*
X134726697Y-83714366D01*
X134726693Y-83714365D01*
X134726692Y-83714365D01*
X134726691Y-83714364D01*
X134726686Y-83714364D01*
X134500002Y-83694532D01*
X134499998Y-83694532D01*
X134273313Y-83714364D01*
X134273302Y-83714366D01*
X134053511Y-83773258D01*
X134053502Y-83773261D01*
X133847267Y-83869431D01*
X133745432Y-83940736D01*
X133679226Y-83963063D01*
X133611459Y-83946051D01*
X133586629Y-83926841D01*
X133535492Y-83875704D01*
X133382754Y-83779732D01*
X133382753Y-83779731D01*
X133345389Y-83766657D01*
X133298664Y-83737297D01*
X131517487Y-81956120D01*
X131484002Y-81894797D01*
X131488986Y-81825105D01*
X131530858Y-81769172D01*
X131596322Y-81744755D01*
X131637262Y-81748664D01*
X131749999Y-81778871D01*
X131750000Y-81778871D01*
X131750000Y-80815686D01*
X131754394Y-80820080D01*
X131845606Y-80872741D01*
X131947339Y-80900000D01*
X132052661Y-80900000D01*
X132154394Y-80872741D01*
X132245606Y-80820080D01*
X132250000Y-80815686D01*
X132250000Y-81778872D01*
X132446317Y-81726269D01*
X132446326Y-81726265D01*
X132652482Y-81630134D01*
X132838820Y-81499657D01*
X132999657Y-81338820D01*
X133130134Y-81152482D01*
X133226265Y-80946326D01*
X133226269Y-80946317D01*
X133278872Y-80750000D01*
X132315686Y-80750000D01*
X132320080Y-80745606D01*
X132372741Y-80654394D01*
X132400000Y-80552661D01*
X132400000Y-80447339D01*
X132372741Y-80345606D01*
X132320080Y-80254394D01*
X132315686Y-80250000D01*
X133278872Y-80250000D01*
X133278872Y-80249999D01*
X134221127Y-80249999D01*
X134221128Y-80250000D01*
X135184314Y-80250000D01*
X135179920Y-80254394D01*
X135127259Y-80345606D01*
X135100000Y-80447339D01*
X135100000Y-80552661D01*
X135127259Y-80654394D01*
X135179920Y-80745606D01*
X135184314Y-80750000D01*
X134221128Y-80750000D01*
X134273730Y-80946317D01*
X134273734Y-80946326D01*
X134369865Y-81152482D01*
X134500342Y-81338820D01*
X134661179Y-81499657D01*
X134847517Y-81630134D01*
X135053673Y-81726265D01*
X135053682Y-81726269D01*
X135249999Y-81778872D01*
X135250000Y-81778871D01*
X135250000Y-80815686D01*
X135254394Y-80820080D01*
X135345606Y-80872741D01*
X135447339Y-80900000D01*
X135552661Y-80900000D01*
X135654394Y-80872741D01*
X135745606Y-80820080D01*
X135750000Y-80815686D01*
X135750000Y-81778872D01*
X135946317Y-81726269D01*
X135946326Y-81726265D01*
X136152482Y-81630134D01*
X136338820Y-81499657D01*
X136499657Y-81338820D01*
X136630134Y-81152482D01*
X136726265Y-80946326D01*
X136726269Y-80946317D01*
X136778872Y-80750000D01*
X135815686Y-80750000D01*
X135820080Y-80745606D01*
X135872741Y-80654394D01*
X135900000Y-80552661D01*
X135900000Y-80447339D01*
X135872741Y-80345606D01*
X135820080Y-80254394D01*
X135815686Y-80250000D01*
X136778872Y-80250000D01*
X136778872Y-80249999D01*
X136726269Y-80053682D01*
X136726265Y-80053673D01*
X136630134Y-79847517D01*
X136499657Y-79661179D01*
X136338820Y-79500342D01*
X136152482Y-79369865D01*
X135946328Y-79273734D01*
X135750000Y-79221127D01*
X135750000Y-80184314D01*
X135745606Y-80179920D01*
X135654394Y-80127259D01*
X135552661Y-80100000D01*
X135447339Y-80100000D01*
X135345606Y-80127259D01*
X135254394Y-80179920D01*
X135250000Y-80184314D01*
X135250000Y-79221127D01*
X135053671Y-79273734D01*
X134847517Y-79369865D01*
X134661179Y-79500342D01*
X134500342Y-79661179D01*
X134369865Y-79847517D01*
X134273734Y-80053673D01*
X134273730Y-80053682D01*
X134221127Y-80249999D01*
X133278872Y-80249999D01*
X133226269Y-80053682D01*
X133226265Y-80053673D01*
X133130134Y-79847517D01*
X132999657Y-79661179D01*
X132838820Y-79500342D01*
X132652482Y-79369865D01*
X132446328Y-79273734D01*
X132250000Y-79221127D01*
X132250000Y-80184314D01*
X132245606Y-80179920D01*
X132154394Y-80127259D01*
X132052661Y-80100000D01*
X131947339Y-80100000D01*
X131845606Y-80127259D01*
X131754394Y-80179920D01*
X131750000Y-80184314D01*
X131750000Y-79221127D01*
X131553671Y-79273734D01*
X131347517Y-79369865D01*
X131161179Y-79500342D01*
X131000342Y-79661179D01*
X130869865Y-79847517D01*
X130773734Y-80053673D01*
X130773730Y-80053682D01*
X130721127Y-80249999D01*
X130721128Y-80250000D01*
X131684314Y-80250000D01*
X131679920Y-80254394D01*
X131627259Y-80345606D01*
X131600000Y-80447339D01*
X131600000Y-80552661D01*
X131627259Y-80654394D01*
X131679920Y-80745606D01*
X131684314Y-80750000D01*
X130721127Y-80750000D01*
X130751335Y-80862738D01*
X130749672Y-80932588D01*
X130710509Y-80990450D01*
X130646281Y-81017954D01*
X130577378Y-81006367D01*
X130543879Y-80982512D01*
X128796774Y-79235407D01*
X124332852Y-74771484D01*
X124303492Y-74724758D01*
X124257459Y-74593204D01*
X124250500Y-74552249D01*
X124250500Y-72042672D01*
X124257459Y-72001717D01*
X124265565Y-71978550D01*
X124265568Y-71978537D01*
X124285764Y-71799291D01*
X124285764Y-71799284D01*
X124266665Y-71629773D01*
X124278720Y-71560951D01*
X124318763Y-71514314D01*
X124339139Y-71500047D01*
X124500047Y-71339139D01*
X124630568Y-71152734D01*
X124726739Y-70946496D01*
X124785635Y-70726692D01*
X124805468Y-70500000D01*
X124785635Y-70273308D01*
X124739198Y-70100000D01*
X124726741Y-70053511D01*
X124726738Y-70053502D01*
X124649408Y-69887669D01*
X124630568Y-69847266D01*
X124500047Y-69660861D01*
X124500045Y-69660858D01*
X124339141Y-69499954D01*
X124152734Y-69369432D01*
X124152732Y-69369431D01*
X123946497Y-69273261D01*
X123946488Y-69273258D01*
X123726697Y-69214366D01*
X123726693Y-69214365D01*
X123726692Y-69214365D01*
X123726691Y-69214364D01*
X123726686Y-69214364D01*
X123500002Y-69194532D01*
X123499998Y-69194532D01*
X123273313Y-69214364D01*
X123273302Y-69214366D01*
X123053511Y-69273258D01*
X123053502Y-69273261D01*
X122847267Y-69369431D01*
X122847265Y-69369432D01*
X122660858Y-69499954D01*
X122499954Y-69660858D01*
X122474912Y-69696623D01*
X122420335Y-69740248D01*
X122373337Y-69749500D01*
X122123341Y-69749500D01*
X122082386Y-69742541D01*
X121977749Y-69705926D01*
X121977738Y-69705924D01*
X121798496Y-69685729D01*
X121798488Y-69685729D01*
X121619245Y-69705924D01*
X121619234Y-69705926D01*
X121514598Y-69742541D01*
X121473643Y-69749500D01*
X121126663Y-69749500D01*
X121059624Y-69729815D01*
X121025088Y-69696623D01*
X121000045Y-69660858D01*
X120839141Y-69499954D01*
X120652734Y-69369432D01*
X120652732Y-69369431D01*
X120446497Y-69273261D01*
X120446488Y-69273258D01*
X120226697Y-69214366D01*
X120226693Y-69214365D01*
X120226692Y-69214365D01*
X120226691Y-69214364D01*
X120226686Y-69214364D01*
X120000002Y-69194532D01*
X119999998Y-69194532D01*
X119773313Y-69214364D01*
X119773302Y-69214366D01*
X119553511Y-69273258D01*
X119553502Y-69273261D01*
X119347267Y-69369431D01*
X119347265Y-69369432D01*
X119160858Y-69499954D01*
X118998691Y-69662122D01*
X118937368Y-69695607D01*
X118870055Y-69691482D01*
X118777839Y-69659213D01*
X118777826Y-69659210D01*
X118598581Y-69639015D01*
X118598573Y-69639015D01*
X118419327Y-69659210D01*
X118419322Y-69659211D01*
X118249052Y-69718791D01*
X118230431Y-69730493D01*
X118164458Y-69749500D01*
X112266668Y-69749500D01*
X112225713Y-69742541D01*
X112121076Y-69705926D01*
X112121065Y-69705924D01*
X111941823Y-69685729D01*
X111941815Y-69685729D01*
X111762572Y-69705924D01*
X111762561Y-69705926D01*
X111657925Y-69742541D01*
X111616970Y-69749500D01*
X111526910Y-69749500D01*
X111459871Y-69729815D01*
X111439228Y-69713181D01*
X111438531Y-69712484D01*
X111438529Y-69712481D01*
X111287519Y-69561471D01*
X111287518Y-69561470D01*
X111287517Y-69561469D01*
X111112578Y-69438977D01*
X111112579Y-69438977D01*
X110963436Y-69369431D01*
X110919030Y-69348724D01*
X110919026Y-69348723D01*
X110919022Y-69348721D01*
X110712752Y-69293452D01*
X110712748Y-69293451D01*
X110712747Y-69293451D01*
X110712746Y-69293450D01*
X110712741Y-69293450D01*
X110500002Y-69274838D01*
X110499998Y-69274838D01*
X110287258Y-69293450D01*
X110287247Y-69293452D01*
X110080977Y-69348721D01*
X110080968Y-69348725D01*
X109887421Y-69438977D01*
X109712478Y-69561472D01*
X109561472Y-69712478D01*
X109438977Y-69887421D01*
X109348725Y-70080968D01*
X109346870Y-70086064D01*
X109344749Y-70085292D01*
X109313406Y-70136710D01*
X109250558Y-70167237D01*
X109181183Y-70158939D01*
X109127307Y-70114452D01*
X109114169Y-70085685D01*
X109113130Y-70086064D01*
X109111279Y-70080983D01*
X109111276Y-70080970D01*
X109021021Y-69887419D01*
X108898529Y-69712481D01*
X108898527Y-69712478D01*
X108747521Y-69561472D01*
X108572578Y-69438977D01*
X108572579Y-69438977D01*
X108423436Y-69369431D01*
X108379030Y-69348724D01*
X108379026Y-69348723D01*
X108379022Y-69348721D01*
X108172752Y-69293452D01*
X108172748Y-69293451D01*
X108172747Y-69293451D01*
X108172746Y-69293450D01*
X108172741Y-69293450D01*
X107960002Y-69274838D01*
X107959998Y-69274838D01*
X107747258Y-69293450D01*
X107747247Y-69293452D01*
X107540977Y-69348721D01*
X107540968Y-69348725D01*
X107347421Y-69438977D01*
X107172478Y-69561472D01*
X107021472Y-69712478D01*
X106898977Y-69887421D01*
X106808725Y-70080968D01*
X106806870Y-70086064D01*
X106805031Y-70085394D01*
X106773104Y-70137715D01*
X106710242Y-70168212D01*
X106640870Y-70159883D01*
X106587015Y-70115371D01*
X106573571Y-70085903D01*
X106572658Y-70086236D01*
X106570802Y-70081140D01*
X106480586Y-69887669D01*
X106480582Y-69887663D01*
X106441584Y-69831968D01*
X105820000Y-70453552D01*
X105820000Y-70447339D01*
X105792741Y-70345606D01*
X105740080Y-70254394D01*
X105665606Y-70179920D01*
X105574394Y-70127259D01*
X105472661Y-70100000D01*
X105466447Y-70100000D01*
X106088030Y-69478415D01*
X106032329Y-69439413D01*
X105838859Y-69349197D01*
X105838853Y-69349194D01*
X105632662Y-69293945D01*
X105632654Y-69293944D01*
X105420002Y-69275340D01*
X105419998Y-69275340D01*
X105207345Y-69293944D01*
X105207337Y-69293945D01*
X105001146Y-69349194D01*
X105001140Y-69349197D01*
X104807671Y-69439412D01*
X104807669Y-69439413D01*
X104751969Y-69478415D01*
X104751968Y-69478415D01*
X105373554Y-70100000D01*
X105367339Y-70100000D01*
X105265606Y-70127259D01*
X105174394Y-70179920D01*
X105099920Y-70254394D01*
X105047259Y-70345606D01*
X105020000Y-70447339D01*
X105020000Y-70453553D01*
X104398415Y-69831968D01*
X104398415Y-69831969D01*
X104359413Y-69887669D01*
X104359412Y-69887671D01*
X104269197Y-70081140D01*
X104269194Y-70081146D01*
X104213945Y-70287337D01*
X104213944Y-70287345D01*
X104195340Y-70499997D01*
X104195340Y-70500002D01*
X104213944Y-70712654D01*
X104213945Y-70712662D01*
X104269194Y-70918853D01*
X104269197Y-70918859D01*
X104359413Y-71112329D01*
X104398415Y-71168030D01*
X105020000Y-70546445D01*
X105020000Y-70552661D01*
X105047259Y-70654394D01*
X105099920Y-70745606D01*
X105174394Y-70820080D01*
X105265606Y-70872741D01*
X105367339Y-70900000D01*
X105373553Y-70900000D01*
X104751968Y-71521584D01*
X104807663Y-71560582D01*
X104807669Y-71560586D01*
X105001140Y-71650802D01*
X105001146Y-71650805D01*
X105207337Y-71706054D01*
X105207345Y-71706055D01*
X105419998Y-71724660D01*
X105420002Y-71724660D01*
X105632654Y-71706055D01*
X105632662Y-71706054D01*
X105838853Y-71650805D01*
X105838864Y-71650801D01*
X106032325Y-71560589D01*
X106088030Y-71521583D01*
X105466448Y-70900000D01*
X105472661Y-70900000D01*
X105574394Y-70872741D01*
X105665606Y-70820080D01*
X105740080Y-70745606D01*
X105792741Y-70654394D01*
X105820000Y-70552661D01*
X105820000Y-70546446D01*
X106441583Y-71168029D01*
X106480589Y-71112325D01*
X106570801Y-70918864D01*
X106572658Y-70913764D01*
X106574567Y-70914458D01*
X106606291Y-70862362D01*
X106669125Y-70831806D01*
X106738504Y-70840071D01*
X106792401Y-70884533D01*
X106805989Y-70914256D01*
X106806870Y-70913936D01*
X106808722Y-70919023D01*
X106808724Y-70919030D01*
X106843105Y-70992759D01*
X106898977Y-71112578D01*
X107021472Y-71287521D01*
X107173181Y-71439230D01*
X107206666Y-71500553D01*
X107209500Y-71526911D01*
X107209500Y-71624529D01*
X107202542Y-71665483D01*
X107185753Y-71713463D01*
X107165557Y-71892712D01*
X107165557Y-71892719D01*
X107185752Y-72071962D01*
X107185753Y-72071968D01*
X107202542Y-72119948D01*
X107209500Y-72160902D01*
X107209500Y-78677769D01*
X107189815Y-78744808D01*
X107173181Y-78765450D01*
X105299506Y-80639124D01*
X105252786Y-80668482D01*
X105239190Y-80673239D01*
X105239181Y-80673244D01*
X105086440Y-80769217D01*
X104958887Y-80896770D01*
X104862914Y-81049511D01*
X104862910Y-81049518D01*
X104858152Y-81063116D01*
X104828794Y-81109835D01*
X104765347Y-81173282D01*
X104704024Y-81206767D01*
X104666859Y-81209129D01*
X104500002Y-81194532D01*
X104499998Y-81194532D01*
X104273313Y-81214364D01*
X104273302Y-81214366D01*
X104053511Y-81273258D01*
X104053502Y-81273261D01*
X103847267Y-81369431D01*
X103847265Y-81369432D01*
X103660858Y-81499954D01*
X103499954Y-81660858D01*
X103369432Y-81847265D01*
X103369431Y-81847267D01*
X103273261Y-82053502D01*
X103273258Y-82053511D01*
X103214366Y-82273302D01*
X103214364Y-82273313D01*
X103194532Y-82499998D01*
X100525500Y-82499998D01*
X100525500Y-65624500D01*
X100545185Y-65557461D01*
X100597989Y-65511706D01*
X100649500Y-65500500D01*
X176350500Y-65500500D01*
X176417539Y-65520185D01*
G37*
%TD.AperFunction*%
%TD*%
M02*
