%TF.GenerationSoftware,KiCad,Pcbnew,8.0.4*%
%TF.CreationDate,2024-08-20T14:49:07-07:00*%
%TF.ProjectId,oscillator,6f736369-6c6c-4617-946f-722e6b696361,rev?*%
%TF.SameCoordinates,Original*%
%TF.FileFunction,Legend,Top*%
%TF.FilePolarity,Positive*%
%FSLAX46Y46*%
G04 Gerber Fmt 4.6, Leading zero omitted, Abs format (unit mm)*
G04 Created by KiCad (PCBNEW 8.0.4) date 2024-08-20 14:49:07*
%MOMM*%
%LPD*%
G01*
G04 APERTURE LIST*
%ADD10C,0.100000*%
%ADD11C,0.150000*%
%ADD12C,0.120000*%
G04 APERTURE END LIST*
D10*
X159327211Y-93282089D02*
X164327211Y-93282089D01*
X164327211Y-94782089D01*
X159327211Y-94782089D01*
X159327211Y-93282089D01*
G36*
X159327211Y-93282089D02*
G01*
X164327211Y-93282089D01*
X164327211Y-94782089D01*
X159327211Y-94782089D01*
X159327211Y-93282089D01*
G37*
X162000000Y-87711434D02*
X167000000Y-87711434D01*
X167000000Y-89211434D01*
X162000000Y-89211434D01*
X162000000Y-87711434D01*
G36*
X162000000Y-87711434D02*
G01*
X167000000Y-87711434D01*
X167000000Y-89211434D01*
X162000000Y-89211434D01*
X162000000Y-87711434D01*
G37*
D11*
X159217884Y-95266808D02*
X159408360Y-95266808D01*
X159408360Y-95266808D02*
X159503598Y-95314427D01*
X159503598Y-95314427D02*
X159598836Y-95409665D01*
X159598836Y-95409665D02*
X159646455Y-95600141D01*
X159646455Y-95600141D02*
X159646455Y-95933474D01*
X159646455Y-95933474D02*
X159598836Y-96123950D01*
X159598836Y-96123950D02*
X159503598Y-96219189D01*
X159503598Y-96219189D02*
X159408360Y-96266808D01*
X159408360Y-96266808D02*
X159217884Y-96266808D01*
X159217884Y-96266808D02*
X159122646Y-96219189D01*
X159122646Y-96219189D02*
X159027408Y-96123950D01*
X159027408Y-96123950D02*
X158979789Y-95933474D01*
X158979789Y-95933474D02*
X158979789Y-95600141D01*
X158979789Y-95600141D02*
X159027408Y-95409665D01*
X159027408Y-95409665D02*
X159122646Y-95314427D01*
X159122646Y-95314427D02*
X159217884Y-95266808D01*
X160075027Y-96266808D02*
X160075027Y-95266808D01*
X160075027Y-95266808D02*
X160646455Y-96266808D01*
X160646455Y-96266808D02*
X160646455Y-95266808D01*
X161836931Y-95219189D02*
X160979789Y-96504903D01*
X162360741Y-95266808D02*
X162551217Y-95266808D01*
X162551217Y-95266808D02*
X162646455Y-95314427D01*
X162646455Y-95314427D02*
X162741693Y-95409665D01*
X162741693Y-95409665D02*
X162789312Y-95600141D01*
X162789312Y-95600141D02*
X162789312Y-95933474D01*
X162789312Y-95933474D02*
X162741693Y-96123950D01*
X162741693Y-96123950D02*
X162646455Y-96219189D01*
X162646455Y-96219189D02*
X162551217Y-96266808D01*
X162551217Y-96266808D02*
X162360741Y-96266808D01*
X162360741Y-96266808D02*
X162265503Y-96219189D01*
X162265503Y-96219189D02*
X162170265Y-96123950D01*
X162170265Y-96123950D02*
X162122646Y-95933474D01*
X162122646Y-95933474D02*
X162122646Y-95600141D01*
X162122646Y-95600141D02*
X162170265Y-95409665D01*
X162170265Y-95409665D02*
X162265503Y-95314427D01*
X162265503Y-95314427D02*
X162360741Y-95266808D01*
X163551217Y-95742998D02*
X163217884Y-95742998D01*
X163217884Y-96266808D02*
X163217884Y-95266808D01*
X163217884Y-95266808D02*
X163694074Y-95266808D01*
X164408360Y-95742998D02*
X164075027Y-95742998D01*
X164075027Y-96266808D02*
X164075027Y-95266808D01*
X164075027Y-95266808D02*
X164551217Y-95266808D01*
X180039987Y-112663220D02*
X179039987Y-112663220D01*
X179039987Y-112663220D02*
X179039987Y-112282268D01*
X179039987Y-112282268D02*
X179087606Y-112187030D01*
X179087606Y-112187030D02*
X179135225Y-112139411D01*
X179135225Y-112139411D02*
X179230463Y-112091792D01*
X179230463Y-112091792D02*
X179373320Y-112091792D01*
X179373320Y-112091792D02*
X179468558Y-112139411D01*
X179468558Y-112139411D02*
X179516177Y-112187030D01*
X179516177Y-112187030D02*
X179563796Y-112282268D01*
X179563796Y-112282268D02*
X179563796Y-112663220D01*
X180039987Y-111663220D02*
X179039987Y-111663220D01*
X179039987Y-111663220D02*
X179754272Y-111329887D01*
X179754272Y-111329887D02*
X179039987Y-110996554D01*
X179039987Y-110996554D02*
X180039987Y-110996554D01*
X179039987Y-110091792D02*
X179039987Y-110282268D01*
X179039987Y-110282268D02*
X179087606Y-110377506D01*
X179087606Y-110377506D02*
X179135225Y-110425125D01*
X179135225Y-110425125D02*
X179278082Y-110520363D01*
X179278082Y-110520363D02*
X179468558Y-110567982D01*
X179468558Y-110567982D02*
X179849510Y-110567982D01*
X179849510Y-110567982D02*
X179944748Y-110520363D01*
X179944748Y-110520363D02*
X179992368Y-110472744D01*
X179992368Y-110472744D02*
X180039987Y-110377506D01*
X180039987Y-110377506D02*
X180039987Y-110187030D01*
X180039987Y-110187030D02*
X179992368Y-110091792D01*
X179992368Y-110091792D02*
X179944748Y-110044173D01*
X179944748Y-110044173D02*
X179849510Y-109996554D01*
X179849510Y-109996554D02*
X179611415Y-109996554D01*
X179611415Y-109996554D02*
X179516177Y-110044173D01*
X179516177Y-110044173D02*
X179468558Y-110091792D01*
X179468558Y-110091792D02*
X179420939Y-110187030D01*
X179420939Y-110187030D02*
X179420939Y-110377506D01*
X179420939Y-110377506D02*
X179468558Y-110472744D01*
X179468558Y-110472744D02*
X179516177Y-110520363D01*
X179516177Y-110520363D02*
X179611415Y-110567982D01*
X179039987Y-109139411D02*
X179039987Y-109329887D01*
X179039987Y-109329887D02*
X179087606Y-109425125D01*
X179087606Y-109425125D02*
X179135225Y-109472744D01*
X179135225Y-109472744D02*
X179278082Y-109567982D01*
X179278082Y-109567982D02*
X179468558Y-109615601D01*
X179468558Y-109615601D02*
X179849510Y-109615601D01*
X179849510Y-109615601D02*
X179944748Y-109567982D01*
X179944748Y-109567982D02*
X179992368Y-109520363D01*
X179992368Y-109520363D02*
X180039987Y-109425125D01*
X180039987Y-109425125D02*
X180039987Y-109234649D01*
X180039987Y-109234649D02*
X179992368Y-109139411D01*
X179992368Y-109139411D02*
X179944748Y-109091792D01*
X179944748Y-109091792D02*
X179849510Y-109044173D01*
X179849510Y-109044173D02*
X179611415Y-109044173D01*
X179611415Y-109044173D02*
X179516177Y-109091792D01*
X179516177Y-109091792D02*
X179468558Y-109139411D01*
X179468558Y-109139411D02*
X179420939Y-109234649D01*
X179420939Y-109234649D02*
X179420939Y-109425125D01*
X179420939Y-109425125D02*
X179468558Y-109520363D01*
X179468558Y-109520363D02*
X179516177Y-109567982D01*
X179516177Y-109567982D02*
X179611415Y-109615601D01*
X180039987Y-108710839D02*
X179373320Y-108187030D01*
X179373320Y-108710839D02*
X180039987Y-108187030D01*
X180039987Y-107901315D02*
X179373320Y-107377506D01*
X179373320Y-107901315D02*
X180039987Y-107377506D01*
X179039987Y-106044172D02*
X179039987Y-105853696D01*
X179039987Y-105853696D02*
X179087606Y-105758458D01*
X179087606Y-105758458D02*
X179182844Y-105663220D01*
X179182844Y-105663220D02*
X179373320Y-105615601D01*
X179373320Y-105615601D02*
X179706653Y-105615601D01*
X179706653Y-105615601D02*
X179897129Y-105663220D01*
X179897129Y-105663220D02*
X179992368Y-105758458D01*
X179992368Y-105758458D02*
X180039987Y-105853696D01*
X180039987Y-105853696D02*
X180039987Y-106044172D01*
X180039987Y-106044172D02*
X179992368Y-106139410D01*
X179992368Y-106139410D02*
X179897129Y-106234648D01*
X179897129Y-106234648D02*
X179706653Y-106282267D01*
X179706653Y-106282267D02*
X179373320Y-106282267D01*
X179373320Y-106282267D02*
X179182844Y-106234648D01*
X179182844Y-106234648D02*
X179087606Y-106139410D01*
X179087606Y-106139410D02*
X179039987Y-106044172D01*
X179992368Y-105234648D02*
X180039987Y-105139410D01*
X180039987Y-105139410D02*
X180039987Y-104948934D01*
X180039987Y-104948934D02*
X179992368Y-104853696D01*
X179992368Y-104853696D02*
X179897129Y-104806077D01*
X179897129Y-104806077D02*
X179849510Y-104806077D01*
X179849510Y-104806077D02*
X179754272Y-104853696D01*
X179754272Y-104853696D02*
X179706653Y-104948934D01*
X179706653Y-104948934D02*
X179706653Y-105091791D01*
X179706653Y-105091791D02*
X179659034Y-105187029D01*
X179659034Y-105187029D02*
X179563796Y-105234648D01*
X179563796Y-105234648D02*
X179516177Y-105234648D01*
X179516177Y-105234648D02*
X179420939Y-105187029D01*
X179420939Y-105187029D02*
X179373320Y-105091791D01*
X179373320Y-105091791D02*
X179373320Y-104948934D01*
X179373320Y-104948934D02*
X179420939Y-104853696D01*
X179992368Y-103948934D02*
X180039987Y-104044172D01*
X180039987Y-104044172D02*
X180039987Y-104234648D01*
X180039987Y-104234648D02*
X179992368Y-104329886D01*
X179992368Y-104329886D02*
X179944748Y-104377505D01*
X179944748Y-104377505D02*
X179849510Y-104425124D01*
X179849510Y-104425124D02*
X179563796Y-104425124D01*
X179563796Y-104425124D02*
X179468558Y-104377505D01*
X179468558Y-104377505D02*
X179420939Y-104329886D01*
X179420939Y-104329886D02*
X179373320Y-104234648D01*
X179373320Y-104234648D02*
X179373320Y-104044172D01*
X179373320Y-104044172D02*
X179420939Y-103948934D01*
X180039987Y-103520362D02*
X179373320Y-103520362D01*
X179039987Y-103520362D02*
X179087606Y-103567981D01*
X179087606Y-103567981D02*
X179135225Y-103520362D01*
X179135225Y-103520362D02*
X179087606Y-103472743D01*
X179087606Y-103472743D02*
X179039987Y-103520362D01*
X179039987Y-103520362D02*
X179135225Y-103520362D01*
X180039987Y-102901315D02*
X179992368Y-102996553D01*
X179992368Y-102996553D02*
X179897129Y-103044172D01*
X179897129Y-103044172D02*
X179039987Y-103044172D01*
X180039987Y-102377505D02*
X179992368Y-102472743D01*
X179992368Y-102472743D02*
X179897129Y-102520362D01*
X179897129Y-102520362D02*
X179039987Y-102520362D01*
X180039987Y-101567981D02*
X179516177Y-101567981D01*
X179516177Y-101567981D02*
X179420939Y-101615600D01*
X179420939Y-101615600D02*
X179373320Y-101710838D01*
X179373320Y-101710838D02*
X179373320Y-101901314D01*
X179373320Y-101901314D02*
X179420939Y-101996552D01*
X179992368Y-101567981D02*
X180039987Y-101663219D01*
X180039987Y-101663219D02*
X180039987Y-101901314D01*
X180039987Y-101901314D02*
X179992368Y-101996552D01*
X179992368Y-101996552D02*
X179897129Y-102044171D01*
X179897129Y-102044171D02*
X179801891Y-102044171D01*
X179801891Y-102044171D02*
X179706653Y-101996552D01*
X179706653Y-101996552D02*
X179659034Y-101901314D01*
X179659034Y-101901314D02*
X179659034Y-101663219D01*
X179659034Y-101663219D02*
X179611415Y-101567981D01*
X179373320Y-101234647D02*
X179373320Y-100853695D01*
X179039987Y-101091790D02*
X179897129Y-101091790D01*
X179897129Y-101091790D02*
X179992368Y-101044171D01*
X179992368Y-101044171D02*
X180039987Y-100948933D01*
X180039987Y-100948933D02*
X180039987Y-100853695D01*
X180039987Y-100377504D02*
X179992368Y-100472742D01*
X179992368Y-100472742D02*
X179944748Y-100520361D01*
X179944748Y-100520361D02*
X179849510Y-100567980D01*
X179849510Y-100567980D02*
X179563796Y-100567980D01*
X179563796Y-100567980D02*
X179468558Y-100520361D01*
X179468558Y-100520361D02*
X179420939Y-100472742D01*
X179420939Y-100472742D02*
X179373320Y-100377504D01*
X179373320Y-100377504D02*
X179373320Y-100234647D01*
X179373320Y-100234647D02*
X179420939Y-100139409D01*
X179420939Y-100139409D02*
X179468558Y-100091790D01*
X179468558Y-100091790D02*
X179563796Y-100044171D01*
X179563796Y-100044171D02*
X179849510Y-100044171D01*
X179849510Y-100044171D02*
X179944748Y-100091790D01*
X179944748Y-100091790D02*
X179992368Y-100139409D01*
X179992368Y-100139409D02*
X180039987Y-100234647D01*
X180039987Y-100234647D02*
X180039987Y-100377504D01*
X180039987Y-99615599D02*
X179373320Y-99615599D01*
X179563796Y-99615599D02*
X179468558Y-99567980D01*
X179468558Y-99567980D02*
X179420939Y-99520361D01*
X179420939Y-99520361D02*
X179373320Y-99425123D01*
X179373320Y-99425123D02*
X179373320Y-99329885D01*
X181649931Y-112663220D02*
X180649931Y-112663220D01*
X180649931Y-112663220D02*
X180649931Y-112425125D01*
X180649931Y-112425125D02*
X180697550Y-112282268D01*
X180697550Y-112282268D02*
X180792788Y-112187030D01*
X180792788Y-112187030D02*
X180888026Y-112139411D01*
X180888026Y-112139411D02*
X181078502Y-112091792D01*
X181078502Y-112091792D02*
X181221359Y-112091792D01*
X181221359Y-112091792D02*
X181411835Y-112139411D01*
X181411835Y-112139411D02*
X181507073Y-112187030D01*
X181507073Y-112187030D02*
X181602312Y-112282268D01*
X181602312Y-112282268D02*
X181649931Y-112425125D01*
X181649931Y-112425125D02*
X181649931Y-112663220D01*
X181602312Y-111282268D02*
X181649931Y-111377506D01*
X181649931Y-111377506D02*
X181649931Y-111567982D01*
X181649931Y-111567982D02*
X181602312Y-111663220D01*
X181602312Y-111663220D02*
X181507073Y-111710839D01*
X181507073Y-111710839D02*
X181126121Y-111710839D01*
X181126121Y-111710839D02*
X181030883Y-111663220D01*
X181030883Y-111663220D02*
X180983264Y-111567982D01*
X180983264Y-111567982D02*
X180983264Y-111377506D01*
X180983264Y-111377506D02*
X181030883Y-111282268D01*
X181030883Y-111282268D02*
X181126121Y-111234649D01*
X181126121Y-111234649D02*
X181221359Y-111234649D01*
X181221359Y-111234649D02*
X181316597Y-111710839D01*
X181602312Y-110853696D02*
X181649931Y-110758458D01*
X181649931Y-110758458D02*
X181649931Y-110567982D01*
X181649931Y-110567982D02*
X181602312Y-110472744D01*
X181602312Y-110472744D02*
X181507073Y-110425125D01*
X181507073Y-110425125D02*
X181459454Y-110425125D01*
X181459454Y-110425125D02*
X181364216Y-110472744D01*
X181364216Y-110472744D02*
X181316597Y-110567982D01*
X181316597Y-110567982D02*
X181316597Y-110710839D01*
X181316597Y-110710839D02*
X181268978Y-110806077D01*
X181268978Y-110806077D02*
X181173740Y-110853696D01*
X181173740Y-110853696D02*
X181126121Y-110853696D01*
X181126121Y-110853696D02*
X181030883Y-110806077D01*
X181030883Y-110806077D02*
X180983264Y-110710839D01*
X180983264Y-110710839D02*
X180983264Y-110567982D01*
X180983264Y-110567982D02*
X181030883Y-110472744D01*
X181649931Y-109996553D02*
X180983264Y-109996553D01*
X180649931Y-109996553D02*
X180697550Y-110044172D01*
X180697550Y-110044172D02*
X180745169Y-109996553D01*
X180745169Y-109996553D02*
X180697550Y-109948934D01*
X180697550Y-109948934D02*
X180649931Y-109996553D01*
X180649931Y-109996553D02*
X180745169Y-109996553D01*
X180983264Y-109091792D02*
X181792788Y-109091792D01*
X181792788Y-109091792D02*
X181888026Y-109139411D01*
X181888026Y-109139411D02*
X181935645Y-109187030D01*
X181935645Y-109187030D02*
X181983264Y-109282268D01*
X181983264Y-109282268D02*
X181983264Y-109425125D01*
X181983264Y-109425125D02*
X181935645Y-109520363D01*
X181602312Y-109091792D02*
X181649931Y-109187030D01*
X181649931Y-109187030D02*
X181649931Y-109377506D01*
X181649931Y-109377506D02*
X181602312Y-109472744D01*
X181602312Y-109472744D02*
X181554692Y-109520363D01*
X181554692Y-109520363D02*
X181459454Y-109567982D01*
X181459454Y-109567982D02*
X181173740Y-109567982D01*
X181173740Y-109567982D02*
X181078502Y-109520363D01*
X181078502Y-109520363D02*
X181030883Y-109472744D01*
X181030883Y-109472744D02*
X180983264Y-109377506D01*
X180983264Y-109377506D02*
X180983264Y-109187030D01*
X180983264Y-109187030D02*
X181030883Y-109091792D01*
X180983264Y-108615601D02*
X181649931Y-108615601D01*
X181078502Y-108615601D02*
X181030883Y-108567982D01*
X181030883Y-108567982D02*
X180983264Y-108472744D01*
X180983264Y-108472744D02*
X180983264Y-108329887D01*
X180983264Y-108329887D02*
X181030883Y-108234649D01*
X181030883Y-108234649D02*
X181126121Y-108187030D01*
X181126121Y-108187030D02*
X181649931Y-108187030D01*
X181602312Y-107329887D02*
X181649931Y-107425125D01*
X181649931Y-107425125D02*
X181649931Y-107615601D01*
X181649931Y-107615601D02*
X181602312Y-107710839D01*
X181602312Y-107710839D02*
X181507073Y-107758458D01*
X181507073Y-107758458D02*
X181126121Y-107758458D01*
X181126121Y-107758458D02*
X181030883Y-107710839D01*
X181030883Y-107710839D02*
X180983264Y-107615601D01*
X180983264Y-107615601D02*
X180983264Y-107425125D01*
X180983264Y-107425125D02*
X181030883Y-107329887D01*
X181030883Y-107329887D02*
X181126121Y-107282268D01*
X181126121Y-107282268D02*
X181221359Y-107282268D01*
X181221359Y-107282268D02*
X181316597Y-107758458D01*
X181649931Y-106425125D02*
X180649931Y-106425125D01*
X181602312Y-106425125D02*
X181649931Y-106520363D01*
X181649931Y-106520363D02*
X181649931Y-106710839D01*
X181649931Y-106710839D02*
X181602312Y-106806077D01*
X181602312Y-106806077D02*
X181554692Y-106853696D01*
X181554692Y-106853696D02*
X181459454Y-106901315D01*
X181459454Y-106901315D02*
X181173740Y-106901315D01*
X181173740Y-106901315D02*
X181078502Y-106853696D01*
X181078502Y-106853696D02*
X181030883Y-106806077D01*
X181030883Y-106806077D02*
X180983264Y-106710839D01*
X180983264Y-106710839D02*
X180983264Y-106520363D01*
X180983264Y-106520363D02*
X181030883Y-106425125D01*
X181649931Y-105187029D02*
X180649931Y-105187029D01*
X181030883Y-105187029D02*
X180983264Y-105091791D01*
X180983264Y-105091791D02*
X180983264Y-104901315D01*
X180983264Y-104901315D02*
X181030883Y-104806077D01*
X181030883Y-104806077D02*
X181078502Y-104758458D01*
X181078502Y-104758458D02*
X181173740Y-104710839D01*
X181173740Y-104710839D02*
X181459454Y-104710839D01*
X181459454Y-104710839D02*
X181554692Y-104758458D01*
X181554692Y-104758458D02*
X181602312Y-104806077D01*
X181602312Y-104806077D02*
X181649931Y-104901315D01*
X181649931Y-104901315D02*
X181649931Y-105091791D01*
X181649931Y-105091791D02*
X181602312Y-105187029D01*
X180983264Y-104377505D02*
X181649931Y-104139410D01*
X180983264Y-103901315D02*
X181649931Y-104139410D01*
X181649931Y-104139410D02*
X181888026Y-104234648D01*
X181888026Y-104234648D02*
X181935645Y-104282267D01*
X181935645Y-104282267D02*
X181983264Y-104377505D01*
X180697550Y-102234648D02*
X180649931Y-102329886D01*
X180649931Y-102329886D02*
X180649931Y-102472743D01*
X180649931Y-102472743D02*
X180697550Y-102615600D01*
X180697550Y-102615600D02*
X180792788Y-102710838D01*
X180792788Y-102710838D02*
X180888026Y-102758457D01*
X180888026Y-102758457D02*
X181078502Y-102806076D01*
X181078502Y-102806076D02*
X181221359Y-102806076D01*
X181221359Y-102806076D02*
X181411835Y-102758457D01*
X181411835Y-102758457D02*
X181507073Y-102710838D01*
X181507073Y-102710838D02*
X181602312Y-102615600D01*
X181602312Y-102615600D02*
X181649931Y-102472743D01*
X181649931Y-102472743D02*
X181649931Y-102377505D01*
X181649931Y-102377505D02*
X181602312Y-102234648D01*
X181602312Y-102234648D02*
X181554692Y-102187029D01*
X181554692Y-102187029D02*
X181221359Y-102187029D01*
X181221359Y-102187029D02*
X181221359Y-102377505D01*
X181649931Y-101329886D02*
X181126121Y-101329886D01*
X181126121Y-101329886D02*
X181030883Y-101377505D01*
X181030883Y-101377505D02*
X180983264Y-101472743D01*
X180983264Y-101472743D02*
X180983264Y-101663219D01*
X180983264Y-101663219D02*
X181030883Y-101758457D01*
X181602312Y-101329886D02*
X181649931Y-101425124D01*
X181649931Y-101425124D02*
X181649931Y-101663219D01*
X181649931Y-101663219D02*
X181602312Y-101758457D01*
X181602312Y-101758457D02*
X181507073Y-101806076D01*
X181507073Y-101806076D02*
X181411835Y-101806076D01*
X181411835Y-101806076D02*
X181316597Y-101758457D01*
X181316597Y-101758457D02*
X181268978Y-101663219D01*
X181268978Y-101663219D02*
X181268978Y-101425124D01*
X181268978Y-101425124D02*
X181221359Y-101329886D01*
X181649931Y-100853695D02*
X180649931Y-100853695D01*
X181030883Y-100853695D02*
X180983264Y-100758457D01*
X180983264Y-100758457D02*
X180983264Y-100567981D01*
X180983264Y-100567981D02*
X181030883Y-100472743D01*
X181030883Y-100472743D02*
X181078502Y-100425124D01*
X181078502Y-100425124D02*
X181173740Y-100377505D01*
X181173740Y-100377505D02*
X181459454Y-100377505D01*
X181459454Y-100377505D02*
X181554692Y-100425124D01*
X181554692Y-100425124D02*
X181602312Y-100472743D01*
X181602312Y-100472743D02*
X181649931Y-100567981D01*
X181649931Y-100567981D02*
X181649931Y-100758457D01*
X181649931Y-100758457D02*
X181602312Y-100853695D01*
X181649931Y-99948933D02*
X180983264Y-99948933D01*
X181173740Y-99948933D02*
X181078502Y-99901314D01*
X181078502Y-99901314D02*
X181030883Y-99853695D01*
X181030883Y-99853695D02*
X180983264Y-99758457D01*
X180983264Y-99758457D02*
X180983264Y-99663219D01*
X181649931Y-99329885D02*
X180983264Y-99329885D01*
X180649931Y-99329885D02*
X180697550Y-99377504D01*
X180697550Y-99377504D02*
X180745169Y-99329885D01*
X180745169Y-99329885D02*
X180697550Y-99282266D01*
X180697550Y-99282266D02*
X180649931Y-99329885D01*
X180649931Y-99329885D02*
X180745169Y-99329885D01*
X181602312Y-98472743D02*
X181649931Y-98567981D01*
X181649931Y-98567981D02*
X181649931Y-98758457D01*
X181649931Y-98758457D02*
X181602312Y-98853695D01*
X181602312Y-98853695D02*
X181507073Y-98901314D01*
X181507073Y-98901314D02*
X181126121Y-98901314D01*
X181126121Y-98901314D02*
X181030883Y-98853695D01*
X181030883Y-98853695D02*
X180983264Y-98758457D01*
X180983264Y-98758457D02*
X180983264Y-98567981D01*
X180983264Y-98567981D02*
X181030883Y-98472743D01*
X181030883Y-98472743D02*
X181126121Y-98425124D01*
X181126121Y-98425124D02*
X181221359Y-98425124D01*
X181221359Y-98425124D02*
X181316597Y-98901314D01*
X181649931Y-97853695D02*
X181602312Y-97948933D01*
X181602312Y-97948933D02*
X181507073Y-97996552D01*
X181507073Y-97996552D02*
X180649931Y-97996552D01*
X181602312Y-97091790D02*
X181649931Y-97187028D01*
X181649931Y-97187028D02*
X181649931Y-97377504D01*
X181649931Y-97377504D02*
X181602312Y-97472742D01*
X181602312Y-97472742D02*
X181507073Y-97520361D01*
X181507073Y-97520361D02*
X181126121Y-97520361D01*
X181126121Y-97520361D02*
X181030883Y-97472742D01*
X181030883Y-97472742D02*
X180983264Y-97377504D01*
X180983264Y-97377504D02*
X180983264Y-97187028D01*
X180983264Y-97187028D02*
X181030883Y-97091790D01*
X181030883Y-97091790D02*
X181126121Y-97044171D01*
X181126121Y-97044171D02*
X181221359Y-97044171D01*
X181221359Y-97044171D02*
X181316597Y-97520361D01*
X181649931Y-95853694D02*
X180649931Y-95853694D01*
X180649931Y-95853694D02*
X181364216Y-95520361D01*
X181364216Y-95520361D02*
X180649931Y-95187028D01*
X180649931Y-95187028D02*
X181649931Y-95187028D01*
X181649931Y-94567980D02*
X181602312Y-94663218D01*
X181602312Y-94663218D02*
X181554692Y-94710837D01*
X181554692Y-94710837D02*
X181459454Y-94758456D01*
X181459454Y-94758456D02*
X181173740Y-94758456D01*
X181173740Y-94758456D02*
X181078502Y-94710837D01*
X181078502Y-94710837D02*
X181030883Y-94663218D01*
X181030883Y-94663218D02*
X180983264Y-94567980D01*
X180983264Y-94567980D02*
X180983264Y-94425123D01*
X180983264Y-94425123D02*
X181030883Y-94329885D01*
X181030883Y-94329885D02*
X181078502Y-94282266D01*
X181078502Y-94282266D02*
X181173740Y-94234647D01*
X181173740Y-94234647D02*
X181459454Y-94234647D01*
X181459454Y-94234647D02*
X181554692Y-94282266D01*
X181554692Y-94282266D02*
X181602312Y-94329885D01*
X181602312Y-94329885D02*
X181649931Y-94425123D01*
X181649931Y-94425123D02*
X181649931Y-94567980D01*
X180983264Y-93806075D02*
X181649931Y-93806075D01*
X181078502Y-93806075D02*
X181030883Y-93758456D01*
X181030883Y-93758456D02*
X180983264Y-93663218D01*
X180983264Y-93663218D02*
X180983264Y-93520361D01*
X180983264Y-93520361D02*
X181030883Y-93425123D01*
X181030883Y-93425123D02*
X181126121Y-93377504D01*
X181126121Y-93377504D02*
X181649931Y-93377504D01*
X180983264Y-93044170D02*
X180983264Y-92663218D01*
X180649931Y-92901313D02*
X181507073Y-92901313D01*
X181507073Y-92901313D02*
X181602312Y-92853694D01*
X181602312Y-92853694D02*
X181649931Y-92758456D01*
X181649931Y-92758456D02*
X181649931Y-92663218D01*
X181649931Y-92329884D02*
X180983264Y-92329884D01*
X180649931Y-92329884D02*
X180697550Y-92377503D01*
X180697550Y-92377503D02*
X180745169Y-92329884D01*
X180745169Y-92329884D02*
X180697550Y-92282265D01*
X180697550Y-92282265D02*
X180649931Y-92329884D01*
X180649931Y-92329884D02*
X180745169Y-92329884D01*
X182307494Y-112139411D02*
X182259875Y-112234649D01*
X182259875Y-112234649D02*
X182259875Y-112377506D01*
X182259875Y-112377506D02*
X182307494Y-112520363D01*
X182307494Y-112520363D02*
X182402732Y-112615601D01*
X182402732Y-112615601D02*
X182497970Y-112663220D01*
X182497970Y-112663220D02*
X182688446Y-112710839D01*
X182688446Y-112710839D02*
X182831303Y-112710839D01*
X182831303Y-112710839D02*
X183021779Y-112663220D01*
X183021779Y-112663220D02*
X183117017Y-112615601D01*
X183117017Y-112615601D02*
X183212256Y-112520363D01*
X183212256Y-112520363D02*
X183259875Y-112377506D01*
X183259875Y-112377506D02*
X183259875Y-112282268D01*
X183259875Y-112282268D02*
X183212256Y-112139411D01*
X183212256Y-112139411D02*
X183164636Y-112091792D01*
X183164636Y-112091792D02*
X182831303Y-112091792D01*
X182831303Y-112091792D02*
X182831303Y-112282268D01*
X182974160Y-111710839D02*
X182974160Y-111234649D01*
X183259875Y-111806077D02*
X182259875Y-111472744D01*
X182259875Y-111472744D02*
X183259875Y-111139411D01*
X183164636Y-110806077D02*
X183212256Y-110758458D01*
X183212256Y-110758458D02*
X183259875Y-110806077D01*
X183259875Y-110806077D02*
X183212256Y-110853696D01*
X183212256Y-110853696D02*
X183164636Y-110806077D01*
X183164636Y-110806077D02*
X183259875Y-110806077D01*
X183259875Y-110329887D02*
X182259875Y-110329887D01*
X182259875Y-110329887D02*
X182974160Y-109996554D01*
X182974160Y-109996554D02*
X182259875Y-109663221D01*
X182259875Y-109663221D02*
X183259875Y-109663221D01*
X182259875Y-108996554D02*
X182259875Y-108806078D01*
X182259875Y-108806078D02*
X182307494Y-108710840D01*
X182307494Y-108710840D02*
X182402732Y-108615602D01*
X182402732Y-108615602D02*
X182593208Y-108567983D01*
X182593208Y-108567983D02*
X182926541Y-108567983D01*
X182926541Y-108567983D02*
X183117017Y-108615602D01*
X183117017Y-108615602D02*
X183212256Y-108710840D01*
X183212256Y-108710840D02*
X183259875Y-108806078D01*
X183259875Y-108806078D02*
X183259875Y-108996554D01*
X183259875Y-108996554D02*
X183212256Y-109091792D01*
X183212256Y-109091792D02*
X183117017Y-109187030D01*
X183117017Y-109187030D02*
X182926541Y-109234649D01*
X182926541Y-109234649D02*
X182593208Y-109234649D01*
X182593208Y-109234649D02*
X182402732Y-109187030D01*
X182402732Y-109187030D02*
X182307494Y-109091792D01*
X182307494Y-109091792D02*
X182259875Y-108996554D01*
X183259875Y-108139411D02*
X182259875Y-108139411D01*
X182259875Y-108139411D02*
X183259875Y-107567983D01*
X183259875Y-107567983D02*
X182259875Y-107567983D01*
X183164636Y-107091792D02*
X183212256Y-107044173D01*
X183212256Y-107044173D02*
X183259875Y-107091792D01*
X183259875Y-107091792D02*
X183212256Y-107139411D01*
X183212256Y-107139411D02*
X183164636Y-107091792D01*
X183164636Y-107091792D02*
X183259875Y-107091792D01*
X182736065Y-105853697D02*
X182736065Y-105520364D01*
X183259875Y-105377507D02*
X183259875Y-105853697D01*
X183259875Y-105853697D02*
X182259875Y-105853697D01*
X182259875Y-105853697D02*
X182259875Y-105377507D01*
X183259875Y-104806078D02*
X183212256Y-104901316D01*
X183212256Y-104901316D02*
X183117017Y-104948935D01*
X183117017Y-104948935D02*
X182259875Y-104948935D01*
X183212256Y-104044173D02*
X183259875Y-104139411D01*
X183259875Y-104139411D02*
X183259875Y-104329887D01*
X183259875Y-104329887D02*
X183212256Y-104425125D01*
X183212256Y-104425125D02*
X183117017Y-104472744D01*
X183117017Y-104472744D02*
X182736065Y-104472744D01*
X182736065Y-104472744D02*
X182640827Y-104425125D01*
X182640827Y-104425125D02*
X182593208Y-104329887D01*
X182593208Y-104329887D02*
X182593208Y-104139411D01*
X182593208Y-104139411D02*
X182640827Y-104044173D01*
X182640827Y-104044173D02*
X182736065Y-103996554D01*
X182736065Y-103996554D02*
X182831303Y-103996554D01*
X182831303Y-103996554D02*
X182926541Y-104472744D01*
X182593208Y-103710839D02*
X182593208Y-103329887D01*
X182259875Y-103567982D02*
X183117017Y-103567982D01*
X183117017Y-103567982D02*
X183212256Y-103520363D01*
X183212256Y-103520363D02*
X183259875Y-103425125D01*
X183259875Y-103425125D02*
X183259875Y-103329887D01*
X183259875Y-102996553D02*
X182593208Y-102996553D01*
X182783684Y-102996553D02*
X182688446Y-102948934D01*
X182688446Y-102948934D02*
X182640827Y-102901315D01*
X182640827Y-102901315D02*
X182593208Y-102806077D01*
X182593208Y-102806077D02*
X182593208Y-102710839D01*
X183259875Y-102234648D02*
X183212256Y-102329886D01*
X183212256Y-102329886D02*
X183164636Y-102377505D01*
X183164636Y-102377505D02*
X183069398Y-102425124D01*
X183069398Y-102425124D02*
X182783684Y-102425124D01*
X182783684Y-102425124D02*
X182688446Y-102377505D01*
X182688446Y-102377505D02*
X182640827Y-102329886D01*
X182640827Y-102329886D02*
X182593208Y-102234648D01*
X182593208Y-102234648D02*
X182593208Y-102091791D01*
X182593208Y-102091791D02*
X182640827Y-101996553D01*
X182640827Y-101996553D02*
X182688446Y-101948934D01*
X182688446Y-101948934D02*
X182783684Y-101901315D01*
X182783684Y-101901315D02*
X183069398Y-101901315D01*
X183069398Y-101901315D02*
X183164636Y-101948934D01*
X183164636Y-101948934D02*
X183212256Y-101996553D01*
X183212256Y-101996553D02*
X183259875Y-102091791D01*
X183259875Y-102091791D02*
X183259875Y-102234648D01*
X182593208Y-101472743D02*
X183259875Y-101472743D01*
X182688446Y-101472743D02*
X182640827Y-101425124D01*
X182640827Y-101425124D02*
X182593208Y-101329886D01*
X182593208Y-101329886D02*
X182593208Y-101187029D01*
X182593208Y-101187029D02*
X182640827Y-101091791D01*
X182640827Y-101091791D02*
X182736065Y-101044172D01*
X182736065Y-101044172D02*
X183259875Y-101044172D01*
X183259875Y-100567981D02*
X182593208Y-100567981D01*
X182259875Y-100567981D02*
X182307494Y-100615600D01*
X182307494Y-100615600D02*
X182355113Y-100567981D01*
X182355113Y-100567981D02*
X182307494Y-100520362D01*
X182307494Y-100520362D02*
X182259875Y-100567981D01*
X182259875Y-100567981D02*
X182355113Y-100567981D01*
X183212256Y-99663220D02*
X183259875Y-99758458D01*
X183259875Y-99758458D02*
X183259875Y-99948934D01*
X183259875Y-99948934D02*
X183212256Y-100044172D01*
X183212256Y-100044172D02*
X183164636Y-100091791D01*
X183164636Y-100091791D02*
X183069398Y-100139410D01*
X183069398Y-100139410D02*
X182783684Y-100139410D01*
X182783684Y-100139410D02*
X182688446Y-100091791D01*
X182688446Y-100091791D02*
X182640827Y-100044172D01*
X182640827Y-100044172D02*
X182593208Y-99948934D01*
X182593208Y-99948934D02*
X182593208Y-99758458D01*
X182593208Y-99758458D02*
X182640827Y-99663220D01*
X183212256Y-99282267D02*
X183259875Y-99187029D01*
X183259875Y-99187029D02*
X183259875Y-98996553D01*
X183259875Y-98996553D02*
X183212256Y-98901315D01*
X183212256Y-98901315D02*
X183117017Y-98853696D01*
X183117017Y-98853696D02*
X183069398Y-98853696D01*
X183069398Y-98853696D02*
X182974160Y-98901315D01*
X182974160Y-98901315D02*
X182926541Y-98996553D01*
X182926541Y-98996553D02*
X182926541Y-99139410D01*
X182926541Y-99139410D02*
X182878922Y-99234648D01*
X182878922Y-99234648D02*
X182783684Y-99282267D01*
X182783684Y-99282267D02*
X182736065Y-99282267D01*
X182736065Y-99282267D02*
X182640827Y-99234648D01*
X182640827Y-99234648D02*
X182593208Y-99139410D01*
X182593208Y-99139410D02*
X182593208Y-98996553D01*
X182593208Y-98996553D02*
X182640827Y-98901315D01*
X183869819Y-112806077D02*
X184869819Y-112472744D01*
X184869819Y-112472744D02*
X183869819Y-112139411D01*
X184869819Y-111758458D02*
X184869819Y-111567982D01*
X184869819Y-111567982D02*
X184822200Y-111472744D01*
X184822200Y-111472744D02*
X184774580Y-111425125D01*
X184774580Y-111425125D02*
X184631723Y-111329887D01*
X184631723Y-111329887D02*
X184441247Y-111282268D01*
X184441247Y-111282268D02*
X184060295Y-111282268D01*
X184060295Y-111282268D02*
X183965057Y-111329887D01*
X183965057Y-111329887D02*
X183917438Y-111377506D01*
X183917438Y-111377506D02*
X183869819Y-111472744D01*
X183869819Y-111472744D02*
X183869819Y-111663220D01*
X183869819Y-111663220D02*
X183917438Y-111758458D01*
X183917438Y-111758458D02*
X183965057Y-111806077D01*
X183965057Y-111806077D02*
X184060295Y-111853696D01*
X184060295Y-111853696D02*
X184298390Y-111853696D01*
X184298390Y-111853696D02*
X184393628Y-111806077D01*
X184393628Y-111806077D02*
X184441247Y-111758458D01*
X184441247Y-111758458D02*
X184488866Y-111663220D01*
X184488866Y-111663220D02*
X184488866Y-111472744D01*
X184488866Y-111472744D02*
X184441247Y-111377506D01*
X184441247Y-111377506D02*
X184393628Y-111329887D01*
X184393628Y-111329887D02*
X184298390Y-111282268D01*
X184488866Y-110091791D02*
X184488866Y-109329887D01*
X183965057Y-108139410D02*
X183917438Y-108091791D01*
X183917438Y-108091791D02*
X183869819Y-107996553D01*
X183869819Y-107996553D02*
X183869819Y-107758458D01*
X183869819Y-107758458D02*
X183917438Y-107663220D01*
X183917438Y-107663220D02*
X183965057Y-107615601D01*
X183965057Y-107615601D02*
X184060295Y-107567982D01*
X184060295Y-107567982D02*
X184155533Y-107567982D01*
X184155533Y-107567982D02*
X184298390Y-107615601D01*
X184298390Y-107615601D02*
X184869819Y-108187029D01*
X184869819Y-108187029D02*
X184869819Y-107567982D01*
X183869819Y-106948934D02*
X183869819Y-106853696D01*
X183869819Y-106853696D02*
X183917438Y-106758458D01*
X183917438Y-106758458D02*
X183965057Y-106710839D01*
X183965057Y-106710839D02*
X184060295Y-106663220D01*
X184060295Y-106663220D02*
X184250771Y-106615601D01*
X184250771Y-106615601D02*
X184488866Y-106615601D01*
X184488866Y-106615601D02*
X184679342Y-106663220D01*
X184679342Y-106663220D02*
X184774580Y-106710839D01*
X184774580Y-106710839D02*
X184822200Y-106758458D01*
X184822200Y-106758458D02*
X184869819Y-106853696D01*
X184869819Y-106853696D02*
X184869819Y-106948934D01*
X184869819Y-106948934D02*
X184822200Y-107044172D01*
X184822200Y-107044172D02*
X184774580Y-107091791D01*
X184774580Y-107091791D02*
X184679342Y-107139410D01*
X184679342Y-107139410D02*
X184488866Y-107187029D01*
X184488866Y-107187029D02*
X184250771Y-107187029D01*
X184250771Y-107187029D02*
X184060295Y-107139410D01*
X184060295Y-107139410D02*
X183965057Y-107091791D01*
X183965057Y-107091791D02*
X183917438Y-107044172D01*
X183917438Y-107044172D02*
X183869819Y-106948934D01*
X184584104Y-105472743D02*
X184584104Y-104996553D01*
X184869819Y-105567981D02*
X183869819Y-105234648D01*
X183869819Y-105234648D02*
X184869819Y-104901315D01*
X183869819Y-104567981D02*
X184679342Y-104567981D01*
X184679342Y-104567981D02*
X184774580Y-104520362D01*
X184774580Y-104520362D02*
X184822200Y-104472743D01*
X184822200Y-104472743D02*
X184869819Y-104377505D01*
X184869819Y-104377505D02*
X184869819Y-104187029D01*
X184869819Y-104187029D02*
X184822200Y-104091791D01*
X184822200Y-104091791D02*
X184774580Y-104044172D01*
X184774580Y-104044172D02*
X184679342Y-103996553D01*
X184679342Y-103996553D02*
X183869819Y-103996553D01*
X183917438Y-102996553D02*
X183869819Y-103091791D01*
X183869819Y-103091791D02*
X183869819Y-103234648D01*
X183869819Y-103234648D02*
X183917438Y-103377505D01*
X183917438Y-103377505D02*
X184012676Y-103472743D01*
X184012676Y-103472743D02*
X184107914Y-103520362D01*
X184107914Y-103520362D02*
X184298390Y-103567981D01*
X184298390Y-103567981D02*
X184441247Y-103567981D01*
X184441247Y-103567981D02*
X184631723Y-103520362D01*
X184631723Y-103520362D02*
X184726961Y-103472743D01*
X184726961Y-103472743D02*
X184822200Y-103377505D01*
X184822200Y-103377505D02*
X184869819Y-103234648D01*
X184869819Y-103234648D02*
X184869819Y-103139410D01*
X184869819Y-103139410D02*
X184822200Y-102996553D01*
X184822200Y-102996553D02*
X184774580Y-102948934D01*
X184774580Y-102948934D02*
X184441247Y-102948934D01*
X184441247Y-102948934D02*
X184441247Y-103139410D01*
X183965057Y-101806076D02*
X183917438Y-101758457D01*
X183917438Y-101758457D02*
X183869819Y-101663219D01*
X183869819Y-101663219D02*
X183869819Y-101425124D01*
X183869819Y-101425124D02*
X183917438Y-101329886D01*
X183917438Y-101329886D02*
X183965057Y-101282267D01*
X183965057Y-101282267D02*
X184060295Y-101234648D01*
X184060295Y-101234648D02*
X184155533Y-101234648D01*
X184155533Y-101234648D02*
X184298390Y-101282267D01*
X184298390Y-101282267D02*
X184869819Y-101853695D01*
X184869819Y-101853695D02*
X184869819Y-101234648D01*
X183869819Y-100615600D02*
X183869819Y-100520362D01*
X183869819Y-100520362D02*
X183917438Y-100425124D01*
X183917438Y-100425124D02*
X183965057Y-100377505D01*
X183965057Y-100377505D02*
X184060295Y-100329886D01*
X184060295Y-100329886D02*
X184250771Y-100282267D01*
X184250771Y-100282267D02*
X184488866Y-100282267D01*
X184488866Y-100282267D02*
X184679342Y-100329886D01*
X184679342Y-100329886D02*
X184774580Y-100377505D01*
X184774580Y-100377505D02*
X184822200Y-100425124D01*
X184822200Y-100425124D02*
X184869819Y-100520362D01*
X184869819Y-100520362D02*
X184869819Y-100615600D01*
X184869819Y-100615600D02*
X184822200Y-100710838D01*
X184822200Y-100710838D02*
X184774580Y-100758457D01*
X184774580Y-100758457D02*
X184679342Y-100806076D01*
X184679342Y-100806076D02*
X184488866Y-100853695D01*
X184488866Y-100853695D02*
X184250771Y-100853695D01*
X184250771Y-100853695D02*
X184060295Y-100806076D01*
X184060295Y-100806076D02*
X183965057Y-100758457D01*
X183965057Y-100758457D02*
X183917438Y-100710838D01*
X183917438Y-100710838D02*
X183869819Y-100615600D01*
X183965057Y-99901314D02*
X183917438Y-99853695D01*
X183917438Y-99853695D02*
X183869819Y-99758457D01*
X183869819Y-99758457D02*
X183869819Y-99520362D01*
X183869819Y-99520362D02*
X183917438Y-99425124D01*
X183917438Y-99425124D02*
X183965057Y-99377505D01*
X183965057Y-99377505D02*
X184060295Y-99329886D01*
X184060295Y-99329886D02*
X184155533Y-99329886D01*
X184155533Y-99329886D02*
X184298390Y-99377505D01*
X184298390Y-99377505D02*
X184869819Y-99948933D01*
X184869819Y-99948933D02*
X184869819Y-99329886D01*
X184203152Y-98472743D02*
X184869819Y-98472743D01*
X183822200Y-98710838D02*
X184536485Y-98948933D01*
X184536485Y-98948933D02*
X184536485Y-98329886D01*
X160384401Y-86227632D02*
X160574877Y-86227632D01*
X160574877Y-86227632D02*
X160670115Y-86275251D01*
X160670115Y-86275251D02*
X160765353Y-86370489D01*
X160765353Y-86370489D02*
X160812972Y-86560965D01*
X160812972Y-86560965D02*
X160812972Y-86894298D01*
X160812972Y-86894298D02*
X160765353Y-87084774D01*
X160765353Y-87084774D02*
X160670115Y-87180013D01*
X160670115Y-87180013D02*
X160574877Y-87227632D01*
X160574877Y-87227632D02*
X160384401Y-87227632D01*
X160384401Y-87227632D02*
X160289163Y-87180013D01*
X160289163Y-87180013D02*
X160193925Y-87084774D01*
X160193925Y-87084774D02*
X160146306Y-86894298D01*
X160146306Y-86894298D02*
X160146306Y-86560965D01*
X160146306Y-86560965D02*
X160193925Y-86370489D01*
X160193925Y-86370489D02*
X160289163Y-86275251D01*
X160289163Y-86275251D02*
X160384401Y-86227632D01*
X161241544Y-87227632D02*
X161241544Y-86227632D01*
X161241544Y-86227632D02*
X161812972Y-87227632D01*
X161812972Y-87227632D02*
X161812972Y-86227632D01*
X163003448Y-86180013D02*
X162146306Y-87465727D01*
X163289163Y-87180013D02*
X163432020Y-87227632D01*
X163432020Y-87227632D02*
X163670115Y-87227632D01*
X163670115Y-87227632D02*
X163765353Y-87180013D01*
X163765353Y-87180013D02*
X163812972Y-87132393D01*
X163812972Y-87132393D02*
X163860591Y-87037155D01*
X163860591Y-87037155D02*
X163860591Y-86941917D01*
X163860591Y-86941917D02*
X163812972Y-86846679D01*
X163812972Y-86846679D02*
X163765353Y-86799060D01*
X163765353Y-86799060D02*
X163670115Y-86751441D01*
X163670115Y-86751441D02*
X163479639Y-86703822D01*
X163479639Y-86703822D02*
X163384401Y-86656203D01*
X163384401Y-86656203D02*
X163336782Y-86608584D01*
X163336782Y-86608584D02*
X163289163Y-86513346D01*
X163289163Y-86513346D02*
X163289163Y-86418108D01*
X163289163Y-86418108D02*
X163336782Y-86322870D01*
X163336782Y-86322870D02*
X163384401Y-86275251D01*
X163384401Y-86275251D02*
X163479639Y-86227632D01*
X163479639Y-86227632D02*
X163717734Y-86227632D01*
X163717734Y-86227632D02*
X163860591Y-86275251D01*
X164146306Y-86560965D02*
X164527258Y-86560965D01*
X164289163Y-86227632D02*
X164289163Y-87084774D01*
X164289163Y-87084774D02*
X164336782Y-87180013D01*
X164336782Y-87180013D02*
X164432020Y-87227632D01*
X164432020Y-87227632D02*
X164527258Y-87227632D01*
X165289163Y-87227632D02*
X165289163Y-86703822D01*
X165289163Y-86703822D02*
X165241544Y-86608584D01*
X165241544Y-86608584D02*
X165146306Y-86560965D01*
X165146306Y-86560965D02*
X164955830Y-86560965D01*
X164955830Y-86560965D02*
X164860592Y-86608584D01*
X165289163Y-87180013D02*
X165193925Y-87227632D01*
X165193925Y-87227632D02*
X164955830Y-87227632D01*
X164955830Y-87227632D02*
X164860592Y-87180013D01*
X164860592Y-87180013D02*
X164812973Y-87084774D01*
X164812973Y-87084774D02*
X164812973Y-86989536D01*
X164812973Y-86989536D02*
X164860592Y-86894298D01*
X164860592Y-86894298D02*
X164955830Y-86846679D01*
X164955830Y-86846679D02*
X165193925Y-86846679D01*
X165193925Y-86846679D02*
X165289163Y-86799060D01*
X165765354Y-86560965D02*
X165765354Y-87227632D01*
X165765354Y-86656203D02*
X165812973Y-86608584D01*
X165812973Y-86608584D02*
X165908211Y-86560965D01*
X165908211Y-86560965D02*
X166051068Y-86560965D01*
X166051068Y-86560965D02*
X166146306Y-86608584D01*
X166146306Y-86608584D02*
X166193925Y-86703822D01*
X166193925Y-86703822D02*
X166193925Y-87227632D01*
X167098687Y-87227632D02*
X167098687Y-86227632D01*
X167098687Y-87180013D02*
X167003449Y-87227632D01*
X167003449Y-87227632D02*
X166812973Y-87227632D01*
X166812973Y-87227632D02*
X166717735Y-87180013D01*
X166717735Y-87180013D02*
X166670116Y-87132393D01*
X166670116Y-87132393D02*
X166622497Y-87037155D01*
X166622497Y-87037155D02*
X166622497Y-86751441D01*
X166622497Y-86751441D02*
X166670116Y-86656203D01*
X166670116Y-86656203D02*
X166717735Y-86608584D01*
X166717735Y-86608584D02*
X166812973Y-86560965D01*
X166812973Y-86560965D02*
X167003449Y-86560965D01*
X167003449Y-86560965D02*
X167098687Y-86608584D01*
X167574878Y-87227632D02*
X167574878Y-86227632D01*
X167574878Y-86608584D02*
X167670116Y-86560965D01*
X167670116Y-86560965D02*
X167860592Y-86560965D01*
X167860592Y-86560965D02*
X167955830Y-86608584D01*
X167955830Y-86608584D02*
X168003449Y-86656203D01*
X168003449Y-86656203D02*
X168051068Y-86751441D01*
X168051068Y-86751441D02*
X168051068Y-87037155D01*
X168051068Y-87037155D02*
X168003449Y-87132393D01*
X168003449Y-87132393D02*
X167955830Y-87180013D01*
X167955830Y-87180013D02*
X167860592Y-87227632D01*
X167860592Y-87227632D02*
X167670116Y-87227632D01*
X167670116Y-87227632D02*
X167574878Y-87180013D01*
X168384402Y-86560965D02*
X168622497Y-87227632D01*
X168860592Y-86560965D02*
X168622497Y-87227632D01*
X168622497Y-87227632D02*
X168527259Y-87465727D01*
X168527259Y-87465727D02*
X168479640Y-87513346D01*
X168479640Y-87513346D02*
X168384402Y-87560965D01*
X162779580Y-105166666D02*
X162827200Y-105214285D01*
X162827200Y-105214285D02*
X162874819Y-105357142D01*
X162874819Y-105357142D02*
X162874819Y-105452380D01*
X162874819Y-105452380D02*
X162827200Y-105595237D01*
X162827200Y-105595237D02*
X162731961Y-105690475D01*
X162731961Y-105690475D02*
X162636723Y-105738094D01*
X162636723Y-105738094D02*
X162446247Y-105785713D01*
X162446247Y-105785713D02*
X162303390Y-105785713D01*
X162303390Y-105785713D02*
X162112914Y-105738094D01*
X162112914Y-105738094D02*
X162017676Y-105690475D01*
X162017676Y-105690475D02*
X161922438Y-105595237D01*
X161922438Y-105595237D02*
X161874819Y-105452380D01*
X161874819Y-105452380D02*
X161874819Y-105357142D01*
X161874819Y-105357142D02*
X161922438Y-105214285D01*
X161922438Y-105214285D02*
X161970057Y-105166666D01*
X161874819Y-104833332D02*
X161874819Y-104166666D01*
X161874819Y-104166666D02*
X162874819Y-104595237D01*
X154300952Y-105454819D02*
X153729524Y-105454819D01*
X154015238Y-105454819D02*
X154015238Y-104454819D01*
X154015238Y-104454819D02*
X153920000Y-104597676D01*
X153920000Y-104597676D02*
X153824762Y-104692914D01*
X153824762Y-104692914D02*
X153729524Y-104740533D01*
X154920000Y-104454819D02*
X155015238Y-104454819D01*
X155015238Y-104454819D02*
X155110476Y-104502438D01*
X155110476Y-104502438D02*
X155158095Y-104550057D01*
X155158095Y-104550057D02*
X155205714Y-104645295D01*
X155205714Y-104645295D02*
X155253333Y-104835771D01*
X155253333Y-104835771D02*
X155253333Y-105073866D01*
X155253333Y-105073866D02*
X155205714Y-105264342D01*
X155205714Y-105264342D02*
X155158095Y-105359580D01*
X155158095Y-105359580D02*
X155110476Y-105407200D01*
X155110476Y-105407200D02*
X155015238Y-105454819D01*
X155015238Y-105454819D02*
X154920000Y-105454819D01*
X154920000Y-105454819D02*
X154824762Y-105407200D01*
X154824762Y-105407200D02*
X154777143Y-105359580D01*
X154777143Y-105359580D02*
X154729524Y-105264342D01*
X154729524Y-105264342D02*
X154681905Y-105073866D01*
X154681905Y-105073866D02*
X154681905Y-104835771D01*
X154681905Y-104835771D02*
X154729524Y-104645295D01*
X154729524Y-104645295D02*
X154777143Y-104550057D01*
X154777143Y-104550057D02*
X154824762Y-104502438D01*
X154824762Y-104502438D02*
X154920000Y-104454819D01*
X155872381Y-104454819D02*
X155967619Y-104454819D01*
X155967619Y-104454819D02*
X156062857Y-104502438D01*
X156062857Y-104502438D02*
X156110476Y-104550057D01*
X156110476Y-104550057D02*
X156158095Y-104645295D01*
X156158095Y-104645295D02*
X156205714Y-104835771D01*
X156205714Y-104835771D02*
X156205714Y-105073866D01*
X156205714Y-105073866D02*
X156158095Y-105264342D01*
X156158095Y-105264342D02*
X156110476Y-105359580D01*
X156110476Y-105359580D02*
X156062857Y-105407200D01*
X156062857Y-105407200D02*
X155967619Y-105454819D01*
X155967619Y-105454819D02*
X155872381Y-105454819D01*
X155872381Y-105454819D02*
X155777143Y-105407200D01*
X155777143Y-105407200D02*
X155729524Y-105359580D01*
X155729524Y-105359580D02*
X155681905Y-105264342D01*
X155681905Y-105264342D02*
X155634286Y-105073866D01*
X155634286Y-105073866D02*
X155634286Y-104835771D01*
X155634286Y-104835771D02*
X155681905Y-104645295D01*
X155681905Y-104645295D02*
X155729524Y-104550057D01*
X155729524Y-104550057D02*
X155777143Y-104502438D01*
X155777143Y-104502438D02*
X155872381Y-104454819D01*
X156634286Y-104788152D02*
X156634286Y-105454819D01*
X156634286Y-104883390D02*
X156681905Y-104835771D01*
X156681905Y-104835771D02*
X156777143Y-104788152D01*
X156777143Y-104788152D02*
X156920000Y-104788152D01*
X156920000Y-104788152D02*
X157015238Y-104835771D01*
X157015238Y-104835771D02*
X157062857Y-104931009D01*
X157062857Y-104931009D02*
X157062857Y-105454819D01*
X131833333Y-68859580D02*
X131785714Y-68907200D01*
X131785714Y-68907200D02*
X131642857Y-68954819D01*
X131642857Y-68954819D02*
X131547619Y-68954819D01*
X131547619Y-68954819D02*
X131404762Y-68907200D01*
X131404762Y-68907200D02*
X131309524Y-68811961D01*
X131309524Y-68811961D02*
X131261905Y-68716723D01*
X131261905Y-68716723D02*
X131214286Y-68526247D01*
X131214286Y-68526247D02*
X131214286Y-68383390D01*
X131214286Y-68383390D02*
X131261905Y-68192914D01*
X131261905Y-68192914D02*
X131309524Y-68097676D01*
X131309524Y-68097676D02*
X131404762Y-68002438D01*
X131404762Y-68002438D02*
X131547619Y-67954819D01*
X131547619Y-67954819D02*
X131642857Y-67954819D01*
X131642857Y-67954819D02*
X131785714Y-68002438D01*
X131785714Y-68002438D02*
X131833333Y-68050057D01*
X132214286Y-68050057D02*
X132261905Y-68002438D01*
X132261905Y-68002438D02*
X132357143Y-67954819D01*
X132357143Y-67954819D02*
X132595238Y-67954819D01*
X132595238Y-67954819D02*
X132690476Y-68002438D01*
X132690476Y-68002438D02*
X132738095Y-68050057D01*
X132738095Y-68050057D02*
X132785714Y-68145295D01*
X132785714Y-68145295D02*
X132785714Y-68240533D01*
X132785714Y-68240533D02*
X132738095Y-68383390D01*
X132738095Y-68383390D02*
X132166667Y-68954819D01*
X132166667Y-68954819D02*
X132785714Y-68954819D01*
X132454819Y-76619047D02*
X132454819Y-77190475D01*
X132454819Y-76904761D02*
X131454819Y-76904761D01*
X131454819Y-76904761D02*
X131597676Y-76999999D01*
X131597676Y-76999999D02*
X131692914Y-77095237D01*
X131692914Y-77095237D02*
X131740533Y-77190475D01*
X131454819Y-75999999D02*
X131454819Y-75904761D01*
X131454819Y-75904761D02*
X131502438Y-75809523D01*
X131502438Y-75809523D02*
X131550057Y-75761904D01*
X131550057Y-75761904D02*
X131645295Y-75714285D01*
X131645295Y-75714285D02*
X131835771Y-75666666D01*
X131835771Y-75666666D02*
X132073866Y-75666666D01*
X132073866Y-75666666D02*
X132264342Y-75714285D01*
X132264342Y-75714285D02*
X132359580Y-75761904D01*
X132359580Y-75761904D02*
X132407200Y-75809523D01*
X132407200Y-75809523D02*
X132454819Y-75904761D01*
X132454819Y-75904761D02*
X132454819Y-75999999D01*
X132454819Y-75999999D02*
X132407200Y-76095237D01*
X132407200Y-76095237D02*
X132359580Y-76142856D01*
X132359580Y-76142856D02*
X132264342Y-76190475D01*
X132264342Y-76190475D02*
X132073866Y-76238094D01*
X132073866Y-76238094D02*
X131835771Y-76238094D01*
X131835771Y-76238094D02*
X131645295Y-76190475D01*
X131645295Y-76190475D02*
X131550057Y-76142856D01*
X131550057Y-76142856D02*
X131502438Y-76095237D01*
X131502438Y-76095237D02*
X131454819Y-75999999D01*
X131454819Y-75047618D02*
X131454819Y-74952380D01*
X131454819Y-74952380D02*
X131502438Y-74857142D01*
X131502438Y-74857142D02*
X131550057Y-74809523D01*
X131550057Y-74809523D02*
X131645295Y-74761904D01*
X131645295Y-74761904D02*
X131835771Y-74714285D01*
X131835771Y-74714285D02*
X132073866Y-74714285D01*
X132073866Y-74714285D02*
X132264342Y-74761904D01*
X132264342Y-74761904D02*
X132359580Y-74809523D01*
X132359580Y-74809523D02*
X132407200Y-74857142D01*
X132407200Y-74857142D02*
X132454819Y-74952380D01*
X132454819Y-74952380D02*
X132454819Y-75047618D01*
X132454819Y-75047618D02*
X132407200Y-75142856D01*
X132407200Y-75142856D02*
X132359580Y-75190475D01*
X132359580Y-75190475D02*
X132264342Y-75238094D01*
X132264342Y-75238094D02*
X132073866Y-75285713D01*
X132073866Y-75285713D02*
X131835771Y-75285713D01*
X131835771Y-75285713D02*
X131645295Y-75238094D01*
X131645295Y-75238094D02*
X131550057Y-75190475D01*
X131550057Y-75190475D02*
X131502438Y-75142856D01*
X131502438Y-75142856D02*
X131454819Y-75047618D01*
X131788152Y-74285713D02*
X132454819Y-74285713D01*
X131883390Y-74285713D02*
X131835771Y-74238094D01*
X131835771Y-74238094D02*
X131788152Y-74142856D01*
X131788152Y-74142856D02*
X131788152Y-73999999D01*
X131788152Y-73999999D02*
X131835771Y-73904761D01*
X131835771Y-73904761D02*
X131931009Y-73857142D01*
X131931009Y-73857142D02*
X132454819Y-73857142D01*
X136333333Y-109939580D02*
X136285714Y-109987200D01*
X136285714Y-109987200D02*
X136142857Y-110034819D01*
X136142857Y-110034819D02*
X136047619Y-110034819D01*
X136047619Y-110034819D02*
X135904762Y-109987200D01*
X135904762Y-109987200D02*
X135809524Y-109891961D01*
X135809524Y-109891961D02*
X135761905Y-109796723D01*
X135761905Y-109796723D02*
X135714286Y-109606247D01*
X135714286Y-109606247D02*
X135714286Y-109463390D01*
X135714286Y-109463390D02*
X135761905Y-109272914D01*
X135761905Y-109272914D02*
X135809524Y-109177676D01*
X135809524Y-109177676D02*
X135904762Y-109082438D01*
X135904762Y-109082438D02*
X136047619Y-109034819D01*
X136047619Y-109034819D02*
X136142857Y-109034819D01*
X136142857Y-109034819D02*
X136285714Y-109082438D01*
X136285714Y-109082438D02*
X136333333Y-109130057D01*
X136904762Y-109463390D02*
X136809524Y-109415771D01*
X136809524Y-109415771D02*
X136761905Y-109368152D01*
X136761905Y-109368152D02*
X136714286Y-109272914D01*
X136714286Y-109272914D02*
X136714286Y-109225295D01*
X136714286Y-109225295D02*
X136761905Y-109130057D01*
X136761905Y-109130057D02*
X136809524Y-109082438D01*
X136809524Y-109082438D02*
X136904762Y-109034819D01*
X136904762Y-109034819D02*
X137095238Y-109034819D01*
X137095238Y-109034819D02*
X137190476Y-109082438D01*
X137190476Y-109082438D02*
X137238095Y-109130057D01*
X137238095Y-109130057D02*
X137285714Y-109225295D01*
X137285714Y-109225295D02*
X137285714Y-109272914D01*
X137285714Y-109272914D02*
X137238095Y-109368152D01*
X137238095Y-109368152D02*
X137190476Y-109415771D01*
X137190476Y-109415771D02*
X137095238Y-109463390D01*
X137095238Y-109463390D02*
X136904762Y-109463390D01*
X136904762Y-109463390D02*
X136809524Y-109511009D01*
X136809524Y-109511009D02*
X136761905Y-109558628D01*
X136761905Y-109558628D02*
X136714286Y-109653866D01*
X136714286Y-109653866D02*
X136714286Y-109844342D01*
X136714286Y-109844342D02*
X136761905Y-109939580D01*
X136761905Y-109939580D02*
X136809524Y-109987200D01*
X136809524Y-109987200D02*
X136904762Y-110034819D01*
X136904762Y-110034819D02*
X137095238Y-110034819D01*
X137095238Y-110034819D02*
X137190476Y-109987200D01*
X137190476Y-109987200D02*
X137238095Y-109939580D01*
X137238095Y-109939580D02*
X137285714Y-109844342D01*
X137285714Y-109844342D02*
X137285714Y-109653866D01*
X137285714Y-109653866D02*
X137238095Y-109558628D01*
X137238095Y-109558628D02*
X137190476Y-109511009D01*
X137190476Y-109511009D02*
X137095238Y-109463390D01*
X133857142Y-112454819D02*
X133285714Y-112454819D01*
X133571428Y-112454819D02*
X133571428Y-111454819D01*
X133571428Y-111454819D02*
X133476190Y-111597676D01*
X133476190Y-111597676D02*
X133380952Y-111692914D01*
X133380952Y-111692914D02*
X133285714Y-111740533D01*
X134476190Y-111454819D02*
X134571428Y-111454819D01*
X134571428Y-111454819D02*
X134666666Y-111502438D01*
X134666666Y-111502438D02*
X134714285Y-111550057D01*
X134714285Y-111550057D02*
X134761904Y-111645295D01*
X134761904Y-111645295D02*
X134809523Y-111835771D01*
X134809523Y-111835771D02*
X134809523Y-112073866D01*
X134809523Y-112073866D02*
X134761904Y-112264342D01*
X134761904Y-112264342D02*
X134714285Y-112359580D01*
X134714285Y-112359580D02*
X134666666Y-112407200D01*
X134666666Y-112407200D02*
X134571428Y-112454819D01*
X134571428Y-112454819D02*
X134476190Y-112454819D01*
X134476190Y-112454819D02*
X134380952Y-112407200D01*
X134380952Y-112407200D02*
X134333333Y-112359580D01*
X134333333Y-112359580D02*
X134285714Y-112264342D01*
X134285714Y-112264342D02*
X134238095Y-112073866D01*
X134238095Y-112073866D02*
X134238095Y-111835771D01*
X134238095Y-111835771D02*
X134285714Y-111645295D01*
X134285714Y-111645295D02*
X134333333Y-111550057D01*
X134333333Y-111550057D02*
X134380952Y-111502438D01*
X134380952Y-111502438D02*
X134476190Y-111454819D01*
X135238095Y-111788152D02*
X135238095Y-112454819D01*
X135238095Y-111883390D02*
X135285714Y-111835771D01*
X135285714Y-111835771D02*
X135380952Y-111788152D01*
X135380952Y-111788152D02*
X135523809Y-111788152D01*
X135523809Y-111788152D02*
X135619047Y-111835771D01*
X135619047Y-111835771D02*
X135666666Y-111931009D01*
X135666666Y-111931009D02*
X135666666Y-112454819D01*
X135333333Y-68859580D02*
X135285714Y-68907200D01*
X135285714Y-68907200D02*
X135142857Y-68954819D01*
X135142857Y-68954819D02*
X135047619Y-68954819D01*
X135047619Y-68954819D02*
X134904762Y-68907200D01*
X134904762Y-68907200D02*
X134809524Y-68811961D01*
X134809524Y-68811961D02*
X134761905Y-68716723D01*
X134761905Y-68716723D02*
X134714286Y-68526247D01*
X134714286Y-68526247D02*
X134714286Y-68383390D01*
X134714286Y-68383390D02*
X134761905Y-68192914D01*
X134761905Y-68192914D02*
X134809524Y-68097676D01*
X134809524Y-68097676D02*
X134904762Y-68002438D01*
X134904762Y-68002438D02*
X135047619Y-67954819D01*
X135047619Y-67954819D02*
X135142857Y-67954819D01*
X135142857Y-67954819D02*
X135285714Y-68002438D01*
X135285714Y-68002438D02*
X135333333Y-68050057D01*
X136285714Y-68954819D02*
X135714286Y-68954819D01*
X136000000Y-68954819D02*
X136000000Y-67954819D01*
X136000000Y-67954819D02*
X135904762Y-68097676D01*
X135904762Y-68097676D02*
X135809524Y-68192914D01*
X135809524Y-68192914D02*
X135714286Y-68240533D01*
X135288152Y-76238095D02*
X135954819Y-76238095D01*
X134907200Y-76476190D02*
X135621485Y-76714285D01*
X135621485Y-76714285D02*
X135621485Y-76095238D01*
X135288152Y-75285714D02*
X135954819Y-75285714D01*
X135288152Y-75714285D02*
X135811961Y-75714285D01*
X135811961Y-75714285D02*
X135907200Y-75666666D01*
X135907200Y-75666666D02*
X135954819Y-75571428D01*
X135954819Y-75571428D02*
X135954819Y-75428571D01*
X135954819Y-75428571D02*
X135907200Y-75333333D01*
X135907200Y-75333333D02*
X135859580Y-75285714D01*
X134954819Y-74904761D02*
X134954819Y-74238095D01*
X134954819Y-74238095D02*
X135954819Y-74666666D01*
X135738095Y-87449819D02*
X135738095Y-88259342D01*
X135738095Y-88259342D02*
X135785714Y-88354580D01*
X135785714Y-88354580D02*
X135833333Y-88402200D01*
X135833333Y-88402200D02*
X135928571Y-88449819D01*
X135928571Y-88449819D02*
X136119047Y-88449819D01*
X136119047Y-88449819D02*
X136214285Y-88402200D01*
X136214285Y-88402200D02*
X136261904Y-88354580D01*
X136261904Y-88354580D02*
X136309523Y-88259342D01*
X136309523Y-88259342D02*
X136309523Y-87449819D01*
X136738095Y-87545057D02*
X136785714Y-87497438D01*
X136785714Y-87497438D02*
X136880952Y-87449819D01*
X136880952Y-87449819D02*
X137119047Y-87449819D01*
X137119047Y-87449819D02*
X137214285Y-87497438D01*
X137214285Y-87497438D02*
X137261904Y-87545057D01*
X137261904Y-87545057D02*
X137309523Y-87640295D01*
X137309523Y-87640295D02*
X137309523Y-87735533D01*
X137309523Y-87735533D02*
X137261904Y-87878390D01*
X137261904Y-87878390D02*
X136690476Y-88449819D01*
X136690476Y-88449819D02*
X137309523Y-88449819D01*
X130144819Y-101602856D02*
X130144819Y-100936190D01*
X130144819Y-100936190D02*
X131144819Y-101364761D01*
X130478152Y-100126666D02*
X131144819Y-100126666D01*
X130097200Y-100364761D02*
X130811485Y-100602856D01*
X130811485Y-100602856D02*
X130811485Y-99983809D01*
X131144819Y-99126666D02*
X131144819Y-99602856D01*
X131144819Y-99602856D02*
X130144819Y-99602856D01*
X131097200Y-98840951D02*
X131144819Y-98698094D01*
X131144819Y-98698094D02*
X131144819Y-98459999D01*
X131144819Y-98459999D02*
X131097200Y-98364761D01*
X131097200Y-98364761D02*
X131049580Y-98317142D01*
X131049580Y-98317142D02*
X130954342Y-98269523D01*
X130954342Y-98269523D02*
X130859104Y-98269523D01*
X130859104Y-98269523D02*
X130763866Y-98317142D01*
X130763866Y-98317142D02*
X130716247Y-98364761D01*
X130716247Y-98364761D02*
X130668628Y-98459999D01*
X130668628Y-98459999D02*
X130621009Y-98650475D01*
X130621009Y-98650475D02*
X130573390Y-98745713D01*
X130573390Y-98745713D02*
X130525771Y-98793332D01*
X130525771Y-98793332D02*
X130430533Y-98840951D01*
X130430533Y-98840951D02*
X130335295Y-98840951D01*
X130335295Y-98840951D02*
X130240057Y-98793332D01*
X130240057Y-98793332D02*
X130192438Y-98745713D01*
X130192438Y-98745713D02*
X130144819Y-98650475D01*
X130144819Y-98650475D02*
X130144819Y-98412380D01*
X130144819Y-98412380D02*
X130192438Y-98269523D01*
X130144819Y-97650475D02*
X130144819Y-97555237D01*
X130144819Y-97555237D02*
X130192438Y-97459999D01*
X130192438Y-97459999D02*
X130240057Y-97412380D01*
X130240057Y-97412380D02*
X130335295Y-97364761D01*
X130335295Y-97364761D02*
X130525771Y-97317142D01*
X130525771Y-97317142D02*
X130763866Y-97317142D01*
X130763866Y-97317142D02*
X130954342Y-97364761D01*
X130954342Y-97364761D02*
X131049580Y-97412380D01*
X131049580Y-97412380D02*
X131097200Y-97459999D01*
X131097200Y-97459999D02*
X131144819Y-97555237D01*
X131144819Y-97555237D02*
X131144819Y-97650475D01*
X131144819Y-97650475D02*
X131097200Y-97745713D01*
X131097200Y-97745713D02*
X131049580Y-97793332D01*
X131049580Y-97793332D02*
X130954342Y-97840951D01*
X130954342Y-97840951D02*
X130763866Y-97888570D01*
X130763866Y-97888570D02*
X130525771Y-97888570D01*
X130525771Y-97888570D02*
X130335295Y-97840951D01*
X130335295Y-97840951D02*
X130240057Y-97793332D01*
X130240057Y-97793332D02*
X130192438Y-97745713D01*
X130192438Y-97745713D02*
X130144819Y-97650475D01*
X130144819Y-96698094D02*
X130144819Y-96602856D01*
X130144819Y-96602856D02*
X130192438Y-96507618D01*
X130192438Y-96507618D02*
X130240057Y-96459999D01*
X130240057Y-96459999D02*
X130335295Y-96412380D01*
X130335295Y-96412380D02*
X130525771Y-96364761D01*
X130525771Y-96364761D02*
X130763866Y-96364761D01*
X130763866Y-96364761D02*
X130954342Y-96412380D01*
X130954342Y-96412380D02*
X131049580Y-96459999D01*
X131049580Y-96459999D02*
X131097200Y-96507618D01*
X131097200Y-96507618D02*
X131144819Y-96602856D01*
X131144819Y-96602856D02*
X131144819Y-96698094D01*
X131144819Y-96698094D02*
X131097200Y-96793332D01*
X131097200Y-96793332D02*
X131049580Y-96840951D01*
X131049580Y-96840951D02*
X130954342Y-96888570D01*
X130954342Y-96888570D02*
X130763866Y-96936189D01*
X130763866Y-96936189D02*
X130525771Y-96936189D01*
X130525771Y-96936189D02*
X130335295Y-96888570D01*
X130335295Y-96888570D02*
X130240057Y-96840951D01*
X130240057Y-96840951D02*
X130192438Y-96793332D01*
X130192438Y-96793332D02*
X130144819Y-96698094D01*
X141761905Y-85954819D02*
X141761905Y-84954819D01*
X141761905Y-84954819D02*
X142000000Y-84954819D01*
X142000000Y-84954819D02*
X142142857Y-85002438D01*
X142142857Y-85002438D02*
X142238095Y-85097676D01*
X142238095Y-85097676D02*
X142285714Y-85192914D01*
X142285714Y-85192914D02*
X142333333Y-85383390D01*
X142333333Y-85383390D02*
X142333333Y-85526247D01*
X142333333Y-85526247D02*
X142285714Y-85716723D01*
X142285714Y-85716723D02*
X142238095Y-85811961D01*
X142238095Y-85811961D02*
X142142857Y-85907200D01*
X142142857Y-85907200D02*
X142000000Y-85954819D01*
X142000000Y-85954819D02*
X141761905Y-85954819D01*
X143285714Y-85954819D02*
X142714286Y-85954819D01*
X143000000Y-85954819D02*
X143000000Y-84954819D01*
X143000000Y-84954819D02*
X142904762Y-85097676D01*
X142904762Y-85097676D02*
X142809524Y-85192914D01*
X142809524Y-85192914D02*
X142714286Y-85240533D01*
X139961009Y-96508571D02*
X140008628Y-96365714D01*
X140008628Y-96365714D02*
X140056247Y-96318095D01*
X140056247Y-96318095D02*
X140151485Y-96270476D01*
X140151485Y-96270476D02*
X140294342Y-96270476D01*
X140294342Y-96270476D02*
X140389580Y-96318095D01*
X140389580Y-96318095D02*
X140437200Y-96365714D01*
X140437200Y-96365714D02*
X140484819Y-96460952D01*
X140484819Y-96460952D02*
X140484819Y-96841904D01*
X140484819Y-96841904D02*
X139484819Y-96841904D01*
X139484819Y-96841904D02*
X139484819Y-96508571D01*
X139484819Y-96508571D02*
X139532438Y-96413333D01*
X139532438Y-96413333D02*
X139580057Y-96365714D01*
X139580057Y-96365714D02*
X139675295Y-96318095D01*
X139675295Y-96318095D02*
X139770533Y-96318095D01*
X139770533Y-96318095D02*
X139865771Y-96365714D01*
X139865771Y-96365714D02*
X139913390Y-96413333D01*
X139913390Y-96413333D02*
X139961009Y-96508571D01*
X139961009Y-96508571D02*
X139961009Y-96841904D01*
X139484819Y-95937142D02*
X140484819Y-95270476D01*
X139484819Y-95270476D02*
X140484819Y-95937142D01*
X139484819Y-94984761D02*
X140484819Y-94746666D01*
X140484819Y-94746666D02*
X139770533Y-94556190D01*
X139770533Y-94556190D02*
X140484819Y-94365714D01*
X140484819Y-94365714D02*
X139484819Y-94127619D01*
X139484819Y-93556190D02*
X139484819Y-93460952D01*
X139484819Y-93460952D02*
X139532438Y-93365714D01*
X139532438Y-93365714D02*
X139580057Y-93318095D01*
X139580057Y-93318095D02*
X139675295Y-93270476D01*
X139675295Y-93270476D02*
X139865771Y-93222857D01*
X139865771Y-93222857D02*
X140103866Y-93222857D01*
X140103866Y-93222857D02*
X140294342Y-93270476D01*
X140294342Y-93270476D02*
X140389580Y-93318095D01*
X140389580Y-93318095D02*
X140437200Y-93365714D01*
X140437200Y-93365714D02*
X140484819Y-93460952D01*
X140484819Y-93460952D02*
X140484819Y-93556190D01*
X140484819Y-93556190D02*
X140437200Y-93651428D01*
X140437200Y-93651428D02*
X140389580Y-93699047D01*
X140389580Y-93699047D02*
X140294342Y-93746666D01*
X140294342Y-93746666D02*
X140103866Y-93794285D01*
X140103866Y-93794285D02*
X139865771Y-93794285D01*
X139865771Y-93794285D02*
X139675295Y-93746666D01*
X139675295Y-93746666D02*
X139580057Y-93699047D01*
X139580057Y-93699047D02*
X139532438Y-93651428D01*
X139532438Y-93651428D02*
X139484819Y-93556190D01*
X139818152Y-92365714D02*
X140484819Y-92365714D01*
X139437200Y-92603809D02*
X140151485Y-92841904D01*
X140151485Y-92841904D02*
X140151485Y-92222857D01*
X140103866Y-91841904D02*
X140103866Y-91080000D01*
X139484819Y-90127619D02*
X139484819Y-90603809D01*
X139484819Y-90603809D02*
X139961009Y-90651428D01*
X139961009Y-90651428D02*
X139913390Y-90603809D01*
X139913390Y-90603809D02*
X139865771Y-90508571D01*
X139865771Y-90508571D02*
X139865771Y-90270476D01*
X139865771Y-90270476D02*
X139913390Y-90175238D01*
X139913390Y-90175238D02*
X139961009Y-90127619D01*
X139961009Y-90127619D02*
X140056247Y-90080000D01*
X140056247Y-90080000D02*
X140294342Y-90080000D01*
X140294342Y-90080000D02*
X140389580Y-90127619D01*
X140389580Y-90127619D02*
X140437200Y-90175238D01*
X140437200Y-90175238D02*
X140484819Y-90270476D01*
X140484819Y-90270476D02*
X140484819Y-90508571D01*
X140484819Y-90508571D02*
X140437200Y-90603809D01*
X140437200Y-90603809D02*
X140389580Y-90651428D01*
X139484819Y-89794285D02*
X140484819Y-89460952D01*
X140484819Y-89460952D02*
X139484819Y-89127619D01*
X139913390Y-88651428D02*
X139865771Y-88746666D01*
X139865771Y-88746666D02*
X139818152Y-88794285D01*
X139818152Y-88794285D02*
X139722914Y-88841904D01*
X139722914Y-88841904D02*
X139675295Y-88841904D01*
X139675295Y-88841904D02*
X139580057Y-88794285D01*
X139580057Y-88794285D02*
X139532438Y-88746666D01*
X139532438Y-88746666D02*
X139484819Y-88651428D01*
X139484819Y-88651428D02*
X139484819Y-88460952D01*
X139484819Y-88460952D02*
X139532438Y-88365714D01*
X139532438Y-88365714D02*
X139580057Y-88318095D01*
X139580057Y-88318095D02*
X139675295Y-88270476D01*
X139675295Y-88270476D02*
X139722914Y-88270476D01*
X139722914Y-88270476D02*
X139818152Y-88318095D01*
X139818152Y-88318095D02*
X139865771Y-88365714D01*
X139865771Y-88365714D02*
X139913390Y-88460952D01*
X139913390Y-88460952D02*
X139913390Y-88651428D01*
X139913390Y-88651428D02*
X139961009Y-88746666D01*
X139961009Y-88746666D02*
X140008628Y-88794285D01*
X140008628Y-88794285D02*
X140103866Y-88841904D01*
X140103866Y-88841904D02*
X140294342Y-88841904D01*
X140294342Y-88841904D02*
X140389580Y-88794285D01*
X140389580Y-88794285D02*
X140437200Y-88746666D01*
X140437200Y-88746666D02*
X140484819Y-88651428D01*
X140484819Y-88651428D02*
X140484819Y-88460952D01*
X140484819Y-88460952D02*
X140437200Y-88365714D01*
X140437200Y-88365714D02*
X140389580Y-88318095D01*
X140389580Y-88318095D02*
X140294342Y-88270476D01*
X140294342Y-88270476D02*
X140103866Y-88270476D01*
X140103866Y-88270476D02*
X140008628Y-88318095D01*
X140008628Y-88318095D02*
X139961009Y-88365714D01*
X139961009Y-88365714D02*
X139913390Y-88460952D01*
X109333333Y-80439580D02*
X109285714Y-80487200D01*
X109285714Y-80487200D02*
X109142857Y-80534819D01*
X109142857Y-80534819D02*
X109047619Y-80534819D01*
X109047619Y-80534819D02*
X108904762Y-80487200D01*
X108904762Y-80487200D02*
X108809524Y-80391961D01*
X108809524Y-80391961D02*
X108761905Y-80296723D01*
X108761905Y-80296723D02*
X108714286Y-80106247D01*
X108714286Y-80106247D02*
X108714286Y-79963390D01*
X108714286Y-79963390D02*
X108761905Y-79772914D01*
X108761905Y-79772914D02*
X108809524Y-79677676D01*
X108809524Y-79677676D02*
X108904762Y-79582438D01*
X108904762Y-79582438D02*
X109047619Y-79534819D01*
X109047619Y-79534819D02*
X109142857Y-79534819D01*
X109142857Y-79534819D02*
X109285714Y-79582438D01*
X109285714Y-79582438D02*
X109333333Y-79630057D01*
X110190476Y-79534819D02*
X110000000Y-79534819D01*
X110000000Y-79534819D02*
X109904762Y-79582438D01*
X109904762Y-79582438D02*
X109857143Y-79630057D01*
X109857143Y-79630057D02*
X109761905Y-79772914D01*
X109761905Y-79772914D02*
X109714286Y-79963390D01*
X109714286Y-79963390D02*
X109714286Y-80344342D01*
X109714286Y-80344342D02*
X109761905Y-80439580D01*
X109761905Y-80439580D02*
X109809524Y-80487200D01*
X109809524Y-80487200D02*
X109904762Y-80534819D01*
X109904762Y-80534819D02*
X110095238Y-80534819D01*
X110095238Y-80534819D02*
X110190476Y-80487200D01*
X110190476Y-80487200D02*
X110238095Y-80439580D01*
X110238095Y-80439580D02*
X110285714Y-80344342D01*
X110285714Y-80344342D02*
X110285714Y-80106247D01*
X110285714Y-80106247D02*
X110238095Y-80011009D01*
X110238095Y-80011009D02*
X110190476Y-79963390D01*
X110190476Y-79963390D02*
X110095238Y-79915771D01*
X110095238Y-79915771D02*
X109904762Y-79915771D01*
X109904762Y-79915771D02*
X109809524Y-79963390D01*
X109809524Y-79963390D02*
X109761905Y-80011009D01*
X109761905Y-80011009D02*
X109714286Y-80106247D01*
X108380952Y-82954819D02*
X107809524Y-82954819D01*
X108095238Y-82954819D02*
X108095238Y-81954819D01*
X108095238Y-81954819D02*
X108000000Y-82097676D01*
X108000000Y-82097676D02*
X107904762Y-82192914D01*
X107904762Y-82192914D02*
X107809524Y-82240533D01*
X109000000Y-81954819D02*
X109095238Y-81954819D01*
X109095238Y-81954819D02*
X109190476Y-82002438D01*
X109190476Y-82002438D02*
X109238095Y-82050057D01*
X109238095Y-82050057D02*
X109285714Y-82145295D01*
X109285714Y-82145295D02*
X109333333Y-82335771D01*
X109333333Y-82335771D02*
X109333333Y-82573866D01*
X109333333Y-82573866D02*
X109285714Y-82764342D01*
X109285714Y-82764342D02*
X109238095Y-82859580D01*
X109238095Y-82859580D02*
X109190476Y-82907200D01*
X109190476Y-82907200D02*
X109095238Y-82954819D01*
X109095238Y-82954819D02*
X109000000Y-82954819D01*
X109000000Y-82954819D02*
X108904762Y-82907200D01*
X108904762Y-82907200D02*
X108857143Y-82859580D01*
X108857143Y-82859580D02*
X108809524Y-82764342D01*
X108809524Y-82764342D02*
X108761905Y-82573866D01*
X108761905Y-82573866D02*
X108761905Y-82335771D01*
X108761905Y-82335771D02*
X108809524Y-82145295D01*
X108809524Y-82145295D02*
X108857143Y-82050057D01*
X108857143Y-82050057D02*
X108904762Y-82002438D01*
X108904762Y-82002438D02*
X109000000Y-81954819D01*
X109952381Y-81954819D02*
X110047619Y-81954819D01*
X110047619Y-81954819D02*
X110142857Y-82002438D01*
X110142857Y-82002438D02*
X110190476Y-82050057D01*
X110190476Y-82050057D02*
X110238095Y-82145295D01*
X110238095Y-82145295D02*
X110285714Y-82335771D01*
X110285714Y-82335771D02*
X110285714Y-82573866D01*
X110285714Y-82573866D02*
X110238095Y-82764342D01*
X110238095Y-82764342D02*
X110190476Y-82859580D01*
X110190476Y-82859580D02*
X110142857Y-82907200D01*
X110142857Y-82907200D02*
X110047619Y-82954819D01*
X110047619Y-82954819D02*
X109952381Y-82954819D01*
X109952381Y-82954819D02*
X109857143Y-82907200D01*
X109857143Y-82907200D02*
X109809524Y-82859580D01*
X109809524Y-82859580D02*
X109761905Y-82764342D01*
X109761905Y-82764342D02*
X109714286Y-82573866D01*
X109714286Y-82573866D02*
X109714286Y-82335771D01*
X109714286Y-82335771D02*
X109761905Y-82145295D01*
X109761905Y-82145295D02*
X109809524Y-82050057D01*
X109809524Y-82050057D02*
X109857143Y-82002438D01*
X109857143Y-82002438D02*
X109952381Y-81954819D01*
X110714286Y-82288152D02*
X110714286Y-82954819D01*
X110714286Y-82383390D02*
X110761905Y-82335771D01*
X110761905Y-82335771D02*
X110857143Y-82288152D01*
X110857143Y-82288152D02*
X111000000Y-82288152D01*
X111000000Y-82288152D02*
X111095238Y-82335771D01*
X111095238Y-82335771D02*
X111142857Y-82431009D01*
X111142857Y-82431009D02*
X111142857Y-82954819D01*
X117023809Y-86478628D02*
X117023809Y-86954819D01*
X116690476Y-85954819D02*
X117023809Y-86478628D01*
X117023809Y-86478628D02*
X117357142Y-85954819D01*
X118214285Y-86954819D02*
X117642857Y-86954819D01*
X117928571Y-86954819D02*
X117928571Y-85954819D01*
X117928571Y-85954819D02*
X117833333Y-86097676D01*
X117833333Y-86097676D02*
X117738095Y-86192914D01*
X117738095Y-86192914D02*
X117642857Y-86240533D01*
X109954819Y-105167618D02*
X108954819Y-105167618D01*
X108954819Y-105167618D02*
X108954819Y-104929523D01*
X108954819Y-104929523D02*
X109002438Y-104786666D01*
X109002438Y-104786666D02*
X109097676Y-104691428D01*
X109097676Y-104691428D02*
X109192914Y-104643809D01*
X109192914Y-104643809D02*
X109383390Y-104596190D01*
X109383390Y-104596190D02*
X109526247Y-104596190D01*
X109526247Y-104596190D02*
X109716723Y-104643809D01*
X109716723Y-104643809D02*
X109811961Y-104691428D01*
X109811961Y-104691428D02*
X109907200Y-104786666D01*
X109907200Y-104786666D02*
X109954819Y-104929523D01*
X109954819Y-104929523D02*
X109954819Y-105167618D01*
X109954819Y-104167618D02*
X108954819Y-104167618D01*
X109954819Y-103215238D02*
X109954819Y-103691428D01*
X109954819Y-103691428D02*
X108954819Y-103691428D01*
X109573866Y-102881904D02*
X109573866Y-102120000D01*
X109954819Y-101120000D02*
X109954819Y-101691428D01*
X109954819Y-101405714D02*
X108954819Y-101405714D01*
X108954819Y-101405714D02*
X109097676Y-101500952D01*
X109097676Y-101500952D02*
X109192914Y-101596190D01*
X109192914Y-101596190D02*
X109240533Y-101691428D01*
X109288152Y-100262857D02*
X109954819Y-100262857D01*
X108907200Y-100500952D02*
X109621485Y-100739047D01*
X109621485Y-100739047D02*
X109621485Y-100120000D01*
X108954819Y-99119999D02*
X109954819Y-98786666D01*
X109954819Y-98786666D02*
X108954819Y-98453333D01*
X109859580Y-97548571D02*
X109907200Y-97596190D01*
X109907200Y-97596190D02*
X109954819Y-97739047D01*
X109954819Y-97739047D02*
X109954819Y-97834285D01*
X109954819Y-97834285D02*
X109907200Y-97977142D01*
X109907200Y-97977142D02*
X109811961Y-98072380D01*
X109811961Y-98072380D02*
X109716723Y-98119999D01*
X109716723Y-98119999D02*
X109526247Y-98167618D01*
X109526247Y-98167618D02*
X109383390Y-98167618D01*
X109383390Y-98167618D02*
X109192914Y-98119999D01*
X109192914Y-98119999D02*
X109097676Y-98072380D01*
X109097676Y-98072380D02*
X109002438Y-97977142D01*
X109002438Y-97977142D02*
X108954819Y-97834285D01*
X108954819Y-97834285D02*
X108954819Y-97739047D01*
X108954819Y-97739047D02*
X109002438Y-97596190D01*
X109002438Y-97596190D02*
X109050057Y-97548571D01*
X108954819Y-97215237D02*
X109954819Y-96548571D01*
X108954819Y-96548571D02*
X109954819Y-97215237D01*
X108954819Y-95977142D02*
X108954819Y-95786666D01*
X108954819Y-95786666D02*
X109002438Y-95691428D01*
X109002438Y-95691428D02*
X109097676Y-95596190D01*
X109097676Y-95596190D02*
X109288152Y-95548571D01*
X109288152Y-95548571D02*
X109621485Y-95548571D01*
X109621485Y-95548571D02*
X109811961Y-95596190D01*
X109811961Y-95596190D02*
X109907200Y-95691428D01*
X109907200Y-95691428D02*
X109954819Y-95786666D01*
X109954819Y-95786666D02*
X109954819Y-95977142D01*
X109954819Y-95977142D02*
X109907200Y-96072380D01*
X109907200Y-96072380D02*
X109811961Y-96167618D01*
X109811961Y-96167618D02*
X109621485Y-96215237D01*
X109621485Y-96215237D02*
X109288152Y-96215237D01*
X109288152Y-96215237D02*
X109097676Y-96167618D01*
X109097676Y-96167618D02*
X109002438Y-96072380D01*
X109002438Y-96072380D02*
X108954819Y-95977142D01*
X109954819Y-93834285D02*
X109954819Y-94405713D01*
X109954819Y-94119999D02*
X108954819Y-94119999D01*
X108954819Y-94119999D02*
X109097676Y-94215237D01*
X109097676Y-94215237D02*
X109192914Y-94310475D01*
X109192914Y-94310475D02*
X109240533Y-94405713D01*
X108954819Y-93215237D02*
X108954819Y-93119999D01*
X108954819Y-93119999D02*
X109002438Y-93024761D01*
X109002438Y-93024761D02*
X109050057Y-92977142D01*
X109050057Y-92977142D02*
X109145295Y-92929523D01*
X109145295Y-92929523D02*
X109335771Y-92881904D01*
X109335771Y-92881904D02*
X109573866Y-92881904D01*
X109573866Y-92881904D02*
X109764342Y-92929523D01*
X109764342Y-92929523D02*
X109859580Y-92977142D01*
X109859580Y-92977142D02*
X109907200Y-93024761D01*
X109907200Y-93024761D02*
X109954819Y-93119999D01*
X109954819Y-93119999D02*
X109954819Y-93215237D01*
X109954819Y-93215237D02*
X109907200Y-93310475D01*
X109907200Y-93310475D02*
X109859580Y-93358094D01*
X109859580Y-93358094D02*
X109764342Y-93405713D01*
X109764342Y-93405713D02*
X109573866Y-93453332D01*
X109573866Y-93453332D02*
X109335771Y-93453332D01*
X109335771Y-93453332D02*
X109145295Y-93405713D01*
X109145295Y-93405713D02*
X109050057Y-93358094D01*
X109050057Y-93358094D02*
X109002438Y-93310475D01*
X109002438Y-93310475D02*
X108954819Y-93215237D01*
X109954819Y-92453332D02*
X108954819Y-92453332D01*
X108954819Y-92453332D02*
X109669104Y-92119999D01*
X109669104Y-92119999D02*
X108954819Y-91786666D01*
X108954819Y-91786666D02*
X109954819Y-91786666D01*
X109954819Y-91310475D02*
X108954819Y-91310475D01*
X109954819Y-90881904D02*
X109431009Y-90881904D01*
X109431009Y-90881904D02*
X109335771Y-90929523D01*
X109335771Y-90929523D02*
X109288152Y-91024761D01*
X109288152Y-91024761D02*
X109288152Y-91167618D01*
X109288152Y-91167618D02*
X109335771Y-91262856D01*
X109335771Y-91262856D02*
X109383390Y-91310475D01*
X109288152Y-90500951D02*
X109288152Y-89977142D01*
X109288152Y-89977142D02*
X109954819Y-90500951D01*
X109954819Y-90500951D02*
X109954819Y-89977142D01*
X156166666Y-82931009D02*
X155833333Y-82931009D01*
X155833333Y-83454819D02*
X155833333Y-82454819D01*
X155833333Y-82454819D02*
X156309523Y-82454819D01*
X157214285Y-83454819D02*
X156642857Y-83454819D01*
X156928571Y-83454819D02*
X156928571Y-82454819D01*
X156928571Y-82454819D02*
X156833333Y-82597676D01*
X156833333Y-82597676D02*
X156738095Y-82692914D01*
X156738095Y-82692914D02*
X156642857Y-82740533D01*
X142785713Y-80454819D02*
X142309523Y-80454819D01*
X142309523Y-80454819D02*
X142261904Y-80931009D01*
X142261904Y-80931009D02*
X142309523Y-80883390D01*
X142309523Y-80883390D02*
X142404761Y-80835771D01*
X142404761Y-80835771D02*
X142642856Y-80835771D01*
X142642856Y-80835771D02*
X142738094Y-80883390D01*
X142738094Y-80883390D02*
X142785713Y-80931009D01*
X142785713Y-80931009D02*
X142833332Y-81026247D01*
X142833332Y-81026247D02*
X142833332Y-81264342D01*
X142833332Y-81264342D02*
X142785713Y-81359580D01*
X142785713Y-81359580D02*
X142738094Y-81407200D01*
X142738094Y-81407200D02*
X142642856Y-81454819D01*
X142642856Y-81454819D02*
X142404761Y-81454819D01*
X142404761Y-81454819D02*
X142309523Y-81407200D01*
X142309523Y-81407200D02*
X142261904Y-81359580D01*
X143261904Y-81454819D02*
X143261904Y-80788152D01*
X143261904Y-80883390D02*
X143309523Y-80835771D01*
X143309523Y-80835771D02*
X143404761Y-80788152D01*
X143404761Y-80788152D02*
X143547618Y-80788152D01*
X143547618Y-80788152D02*
X143642856Y-80835771D01*
X143642856Y-80835771D02*
X143690475Y-80931009D01*
X143690475Y-80931009D02*
X143690475Y-81454819D01*
X143690475Y-80931009D02*
X143738094Y-80835771D01*
X143738094Y-80835771D02*
X143833332Y-80788152D01*
X143833332Y-80788152D02*
X143976189Y-80788152D01*
X143976189Y-80788152D02*
X144071428Y-80835771D01*
X144071428Y-80835771D02*
X144119047Y-80931009D01*
X144119047Y-80931009D02*
X144119047Y-81454819D01*
X144595237Y-81454819D02*
X144595237Y-80788152D01*
X144595237Y-80883390D02*
X144642856Y-80835771D01*
X144642856Y-80835771D02*
X144738094Y-80788152D01*
X144738094Y-80788152D02*
X144880951Y-80788152D01*
X144880951Y-80788152D02*
X144976189Y-80835771D01*
X144976189Y-80835771D02*
X145023808Y-80931009D01*
X145023808Y-80931009D02*
X145023808Y-81454819D01*
X145023808Y-80931009D02*
X145071427Y-80835771D01*
X145071427Y-80835771D02*
X145166665Y-80788152D01*
X145166665Y-80788152D02*
X145309522Y-80788152D01*
X145309522Y-80788152D02*
X145404761Y-80835771D01*
X145404761Y-80835771D02*
X145452380Y-80931009D01*
X145452380Y-80931009D02*
X145452380Y-81454819D01*
X146690475Y-81454819D02*
X146690475Y-80454819D01*
X146690475Y-80454819D02*
X147071427Y-80454819D01*
X147071427Y-80454819D02*
X147166665Y-80502438D01*
X147166665Y-80502438D02*
X147214284Y-80550057D01*
X147214284Y-80550057D02*
X147261903Y-80645295D01*
X147261903Y-80645295D02*
X147261903Y-80788152D01*
X147261903Y-80788152D02*
X147214284Y-80883390D01*
X147214284Y-80883390D02*
X147166665Y-80931009D01*
X147166665Y-80931009D02*
X147071427Y-80978628D01*
X147071427Y-80978628D02*
X146690475Y-80978628D01*
X148261903Y-81359580D02*
X148214284Y-81407200D01*
X148214284Y-81407200D02*
X148071427Y-81454819D01*
X148071427Y-81454819D02*
X147976189Y-81454819D01*
X147976189Y-81454819D02*
X147833332Y-81407200D01*
X147833332Y-81407200D02*
X147738094Y-81311961D01*
X147738094Y-81311961D02*
X147690475Y-81216723D01*
X147690475Y-81216723D02*
X147642856Y-81026247D01*
X147642856Y-81026247D02*
X147642856Y-80883390D01*
X147642856Y-80883390D02*
X147690475Y-80692914D01*
X147690475Y-80692914D02*
X147738094Y-80597676D01*
X147738094Y-80597676D02*
X147833332Y-80502438D01*
X147833332Y-80502438D02*
X147976189Y-80454819D01*
X147976189Y-80454819D02*
X148071427Y-80454819D01*
X148071427Y-80454819D02*
X148214284Y-80502438D01*
X148214284Y-80502438D02*
X148261903Y-80550057D01*
X149023808Y-80931009D02*
X149166665Y-80978628D01*
X149166665Y-80978628D02*
X149214284Y-81026247D01*
X149214284Y-81026247D02*
X149261903Y-81121485D01*
X149261903Y-81121485D02*
X149261903Y-81264342D01*
X149261903Y-81264342D02*
X149214284Y-81359580D01*
X149214284Y-81359580D02*
X149166665Y-81407200D01*
X149166665Y-81407200D02*
X149071427Y-81454819D01*
X149071427Y-81454819D02*
X148690475Y-81454819D01*
X148690475Y-81454819D02*
X148690475Y-80454819D01*
X148690475Y-80454819D02*
X149023808Y-80454819D01*
X149023808Y-80454819D02*
X149119046Y-80502438D01*
X149119046Y-80502438D02*
X149166665Y-80550057D01*
X149166665Y-80550057D02*
X149214284Y-80645295D01*
X149214284Y-80645295D02*
X149214284Y-80740533D01*
X149214284Y-80740533D02*
X149166665Y-80835771D01*
X149166665Y-80835771D02*
X149119046Y-80883390D01*
X149119046Y-80883390D02*
X149023808Y-80931009D01*
X149023808Y-80931009D02*
X148690475Y-80931009D01*
X150309523Y-80788152D02*
X150690475Y-80788152D01*
X150452380Y-81454819D02*
X150452380Y-80597676D01*
X150452380Y-80597676D02*
X150499999Y-80502438D01*
X150499999Y-80502438D02*
X150595237Y-80454819D01*
X150595237Y-80454819D02*
X150690475Y-80454819D01*
X151452380Y-80788152D02*
X151452380Y-81454819D01*
X151023809Y-80788152D02*
X151023809Y-81311961D01*
X151023809Y-81311961D02*
X151071428Y-81407200D01*
X151071428Y-81407200D02*
X151166666Y-81454819D01*
X151166666Y-81454819D02*
X151309523Y-81454819D01*
X151309523Y-81454819D02*
X151404761Y-81407200D01*
X151404761Y-81407200D02*
X151452380Y-81359580D01*
X151880952Y-81407200D02*
X151976190Y-81454819D01*
X151976190Y-81454819D02*
X152166666Y-81454819D01*
X152166666Y-81454819D02*
X152261904Y-81407200D01*
X152261904Y-81407200D02*
X152309523Y-81311961D01*
X152309523Y-81311961D02*
X152309523Y-81264342D01*
X152309523Y-81264342D02*
X152261904Y-81169104D01*
X152261904Y-81169104D02*
X152166666Y-81121485D01*
X152166666Y-81121485D02*
X152023809Y-81121485D01*
X152023809Y-81121485D02*
X151928571Y-81073866D01*
X151928571Y-81073866D02*
X151880952Y-80978628D01*
X151880952Y-80978628D02*
X151880952Y-80931009D01*
X151880952Y-80931009D02*
X151928571Y-80835771D01*
X151928571Y-80835771D02*
X152023809Y-80788152D01*
X152023809Y-80788152D02*
X152166666Y-80788152D01*
X152166666Y-80788152D02*
X152261904Y-80835771D01*
X153119047Y-81407200D02*
X153023809Y-81454819D01*
X153023809Y-81454819D02*
X152833333Y-81454819D01*
X152833333Y-81454819D02*
X152738095Y-81407200D01*
X152738095Y-81407200D02*
X152690476Y-81311961D01*
X152690476Y-81311961D02*
X152690476Y-80931009D01*
X152690476Y-80931009D02*
X152738095Y-80835771D01*
X152738095Y-80835771D02*
X152833333Y-80788152D01*
X152833333Y-80788152D02*
X153023809Y-80788152D01*
X153023809Y-80788152D02*
X153119047Y-80835771D01*
X153119047Y-80835771D02*
X153166666Y-80931009D01*
X153166666Y-80931009D02*
X153166666Y-81026247D01*
X153166666Y-81026247D02*
X152690476Y-81121485D01*
X154214286Y-80454819D02*
X154785714Y-80454819D01*
X154500000Y-81454819D02*
X154500000Y-80454819D01*
X155071429Y-80550057D02*
X155119048Y-80502438D01*
X155119048Y-80502438D02*
X155214286Y-80454819D01*
X155214286Y-80454819D02*
X155452381Y-80454819D01*
X155452381Y-80454819D02*
X155547619Y-80502438D01*
X155547619Y-80502438D02*
X155595238Y-80550057D01*
X155595238Y-80550057D02*
X155642857Y-80645295D01*
X155642857Y-80645295D02*
X155642857Y-80740533D01*
X155642857Y-80740533D02*
X155595238Y-80883390D01*
X155595238Y-80883390D02*
X155023810Y-81454819D01*
X155023810Y-81454819D02*
X155642857Y-81454819D01*
X156547619Y-80454819D02*
X156071429Y-80454819D01*
X156071429Y-80454819D02*
X156023810Y-80931009D01*
X156023810Y-80931009D02*
X156071429Y-80883390D01*
X156071429Y-80883390D02*
X156166667Y-80835771D01*
X156166667Y-80835771D02*
X156404762Y-80835771D01*
X156404762Y-80835771D02*
X156500000Y-80883390D01*
X156500000Y-80883390D02*
X156547619Y-80931009D01*
X156547619Y-80931009D02*
X156595238Y-81026247D01*
X156595238Y-81026247D02*
X156595238Y-81264342D01*
X156595238Y-81264342D02*
X156547619Y-81359580D01*
X156547619Y-81359580D02*
X156500000Y-81407200D01*
X156500000Y-81407200D02*
X156404762Y-81454819D01*
X156404762Y-81454819D02*
X156166667Y-81454819D01*
X156166667Y-81454819D02*
X156071429Y-81407200D01*
X156071429Y-81407200D02*
X156023810Y-81359580D01*
X157214286Y-80454819D02*
X157309524Y-80454819D01*
X157309524Y-80454819D02*
X157404762Y-80502438D01*
X157404762Y-80502438D02*
X157452381Y-80550057D01*
X157452381Y-80550057D02*
X157500000Y-80645295D01*
X157500000Y-80645295D02*
X157547619Y-80835771D01*
X157547619Y-80835771D02*
X157547619Y-81073866D01*
X157547619Y-81073866D02*
X157500000Y-81264342D01*
X157500000Y-81264342D02*
X157452381Y-81359580D01*
X157452381Y-81359580D02*
X157404762Y-81407200D01*
X157404762Y-81407200D02*
X157309524Y-81454819D01*
X157309524Y-81454819D02*
X157214286Y-81454819D01*
X157214286Y-81454819D02*
X157119048Y-81407200D01*
X157119048Y-81407200D02*
X157071429Y-81359580D01*
X157071429Y-81359580D02*
X157023810Y-81264342D01*
X157023810Y-81264342D02*
X156976191Y-81073866D01*
X156976191Y-81073866D02*
X156976191Y-80835771D01*
X156976191Y-80835771D02*
X157023810Y-80645295D01*
X157023810Y-80645295D02*
X157071429Y-80550057D01*
X157071429Y-80550057D02*
X157119048Y-80502438D01*
X157119048Y-80502438D02*
X157214286Y-80454819D01*
X157976191Y-81454819D02*
X157976191Y-80788152D01*
X157976191Y-80883390D02*
X158023810Y-80835771D01*
X158023810Y-80835771D02*
X158119048Y-80788152D01*
X158119048Y-80788152D02*
X158261905Y-80788152D01*
X158261905Y-80788152D02*
X158357143Y-80835771D01*
X158357143Y-80835771D02*
X158404762Y-80931009D01*
X158404762Y-80931009D02*
X158404762Y-81454819D01*
X158404762Y-80931009D02*
X158452381Y-80835771D01*
X158452381Y-80835771D02*
X158547619Y-80788152D01*
X158547619Y-80788152D02*
X158690476Y-80788152D01*
X158690476Y-80788152D02*
X158785715Y-80835771D01*
X158785715Y-80835771D02*
X158833334Y-80931009D01*
X158833334Y-80931009D02*
X158833334Y-81454819D01*
X159261905Y-81169104D02*
X159738095Y-81169104D01*
X159166667Y-81454819D02*
X159500000Y-80454819D01*
X159500000Y-80454819D02*
X159833333Y-81454819D01*
X163534819Y-73801904D02*
X164344342Y-73801904D01*
X164344342Y-73801904D02*
X164439580Y-73754285D01*
X164439580Y-73754285D02*
X164487200Y-73706666D01*
X164487200Y-73706666D02*
X164534819Y-73611428D01*
X164534819Y-73611428D02*
X164534819Y-73420952D01*
X164534819Y-73420952D02*
X164487200Y-73325714D01*
X164487200Y-73325714D02*
X164439580Y-73278095D01*
X164439580Y-73278095D02*
X164344342Y-73230476D01*
X164344342Y-73230476D02*
X163534819Y-73230476D01*
X164534819Y-72230476D02*
X164534819Y-72801904D01*
X164534819Y-72516190D02*
X163534819Y-72516190D01*
X163534819Y-72516190D02*
X163677676Y-72611428D01*
X163677676Y-72611428D02*
X163772914Y-72706666D01*
X163772914Y-72706666D02*
X163820533Y-72801904D01*
X141954819Y-77920952D02*
X141954819Y-78397142D01*
X141954819Y-78397142D02*
X140954819Y-78397142D01*
X141954819Y-77587618D02*
X140954819Y-77587618D01*
X140954819Y-77587618D02*
X141669104Y-77254285D01*
X141669104Y-77254285D02*
X140954819Y-76920952D01*
X140954819Y-76920952D02*
X141954819Y-76920952D01*
X140954819Y-76539999D02*
X140954819Y-75873333D01*
X140954819Y-75873333D02*
X141954819Y-76301904D01*
X141383390Y-75349523D02*
X141335771Y-75444761D01*
X141335771Y-75444761D02*
X141288152Y-75492380D01*
X141288152Y-75492380D02*
X141192914Y-75539999D01*
X141192914Y-75539999D02*
X141145295Y-75539999D01*
X141145295Y-75539999D02*
X141050057Y-75492380D01*
X141050057Y-75492380D02*
X141002438Y-75444761D01*
X141002438Y-75444761D02*
X140954819Y-75349523D01*
X140954819Y-75349523D02*
X140954819Y-75159047D01*
X140954819Y-75159047D02*
X141002438Y-75063809D01*
X141002438Y-75063809D02*
X141050057Y-75016190D01*
X141050057Y-75016190D02*
X141145295Y-74968571D01*
X141145295Y-74968571D02*
X141192914Y-74968571D01*
X141192914Y-74968571D02*
X141288152Y-75016190D01*
X141288152Y-75016190D02*
X141335771Y-75063809D01*
X141335771Y-75063809D02*
X141383390Y-75159047D01*
X141383390Y-75159047D02*
X141383390Y-75349523D01*
X141383390Y-75349523D02*
X141431009Y-75444761D01*
X141431009Y-75444761D02*
X141478628Y-75492380D01*
X141478628Y-75492380D02*
X141573866Y-75539999D01*
X141573866Y-75539999D02*
X141764342Y-75539999D01*
X141764342Y-75539999D02*
X141859580Y-75492380D01*
X141859580Y-75492380D02*
X141907200Y-75444761D01*
X141907200Y-75444761D02*
X141954819Y-75349523D01*
X141954819Y-75349523D02*
X141954819Y-75159047D01*
X141954819Y-75159047D02*
X141907200Y-75063809D01*
X141907200Y-75063809D02*
X141859580Y-75016190D01*
X141859580Y-75016190D02*
X141764342Y-74968571D01*
X141764342Y-74968571D02*
X141573866Y-74968571D01*
X141573866Y-74968571D02*
X141478628Y-75016190D01*
X141478628Y-75016190D02*
X141431009Y-75063809D01*
X141431009Y-75063809D02*
X141383390Y-75159047D01*
X140954819Y-74349523D02*
X140954819Y-74254285D01*
X140954819Y-74254285D02*
X141002438Y-74159047D01*
X141002438Y-74159047D02*
X141050057Y-74111428D01*
X141050057Y-74111428D02*
X141145295Y-74063809D01*
X141145295Y-74063809D02*
X141335771Y-74016190D01*
X141335771Y-74016190D02*
X141573866Y-74016190D01*
X141573866Y-74016190D02*
X141764342Y-74063809D01*
X141764342Y-74063809D02*
X141859580Y-74111428D01*
X141859580Y-74111428D02*
X141907200Y-74159047D01*
X141907200Y-74159047D02*
X141954819Y-74254285D01*
X141954819Y-74254285D02*
X141954819Y-74349523D01*
X141954819Y-74349523D02*
X141907200Y-74444761D01*
X141907200Y-74444761D02*
X141859580Y-74492380D01*
X141859580Y-74492380D02*
X141764342Y-74539999D01*
X141764342Y-74539999D02*
X141573866Y-74587618D01*
X141573866Y-74587618D02*
X141335771Y-74587618D01*
X141335771Y-74587618D02*
X141145295Y-74539999D01*
X141145295Y-74539999D02*
X141050057Y-74492380D01*
X141050057Y-74492380D02*
X141002438Y-74444761D01*
X141002438Y-74444761D02*
X140954819Y-74349523D01*
X140954819Y-73111428D02*
X140954819Y-73587618D01*
X140954819Y-73587618D02*
X141431009Y-73635237D01*
X141431009Y-73635237D02*
X141383390Y-73587618D01*
X141383390Y-73587618D02*
X141335771Y-73492380D01*
X141335771Y-73492380D02*
X141335771Y-73254285D01*
X141335771Y-73254285D02*
X141383390Y-73159047D01*
X141383390Y-73159047D02*
X141431009Y-73111428D01*
X141431009Y-73111428D02*
X141526247Y-73063809D01*
X141526247Y-73063809D02*
X141764342Y-73063809D01*
X141764342Y-73063809D02*
X141859580Y-73111428D01*
X141859580Y-73111428D02*
X141907200Y-73159047D01*
X141907200Y-73159047D02*
X141954819Y-73254285D01*
X141954819Y-73254285D02*
X141954819Y-73492380D01*
X141954819Y-73492380D02*
X141907200Y-73587618D01*
X141907200Y-73587618D02*
X141859580Y-73635237D01*
X142050057Y-72873333D02*
X142050057Y-72111428D01*
X140954819Y-72016189D02*
X140954819Y-71444761D01*
X141954819Y-71730475D02*
X140954819Y-71730475D01*
X140954819Y-70920951D02*
X140954819Y-70730475D01*
X140954819Y-70730475D02*
X141002438Y-70635237D01*
X141002438Y-70635237D02*
X141097676Y-70539999D01*
X141097676Y-70539999D02*
X141288152Y-70492380D01*
X141288152Y-70492380D02*
X141621485Y-70492380D01*
X141621485Y-70492380D02*
X141811961Y-70539999D01*
X141811961Y-70539999D02*
X141907200Y-70635237D01*
X141907200Y-70635237D02*
X141954819Y-70730475D01*
X141954819Y-70730475D02*
X141954819Y-70920951D01*
X141954819Y-70920951D02*
X141907200Y-71016189D01*
X141907200Y-71016189D02*
X141811961Y-71111427D01*
X141811961Y-71111427D02*
X141621485Y-71159046D01*
X141621485Y-71159046D02*
X141288152Y-71159046D01*
X141288152Y-71159046D02*
X141097676Y-71111427D01*
X141097676Y-71111427D02*
X141002438Y-71016189D01*
X141002438Y-71016189D02*
X140954819Y-70920951D01*
X141050057Y-70111427D02*
X141002438Y-70063808D01*
X141002438Y-70063808D02*
X140954819Y-69968570D01*
X140954819Y-69968570D02*
X140954819Y-69730475D01*
X140954819Y-69730475D02*
X141002438Y-69635237D01*
X141002438Y-69635237D02*
X141050057Y-69587618D01*
X141050057Y-69587618D02*
X141145295Y-69539999D01*
X141145295Y-69539999D02*
X141240533Y-69539999D01*
X141240533Y-69539999D02*
X141383390Y-69587618D01*
X141383390Y-69587618D02*
X141954819Y-70159046D01*
X141954819Y-70159046D02*
X141954819Y-69539999D01*
X141050057Y-69159046D02*
X141002438Y-69111427D01*
X141002438Y-69111427D02*
X140954819Y-69016189D01*
X140954819Y-69016189D02*
X140954819Y-68778094D01*
X140954819Y-68778094D02*
X141002438Y-68682856D01*
X141002438Y-68682856D02*
X141050057Y-68635237D01*
X141050057Y-68635237D02*
X141145295Y-68587618D01*
X141145295Y-68587618D02*
X141240533Y-68587618D01*
X141240533Y-68587618D02*
X141383390Y-68635237D01*
X141383390Y-68635237D02*
X141954819Y-69206665D01*
X141954819Y-69206665D02*
X141954819Y-68587618D01*
X140954819Y-67968570D02*
X140954819Y-67873332D01*
X140954819Y-67873332D02*
X141002438Y-67778094D01*
X141002438Y-67778094D02*
X141050057Y-67730475D01*
X141050057Y-67730475D02*
X141145295Y-67682856D01*
X141145295Y-67682856D02*
X141335771Y-67635237D01*
X141335771Y-67635237D02*
X141573866Y-67635237D01*
X141573866Y-67635237D02*
X141764342Y-67682856D01*
X141764342Y-67682856D02*
X141859580Y-67730475D01*
X141859580Y-67730475D02*
X141907200Y-67778094D01*
X141907200Y-67778094D02*
X141954819Y-67873332D01*
X141954819Y-67873332D02*
X141954819Y-67968570D01*
X141954819Y-67968570D02*
X141907200Y-68063808D01*
X141907200Y-68063808D02*
X141859580Y-68111427D01*
X141859580Y-68111427D02*
X141764342Y-68159046D01*
X141764342Y-68159046D02*
X141573866Y-68206665D01*
X141573866Y-68206665D02*
X141335771Y-68206665D01*
X141335771Y-68206665D02*
X141145295Y-68159046D01*
X141145295Y-68159046D02*
X141050057Y-68111427D01*
X141050057Y-68111427D02*
X141002438Y-68063808D01*
X141002438Y-68063808D02*
X140954819Y-67968570D01*
X119833333Y-68859580D02*
X119785714Y-68907200D01*
X119785714Y-68907200D02*
X119642857Y-68954819D01*
X119642857Y-68954819D02*
X119547619Y-68954819D01*
X119547619Y-68954819D02*
X119404762Y-68907200D01*
X119404762Y-68907200D02*
X119309524Y-68811961D01*
X119309524Y-68811961D02*
X119261905Y-68716723D01*
X119261905Y-68716723D02*
X119214286Y-68526247D01*
X119214286Y-68526247D02*
X119214286Y-68383390D01*
X119214286Y-68383390D02*
X119261905Y-68192914D01*
X119261905Y-68192914D02*
X119309524Y-68097676D01*
X119309524Y-68097676D02*
X119404762Y-68002438D01*
X119404762Y-68002438D02*
X119547619Y-67954819D01*
X119547619Y-67954819D02*
X119642857Y-67954819D01*
X119642857Y-67954819D02*
X119785714Y-68002438D01*
X119785714Y-68002438D02*
X119833333Y-68050057D01*
X120166667Y-67954819D02*
X120785714Y-67954819D01*
X120785714Y-67954819D02*
X120452381Y-68335771D01*
X120452381Y-68335771D02*
X120595238Y-68335771D01*
X120595238Y-68335771D02*
X120690476Y-68383390D01*
X120690476Y-68383390D02*
X120738095Y-68431009D01*
X120738095Y-68431009D02*
X120785714Y-68526247D01*
X120785714Y-68526247D02*
X120785714Y-68764342D01*
X120785714Y-68764342D02*
X120738095Y-68859580D01*
X120738095Y-68859580D02*
X120690476Y-68907200D01*
X120690476Y-68907200D02*
X120595238Y-68954819D01*
X120595238Y-68954819D02*
X120309524Y-68954819D01*
X120309524Y-68954819D02*
X120214286Y-68907200D01*
X120214286Y-68907200D02*
X120166667Y-68859580D01*
X119788152Y-76238095D02*
X120454819Y-76238095D01*
X119407200Y-76476190D02*
X120121485Y-76714285D01*
X120121485Y-76714285D02*
X120121485Y-76095238D01*
X119788152Y-75285714D02*
X120454819Y-75285714D01*
X119788152Y-75714285D02*
X120311961Y-75714285D01*
X120311961Y-75714285D02*
X120407200Y-75666666D01*
X120407200Y-75666666D02*
X120454819Y-75571428D01*
X120454819Y-75571428D02*
X120454819Y-75428571D01*
X120454819Y-75428571D02*
X120407200Y-75333333D01*
X120407200Y-75333333D02*
X120359580Y-75285714D01*
X119454819Y-74904761D02*
X119454819Y-74238095D01*
X119454819Y-74238095D02*
X120454819Y-74666666D01*
X123333333Y-68859580D02*
X123285714Y-68907200D01*
X123285714Y-68907200D02*
X123142857Y-68954819D01*
X123142857Y-68954819D02*
X123047619Y-68954819D01*
X123047619Y-68954819D02*
X122904762Y-68907200D01*
X122904762Y-68907200D02*
X122809524Y-68811961D01*
X122809524Y-68811961D02*
X122761905Y-68716723D01*
X122761905Y-68716723D02*
X122714286Y-68526247D01*
X122714286Y-68526247D02*
X122714286Y-68383390D01*
X122714286Y-68383390D02*
X122761905Y-68192914D01*
X122761905Y-68192914D02*
X122809524Y-68097676D01*
X122809524Y-68097676D02*
X122904762Y-68002438D01*
X122904762Y-68002438D02*
X123047619Y-67954819D01*
X123047619Y-67954819D02*
X123142857Y-67954819D01*
X123142857Y-67954819D02*
X123285714Y-68002438D01*
X123285714Y-68002438D02*
X123333333Y-68050057D01*
X124190476Y-68288152D02*
X124190476Y-68954819D01*
X123952381Y-67907200D02*
X123714286Y-68621485D01*
X123714286Y-68621485D02*
X124333333Y-68621485D01*
X123954819Y-76619047D02*
X123954819Y-77190475D01*
X123954819Y-76904761D02*
X122954819Y-76904761D01*
X122954819Y-76904761D02*
X123097676Y-76999999D01*
X123097676Y-76999999D02*
X123192914Y-77095237D01*
X123192914Y-77095237D02*
X123240533Y-77190475D01*
X122954819Y-75999999D02*
X122954819Y-75904761D01*
X122954819Y-75904761D02*
X123002438Y-75809523D01*
X123002438Y-75809523D02*
X123050057Y-75761904D01*
X123050057Y-75761904D02*
X123145295Y-75714285D01*
X123145295Y-75714285D02*
X123335771Y-75666666D01*
X123335771Y-75666666D02*
X123573866Y-75666666D01*
X123573866Y-75666666D02*
X123764342Y-75714285D01*
X123764342Y-75714285D02*
X123859580Y-75761904D01*
X123859580Y-75761904D02*
X123907200Y-75809523D01*
X123907200Y-75809523D02*
X123954819Y-75904761D01*
X123954819Y-75904761D02*
X123954819Y-75999999D01*
X123954819Y-75999999D02*
X123907200Y-76095237D01*
X123907200Y-76095237D02*
X123859580Y-76142856D01*
X123859580Y-76142856D02*
X123764342Y-76190475D01*
X123764342Y-76190475D02*
X123573866Y-76238094D01*
X123573866Y-76238094D02*
X123335771Y-76238094D01*
X123335771Y-76238094D02*
X123145295Y-76190475D01*
X123145295Y-76190475D02*
X123050057Y-76142856D01*
X123050057Y-76142856D02*
X123002438Y-76095237D01*
X123002438Y-76095237D02*
X122954819Y-75999999D01*
X122954819Y-75047618D02*
X122954819Y-74952380D01*
X122954819Y-74952380D02*
X123002438Y-74857142D01*
X123002438Y-74857142D02*
X123050057Y-74809523D01*
X123050057Y-74809523D02*
X123145295Y-74761904D01*
X123145295Y-74761904D02*
X123335771Y-74714285D01*
X123335771Y-74714285D02*
X123573866Y-74714285D01*
X123573866Y-74714285D02*
X123764342Y-74761904D01*
X123764342Y-74761904D02*
X123859580Y-74809523D01*
X123859580Y-74809523D02*
X123907200Y-74857142D01*
X123907200Y-74857142D02*
X123954819Y-74952380D01*
X123954819Y-74952380D02*
X123954819Y-75047618D01*
X123954819Y-75047618D02*
X123907200Y-75142856D01*
X123907200Y-75142856D02*
X123859580Y-75190475D01*
X123859580Y-75190475D02*
X123764342Y-75238094D01*
X123764342Y-75238094D02*
X123573866Y-75285713D01*
X123573866Y-75285713D02*
X123335771Y-75285713D01*
X123335771Y-75285713D02*
X123145295Y-75238094D01*
X123145295Y-75238094D02*
X123050057Y-75190475D01*
X123050057Y-75190475D02*
X123002438Y-75142856D01*
X123002438Y-75142856D02*
X122954819Y-75047618D01*
X123288152Y-74285713D02*
X123954819Y-74285713D01*
X123383390Y-74285713D02*
X123335771Y-74238094D01*
X123335771Y-74238094D02*
X123288152Y-74142856D01*
X123288152Y-74142856D02*
X123288152Y-73999999D01*
X123288152Y-73999999D02*
X123335771Y-73904761D01*
X123335771Y-73904761D02*
X123431009Y-73857142D01*
X123431009Y-73857142D02*
X123954819Y-73857142D01*
X162874819Y-101666666D02*
X162398628Y-101999999D01*
X162874819Y-102238094D02*
X161874819Y-102238094D01*
X161874819Y-102238094D02*
X161874819Y-101857142D01*
X161874819Y-101857142D02*
X161922438Y-101761904D01*
X161922438Y-101761904D02*
X161970057Y-101714285D01*
X161970057Y-101714285D02*
X162065295Y-101666666D01*
X162065295Y-101666666D02*
X162208152Y-101666666D01*
X162208152Y-101666666D02*
X162303390Y-101714285D01*
X162303390Y-101714285D02*
X162351009Y-101761904D01*
X162351009Y-101761904D02*
X162398628Y-101857142D01*
X162398628Y-101857142D02*
X162398628Y-102238094D01*
X162874819Y-100714285D02*
X162874819Y-101285713D01*
X162874819Y-100999999D02*
X161874819Y-100999999D01*
X161874819Y-100999999D02*
X162017676Y-101095237D01*
X162017676Y-101095237D02*
X162112914Y-101190475D01*
X162112914Y-101190475D02*
X162160533Y-101285713D01*
X154110476Y-100954819D02*
X154729523Y-100954819D01*
X154729523Y-100954819D02*
X154396190Y-101335771D01*
X154396190Y-101335771D02*
X154539047Y-101335771D01*
X154539047Y-101335771D02*
X154634285Y-101383390D01*
X154634285Y-101383390D02*
X154681904Y-101431009D01*
X154681904Y-101431009D02*
X154729523Y-101526247D01*
X154729523Y-101526247D02*
X154729523Y-101764342D01*
X154729523Y-101764342D02*
X154681904Y-101859580D01*
X154681904Y-101859580D02*
X154634285Y-101907200D01*
X154634285Y-101907200D02*
X154539047Y-101954819D01*
X154539047Y-101954819D02*
X154253333Y-101954819D01*
X154253333Y-101954819D02*
X154158095Y-101907200D01*
X154158095Y-101907200D02*
X154110476Y-101859580D01*
X155062857Y-100954819D02*
X155681904Y-100954819D01*
X155681904Y-100954819D02*
X155348571Y-101335771D01*
X155348571Y-101335771D02*
X155491428Y-101335771D01*
X155491428Y-101335771D02*
X155586666Y-101383390D01*
X155586666Y-101383390D02*
X155634285Y-101431009D01*
X155634285Y-101431009D02*
X155681904Y-101526247D01*
X155681904Y-101526247D02*
X155681904Y-101764342D01*
X155681904Y-101764342D02*
X155634285Y-101859580D01*
X155634285Y-101859580D02*
X155586666Y-101907200D01*
X155586666Y-101907200D02*
X155491428Y-101954819D01*
X155491428Y-101954819D02*
X155205714Y-101954819D01*
X155205714Y-101954819D02*
X155110476Y-101907200D01*
X155110476Y-101907200D02*
X155062857Y-101859580D01*
X156110476Y-101954819D02*
X156110476Y-100954819D01*
X156681904Y-101954819D02*
X156253333Y-101383390D01*
X156681904Y-100954819D02*
X156110476Y-101526247D01*
X162874819Y-108666666D02*
X162398628Y-108999999D01*
X162874819Y-109238094D02*
X161874819Y-109238094D01*
X161874819Y-109238094D02*
X161874819Y-108857142D01*
X161874819Y-108857142D02*
X161922438Y-108761904D01*
X161922438Y-108761904D02*
X161970057Y-108714285D01*
X161970057Y-108714285D02*
X162065295Y-108666666D01*
X162065295Y-108666666D02*
X162208152Y-108666666D01*
X162208152Y-108666666D02*
X162303390Y-108714285D01*
X162303390Y-108714285D02*
X162351009Y-108761904D01*
X162351009Y-108761904D02*
X162398628Y-108857142D01*
X162398628Y-108857142D02*
X162398628Y-109238094D01*
X162208152Y-107809523D02*
X162874819Y-107809523D01*
X161827200Y-108047618D02*
X162541485Y-108285713D01*
X162541485Y-108285713D02*
X162541485Y-107666666D01*
X154729523Y-108954819D02*
X154158095Y-108954819D01*
X154443809Y-108954819D02*
X154443809Y-107954819D01*
X154443809Y-107954819D02*
X154348571Y-108097676D01*
X154348571Y-108097676D02*
X154253333Y-108192914D01*
X154253333Y-108192914D02*
X154158095Y-108240533D01*
X155348571Y-107954819D02*
X155443809Y-107954819D01*
X155443809Y-107954819D02*
X155539047Y-108002438D01*
X155539047Y-108002438D02*
X155586666Y-108050057D01*
X155586666Y-108050057D02*
X155634285Y-108145295D01*
X155634285Y-108145295D02*
X155681904Y-108335771D01*
X155681904Y-108335771D02*
X155681904Y-108573866D01*
X155681904Y-108573866D02*
X155634285Y-108764342D01*
X155634285Y-108764342D02*
X155586666Y-108859580D01*
X155586666Y-108859580D02*
X155539047Y-108907200D01*
X155539047Y-108907200D02*
X155443809Y-108954819D01*
X155443809Y-108954819D02*
X155348571Y-108954819D01*
X155348571Y-108954819D02*
X155253333Y-108907200D01*
X155253333Y-108907200D02*
X155205714Y-108859580D01*
X155205714Y-108859580D02*
X155158095Y-108764342D01*
X155158095Y-108764342D02*
X155110476Y-108573866D01*
X155110476Y-108573866D02*
X155110476Y-108335771D01*
X155110476Y-108335771D02*
X155158095Y-108145295D01*
X155158095Y-108145295D02*
X155205714Y-108050057D01*
X155205714Y-108050057D02*
X155253333Y-108002438D01*
X155253333Y-108002438D02*
X155348571Y-107954819D01*
X156110476Y-108954819D02*
X156110476Y-107954819D01*
X156681904Y-108954819D02*
X156253333Y-108383390D01*
X156681904Y-107954819D02*
X156110476Y-108526247D01*
X162874819Y-112738094D02*
X161874819Y-112738094D01*
X161874819Y-112738094D02*
X161874819Y-112499999D01*
X161874819Y-112499999D02*
X161922438Y-112357142D01*
X161922438Y-112357142D02*
X162017676Y-112261904D01*
X162017676Y-112261904D02*
X162112914Y-112214285D01*
X162112914Y-112214285D02*
X162303390Y-112166666D01*
X162303390Y-112166666D02*
X162446247Y-112166666D01*
X162446247Y-112166666D02*
X162636723Y-112214285D01*
X162636723Y-112214285D02*
X162731961Y-112261904D01*
X162731961Y-112261904D02*
X162827200Y-112357142D01*
X162827200Y-112357142D02*
X162874819Y-112499999D01*
X162874819Y-112499999D02*
X162874819Y-112738094D01*
X161970057Y-111785713D02*
X161922438Y-111738094D01*
X161922438Y-111738094D02*
X161874819Y-111642856D01*
X161874819Y-111642856D02*
X161874819Y-111404761D01*
X161874819Y-111404761D02*
X161922438Y-111309523D01*
X161922438Y-111309523D02*
X161970057Y-111261904D01*
X161970057Y-111261904D02*
X162065295Y-111214285D01*
X162065295Y-111214285D02*
X162160533Y-111214285D01*
X162160533Y-111214285D02*
X162303390Y-111261904D01*
X162303390Y-111261904D02*
X162874819Y-111833332D01*
X162874819Y-111833332D02*
X162874819Y-111214285D01*
X155205714Y-111788152D02*
X155205714Y-112454819D01*
X154967619Y-111407200D02*
X154729524Y-112121485D01*
X154729524Y-112121485D02*
X155348571Y-112121485D01*
X155586667Y-111454819D02*
X155920000Y-112454819D01*
X155920000Y-112454819D02*
X156253333Y-111454819D01*
X156491429Y-111454819D02*
X157158095Y-111454819D01*
X157158095Y-111454819D02*
X156729524Y-112454819D01*
X156261905Y-91954819D02*
X156261905Y-90954819D01*
X156261905Y-90954819D02*
X156642857Y-90954819D01*
X156642857Y-90954819D02*
X156738095Y-91002438D01*
X156738095Y-91002438D02*
X156785714Y-91050057D01*
X156785714Y-91050057D02*
X156833333Y-91145295D01*
X156833333Y-91145295D02*
X156833333Y-91288152D01*
X156833333Y-91288152D02*
X156785714Y-91383390D01*
X156785714Y-91383390D02*
X156738095Y-91431009D01*
X156738095Y-91431009D02*
X156642857Y-91478628D01*
X156642857Y-91478628D02*
X156261905Y-91478628D01*
X157214286Y-91050057D02*
X157261905Y-91002438D01*
X157261905Y-91002438D02*
X157357143Y-90954819D01*
X157357143Y-90954819D02*
X157595238Y-90954819D01*
X157595238Y-90954819D02*
X157690476Y-91002438D01*
X157690476Y-91002438D02*
X157738095Y-91050057D01*
X157738095Y-91050057D02*
X157785714Y-91145295D01*
X157785714Y-91145295D02*
X157785714Y-91240533D01*
X157785714Y-91240533D02*
X157738095Y-91383390D01*
X157738095Y-91383390D02*
X157166667Y-91954819D01*
X157166667Y-91954819D02*
X157785714Y-91954819D01*
X172436666Y-70624819D02*
X172436666Y-71339104D01*
X172436666Y-71339104D02*
X172389047Y-71481961D01*
X172389047Y-71481961D02*
X172293809Y-71577200D01*
X172293809Y-71577200D02*
X172150952Y-71624819D01*
X172150952Y-71624819D02*
X172055714Y-71624819D01*
X173436666Y-71624819D02*
X172865238Y-71624819D01*
X173150952Y-71624819D02*
X173150952Y-70624819D01*
X173150952Y-70624819D02*
X173055714Y-70767676D01*
X173055714Y-70767676D02*
X172960476Y-70862914D01*
X172960476Y-70862914D02*
X172865238Y-70910533D01*
X176954819Y-92309523D02*
X175954819Y-92309523D01*
X175954819Y-92309523D02*
X176669104Y-91976190D01*
X176669104Y-91976190D02*
X175954819Y-91642857D01*
X175954819Y-91642857D02*
X176954819Y-91642857D01*
X176954819Y-91023809D02*
X176907200Y-91119047D01*
X176907200Y-91119047D02*
X176859580Y-91166666D01*
X176859580Y-91166666D02*
X176764342Y-91214285D01*
X176764342Y-91214285D02*
X176478628Y-91214285D01*
X176478628Y-91214285D02*
X176383390Y-91166666D01*
X176383390Y-91166666D02*
X176335771Y-91119047D01*
X176335771Y-91119047D02*
X176288152Y-91023809D01*
X176288152Y-91023809D02*
X176288152Y-90880952D01*
X176288152Y-90880952D02*
X176335771Y-90785714D01*
X176335771Y-90785714D02*
X176383390Y-90738095D01*
X176383390Y-90738095D02*
X176478628Y-90690476D01*
X176478628Y-90690476D02*
X176764342Y-90690476D01*
X176764342Y-90690476D02*
X176859580Y-90738095D01*
X176859580Y-90738095D02*
X176907200Y-90785714D01*
X176907200Y-90785714D02*
X176954819Y-90880952D01*
X176954819Y-90880952D02*
X176954819Y-91023809D01*
X176954819Y-90119047D02*
X176907200Y-90214285D01*
X176907200Y-90214285D02*
X176811961Y-90261904D01*
X176811961Y-90261904D02*
X175954819Y-90261904D01*
X176907200Y-89357142D02*
X176954819Y-89452380D01*
X176954819Y-89452380D02*
X176954819Y-89642856D01*
X176954819Y-89642856D02*
X176907200Y-89738094D01*
X176907200Y-89738094D02*
X176811961Y-89785713D01*
X176811961Y-89785713D02*
X176431009Y-89785713D01*
X176431009Y-89785713D02*
X176335771Y-89738094D01*
X176335771Y-89738094D02*
X176288152Y-89642856D01*
X176288152Y-89642856D02*
X176288152Y-89452380D01*
X176288152Y-89452380D02*
X176335771Y-89357142D01*
X176335771Y-89357142D02*
X176431009Y-89309523D01*
X176431009Y-89309523D02*
X176526247Y-89309523D01*
X176526247Y-89309523D02*
X176621485Y-89785713D01*
X176954819Y-88976189D02*
X176288152Y-88452380D01*
X176288152Y-88976189D02*
X176954819Y-88452380D01*
X176050057Y-87357141D02*
X176002438Y-87309522D01*
X176002438Y-87309522D02*
X175954819Y-87214284D01*
X175954819Y-87214284D02*
X175954819Y-86976189D01*
X175954819Y-86976189D02*
X176002438Y-86880951D01*
X176002438Y-86880951D02*
X176050057Y-86833332D01*
X176050057Y-86833332D02*
X176145295Y-86785713D01*
X176145295Y-86785713D02*
X176240533Y-86785713D01*
X176240533Y-86785713D02*
X176383390Y-86833332D01*
X176383390Y-86833332D02*
X176954819Y-87404760D01*
X176954819Y-87404760D02*
X176954819Y-86785713D01*
X176050057Y-86404760D02*
X176002438Y-86357141D01*
X176002438Y-86357141D02*
X175954819Y-86261903D01*
X175954819Y-86261903D02*
X175954819Y-86023808D01*
X175954819Y-86023808D02*
X176002438Y-85928570D01*
X176002438Y-85928570D02*
X176050057Y-85880951D01*
X176050057Y-85880951D02*
X176145295Y-85833332D01*
X176145295Y-85833332D02*
X176240533Y-85833332D01*
X176240533Y-85833332D02*
X176383390Y-85880951D01*
X176383390Y-85880951D02*
X176954819Y-86452379D01*
X176954819Y-86452379D02*
X176954819Y-85833332D01*
X176573866Y-85404760D02*
X176573866Y-84642856D01*
X176954819Y-83642856D02*
X176954819Y-84214284D01*
X176954819Y-83928570D02*
X175954819Y-83928570D01*
X175954819Y-83928570D02*
X176097676Y-84023808D01*
X176097676Y-84023808D02*
X176192914Y-84119046D01*
X176192914Y-84119046D02*
X176240533Y-84214284D01*
X175954819Y-83309522D02*
X175954819Y-82642856D01*
X175954819Y-82642856D02*
X176954819Y-83071427D01*
X176573866Y-82261903D02*
X176573866Y-81499999D01*
X175954819Y-81119046D02*
X175954819Y-80499999D01*
X175954819Y-80499999D02*
X176335771Y-80833332D01*
X176335771Y-80833332D02*
X176335771Y-80690475D01*
X176335771Y-80690475D02*
X176383390Y-80595237D01*
X176383390Y-80595237D02*
X176431009Y-80547618D01*
X176431009Y-80547618D02*
X176526247Y-80499999D01*
X176526247Y-80499999D02*
X176764342Y-80499999D01*
X176764342Y-80499999D02*
X176859580Y-80547618D01*
X176859580Y-80547618D02*
X176907200Y-80595237D01*
X176907200Y-80595237D02*
X176954819Y-80690475D01*
X176954819Y-80690475D02*
X176954819Y-80976189D01*
X176954819Y-80976189D02*
X176907200Y-81071427D01*
X176907200Y-81071427D02*
X176859580Y-81119046D01*
X176954819Y-79547618D02*
X176954819Y-80119046D01*
X176954819Y-79833332D02*
X175954819Y-79833332D01*
X175954819Y-79833332D02*
X176097676Y-79928570D01*
X176097676Y-79928570D02*
X176192914Y-80023808D01*
X176192914Y-80023808D02*
X176240533Y-80119046D01*
X175954819Y-78928570D02*
X175954819Y-78833332D01*
X175954819Y-78833332D02*
X176002438Y-78738094D01*
X176002438Y-78738094D02*
X176050057Y-78690475D01*
X176050057Y-78690475D02*
X176145295Y-78642856D01*
X176145295Y-78642856D02*
X176335771Y-78595237D01*
X176335771Y-78595237D02*
X176573866Y-78595237D01*
X176573866Y-78595237D02*
X176764342Y-78642856D01*
X176764342Y-78642856D02*
X176859580Y-78690475D01*
X176859580Y-78690475D02*
X176907200Y-78738094D01*
X176907200Y-78738094D02*
X176954819Y-78833332D01*
X176954819Y-78833332D02*
X176954819Y-78928570D01*
X176954819Y-78928570D02*
X176907200Y-79023808D01*
X176907200Y-79023808D02*
X176859580Y-79071427D01*
X176859580Y-79071427D02*
X176764342Y-79119046D01*
X176764342Y-79119046D02*
X176573866Y-79166665D01*
X176573866Y-79166665D02*
X176335771Y-79166665D01*
X176335771Y-79166665D02*
X176145295Y-79119046D01*
X176145295Y-79119046D02*
X176050057Y-79071427D01*
X176050057Y-79071427D02*
X176002438Y-79023808D01*
X176002438Y-79023808D02*
X175954819Y-78928570D01*
X176050057Y-78214284D02*
X176002438Y-78166665D01*
X176002438Y-78166665D02*
X175954819Y-78071427D01*
X175954819Y-78071427D02*
X175954819Y-77833332D01*
X175954819Y-77833332D02*
X176002438Y-77738094D01*
X176002438Y-77738094D02*
X176050057Y-77690475D01*
X176050057Y-77690475D02*
X176145295Y-77642856D01*
X176145295Y-77642856D02*
X176240533Y-77642856D01*
X176240533Y-77642856D02*
X176383390Y-77690475D01*
X176383390Y-77690475D02*
X176954819Y-78261903D01*
X176954819Y-78261903D02*
X176954819Y-77642856D01*
X107793333Y-67294819D02*
X107460000Y-66818628D01*
X107221905Y-67294819D02*
X107221905Y-66294819D01*
X107221905Y-66294819D02*
X107602857Y-66294819D01*
X107602857Y-66294819D02*
X107698095Y-66342438D01*
X107698095Y-66342438D02*
X107745714Y-66390057D01*
X107745714Y-66390057D02*
X107793333Y-66485295D01*
X107793333Y-66485295D02*
X107793333Y-66628152D01*
X107793333Y-66628152D02*
X107745714Y-66723390D01*
X107745714Y-66723390D02*
X107698095Y-66771009D01*
X107698095Y-66771009D02*
X107602857Y-66818628D01*
X107602857Y-66818628D02*
X107221905Y-66818628D01*
X108174286Y-66390057D02*
X108221905Y-66342438D01*
X108221905Y-66342438D02*
X108317143Y-66294819D01*
X108317143Y-66294819D02*
X108555238Y-66294819D01*
X108555238Y-66294819D02*
X108650476Y-66342438D01*
X108650476Y-66342438D02*
X108698095Y-66390057D01*
X108698095Y-66390057D02*
X108745714Y-66485295D01*
X108745714Y-66485295D02*
X108745714Y-66580533D01*
X108745714Y-66580533D02*
X108698095Y-66723390D01*
X108698095Y-66723390D02*
X108126667Y-67294819D01*
X108126667Y-67294819D02*
X108745714Y-67294819D01*
X104840952Y-73624819D02*
X104364762Y-73624819D01*
X104364762Y-73624819D02*
X104317143Y-74101009D01*
X104317143Y-74101009D02*
X104364762Y-74053390D01*
X104364762Y-74053390D02*
X104460000Y-74005771D01*
X104460000Y-74005771D02*
X104698095Y-74005771D01*
X104698095Y-74005771D02*
X104793333Y-74053390D01*
X104793333Y-74053390D02*
X104840952Y-74101009D01*
X104840952Y-74101009D02*
X104888571Y-74196247D01*
X104888571Y-74196247D02*
X104888571Y-74434342D01*
X104888571Y-74434342D02*
X104840952Y-74529580D01*
X104840952Y-74529580D02*
X104793333Y-74577200D01*
X104793333Y-74577200D02*
X104698095Y-74624819D01*
X104698095Y-74624819D02*
X104460000Y-74624819D01*
X104460000Y-74624819D02*
X104364762Y-74577200D01*
X104364762Y-74577200D02*
X104317143Y-74529580D01*
X105317143Y-74624819D02*
X105317143Y-73624819D01*
X105888571Y-74624819D02*
X105460000Y-74053390D01*
X105888571Y-73624819D02*
X105317143Y-74196247D01*
X106983810Y-73624819D02*
X107602857Y-73624819D01*
X107602857Y-73624819D02*
X107269524Y-74005771D01*
X107269524Y-74005771D02*
X107412381Y-74005771D01*
X107412381Y-74005771D02*
X107507619Y-74053390D01*
X107507619Y-74053390D02*
X107555238Y-74101009D01*
X107555238Y-74101009D02*
X107602857Y-74196247D01*
X107602857Y-74196247D02*
X107602857Y-74434342D01*
X107602857Y-74434342D02*
X107555238Y-74529580D01*
X107555238Y-74529580D02*
X107507619Y-74577200D01*
X107507619Y-74577200D02*
X107412381Y-74624819D01*
X107412381Y-74624819D02*
X107126667Y-74624819D01*
X107126667Y-74624819D02*
X107031429Y-74577200D01*
X107031429Y-74577200D02*
X106983810Y-74529580D01*
X107983810Y-73720057D02*
X108031429Y-73672438D01*
X108031429Y-73672438D02*
X108126667Y-73624819D01*
X108126667Y-73624819D02*
X108364762Y-73624819D01*
X108364762Y-73624819D02*
X108460000Y-73672438D01*
X108460000Y-73672438D02*
X108507619Y-73720057D01*
X108507619Y-73720057D02*
X108555238Y-73815295D01*
X108555238Y-73815295D02*
X108555238Y-73910533D01*
X108555238Y-73910533D02*
X108507619Y-74053390D01*
X108507619Y-74053390D02*
X107936191Y-74624819D01*
X107936191Y-74624819D02*
X108555238Y-74624819D01*
X109031429Y-74624819D02*
X109221905Y-74624819D01*
X109221905Y-74624819D02*
X109317143Y-74577200D01*
X109317143Y-74577200D02*
X109364762Y-74529580D01*
X109364762Y-74529580D02*
X109460000Y-74386723D01*
X109460000Y-74386723D02*
X109507619Y-74196247D01*
X109507619Y-74196247D02*
X109507619Y-73815295D01*
X109507619Y-73815295D02*
X109460000Y-73720057D01*
X109460000Y-73720057D02*
X109412381Y-73672438D01*
X109412381Y-73672438D02*
X109317143Y-73624819D01*
X109317143Y-73624819D02*
X109126667Y-73624819D01*
X109126667Y-73624819D02*
X109031429Y-73672438D01*
X109031429Y-73672438D02*
X108983810Y-73720057D01*
X108983810Y-73720057D02*
X108936191Y-73815295D01*
X108936191Y-73815295D02*
X108936191Y-74053390D01*
X108936191Y-74053390D02*
X108983810Y-74148628D01*
X108983810Y-74148628D02*
X109031429Y-74196247D01*
X109031429Y-74196247D02*
X109126667Y-74243866D01*
X109126667Y-74243866D02*
X109317143Y-74243866D01*
X109317143Y-74243866D02*
X109412381Y-74196247D01*
X109412381Y-74196247D02*
X109460000Y-74148628D01*
X109460000Y-74148628D02*
X109507619Y-74053390D01*
X110364762Y-73624819D02*
X110174286Y-73624819D01*
X110174286Y-73624819D02*
X110079048Y-73672438D01*
X110079048Y-73672438D02*
X110031429Y-73720057D01*
X110031429Y-73720057D02*
X109936191Y-73862914D01*
X109936191Y-73862914D02*
X109888572Y-74053390D01*
X109888572Y-74053390D02*
X109888572Y-74434342D01*
X109888572Y-74434342D02*
X109936191Y-74529580D01*
X109936191Y-74529580D02*
X109983810Y-74577200D01*
X109983810Y-74577200D02*
X110079048Y-74624819D01*
X110079048Y-74624819D02*
X110269524Y-74624819D01*
X110269524Y-74624819D02*
X110364762Y-74577200D01*
X110364762Y-74577200D02*
X110412381Y-74529580D01*
X110412381Y-74529580D02*
X110460000Y-74434342D01*
X110460000Y-74434342D02*
X110460000Y-74196247D01*
X110460000Y-74196247D02*
X110412381Y-74101009D01*
X110412381Y-74101009D02*
X110364762Y-74053390D01*
X110364762Y-74053390D02*
X110269524Y-74005771D01*
X110269524Y-74005771D02*
X110079048Y-74005771D01*
X110079048Y-74005771D02*
X109983810Y-74053390D01*
X109983810Y-74053390D02*
X109936191Y-74101009D01*
X109936191Y-74101009D02*
X109888572Y-74196247D01*
X110793334Y-73624819D02*
X111031429Y-74624819D01*
X111031429Y-74624819D02*
X111221905Y-73910533D01*
X111221905Y-73910533D02*
X111412381Y-74624819D01*
X111412381Y-74624819D02*
X111650477Y-73624819D01*
X115833333Y-110454819D02*
X115500000Y-109978628D01*
X115261905Y-110454819D02*
X115261905Y-109454819D01*
X115261905Y-109454819D02*
X115642857Y-109454819D01*
X115642857Y-109454819D02*
X115738095Y-109502438D01*
X115738095Y-109502438D02*
X115785714Y-109550057D01*
X115785714Y-109550057D02*
X115833333Y-109645295D01*
X115833333Y-109645295D02*
X115833333Y-109788152D01*
X115833333Y-109788152D02*
X115785714Y-109883390D01*
X115785714Y-109883390D02*
X115738095Y-109931009D01*
X115738095Y-109931009D02*
X115642857Y-109978628D01*
X115642857Y-109978628D02*
X115261905Y-109978628D01*
X116738095Y-109454819D02*
X116261905Y-109454819D01*
X116261905Y-109454819D02*
X116214286Y-109931009D01*
X116214286Y-109931009D02*
X116261905Y-109883390D01*
X116261905Y-109883390D02*
X116357143Y-109835771D01*
X116357143Y-109835771D02*
X116595238Y-109835771D01*
X116595238Y-109835771D02*
X116690476Y-109883390D01*
X116690476Y-109883390D02*
X116738095Y-109931009D01*
X116738095Y-109931009D02*
X116785714Y-110026247D01*
X116785714Y-110026247D02*
X116785714Y-110264342D01*
X116785714Y-110264342D02*
X116738095Y-110359580D01*
X116738095Y-110359580D02*
X116690476Y-110407200D01*
X116690476Y-110407200D02*
X116595238Y-110454819D01*
X116595238Y-110454819D02*
X116357143Y-110454819D01*
X116357143Y-110454819D02*
X116261905Y-110407200D01*
X116261905Y-110407200D02*
X116214286Y-110359580D01*
X115705714Y-112454819D02*
X115134286Y-112454819D01*
X115420000Y-112454819D02*
X115420000Y-111454819D01*
X115420000Y-111454819D02*
X115324762Y-111597676D01*
X115324762Y-111597676D02*
X115229524Y-111692914D01*
X115229524Y-111692914D02*
X115134286Y-111740533D01*
X116134286Y-112454819D02*
X116134286Y-111454819D01*
X116705714Y-112454819D02*
X116277143Y-111883390D01*
X116705714Y-111454819D02*
X116134286Y-112026247D01*
X129333333Y-82939580D02*
X129285714Y-82987200D01*
X129285714Y-82987200D02*
X129142857Y-83034819D01*
X129142857Y-83034819D02*
X129047619Y-83034819D01*
X129047619Y-83034819D02*
X128904762Y-82987200D01*
X128904762Y-82987200D02*
X128809524Y-82891961D01*
X128809524Y-82891961D02*
X128761905Y-82796723D01*
X128761905Y-82796723D02*
X128714286Y-82606247D01*
X128714286Y-82606247D02*
X128714286Y-82463390D01*
X128714286Y-82463390D02*
X128761905Y-82272914D01*
X128761905Y-82272914D02*
X128809524Y-82177676D01*
X128809524Y-82177676D02*
X128904762Y-82082438D01*
X128904762Y-82082438D02*
X129047619Y-82034819D01*
X129047619Y-82034819D02*
X129142857Y-82034819D01*
X129142857Y-82034819D02*
X129285714Y-82082438D01*
X129285714Y-82082438D02*
X129333333Y-82130057D01*
X130238095Y-82034819D02*
X129761905Y-82034819D01*
X129761905Y-82034819D02*
X129714286Y-82511009D01*
X129714286Y-82511009D02*
X129761905Y-82463390D01*
X129761905Y-82463390D02*
X129857143Y-82415771D01*
X129857143Y-82415771D02*
X130095238Y-82415771D01*
X130095238Y-82415771D02*
X130190476Y-82463390D01*
X130190476Y-82463390D02*
X130238095Y-82511009D01*
X130238095Y-82511009D02*
X130285714Y-82606247D01*
X130285714Y-82606247D02*
X130285714Y-82844342D01*
X130285714Y-82844342D02*
X130238095Y-82939580D01*
X130238095Y-82939580D02*
X130190476Y-82987200D01*
X130190476Y-82987200D02*
X130095238Y-83034819D01*
X130095238Y-83034819D02*
X129857143Y-83034819D01*
X129857143Y-83034819D02*
X129761905Y-82987200D01*
X129761905Y-82987200D02*
X129714286Y-82939580D01*
X128380952Y-85454819D02*
X127809524Y-85454819D01*
X128095238Y-85454819D02*
X128095238Y-84454819D01*
X128095238Y-84454819D02*
X128000000Y-84597676D01*
X128000000Y-84597676D02*
X127904762Y-84692914D01*
X127904762Y-84692914D02*
X127809524Y-84740533D01*
X129000000Y-84454819D02*
X129095238Y-84454819D01*
X129095238Y-84454819D02*
X129190476Y-84502438D01*
X129190476Y-84502438D02*
X129238095Y-84550057D01*
X129238095Y-84550057D02*
X129285714Y-84645295D01*
X129285714Y-84645295D02*
X129333333Y-84835771D01*
X129333333Y-84835771D02*
X129333333Y-85073866D01*
X129333333Y-85073866D02*
X129285714Y-85264342D01*
X129285714Y-85264342D02*
X129238095Y-85359580D01*
X129238095Y-85359580D02*
X129190476Y-85407200D01*
X129190476Y-85407200D02*
X129095238Y-85454819D01*
X129095238Y-85454819D02*
X129000000Y-85454819D01*
X129000000Y-85454819D02*
X128904762Y-85407200D01*
X128904762Y-85407200D02*
X128857143Y-85359580D01*
X128857143Y-85359580D02*
X128809524Y-85264342D01*
X128809524Y-85264342D02*
X128761905Y-85073866D01*
X128761905Y-85073866D02*
X128761905Y-84835771D01*
X128761905Y-84835771D02*
X128809524Y-84645295D01*
X128809524Y-84645295D02*
X128857143Y-84550057D01*
X128857143Y-84550057D02*
X128904762Y-84502438D01*
X128904762Y-84502438D02*
X129000000Y-84454819D01*
X129952381Y-84454819D02*
X130047619Y-84454819D01*
X130047619Y-84454819D02*
X130142857Y-84502438D01*
X130142857Y-84502438D02*
X130190476Y-84550057D01*
X130190476Y-84550057D02*
X130238095Y-84645295D01*
X130238095Y-84645295D02*
X130285714Y-84835771D01*
X130285714Y-84835771D02*
X130285714Y-85073866D01*
X130285714Y-85073866D02*
X130238095Y-85264342D01*
X130238095Y-85264342D02*
X130190476Y-85359580D01*
X130190476Y-85359580D02*
X130142857Y-85407200D01*
X130142857Y-85407200D02*
X130047619Y-85454819D01*
X130047619Y-85454819D02*
X129952381Y-85454819D01*
X129952381Y-85454819D02*
X129857143Y-85407200D01*
X129857143Y-85407200D02*
X129809524Y-85359580D01*
X129809524Y-85359580D02*
X129761905Y-85264342D01*
X129761905Y-85264342D02*
X129714286Y-85073866D01*
X129714286Y-85073866D02*
X129714286Y-84835771D01*
X129714286Y-84835771D02*
X129761905Y-84645295D01*
X129761905Y-84645295D02*
X129809524Y-84550057D01*
X129809524Y-84550057D02*
X129857143Y-84502438D01*
X129857143Y-84502438D02*
X129952381Y-84454819D01*
X130714286Y-84788152D02*
X130714286Y-85454819D01*
X130714286Y-84883390D02*
X130761905Y-84835771D01*
X130761905Y-84835771D02*
X130857143Y-84788152D01*
X130857143Y-84788152D02*
X131000000Y-84788152D01*
X131000000Y-84788152D02*
X131095238Y-84835771D01*
X131095238Y-84835771D02*
X131142857Y-84931009D01*
X131142857Y-84931009D02*
X131142857Y-85454819D01*
D12*
%TO.C,C7*%
X151460000Y-105000000D02*
X153400000Y-105000000D01*
X153400000Y-103580000D02*
X153400000Y-106420000D01*
X153400000Y-106420000D02*
X157440000Y-106420000D01*
X157440000Y-103580000D02*
X153400000Y-103580000D01*
X157440000Y-106420000D02*
X157440000Y-103580000D01*
X159380000Y-105000000D02*
X157440000Y-105000000D01*
%TO.C,C2*%
X130580000Y-73480000D02*
X130580000Y-77520000D01*
X130580000Y-77520000D02*
X133420000Y-77520000D01*
X132000000Y-71540000D02*
X132000000Y-73480000D01*
X132000000Y-79460000D02*
X132000000Y-77520000D01*
X133420000Y-73480000D02*
X130580000Y-73480000D01*
X133420000Y-77520000D02*
X133420000Y-73480000D01*
%TO.C,C8*%
X130540000Y-112000000D02*
X132480000Y-112000000D01*
X132480000Y-110580000D02*
X132480000Y-113420000D01*
X132480000Y-113420000D02*
X136520000Y-113420000D01*
X136520000Y-110580000D02*
X132480000Y-110580000D01*
X136520000Y-113420000D02*
X136520000Y-110580000D01*
X138460000Y-112000000D02*
X136520000Y-112000000D01*
%TO.C,C1*%
X134080000Y-73480000D02*
X134080000Y-77520000D01*
X134080000Y-77520000D02*
X136920000Y-77520000D01*
X135500000Y-71540000D02*
X135500000Y-73480000D01*
X135500000Y-79460000D02*
X135500000Y-77520000D01*
X136920000Y-73480000D02*
X134080000Y-73480000D01*
X136920000Y-77520000D02*
X136920000Y-73480000D01*
%TO.C,U2*%
X128040000Y-88995000D02*
X128040000Y-108165000D01*
X128040000Y-108165000D02*
X133340000Y-108165000D01*
X129690000Y-88995000D02*
X128040000Y-88995000D01*
X133340000Y-88995000D02*
X131690000Y-88995000D01*
X133340000Y-108165000D02*
X133340000Y-88995000D01*
X131690000Y-88995000D02*
G75*
G02*
X129690000Y-88995000I-1000000J0D01*
G01*
%TO.C,D1*%
X141030000Y-89860000D02*
X141030000Y-95300000D01*
X141030000Y-95300000D02*
X143970000Y-95300000D01*
X142500000Y-88640000D02*
X142500000Y-89860000D01*
X142500000Y-96520000D02*
X142500000Y-95300000D01*
X143970000Y-89860000D02*
X141030000Y-89860000D01*
X143970000Y-90640000D02*
X141030000Y-90640000D01*
X143970000Y-90760000D02*
X141030000Y-90760000D01*
X143970000Y-90880000D02*
X141030000Y-90880000D01*
X143970000Y-95300000D02*
X143970000Y-89860000D01*
%TO.C,C6*%
X105540000Y-82500000D02*
X107480000Y-82500000D01*
X107480000Y-81080000D02*
X107480000Y-83920000D01*
X107480000Y-83920000D02*
X111520000Y-83920000D01*
X111520000Y-81080000D02*
X107480000Y-81080000D01*
X111520000Y-83920000D02*
X111520000Y-81080000D01*
X113460000Y-82500000D02*
X111520000Y-82500000D01*
%TO.C,Y1*%
X103240000Y-87170000D02*
X103240000Y-107320000D01*
X103990000Y-108070000D02*
X115390000Y-108070000D01*
X115390000Y-87170000D02*
X103240000Y-87170000D01*
X116140000Y-107320000D02*
X116140000Y-87920000D01*
X103990000Y-108070000D02*
G75*
G02*
X103240000Y-107320000I0J750000D01*
G01*
X115390000Y-87170000D02*
G75*
G02*
X116140000Y-87920000I0J-750000D01*
G01*
X116140000Y-107320000D02*
G75*
G02*
X115390000Y-108070000I-750000J0D01*
G01*
%TO.C,F1*%
X155860000Y-86540000D02*
G75*
G02*
X147140000Y-86540000I-4360000J0D01*
G01*
X147140000Y-86540000D02*
G75*
G02*
X155860000Y-86540000I4360000J0D01*
G01*
%TO.C,U1*%
X147190000Y-67920000D02*
X147190000Y-78160000D01*
X147190000Y-70500000D02*
X144650000Y-70500000D01*
X147190000Y-73040000D02*
X144650000Y-73040000D01*
X147190000Y-75580000D02*
X144650000Y-75580000D01*
X163080000Y-67920000D02*
X147190000Y-67920000D01*
X163080000Y-67920000D02*
X163080000Y-78160000D01*
X163080000Y-78160000D02*
X147190000Y-78160000D01*
%TO.C,C3*%
X118580000Y-73480000D02*
X118580000Y-77520000D01*
X118580000Y-77520000D02*
X121420000Y-77520000D01*
X120000000Y-71540000D02*
X120000000Y-73480000D01*
X120000000Y-79460000D02*
X120000000Y-77520000D01*
X121420000Y-73480000D02*
X118580000Y-73480000D01*
X121420000Y-77520000D02*
X121420000Y-73480000D01*
%TO.C,C4*%
X122080000Y-73480000D02*
X122080000Y-77520000D01*
X122080000Y-77520000D02*
X124920000Y-77520000D01*
X123500000Y-71540000D02*
X123500000Y-73480000D01*
X123500000Y-79460000D02*
X123500000Y-77520000D01*
X124920000Y-73480000D02*
X122080000Y-73480000D01*
X124920000Y-77520000D02*
X124920000Y-73480000D01*
%TO.C,R1*%
X151380000Y-101500000D02*
X152150000Y-101500000D01*
X152150000Y-100130000D02*
X152150000Y-102870000D01*
X152150000Y-102870000D02*
X158690000Y-102870000D01*
X158690000Y-100130000D02*
X152150000Y-100130000D01*
X158690000Y-102870000D02*
X158690000Y-100130000D01*
X159460000Y-101500000D02*
X158690000Y-101500000D01*
%TO.C,R4*%
X151380000Y-108500000D02*
X152150000Y-108500000D01*
X152150000Y-107130000D02*
X152150000Y-109870000D01*
X152150000Y-109870000D02*
X158690000Y-109870000D01*
X158690000Y-107130000D02*
X152150000Y-107130000D01*
X158690000Y-109870000D02*
X158690000Y-107130000D01*
X159460000Y-108500000D02*
X158690000Y-108500000D01*
%TO.C,D2*%
X151480000Y-112000000D02*
X152700000Y-112000000D01*
X152700000Y-110530000D02*
X152700000Y-113470000D01*
X152700000Y-113470000D02*
X158140000Y-113470000D01*
X153480000Y-110530000D02*
X153480000Y-113470000D01*
X153600000Y-110530000D02*
X153600000Y-113470000D01*
X153720000Y-110530000D02*
X153720000Y-113470000D01*
X158140000Y-110530000D02*
X152700000Y-110530000D01*
X158140000Y-113470000D02*
X158140000Y-110530000D01*
X159360000Y-112000000D02*
X158140000Y-112000000D01*
%TO.C,P2*%
X159315504Y-89918248D02*
X160645504Y-89918248D01*
X159315504Y-91248248D02*
X159315504Y-89918248D01*
X161915504Y-89918248D02*
X167055504Y-89918248D01*
X161915504Y-92578248D02*
X161915504Y-89918248D01*
X161915504Y-92578248D02*
X167055504Y-92578248D01*
X167055504Y-92578248D02*
X167055504Y-89918248D01*
%TO.C,J1*%
X170170000Y-72170000D02*
X171500000Y-72170000D01*
X170170000Y-73500000D02*
X170170000Y-72170000D01*
X170170000Y-74770000D02*
X170170000Y-97690000D01*
X170170000Y-74770000D02*
X172770000Y-74770000D01*
X170170000Y-97690000D02*
X175370000Y-97690000D01*
X172770000Y-72170000D02*
X175370000Y-72170000D01*
X172770000Y-74770000D02*
X172770000Y-72170000D01*
X175370000Y-72170000D02*
X175370000Y-97690000D01*
%TO.C,R2*%
X103075000Y-67970000D02*
X103075000Y-73040000D01*
X103075000Y-67970000D02*
X112845000Y-67970000D01*
X103075000Y-73040000D02*
X112845000Y-73040000D01*
X112845000Y-67970000D02*
X112845000Y-73040000D01*
%TO.C,R5*%
X111880000Y-112000000D02*
X112650000Y-112000000D01*
X112650000Y-110630000D02*
X112650000Y-113370000D01*
X112650000Y-113370000D02*
X119190000Y-113370000D01*
X119190000Y-110630000D02*
X112650000Y-110630000D01*
X119190000Y-113370000D02*
X119190000Y-110630000D01*
X119960000Y-112000000D02*
X119190000Y-112000000D01*
%TO.C,C5*%
X125540000Y-85000000D02*
X127480000Y-85000000D01*
X127480000Y-83580000D02*
X127480000Y-86420000D01*
X127480000Y-86420000D02*
X131520000Y-86420000D01*
X131520000Y-83580000D02*
X127480000Y-83580000D01*
X131520000Y-86420000D02*
X131520000Y-83580000D01*
X133460000Y-85000000D02*
X131520000Y-85000000D01*
%TD*%
M02*
