%TF.GenerationSoftware,KiCad,Pcbnew,8.0.4*%
%TF.CreationDate,2024-08-20T14:49:07-07:00*%
%TF.ProjectId,oscillator,6f736369-6c6c-4617-946f-722e6b696361,rev?*%
%TF.SameCoordinates,Original*%
%TF.FileFunction,Soldermask,Bot*%
%TF.FilePolarity,Negative*%
%FSLAX46Y46*%
G04 Gerber Fmt 4.6, Leading zero omitted, Abs format (unit mm)*
G04 Created by KiCad (PCBNEW 8.0.4) date 2024-08-20 14:49:07*
%MOMM*%
%LPD*%
G01*
G04 APERTURE LIST*
%ADD10C,2.200000*%
%ADD11C,1.600000*%
%ADD12O,1.600000X1.600000*%
%ADD13R,1.600000X1.600000*%
%ADD14R,1.800000X1.800000*%
%ADD15O,1.800000X1.800000*%
%ADD16C,2.000000*%
%ADD17O,3.500000X3.500000*%
%ADD18R,2.000000X1.905000*%
%ADD19O,2.000000X1.905000*%
%ADD20R,1.700000X1.700000*%
%ADD21O,1.700000X1.700000*%
%ADD22O,2.000000X2.000000*%
%ADD23C,1.440000*%
G04 APERTURE END LIST*
D10*
X184100000Y-84000000D02*
G75*
G02*
X181900000Y-84000000I-1100000J0D01*
G01*
X181900000Y-84000000D02*
G75*
G02*
X184100000Y-84000000I1100000J0D01*
G01*
D11*
%TO.C,C7*%
X150420000Y-105000000D03*
D12*
X160420000Y-105000000D03*
%TD*%
D11*
%TO.C,C2*%
X132000000Y-70500000D03*
D12*
X132000000Y-80500000D03*
%TD*%
D11*
%TO.C,C8*%
X129500000Y-112000000D03*
D12*
X139500000Y-112000000D03*
%TD*%
D11*
%TO.C,C1*%
X135500000Y-70500000D03*
D12*
X135500000Y-80500000D03*
%TD*%
D13*
%TO.C,U2*%
X126880000Y-90960000D03*
D11*
X126880000Y-93500000D03*
X126880000Y-96040000D03*
X126880000Y-98580000D03*
X126880000Y-101120000D03*
X126880000Y-103660000D03*
X126880000Y-106200000D03*
X134500000Y-106200000D03*
X134500000Y-103660000D03*
X134500000Y-101120000D03*
X134500000Y-98580000D03*
X134500000Y-96040000D03*
X134500000Y-93500000D03*
X134500000Y-90960000D03*
%TD*%
D14*
%TO.C,D1*%
X142500000Y-87500000D03*
D15*
X142500000Y-97660000D03*
%TD*%
D11*
%TO.C,C6*%
X104500000Y-82500000D03*
D12*
X114500000Y-82500000D03*
%TD*%
D13*
%TO.C,Y1*%
X105880000Y-90000000D03*
D11*
X105880000Y-105240000D03*
X113500000Y-105240000D03*
X113500000Y-90000000D03*
%TD*%
D16*
%TO.C,F1*%
X151500000Y-84000000D03*
X151500000Y-89080000D03*
%TD*%
D17*
%TO.C,U1*%
X160160000Y-73040000D03*
D18*
X143500000Y-70500000D03*
D19*
X143500000Y-73040000D03*
X143500000Y-75580000D03*
%TD*%
D11*
%TO.C,C3*%
X120000000Y-70500000D03*
D12*
X120000000Y-80500000D03*
%TD*%
D11*
%TO.C,C4*%
X123500000Y-70500000D03*
D12*
X123500000Y-80500000D03*
%TD*%
D11*
%TO.C,R1*%
X150340000Y-101500000D03*
D12*
X160500000Y-101500000D03*
%TD*%
D11*
%TO.C,R4*%
X150340000Y-108500000D03*
D12*
X160500000Y-108500000D03*
%TD*%
D14*
%TO.C,D2*%
X150340000Y-112000000D03*
D15*
X160500000Y-112000000D03*
%TD*%
D20*
%TO.C,P2*%
X160645504Y-91248248D03*
D21*
X163185504Y-91248248D03*
X165725504Y-91248248D03*
%TD*%
D20*
%TO.C,J1*%
X171500000Y-73500000D03*
D21*
X171500000Y-76040000D03*
X171500000Y-78580000D03*
X171500000Y-81120000D03*
X171500000Y-83660000D03*
X171500000Y-86200000D03*
X171500000Y-88740000D03*
X171500000Y-91280000D03*
X171500000Y-93820000D03*
X171500000Y-96360000D03*
D22*
X174040000Y-73500000D03*
X174040000Y-76040000D03*
X174040000Y-78580000D03*
X174040000Y-81120000D03*
X174040000Y-83660000D03*
X174040000Y-86200000D03*
X174040000Y-88740000D03*
X174040000Y-91280000D03*
X174040000Y-93820000D03*
X174040000Y-96360000D03*
%TD*%
D23*
%TO.C,R2*%
X110500000Y-70500000D03*
X107960000Y-70500000D03*
X105420000Y-70500000D03*
%TD*%
D11*
%TO.C,R5*%
X121000000Y-112000000D03*
D12*
X110840000Y-112000000D03*
%TD*%
D11*
%TO.C,C5*%
X124500000Y-85000000D03*
D12*
X134500000Y-85000000D03*
%TD*%
M02*
