<svg version="1.1" xmlns="http://www.w3.org/2000/svg" xmlns:xlink="http://www.w3.org/1999/xlink" stroke-linecap="round" stroke-linejoin="round" stroke-width="0" fill-rule="evenodd" width="3.0695349999999997in" height="1.68556in" viewBox="2083.205 2463.44 3069.535 1685.56" id="mbRmUiJZoyWt_qKeI8N6"><defs><rect x="-301.5" y="-201.5" width="603" height="403" id="mbRmUiJZoyWt_qKeI8N6_pad-16"/><circle cx="0" cy="0" r="31.56" id="mbRmUiJZoyWt_qKeI8N6_pad-17"/><rect x="-33.53" y="-33.53" width="67.06" height="67.06" id="mbRmUiJZoyWt_qKeI8N6_pad-18"/><circle cx="0" cy="0" r="33.53" id="mbRmUiJZoyWt_qKeI8N6_pad-19"/><circle cx="0" cy="0" r="27.62" id="mbRmUiJZoyWt_qKeI8N6_pad-20"/><circle cx="0" cy="0" r="28.565" id="mbRmUiJZoyWt_qKeI8N6_pad-21"/><rect x="-28.565" y="-28.565" width="57.13" height="57.13" id="mbRmUiJZoyWt_qKeI8N6_pad-22"/><rect x="-44" y="-44" width="88" height="88" id="mbRmUiJZoyWt_qKeI8N6_pad-23"/><circle cx="0" cy="0" r="92.585" id="mbRmUiJZoyWt_qKeI8N6_pad-24"/><rect x="-33.53" y="-33.53" width="67.06" height="67.06" id="mbRmUiJZoyWt_qKeI8N6_pad-25"/><circle cx="0" cy="0" r="33.53" id="mbRmUiJZoyWt_qKeI8N6_pad-26"/><circle cx="0" cy="0" r="26.795" id="mbRmUiJZoyWt_qKeI8N6_pad-27"/><rect x="-26.795" y="-26.795" width="53.59" height="53.59" id="mbRmUiJZoyWt_qKeI8N6_pad-28"/><circle cx="0" cy="0" r="82.74" id="mbRmUiJZoyWt_qKeI8N6_pad-29"/></defs><g transform="translate(0,6612.4400000000005) scale(1,-1)" fill="currentColor" stroke="currentColor"><use xlink:href="#mbRmUiJZoyWt_qKeI8N6_pad-16" x="4107.5" y="3947.5"/><use xlink:href="#mbRmUiJZoyWt_qKeI8N6_pad-17" x="3840" y="2690"/><use xlink:href="#mbRmUiJZoyWt_qKeI8N6_pad-17" x="4240" y="2690"/><use xlink:href="#mbRmUiJZoyWt_qKeI8N6_pad-17" x="3515" y="3515"/><use xlink:href="#mbRmUiJZoyWt_qKeI8N6_pad-17" x="3515" y="3115"/><use xlink:href="#mbRmUiJZoyWt_qKeI8N6_pad-17" x="4130" y="3395"/><use xlink:href="#mbRmUiJZoyWt_qKeI8N6_pad-17" x="4130" y="3590"/><use xlink:href="#mbRmUiJZoyWt_qKeI8N6_pad-17" x="2780" y="2495"/><use xlink:href="#mbRmUiJZoyWt_qKeI8N6_pad-17" x="2380" y="2495"/><use xlink:href="#mbRmUiJZoyWt_qKeI8N6_pad-17" x="3840" y="2820"/><use xlink:href="#mbRmUiJZoyWt_qKeI8N6_pad-17" x="4240" y="2820"/><use xlink:href="#mbRmUiJZoyWt_qKeI8N6_pad-17" x="4240" y="3195"/><use xlink:href="#mbRmUiJZoyWt_qKeI8N6_pad-17" x="3840" y="3195"/><use xlink:href="#mbRmUiJZoyWt_qKeI8N6_pad-18" x="4615" y="3985"/><use xlink:href="#mbRmUiJZoyWt_qKeI8N6_pad-18" x="4400" y="3575"/><use xlink:href="#mbRmUiJZoyWt_qKeI8N6_pad-19" x="4615" y="3885"/><use xlink:href="#mbRmUiJZoyWt_qKeI8N6_pad-19" x="4615" y="3785"/><use xlink:href="#mbRmUiJZoyWt_qKeI8N6_pad-19" x="4615" y="3685"/><use xlink:href="#mbRmUiJZoyWt_qKeI8N6_pad-19" x="4615" y="3585"/><use xlink:href="#mbRmUiJZoyWt_qKeI8N6_pad-19" x="4615" y="3485"/><use xlink:href="#mbRmUiJZoyWt_qKeI8N6_pad-19" x="4615" y="3385"/><use xlink:href="#mbRmUiJZoyWt_qKeI8N6_pad-19" x="4615" y="3285"/><use xlink:href="#mbRmUiJZoyWt_qKeI8N6_pad-19" x="4615" y="3185"/><use xlink:href="#mbRmUiJZoyWt_qKeI8N6_pad-19" x="4615" y="3085"/><use xlink:href="#mbRmUiJZoyWt_qKeI8N6_pad-19" x="4715" y="3985"/><use xlink:href="#mbRmUiJZoyWt_qKeI8N6_pad-19" x="4715" y="3885"/><use xlink:href="#mbRmUiJZoyWt_qKeI8N6_pad-19" x="4715" y="3785"/><use xlink:href="#mbRmUiJZoyWt_qKeI8N6_pad-19" x="4715" y="3685"/><use xlink:href="#mbRmUiJZoyWt_qKeI8N6_pad-19" x="4715" y="3585"/><use xlink:href="#mbRmUiJZoyWt_qKeI8N6_pad-19" x="4715" y="3485"/><use xlink:href="#mbRmUiJZoyWt_qKeI8N6_pad-19" x="4715" y="3385"/><use xlink:href="#mbRmUiJZoyWt_qKeI8N6_pad-19" x="4715" y="3285"/><use xlink:href="#mbRmUiJZoyWt_qKeI8N6_pad-19" x="4715" y="3185"/><use xlink:href="#mbRmUiJZoyWt_qKeI8N6_pad-19" x="4715" y="3085"/><use xlink:href="#mbRmUiJZoyWt_qKeI8N6_pad-19" x="4400" y="3475"/><use xlink:href="#mbRmUiJZoyWt_qKeI8N6_pad-19" x="4400" y="3375"/><use xlink:href="#mbRmUiJZoyWt_qKeI8N6_pad-20" x="3065" y="2500"/><use xlink:href="#mbRmUiJZoyWt_qKeI8N6_pad-20" x="3365" y="2500"/><use xlink:href="#mbRmUiJZoyWt_qKeI8N6_pad-20" x="2415" y="3680"/><use xlink:href="#mbRmUiJZoyWt_qKeI8N6_pad-20" x="2115" y="3680"/><use xlink:href="#mbRmUiJZoyWt_qKeI8N6_pad-20" x="2815" y="3765"/><use xlink:href="#mbRmUiJZoyWt_qKeI8N6_pad-20" x="2815" y="4065"/><use xlink:href="#mbRmUiJZoyWt_qKeI8N6_pad-20" x="2945" y="3515"/><use xlink:href="#mbRmUiJZoyWt_qKeI8N6_pad-20" x="3245" y="3515"/><use xlink:href="#mbRmUiJZoyWt_qKeI8N6_pad-20" x="4140" y="3020"/><use xlink:href="#mbRmUiJZoyWt_qKeI8N6_pad-20" x="3840" y="3020"/><use xlink:href="#mbRmUiJZoyWt_qKeI8N6_pad-20" x="2640" y="3765"/><use xlink:href="#mbRmUiJZoyWt_qKeI8N6_pad-20" x="2640" y="4065"/><use xlink:href="#mbRmUiJZoyWt_qKeI8N6_pad-20" x="3205" y="3750"/><use xlink:href="#mbRmUiJZoyWt_qKeI8N6_pad-20" x="3205" y="4050"/><use xlink:href="#mbRmUiJZoyWt_qKeI8N6_pad-20" x="3375" y="3750"/><use xlink:href="#mbRmUiJZoyWt_qKeI8N6_pad-20" x="3375" y="4050"/><use xlink:href="#mbRmUiJZoyWt_qKeI8N6_pad-21" x="2315" y="4070"/><use xlink:href="#mbRmUiJZoyWt_qKeI8N6_pad-21" x="2215" y="4070"/><use xlink:href="#mbRmUiJZoyWt_qKeI8N6_pad-22" x="2115" y="4070"/><use xlink:href="#mbRmUiJZoyWt_qKeI8N6_pad-23" x="3610" y="4050"/><use xlink:href="#mbRmUiJZoyWt_qKeI8N6_pad-23" x="3610" y="3950"/><use xlink:href="#mbRmUiJZoyWt_qKeI8N6_pad-23" x="3610" y="3850"/><use xlink:href="#mbRmUiJZoyWt_qKeI8N6_pad-24" x="4310" y="3950"/><use xlink:href="#mbRmUiJZoyWt_qKeI8N6_pad-25" x="2945" y="3310"/><use xlink:href="#mbRmUiJZoyWt_qKeI8N6_pad-26" x="2945" y="3210"/><use xlink:href="#mbRmUiJZoyWt_qKeI8N6_pad-26" x="2945" y="3110"/><use xlink:href="#mbRmUiJZoyWt_qKeI8N6_pad-26" x="2945" y="3010"/><use xlink:href="#mbRmUiJZoyWt_qKeI8N6_pad-26" x="2945" y="2910"/><use xlink:href="#mbRmUiJZoyWt_qKeI8N6_pad-26" x="2945" y="2810"/><use xlink:href="#mbRmUiJZoyWt_qKeI8N6_pad-26" x="2945" y="2710"/><use xlink:href="#mbRmUiJZoyWt_qKeI8N6_pad-26" x="3245" y="3310"/><use xlink:href="#mbRmUiJZoyWt_qKeI8N6_pad-26" x="3245" y="3210"/><use xlink:href="#mbRmUiJZoyWt_qKeI8N6_pad-26" x="3245" y="3110"/><use xlink:href="#mbRmUiJZoyWt_qKeI8N6_pad-26" x="3245" y="3010"/><use xlink:href="#mbRmUiJZoyWt_qKeI8N6_pad-26" x="3245" y="2910"/><use xlink:href="#mbRmUiJZoyWt_qKeI8N6_pad-26" x="3245" y="2810"/><use xlink:href="#mbRmUiJZoyWt_qKeI8N6_pad-26" x="3245" y="2710"/><use xlink:href="#mbRmUiJZoyWt_qKeI8N6_pad-27" x="2410" y="3300"/><use xlink:href="#mbRmUiJZoyWt_qKeI8N6_pad-27" x="2410" y="2700"/><use xlink:href="#mbRmUiJZoyWt_qKeI8N6_pad-27" x="2110" y="2700"/><use xlink:href="#mbRmUiJZoyWt_qKeI8N6_pad-28" x="2110" y="3300"/><use xlink:href="#mbRmUiJZoyWt_qKeI8N6_pad-29" x="5070" y="3600"/></g></svg>