<svg version="1.1" xmlns="http://www.w3.org/2000/svg" xmlns:xlink="http://www.w3.org/1999/xlink" stroke-linecap="round" stroke-linejoin="round" stroke-width="0" fill-rule="evenodd" width="2.771275in" height="1.848925in" viewBox="1997.66 2421.065 2771.275 1848.925" id="rKqF-imXd5NIhoU7b7eF"><g transform="translate(0,6691.055) scale(1,-1)" fill="currentColor" stroke="currentColor"><path d="M 4316.81 3495 4316.55 3505.03 4315.74 3515.03 4314.4 3524.97 4312.52 3534.82 4310.12 3544.56 4307.2 3554.16 4303.77 3563.59 4299.84 3572.81 4295.42 3581.82 4290.52 3590.57 4285.16 3599.05 4279.35 3607.23 4273.11 3615.08 4266.46 3622.59 4259.41 3629.73 4251.99 3636.48 4244.22 3642.83 4236.12 3648.75 4227.72 3654.22 4219.03 3659.24 4210.09 3663.78 4200.91 3667.83 4191.53 3671.39 4181.97 3674.44 4172.27 3676.97 4162.44 3678.98 4152.52 3680.45 4142.53 3681.4 4132.51 3681.8 4122.48 3681.66 4112.47 3680.99 4102.51 3679.78 4092.63 3678.04 4082.86 3675.77 4073.23 3672.98 4063.76 3669.68 4054.47 3665.87 4045.41 3661.57 4036.59 3656.79 4028.04 3651.54 4019.79 3645.84 4011.85 3639.71 4004.25 3633.16 3997.02 3626.21 3990.17 3618.88 3983.72 3611.2 3977.69 3603.18 3972.11 3594.85 3966.97 3586.23 3962.31 3577.34 3958.13 3568.23 3954.45 3558.9 3951.27 3549.38 3948.61 3539.71 3946.48 3529.91 3944.87 3520.01 3943.79 3510.03 3943.25 3500.02 3943.25 3489.98 3943.79 3479.97 3944.87 3470 3946.48 3460.09 3948.61 3450.29 3951.27 3440.62 3954.45 3431.11 3958.13 3421.78 3962.31 3412.66 3966.97 3403.77 3972.11 3395.15 3977.69 3386.82 3983.72 3378.8 3990.17 3371.12 3997.02 3363.79 4004.25 3356.84 4011.85 3350.29 4019.79 3344.16 4028.04 3338.46 4036.59 3333.21 4045.41 3328.43 4054.47 3324.13 4063.75 3320.32 4073.23 3317.02 4082.86 3314.23 4092.63 3311.96 4102.51 3310.22 4112.47 3309.01 4122.48 3308.34 4132.51 3308.2 4142.53 3308.6 4152.52 3309.55 4162.44 3311.02 4172.27 3313.03 4181.97 3315.56 4191.53 3318.61 4200.91 3322.17 4210.09 3326.22 4219.03 3330.76 4227.72 3335.78 4236.12 3341.25 4244.22 3347.17 4251.99 3353.52 4259.41 3360.27 4266.46 3367.41 4273.11 3374.92 4279.35 3382.77 4285.16 3390.95 4290.52 3399.43 4295.42 3408.18 4299.84 3417.19 4303.77 3426.42 4307.2 3435.84 4310.12 3445.44 4312.52 3455.18 4314.4 3465.03 4315.74 3474.97 4316.55 3484.97 4316.81 3495 M 4224.99 2619.98 4214.99 2629.98 4195 2629.98 4185 2619.98 4185 2580 4195 2570 4214.99 2570 4224.99 2580 4224.99 2599.99 4204.99 2599.99 M 4244.98 2570 4244.98 2629.98 4284.97 2570 4284.97 2629.98 M 4304.96 2629.98 4304.96 2570 4334.95 2570 4344.95 2580 4344.95 2619.98 4334.95 2629.98 4304.96 2629.98 M 3479.99 3044.98 3469.99 3054.98 3450 3054.98 3440 3044.98 3440 3005 3450 2995 3469.99 2995 3479.99 3005 3479.99 3024.99 3459.99 3024.99 M 3499.98 2995 3499.98 3054.98 3539.97 2995 3539.97 3054.98 M 3559.96 3054.98 3559.96 2995 3589.95 2995 3599.95 3005 3599.95 3044.98 3589.95 3054.98 3559.96 3054.98 M 4020 3519.99 3980.01 3519.99 3980.01 3490 4000.01 3490 3980.01 3490 3980.01 3460.01 M 4039.99 3460.01 4059.99 3460.01 4049.99 3460.01 4049.99 3519.99 4039.99 3509.99 M 3654.99 3399.97 3595.01 3399.97 3595.01 3429.96 3605.01 3439.96 3625 3439.96 3635 3429.96 3635 3399.97 M 3595.01 3379.98 3595.01 3359.98 3595.01 3369.98 3635 3369.98 3635 3379.98 M 3595.01 3319.99 3595.01 3300 3605.01 3290 3625 3290 3635 3300 3635 3319.99 3625 3329.99 3605.01 3329.99 3595.01 3319.99 M 3654.99 3230.02 3595.01 3230.02 3595.01 3260.02 3605.01 3270.01 3625 3270.01 3635 3260.02 3635 3230.02 M 3595.01 3180.04 3595.01 3200.03 3605.01 3210.03 3625 3210.03 3635 3200.03 3635 3180.04 3625 3170.04 3615 3170.04 3615 3210.03 M 4345.03 2729.99 4345.03 2670.01 4315.04 2670.01 4305.04 2680.01 4305.04 2700 4315.04 2710 4345.03 2710 M 4365.02 2670.01 4385.02 2670.01 4375.02 2670.01 4375.02 2710 4365.02 2710 M 4425 2670.01 4445 2670.01 4455 2680.01 4455 2700 4445 2710 4425 2710 4415.01 2700 4415.01 2680.01 4425 2670.01 M 4514.98 2729.99 4514.98 2670.01 4484.98 2670.01 4474.99 2680.01 4474.99 2700 4484.98 2710 4514.98 2710 M 4564.96 2670.01 4544.97 2670.01 4534.97 2680.01 4534.97 2700 4544.97 2710 4564.96 2710 4574.96 2700 4574.96 2690 4534.97 2690 M 2545.01 3334.99 2545.01 3324.99 2565.01 3305 2585 3324.99 2585 3334.99 M 2565.01 3305 2565.01 3275.01 M 2604.99 3275.01 2624.99 3275.01 2614.99 3275.01 2614.99 3334.99 2604.99 3324.99 M 2760.02 2954.99 2760.02 2905.01 2770.01 2895.01 2790.01 2895.01 2800 2905.01 2800 2954.99 M 2859.98 2895.01 2820 2895.01 2859.98 2935 2859.98 2944.99 2849.99 2954.99 2829.99 2954.99 2820 2944.99 M 4055.01 4259.99 4055.01 4210.01 4065.01 4200.01 4085 4200.01 4095 4210.01 4095 4259.99 M 4114.99 4200.01 4134.99 4200.01 4124.99 4200.01 4124.99 4259.99 4114.99 4249.99 M 2210.02 2465.01 2210.02 2524.99 2240.01 2524.99 2250 2514.99 2250 2495 2240.01 2485 2210.02 2485 M 2230.01 2485 2250 2465.01 M 2309.98 2524.99 2270 2524.99 2270 2495 2289.99 2505 2299.99 2505 2309.98 2495 2309.98 2475.01 2299.99 2465.01 2279.99 2465.01 2270 2475.01 M 4300.02 2790.01 4300.02 2849.99 4330.01 2849.99 4340 2839.99 4340 2820 4330.01 2810 4300.02 2810 M 4320.01 2810 4340 2790.01 M 4389.99 2790.01 4389.99 2849.99 4360 2820 4399.98 2820 M 2160.02 4205.01 2160.02 4264.99 2190.01 4264.99 2200 4254.99 2200 4235 2190.01 4225 2160.02 4225 M 2180.01 4225 2200 4205.01 M 2259.98 4205.01 2220 4205.01 2259.98 4245 2259.98 4254.99 2249.99 4264.99 2229.99 4264.99 2220 4254.99 M 4300.01 3165.01 4300.01 3224.99 4330 3224.99 4340 3214.99 4340 3195 4330 3185 4300.01 3185 M 4320.01 3185 4340 3165.01 M 4359.99 3165.01 4379.99 3165.01 4369.99 3165.01 4369.99 3224.99 4359.99 3214.99 M 4350.02 3650.01 4350.02 3709.99 4380.01 3709.99 4390 3699.99 4390 3680 4380.01 3670 4350.02 3670 M 4449.98 3650.01 4410 3650.01 4449.98 3690 4449.98 3699.99 4439.99 3709.99 4419.99 3709.99 4410 3699.99 M 4571 4143 4571 4202.98 4600.99 4202.98 4610.99 4192.98 4610.99 4172.99 4600.99 4162.99 4571 4162.99 M 4630.98 4143 4650.97 4143 4640.98 4143 4640.98 4202.98 4630.98 4192.98 M 3510 2524.99 3500.01 2534.99 3480.01 2534.99 3470.02 2524.99 3470.02 2485.01 3480.01 2475.01 3500.01 2475.01 3510 2485.01 M 3530 2524.99 3539.99 2534.99 3559.99 2534.99 3569.98 2524.99 3569.98 2515 3559.99 2505 3569.98 2495 3569.98 2485.01 3559.99 2475.01 3539.99 2475.01 3530 2485.01 3530 2495 3539.99 2505 3530 2515 3530 2524.99 M 3539.99 2505 3559.99 2505 M 4330 3029.99 4320.01 3039.99 4300.01 3039.99 4290.02 3029.99 4290.02 2990.01 4300.01 2980.01 4320.01 2980.01 4330 2990.01 M 4350 3039.99 4389.98 3039.99 4389.98 3029.99 4350 2990.01 4350 2980.01 M 2250 3824.99 2240.01 3834.99 2220.01 3834.99 2210.02 3824.99 2210.02 3785.01 2220.01 3775.01 2240.01 3775.01 2250 3785.01 M 2309.98 3834.99 2289.99 3824.99 2270 3805 2270 3785.01 2279.99 3775.01 2299.99 3775.01 2309.98 3785.01 2309.98 3795 2299.99 3805 2270 3805 M 2780 3529.99 2770.01 3539.99 2750.01 3539.99 2740.02 3529.99 2740.02 3490.01 2750.01 3480.01 2770.01 3480.01 2780 3490.01 M 2839.98 3539.99 2800 3539.99 2800 3510 2819.99 3520 2829.99 3520 2839.98 3510 2839.98 3490.01 2829.99 3480.01 2809.99 3480.01 2800 3490.01 M 2805 4229.99 2795.01 4239.99 2775.01 4239.99 2765.02 4229.99 2765.02 4190.01 2775.01 4180.01 2795.01 4180.01 2805 4190.01 M 2854.99 4180.01 2854.99 4239.99 2825 4210 2864.98 4210 M 2620 4229.99 2610.01 4239.99 2590.01 4239.99 2580.02 4229.99 2580.02 4190.01 2590.01 4180.01 2610.01 4180.01 2620 4190.01 M 2640 4229.99 2649.99 4239.99 2669.99 4239.99 2679.98 4229.99 2679.98 4220 2669.99 4210 2659.99 4210 2669.99 4210 2679.98 4200 2679.98 4190.01 2669.99 4180.01 2649.99 4180.01 2640 4190.01 M 3190 4199.99 3180.01 4209.99 3160.01 4209.99 3150.02 4199.99 3150.02 4160.01 3160.01 4150.01 3180.01 4150.01 3190 4160.01 M 3249.98 4150.01 3210 4150.01 3249.98 4190 3249.98 4199.99 3239.99 4209.99 3219.99 4209.99 3210 4199.99 M 3375 4199.99 3365 4209.99 3345.01 4209.99 3335.01 4199.99 3335.01 4160.01 3345.01 4150.01 3365 4150.01 3375 4160.01 M 3394.99 4150.01 3414.99 4150.01 3404.99 4150.01 3404.99 4209.99 3394.99 4199.99" fill="none" stroke-width="10"/><path d="M 2010.67 4070 2002.79 4070 2010.67 4070 M 3070 3397.79 3071.9 3388.23 3077.32 3380.12 3085.43 3374.7 3095 3372.8 3104.57 3374.7 3112.68 3380.12 3118.1 3388.23 3120 3397.79 M 2106.46 3433.07 2098.58 3433.07 2106.46 3433.07 M 3880 2690 3910 2690 M 4170 2690 4200 2690 M 3960 2640 3960 2740 M 3910 2640 4170 2640 M 3910 2640 3910 2740 4170 2740 M 4170 2640 4170 2740 M 3515 3445 3515 3475 M 3515 3155 3515 3185 M 3465 3395 3565 3395 M 3465 3185 3465 3445 3565 3445 M 3565 3185 3565 3445 M 3465 3185 3565 3185 M 4565 3035 4765 3035 M 4565 3035 4565 4035 4765 4035 M 4765 3035 4765 4035 M 4130 3435 4160 3435 4160 3550 M 4100 3550 4160 3550 M 4100 3435 4100 3550 M 4100 3435 4130 3435 M 2990 2575 3440 2575 M 2990 2425 2990 2575 M 2990 2425 3440 2425 3440 2575 M 4350 3325 4350 3625 M 4350 3325 4450 3325 4450 3625 M 4350 3625 4450 3625 M 2990.67 3397.79 3070 3397.79 M 3120 3397.79 3199.33 3397.79 M 2990.67 2622.21 3199.33 2622.21 M 2990.67 2622.21 2990.67 3397.79 M 3199.33 2622.21 3199.33 3397.79 M 2040 3605 2490 3605 2490 3755 M 2040 3755 2490 3755 M 2040 3605 2040 3755 M 2740 3690 2740 4140 M 2740 3690 2890 3690 2890 4140 M 2740 4140 2890 4140 M 2700 2495 2740 2495 M 2420 2495 2460 2495 M 2460 2455 2700 2455 2700 2535 M 2460 2535 2700 2535 M 2460 2455 2460 2535 M 2870 3590 3320 3590 M 2870 3440 2870 3590 M 2870 3440 3320 3440 3320 3590 M 3880 2820 3920 2820 M 4160 2820 4200 2820 M 3920 2860 4160 2860 M 3920 2780 3920 2860 M 3920 2780 4160 2780 4160 2860 M 3765 2945 4215 2945 4215 3095 M 3765 3095 4215 3095 M 3765 2945 3765 3095 M 4160 3195 4200 3195 M 3880 3195 3920 3195 M 3920 3155 4160 3155 4160 3235 M 3920 3235 4160 3235 M 3920 3155 3920 3235 M 2565 3690 2565 4140 M 2565 3690 2715 3690 2715 4140 M 2565 4140 2715 4140 M 3130 3675 3130 4125 M 3130 3675 3280 3675 3280 4125 M 3130 4125 3280 4125 M 3300 3675 3300 4125 M 3300 3675 3450 3675 3450 4125 M 3300 4125 3450 4125" fill="none" stroke-width="7.87"/><path d="M 2469.05 2589.37 2478.96 2590.34 2488.49 2593.24 2497.27 2597.93 2504.97 2604.24 2511.29 2611.94 2515.98 2620.72 2518.87 2630.25 2519.84 2640.16 M 2000.16 2640.16 2001.13 2630.25 2004.02 2620.72 2008.72 2611.94 2015.03 2604.24 2022.73 2597.93 2031.51 2593.24 2041.04 2590.34 2050.95 2589.37 M 2519.84 3359.84 2518.87 3369.75 2515.98 3379.28 2511.29 3388.06 2504.97 3395.76 2497.27 3402.07 2488.49 3406.76 2478.96 3409.66 2469.05 3410.63 M 2027.4 4165.28 2402.6 4165.28 M 2027.4 3975.12 2027.4 4165.28 M 2027.4 3975.12 2402.6 3975.12 2402.6 4165.28 M 2360 2589.37 2468.66 2589.37 M 2519.84 2639.76 2519.84 2750 M 2051.34 2589.37 2160 2589.37 M 2000.16 2639.76 2000.16 2750 M 2000.16 3300 2000.16 3410.63 2110 3410.63 M 2360 3410.63 2468.66 3410.63 M 2519.84 3250 2519.84 3360.24 M 3325 2820.97 3325 2850.96 3339.99 2850.96 3344.99 2845.96 3344.99 2835.97 3339.99 2830.97 3325 2830.97 M 3374.98 2820.97 3354.99 2820.97 3374.98 2840.97 3374.98 2845.96 3369.99 2850.96 3359.99 2850.96 3354.99 2845.96 M 3384.98 2840.97 3389.98 2840.97 3389.98 2835.97 3384.98 2835.97 3384.98 2840.97 M 3384.98 2825.97 3389.98 2825.97 3389.98 2820.97 3384.98 2820.97 3384.98 2825.97 M 3325 2772.98 3335 2772.98 3330 2772.98 3330 2802.98 3325 2797.98 M 3349.99 2787.98 3369.99 2787.98 M 3399.98 2772.98 3379.98 2772.98 3399.98 2792.98 3399.98 2797.98 3394.98 2802.98 3384.98 2802.98 3379.98 2797.98 M 3439.96 2782.98 3459.96 2782.98 M 3439.96 2792.98 3459.96 2792.98 M 3514.94 2802.98 3504.94 2802.98 3499.94 2797.98 3499.94 2777.98 3504.94 2772.98 3514.94 2772.98 3519.94 2777.98 3519.94 2797.98 3514.94 2802.98 M 3529.93 2772.98 3529.93 2802.98 3549.93 2772.98 3549.93 2802.98 M 3559.92 2772.98 3579.92 2792.98 M 3609.91 2797.98 3604.91 2802.98 3594.91 2802.98 3589.91 2797.98 3589.91 2792.98 3594.91 2787.98 3604.91 2787.98 3609.91 2782.98 3609.91 2777.98 3604.91 2772.98 3594.91 2772.98 3589.91 2777.98 M 3624.9 2797.98 3624.9 2792.98 3619.9 2792.98 3629.9 2792.98 3624.9 2792.98 3624.9 2777.98 3629.9 2772.98 M 3649.89 2792.98 3659.89 2792.98 3664.89 2787.98 3664.89 2772.98 3649.89 2772.98 3644.9 2777.98 3649.89 2782.98 3664.89 2782.98 M 3674.89 2772.98 3674.89 2792.98 3689.88 2792.98 3694.88 2787.98 3694.88 2772.98 M 3724.87 2802.98 3724.87 2772.98 3709.88 2772.98 3704.88 2777.98 3704.88 2787.98 3709.88 2792.98 3724.87 2792.98 M 3734.87 2802.98 3734.87 2772.98 3749.86 2772.98 3754.86 2777.98 3754.86 2782.98 3754.86 2787.98 3749.86 2792.98 3734.87 2792.98 M 3764.86 2792.98 3764.86 2777.98 3769.86 2772.98 3784.85 2772.98 3784.85 2767.99 3779.85 2762.99 3774.85 2762.99 M 3784.85 2772.98 3784.85 2792.98 M 3344.99 2715 3325 2715 3344.99 2734.99 3344.99 2739.99 3339.99 2744.99 3330 2744.99 3325 2739.99 M 3354.99 2730 3374.98 2730 M 3384.98 2739.99 3389.98 2744.99 3399.98 2744.99 3404.97 2739.99 3404.97 2734.99 3399.98 2730 3394.98 2730 3399.98 2730 3404.97 2725 3404.97 2720 3399.98 2715 3389.98 2715 3384.98 2720 M 3444.96 2725 3464.96 2725 M 3444.96 2734.99 3464.96 2734.99 M 3519.94 2744.99 3509.94 2744.99 3504.94 2739.99 3504.94 2720 3509.94 2715 3519.94 2715 3524.94 2720 3524.94 2739.99 3519.94 2744.99 M 3534.93 2715 3534.93 2744.99 3554.93 2715 3554.93 2744.99 M 3564.92 2715 3584.92 2734.99 M 3609.91 2744.99 3599.91 2744.99 3594.91 2739.99 3594.91 2720 3599.91 2715 3609.91 2715 3614.91 2720 3614.91 2739.99 3609.91 2744.99 M 3644.9 2744.99 3624.9 2744.99 3624.9 2730 3634.9 2730 3624.9 2730 3624.9 2715 M 3674.89 2744.99 3654.89 2744.99 3654.89 2730 3664.89 2730 3654.89 2730 3654.89 2715" fill="none" stroke-width="5"/><path d="M 3670 3850 3810 3850 M 3670 3950 3810 3950 M 3670 4050 3810 4050 M 4360 4150 4410 4150 M 4360 4100 4360 4150 M 4260 4100 4360 4100 M 4260 4100 4260 4150 M 3810 4150 4260 4150 M 3810 3750 3810 4150 M 3810 3750 4260 3750 4260 3800 4360 3800 M 4360 3750 4360 3800 M 4360 3750 4410 3750 4410 4150" fill="none" stroke-width="12"/><path d="M 4575 4065 4575 4048.34 4575 4056.67 4624.98 4056.67 4616.65 4065 M 4695 4105 4695 4088.34 4695 4096.67 4744.98 4096.67 4736.65 4105 M 4695 4065 4695 4048.34 4695 4056.67 4744.98 4056.67 4736.65 4065 M 4595 3025 4595 3008.34 4595 3016.67 4644.98 3016.67 4636.65 3025 M 4636.65 2983.35 4644.98 2975.02 4644.98 2958.35 4636.65 2950.02 4603.33 2950.02 4595 2958.35 4595 2975.02 4603.33 2983.35 4636.65 2983.35 M 4695 2991.68 4695 3025 4728.32 2991.68 4736.65 2991.68 4744.98 3000.01 4744.98 3016.67 4736.65 3025 M 4736.65 2975.02 4744.98 2966.69 4744.98 2950.02 4736.65 2941.69 4703.33 2941.69 4695 2950.02 4695 2966.69 4703.33 2975.02 4736.65 2975.02" fill="none" stroke-width="8"/></g></svg>