<svg version="1.1" xmlns="http://www.w3.org/2000/svg" xmlns:xlink="http://www.w3.org/1999/xlink" stroke-linecap="round" stroke-linejoin="round" stroke-width="0" fill-rule="evenodd" width="3.0416950000000003in" height="1.606295in" viewBox="2097.205 2478.27 3041.695 1606.295" id="fvgaOPBp-BsG6FRZScR0"><defs><circle cx="0" cy="0" r="12.795" id="fvgaOPBp-BsG6FRZScR0_pad-1"/><circle cx="0" cy="0" r="13.78" id="fvgaOPBp-BsG6FRZScR0_pad-2"/><circle cx="0" cy="0" r="14.565" id="fvgaOPBp-BsG6FRZScR0_pad-3"/><circle cx="0" cy="0" r="16.73" id="fvgaOPBp-BsG6FRZScR0_pad-4"/><circle cx="0" cy="0" r="17.715" id="fvgaOPBp-BsG6FRZScR0_pad-5"/><circle cx="0" cy="0" r="20" id="fvgaOPBp-BsG6FRZScR0_pad-7"/><circle cx="0" cy="0" r="24" id="fvgaOPBp-BsG6FRZScR0_pad-8"/><circle cx="0" cy="0" r="59.055" id="fvgaOPBp-BsG6FRZScR0_pad-9"/><circle cx="0" cy="0" r="68.9" id="fvgaOPBp-BsG6FRZScR0_pad-10"/></defs><g transform="translate(0,6562.835) scale(1,-1)" fill="currentColor" stroke="currentColor"><use xlink:href="#fvgaOPBp-BsG6FRZScR0_pad-1" x="2110" y="2700"/><use xlink:href="#fvgaOPBp-BsG6FRZScR0_pad-1" x="2410" y="2700"/><use xlink:href="#fvgaOPBp-BsG6FRZScR0_pad-1" x="2410" y="3300"/><use xlink:href="#fvgaOPBp-BsG6FRZScR0_pad-1" x="2110" y="3300"/><use xlink:href="#fvgaOPBp-BsG6FRZScR0_pad-2" x="3365" y="2500"/><use xlink:href="#fvgaOPBp-BsG6FRZScR0_pad-2" x="3840" y="3020"/><use xlink:href="#fvgaOPBp-BsG6FRZScR0_pad-2" x="4140" y="3020"/><use xlink:href="#fvgaOPBp-BsG6FRZScR0_pad-2" x="3065" y="2500"/><use xlink:href="#fvgaOPBp-BsG6FRZScR0_pad-2" x="2945" y="3515"/><use xlink:href="#fvgaOPBp-BsG6FRZScR0_pad-2" x="2815" y="3765"/><use xlink:href="#fvgaOPBp-BsG6FRZScR0_pad-2" x="2640" y="3765"/><use xlink:href="#fvgaOPBp-BsG6FRZScR0_pad-2" x="2640" y="4065"/><use xlink:href="#fvgaOPBp-BsG6FRZScR0_pad-2" x="2815" y="4065"/><use xlink:href="#fvgaOPBp-BsG6FRZScR0_pad-2" x="2415" y="3680"/><use xlink:href="#fvgaOPBp-BsG6FRZScR0_pad-2" x="2115" y="3680"/><use xlink:href="#fvgaOPBp-BsG6FRZScR0_pad-2" x="3205" y="3750"/><use xlink:href="#fvgaOPBp-BsG6FRZScR0_pad-2" x="3375" y="3750"/><use xlink:href="#fvgaOPBp-BsG6FRZScR0_pad-2" x="3375" y="4050"/><use xlink:href="#fvgaOPBp-BsG6FRZScR0_pad-2" x="3205" y="4050"/><use xlink:href="#fvgaOPBp-BsG6FRZScR0_pad-2" x="3245" y="3515"/><use xlink:href="#fvgaOPBp-BsG6FRZScR0_pad-3" x="2115" y="4070"/><use xlink:href="#fvgaOPBp-BsG6FRZScR0_pad-3" x="2215" y="4070"/><use xlink:href="#fvgaOPBp-BsG6FRZScR0_pad-3" x="2315" y="4070"/><use xlink:href="#fvgaOPBp-BsG6FRZScR0_pad-4" x="3840" y="2690"/><use xlink:href="#fvgaOPBp-BsG6FRZScR0_pad-4" x="3840" y="2820"/><use xlink:href="#fvgaOPBp-BsG6FRZScR0_pad-4" x="4240" y="2820"/><use xlink:href="#fvgaOPBp-BsG6FRZScR0_pad-4" x="4240" y="2690"/><use xlink:href="#fvgaOPBp-BsG6FRZScR0_pad-4" x="3515" y="3115"/><use xlink:href="#fvgaOPBp-BsG6FRZScR0_pad-4" x="2780" y="2495"/><use xlink:href="#fvgaOPBp-BsG6FRZScR0_pad-4" x="2380" y="2495"/><use xlink:href="#fvgaOPBp-BsG6FRZScR0_pad-4" x="3515" y="3515"/><use xlink:href="#fvgaOPBp-BsG6FRZScR0_pad-4" x="3840" y="3195"/><use xlink:href="#fvgaOPBp-BsG6FRZScR0_pad-4" x="4240" y="3195"/><use xlink:href="#fvgaOPBp-BsG6FRZScR0_pad-4" x="4130" y="3395"/><use xlink:href="#fvgaOPBp-BsG6FRZScR0_pad-4" x="4130" y="3590"/><use xlink:href="#fvgaOPBp-BsG6FRZScR0_pad-5" x="3245" y="2710"/><use xlink:href="#fvgaOPBp-BsG6FRZScR0_pad-5" x="3245" y="2810"/><use xlink:href="#fvgaOPBp-BsG6FRZScR0_pad-5" x="3245" y="2910"/><use xlink:href="#fvgaOPBp-BsG6FRZScR0_pad-5" x="3245" y="3010"/><use xlink:href="#fvgaOPBp-BsG6FRZScR0_pad-5" x="3245" y="3110"/><use xlink:href="#fvgaOPBp-BsG6FRZScR0_pad-5" x="2945" y="3110"/><use xlink:href="#fvgaOPBp-BsG6FRZScR0_pad-5" x="2945" y="3010"/><use xlink:href="#fvgaOPBp-BsG6FRZScR0_pad-5" x="2945" y="2910"/><use xlink:href="#fvgaOPBp-BsG6FRZScR0_pad-5" x="2945" y="2810"/><use xlink:href="#fvgaOPBp-BsG6FRZScR0_pad-5" x="2945" y="2710"/><use xlink:href="#fvgaOPBp-BsG6FRZScR0_pad-5" x="2945" y="3210"/><use xlink:href="#fvgaOPBp-BsG6FRZScR0_pad-5" x="2945" y="3310"/><use xlink:href="#fvgaOPBp-BsG6FRZScR0_pad-5" x="3245" y="3310"/><use xlink:href="#fvgaOPBp-BsG6FRZScR0_pad-5" x="3245" y="3210"/><use xlink:href="#fvgaOPBp-BsG6FRZScR0_pad-7" x="4615" y="3085"/><use xlink:href="#fvgaOPBp-BsG6FRZScR0_pad-7" x="4615" y="3185"/><use xlink:href="#fvgaOPBp-BsG6FRZScR0_pad-7" x="4615" y="3285"/><use xlink:href="#fvgaOPBp-BsG6FRZScR0_pad-7" x="4615" y="3385"/><use xlink:href="#fvgaOPBp-BsG6FRZScR0_pad-7" x="4615" y="3485"/><use xlink:href="#fvgaOPBp-BsG6FRZScR0_pad-7" x="4615" y="3585"/><use xlink:href="#fvgaOPBp-BsG6FRZScR0_pad-7" x="4615" y="3685"/><use xlink:href="#fvgaOPBp-BsG6FRZScR0_pad-7" x="4615" y="3785"/><use xlink:href="#fvgaOPBp-BsG6FRZScR0_pad-7" x="4615" y="3885"/><use xlink:href="#fvgaOPBp-BsG6FRZScR0_pad-7" x="4615" y="3985"/><use xlink:href="#fvgaOPBp-BsG6FRZScR0_pad-7" x="4400" y="3575"/><use xlink:href="#fvgaOPBp-BsG6FRZScR0_pad-7" x="4400" y="3475"/><use xlink:href="#fvgaOPBp-BsG6FRZScR0_pad-7" x="4400" y="3375"/><use xlink:href="#fvgaOPBp-BsG6FRZScR0_pad-8" x="4715" y="3085"/><use xlink:href="#fvgaOPBp-BsG6FRZScR0_pad-8" x="4715" y="3185"/><use xlink:href="#fvgaOPBp-BsG6FRZScR0_pad-8" x="4715" y="3285"/><use xlink:href="#fvgaOPBp-BsG6FRZScR0_pad-8" x="4715" y="3385"/><use xlink:href="#fvgaOPBp-BsG6FRZScR0_pad-8" x="4715" y="3485"/><use xlink:href="#fvgaOPBp-BsG6FRZScR0_pad-8" x="4715" y="3585"/><use xlink:href="#fvgaOPBp-BsG6FRZScR0_pad-8" x="4715" y="3685"/><use xlink:href="#fvgaOPBp-BsG6FRZScR0_pad-8" x="4715" y="3785"/><use xlink:href="#fvgaOPBp-BsG6FRZScR0_pad-8" x="4715" y="3885"/><use xlink:href="#fvgaOPBp-BsG6FRZScR0_pad-8" x="4715" y="3985"/><use xlink:href="#fvgaOPBp-BsG6FRZScR0_pad-9" x="4310" y="3950"/><use xlink:href="#fvgaOPBp-BsG6FRZScR0_pad-10" x="5070" y="3600"/></g></svg>