<svg version="1.1" xmlns="http://www.w3.org/2000/svg" xmlns:xlink="http://www.w3.org/1999/xlink" stroke-linecap="round" stroke-linejoin="round" stroke-width="0" fill-rule="evenodd" width="3.2537399999999996in" height="1.93442in" viewBox="1895 2370.29 3253.74 1934.42" id="UkSYL9W7PTiKNHSIT0xF"><defs><mask id="UkSYL9W7PTiKNHSIT0xF_clear-1" fill="#000" stroke="#000"><g><rect x="1895" y="2370.29" width="2915" height="1934.42" fill="#fff"/><path d="M 2315 4104.87 2305.98 4103.68 2297.57 4100.19 2290.35 4094.65 2284.81 4087.43 2281.32 4079.02 2280.13 4070 2281.32 4060.98 2284.81 4052.57 2290.35 4045.35 2297.57 4039.81 2305.98 4036.32 2315 4035.13 2324.02 4036.32 2332.43 4039.81 2339.65 4045.35 2345.19 4052.57 2348.68 4060.98 2349.86 4070 2348.68 4079.02 2345.19 4087.43 2339.65 4094.65 2332.43 4100.19 2324.02 4103.68 2315 4104.87"/><path d="M 2215 4104.87 2205.98 4103.68 2197.57 4100.19 2190.35 4094.65 2184.81 4087.43 2181.32 4079.02 2180.14 4070 2181.32 4060.98 2184.81 4052.57 2190.35 4045.35 2197.57 4039.81 2205.98 4036.32 2215 4035.13 2224.02 4036.32 2232.43 4039.81 2239.65 4045.35 2245.19 4052.57 2248.68 4060.98 2249.87 4070 2248.68 4079.02 2245.19 4087.43 2239.65 4094.65 2232.43 4100.19 2224.02 4103.68 2215 4104.87"/><path d="M 2815 4098.91 2806.22 4097.76 2798.04 4094.37 2791.02 4088.98 2785.63 4081.96 2782.24 4073.78 2781.09 4065 2782.24 4056.22 2785.63 4048.04 2791.02 4041.02 2798.04 4035.63 2806.22 4032.24 2815 4031.09 2823.78 4032.24 2831.96 4035.63 2838.98 4041.02 2844.37 4048.04 2847.76 4056.22 2848.91 4065 2847.76 4073.78 2844.37 4081.96 2838.98 4088.98 2831.96 4094.37 2823.78 4097.76 2815 4098.91"/><path d="M 2640 4098.91 2631.22 4097.76 2623.04 4094.37 2616.02 4088.98 2610.63 4081.96 2607.24 4073.78 2606.09 4065 2607.24 4056.22 2610.63 4048.04 2616.02 4041.02 2623.04 4035.63 2631.22 4032.24 2640 4031.09 2648.78 4032.24 2656.96 4035.63 2663.98 4041.02 2669.37 4048.04 2672.76 4056.22 2673.91 4065 2672.76 4073.78 2669.37 4081.96 2663.98 4088.98 2656.96 4094.37 2648.78 4097.76 2640 4098.91"/><path d="M 4315 4048.57 4315 3955 4408.57 3955 4407.16 3969.33 4401.52 3987.91 4392.36 4005.03 4380.05 4020.05 4365.04 4032.37 4347.91 4041.52 4329.33 4047.16 4315 4048.57"/><path d="M 4305 4048.57 4290.68 4047.16 4272.09 4041.52 4254.97 4032.37 4239.95 4020.05 4227.63 4005.03 4218.48 3987.91 4212.84 3969.33 4211.43 3955 4305 3955 4305 4048.57"/><path d="M 4654.53 4024.53 4575.47 4024.53 4575.47 3945.47 4654.53 3945.47 4654.53 4024.53"/><path d="M 4715 4024.87 4704.68 4023.51 4695.07 4019.53 4686.81 4013.19 4680.47 4004.93 4676.49 3995.32 4675.13 3985 4676.49 3974.68 4680.47 3965.07 4686.81 3956.81 4695.07 3950.47 4704.68 3946.49 4715 3945.13 4725.32 3946.49 4734.93 3950.47 4743.19 3956.81 4749.53 3965.07 4753.51 3974.68 4754.87 3985 4753.51 3995.32 4749.53 4004.93 4743.19 4013.19 4734.93 4019.53 4725.32 4023.51 4715 4024.87"/><path d="M 4305 3945 4211.43 3945 4212.84 3930.68 4218.48 3912.09 4227.63 3894.97 4239.95 3879.96 4254.97 3867.64 4272.09 3858.48 4290.68 3852.84 4305 3851.43 4305 3945"/><path d="M 4408.57 3945 4315 3945 4315 3851.43 4329.33 3852.84 4347.91 3858.48 4365.04 3867.64 4380.05 3879.96 4392.36 3894.97 4401.52 3912.09 4407.16 3930.68 4408.57 3945"/><path d="M 4715 3924.87 4704.68 3923.51 4695.07 3919.53 4686.81 3913.19 4680.47 3904.93 4676.49 3895.32 4675.13 3885 4676.49 3874.68 4680.47 3865.07 4686.81 3856.81 4695.07 3850.47 4704.68 3846.49 4715 3845.13 4725.32 3846.49 4734.93 3850.47 4743.19 3856.81 4749.53 3865.07 4753.51 3874.68 4754.87 3885 4753.51 3895.32 4749.53 3904.93 4743.19 3913.19 4734.93 3919.53 4725.32 3923.51 4715 3924.87"/><path d="M 4615 3924.87 4604.68 3923.51 4595.07 3919.53 4586.81 3913.19 4580.47 3904.93 4576.49 3895.32 4575.13 3885 4576.49 3874.68 4580.47 3865.07 4586.81 3856.81 4595.07 3850.47 4604.68 3846.49 4615 3845.13 4625.32 3846.49 4634.93 3850.47 4643.19 3856.81 4649.53 3865.07 4653.51 3874.68 4654.87 3885 4653.51 3895.32 4649.53 3904.93 4643.19 3913.19 4634.93 3919.53 4625.32 3923.51 4615 3924.87"/><path d="M 4715 3824.87 4704.68 3823.51 4695.07 3819.53 4686.81 3813.19 4680.47 3804.93 4676.49 3795.32 4675.13 3785 4676.49 3774.68 4680.47 3765.07 4686.81 3756.81 4695.07 3750.47 4704.68 3746.49 4715 3745.13 4725.32 3746.49 4734.93 3750.47 4743.19 3756.81 4749.53 3765.07 4753.51 3774.68 4754.87 3785 4753.51 3795.32 4749.53 3804.93 4743.19 3813.19 4734.93 3819.53 4725.32 3823.51 4715 3824.87"/><path d="M 4615 3824.87 4604.68 3823.51 4595.07 3819.53 4586.81 3813.19 4580.47 3804.93 4576.49 3795.32 4575.13 3785 4576.49 3774.68 4580.47 3765.07 4586.81 3756.81 4595.07 3750.47 4604.68 3746.49 4615 3745.13 4625.32 3746.49 4634.93 3750.47 4643.19 3756.81 4649.53 3765.07 4653.51 3774.68 4654.87 3785 4653.51 3795.32 4649.53 3804.93 4643.19 3813.19 4634.93 3819.53 4625.32 3823.51 4615 3824.87"/><path d="M 2115 3713.91 2106.22 3712.76 2098.04 3709.37 2091.02 3703.98 2085.63 3696.96 2082.24 3688.78 2081.09 3680 2082.24 3671.22 2085.63 3663.04 2091.02 3656.02 2098.04 3650.63 2106.22 3647.24 2115 3646.09 2123.78 3647.24 2131.96 3650.63 2138.98 3656.02 2144.37 3663.04 2147.76 3671.22 2148.91 3680 2147.76 3688.78 2144.37 3696.96 2138.98 3703.98 2131.96 3709.37 2123.78 3712.76 2115 3713.91"/><path d="M 4715 3724.87 4704.68 3723.51 4695.07 3719.53 4686.81 3713.19 4680.47 3704.93 4676.49 3695.32 4675.13 3685 4676.49 3674.68 4680.47 3665.07 4686.81 3656.81 4695.07 3650.47 4704.68 3646.49 4715 3645.13 4725.32 3646.49 4734.93 3650.47 4743.19 3656.81 4749.53 3665.07 4753.51 3674.68 4754.87 3685 4753.51 3695.32 4749.53 3704.93 4743.19 3713.19 4734.93 3719.53 4725.32 3723.51 4715 3724.87"/><path d="M 4615 3724.87 4604.68 3723.51 4595.07 3719.53 4586.81 3713.19 4580.47 3704.93 4576.49 3695.32 4575.13 3685 4576.49 3674.68 4580.47 3665.07 4586.81 3656.81 4595.07 3650.47 4604.68 3646.49 4615 3645.13 4625.32 3646.49 4634.93 3650.47 4643.19 3656.81 4649.53 3665.07 4653.51 3674.68 4654.87 3685 4653.51 3695.32 4649.53 3704.93 4643.19 3713.19 4634.93 3719.53 4625.32 3723.51 4615 3724.87"/><path d="M 2149.57 4104.57 2080.43 4104.57 2080.43 4035.43 2098.52 4035.43 2181.98 3951.98 2190.24 3946.45 2200 3944.51 3114.44 3944.51 3216.06 3842.89 3214.65 3837.23 3214.46 3837.17 3170.81 3880.81 3165.85 3884.13 3160 3885.29 2745 3885.29 2739.15 3884.13 2734.19 3880.81 2650.44 3797.07 2648.78 3797.76 2640 3798.91 2631.22 3797.76 2623.04 3794.37 2616.02 3788.98 2610.63 3781.96 2607.24 3773.78 2606.09 3765 2607.24 3756.22 2610.63 3748.04 2616.02 3741.02 2623.04 3735.63 2631.22 3732.24 2640 3731.09 2648.78 3732.24 2656.96 3735.63 2663.98 3741.02 2669.37 3748.04 2672.76 3756.22 2673.91 3765 2672.76 3773.78 2672.07 3775.44 2751.33 3854.71 3153.67 3854.71 3178.46 3829.91 3176.54 3825.29 2860 3825.29 2854.15 3824.13 2849.19 3820.81 2825.44 3797.07 2823.78 3797.76 2815 3798.91 2806.22 3797.76 2798.04 3794.37 2791.02 3788.98 2785.63 3781.96 2782.24 3773.78 2781.09 3765 2782.24 3756.22 2785.63 3748.04 2791.02 3741.02 2798.04 3735.63 2806.22 3732.24 2815 3731.09 2823.78 3732.24 2831.96 3735.63 2838.98 3741.02 2844.37 3748.04 2847.76 3756.22 2848.91 3765 2847.76 3773.78 2847.07 3775.44 2866.33 3794.71 3177.97 3794.71 3181.06 3789.71 3180.1 3787.79 3087.5 3787.79 3081.65 3786.63 3076.69 3783.31 2988.67 3695.29 2445.06 3695.29 2444.37 3696.96 2438.98 3703.98 2431.96 3709.37 2423.78 3712.76 2415 3713.91 2406.22 3712.76 2398.04 3709.37 2391.02 3703.98 2385.63 3696.96 2382.24 3688.78 2381.09 3680 2382.24 3671.22 2385.63 3663.04 2391.02 3656.02 2398.04 3650.63 2406.22 3647.24 2415 3646.09 2423.78 3647.24 2431.96 3650.63 2438.98 3656.02 2444.37 3663.04 2445.06 3664.71 2995 3664.71 3000.85 3665.87 3005.81 3669.19 3093.84 3757.21 3158.51 3757.21 3160.58 3752.21 2955.44 3547.07 2953.78 3547.76 2945 3548.91 2936.22 3547.76 2928.04 3544.37 2921.02 3538.98 2915.63 3531.96 2912.24 3523.78 2911.09 3515 2912.24 3506.22 2915.63 3498.04 2921.02 3491.02 2928.04 3485.63 2936.22 3482.24 2943.21 3481.32 2945.35 3476.4 2194.44 2725.49 2130.65 2725.49 2126.54 2728.65 2118.56 2731.95 2110 2733.08 2101.44 2731.95 2093.46 2728.65 2086.61 2723.39 2081.35 2716.54 2078.05 2708.56 2076.92 2700 2078.05 2691.44 2081.35 2683.46 2086.61 2676.61 2093.46 2671.35 2101.44 2668.05 2110 2666.92 2118.56 2668.05 2126.54 2671.35 2130.65 2674.51 2205 2674.51 2214.76 2676.45 2223.02 2681.98 2790.09 3249.04 2794.71 3247.12 2794.71 2931.33 2393.45 2530.08 2389.81 2531.59 2380 2532.88 2370.19 2531.59 2361.06 2527.81 2353.21 2521.79 2347.19 2513.94 2343.41 2504.81 2342.12 2495 2343.41 2485.19 2347.19 2476.06 2353.21 2468.21 2361.06 2462.19 2370.19 2458.41 2380 2457.12 2389.81 2458.41 2398.94 2462.19 2406.79 2468.21 2412.81 2476.06 2416.59 2485.19 2417.88 2495 2416.59 2504.81 2415.08 2508.45 2820.81 2914.19 2824.13 2919.15 2825.29 2925 2825.29 3263.66 2900.85 3339.22 2905.47 3337.31 2905.47 3270.47 2984.53 3270.47 2984.53 3349.53 2917.69 3349.53 2915.78 3354.15 3218.64 3657.01 3220.14 3655.73 3234.91 3646.69 3245.41 3642.34 3246.38 3637.43 3126.98 3518.02 3121.45 3509.75 3119.51 3500 3119.51 2920.56 2948.38 2749.42 2945 2749.87 2934.68 2748.51 2925.07 2744.53 2916.81 2738.19 2910.47 2729.93 2906.49 2720.32 2905.13 2710 2906.49 2699.68 2910.47 2690.07 2916.81 2681.81 2925.07 2675.47 2934.68 2671.49 2945 2670.13 2955.32 2671.49 2964.93 2675.47 2973.19 2681.81 2979.53 2690.07 2983.51 2699.68 2984.87 2710 2984.42 2713.38 3163.02 2891.98 3168.55 2900.24 3170.49 2910 3170.49 3489.44 3208.25 3527.2 3212.49 3524.37 3212.24 3523.78 3211.09 3515 3212.24 3506.22 3215.63 3498.04 3221.02 3491.02 3228.04 3485.63 3236.22 3482.24 3245 3481.09 3253.78 3482.24 3261.96 3485.63 3268.98 3491.02 3274.37 3498.04 3277.76 3506.22 3278.91 3515 3277.76 3523.78 3274.37 3531.96 3268.98 3538.98 3261.96 3544.37 3253.78 3547.76 3245 3548.91 3236.22 3547.76 3235.63 3547.51 3232.8 3551.75 3303.02 3621.98 3307.78 3629.1 3313.33 3630.62 3409.51 3534.44 3409.51 3320 3411.45 3310.25 3416.98 3301.98 3489.51 3229.44 3489.51 3142.78 3488.21 3141.79 3482.19 3133.94 3478.41 3124.8 3477.12 3115 3478.41 3105.2 3482.19 3096.06 3488.21 3088.21 3496.06 3082.19 3505.19 3078.41 3515 3077.12 3524.81 3078.41 3533.94 3082.19 3541.79 3088.21 3547.81 3096.06 3551.59 3105.2 3552.88 3115 3551.59 3124.8 3547.81 3133.94 3541.79 3141.79 3540.49 3142.78 3540.49 3240 3538.55 3249.75 3533.02 3258.02 3460.49 3330.56 3460.49 3545 3458.55 3554.75 3453.02 3563.02 3360.4 3655.64 3360.6 3660.64 3368.02 3666.98 3379.27 3680.14 3388.31 3694.91 3394.94 3710.9 3395.2 3712 3400.02 3713.36 3999.71 3113.67 3999.71 3035 4000.87 3029.15 4004.19 3024.19 4202.85 2825.53 4202.12 2820 4203.41 2810.19 4207.19 2801.06 4213.21 2793.21 4214.51 2792.22 4214.51 2717.78 4213.21 2716.79 4207.19 2708.94 4203.41 2699.81 4202.12 2690 4203.41 2680.2 4207.19 2671.06 4213.21 2663.21 4221.06 2657.19 4230.2 2653.41 4240 2652.12 4249.8 2653.41 4258.94 2657.19 4266.79 2663.21 4272.81 2671.06 4276.59 2680.2 4277.88 2690 4276.59 2699.81 4272.81 2708.94 4266.79 2716.79 4265.49 2717.78 4265.49 2792.22 4266.79 2793.21 4272.81 2801.06 4276.59 2810.19 4277.88 2820 4276.59 2829.8 4272.81 2838.94 4266.79 2846.79 4258.94 2852.81 4249.8 2856.59 4240 2857.88 4230.2 2856.59 4221.06 2852.81 4219.79 2851.84 4030.29 3041.34 4030.29 3120 4029.13 3125.85 4025.81 3130.81 3408.65 3747.98 3408.91 3750 3407.76 3758.78 3404.37 3766.96 3408.22 3770.15 4123.69 3054.68 4123.05 3049.41 4123.03 3049.36 4116.02 3043.98 4110.63 3036.96 4107.24 3028.78 4106.09 3020 4107.24 3011.22 4110.63 3003.04 4116.02 2996.02 4123.04 2990.63 4131.22 2987.24 4140 2986.09 4148.78 2987.24 4156.96 2990.63 4163.98 2996.02 4169.37 3003.04 4172.76 3011.22 4173.91 3020 4172.76 3028.78 4169.37 3036.96 4163.98 3043.98 4156.96 3049.37 4155.29 3050.06 4155.29 3060 4154.13 3065.85 4150.81 3070.81 3415.81 3805.81 3410.85 3809.13 3405 3810.29 3378.89 3810.29 3368.02 3823.02 3354.86 3834.27 3348.59 3838.11 3348 3843.07 3419.62 3914.7 3560 3914.7 3560 3900 3560 3800 3660 3800 3660 3900 3660 3908 3665 3910.07 4138.23 3436.84 4135.9 3432.11 4130 3432.88 4120.19 3431.59 4111.06 3427.81 4103.21 3421.79 4097.19 3413.94 4093.41 3404.8 4092.12 3395 4093.41 3385.2 4097.19 3376.06 4103.21 3368.21 4111.06 3362.19 4120.19 3358.41 4130 3357.12 4139.8 3358.41 4148.94 3362.19 4156.79 3368.21 4162.81 3376.06 4166.59 3385.2 4167.88 3395 4167.11 3400.9 4171.84 3403.23 4415.04 3160.04 4422.35 3154.43 4430.86 3150.9 4440 3149.7 4579.7 3149.7 4579.7 3103.06 4576.49 3095.32 4575.13 3085 4576.49 3074.68 4580.47 3065.07 4586.81 3056.81 4595.07 3050.47 4604.68 3046.49 4615 3045.13 4625.32 3046.49 4634.93 3050.47 4643.19 3056.81 4649.53 3065.07 4653.51 3074.68 4654.87 3085 4653.51 3095.32 4650.3 3103.06 4650.3 3166.94 4653.51 3174.68 4654.87 3185 4653.51 3195.32 4650.3 3203.06 4650.3 3266.94 4653.51 3274.68 4654.87 3285 4653.51 3295.32 4649.53 3304.93 4643.19 3313.19 4634.93 3319.53 4625.32 3323.51 4615 3324.87 4604.68 3323.51 4595.07 3319.53 4586.81 3313.19 4580.47 3304.93 4576.49 3295.32 4575.13 3285 4576.49 3274.68 4579.7 3266.94 4579.7 3220.3 4454.62 3220.3 4127.22 3547.71 4129.43 3552.19 4130 3552.12 4139.8 3553.41 4148.94 3557.19 4156.79 3563.21 4162.81 3571.06 4166.59 3580.19 4167.88 3590 4166.59 3599.81 4165.3 3602.92 4165.3 3640 4164.1 3649.14 4160.57 3657.65 4154.96 3664.96 3747.99 4071.93 3740.68 4077.54 3732.17 4081.07 3723.03 4082.27 3660 4082.27 3660 4100 3560 4100 3560 4075.49 3397.01 4075.49 3391.96 4079.37 3383.78 4082.76 3375 4083.91 3366.22 4082.76 3358.04 4079.37 3352.99 4075.49 3227.01 4075.49 3221.96 4079.37 3213.78 4082.76 3205 4083.91 3196.22 4082.76 3188.04 4079.37 3181.02 4073.98 3175.63 4066.96 3172.24 4058.78 3171.09 4050 3172.24 4041.22 3175.63 4033.04 3181.02 4026.02 3188.04 4020.63 3196.22 4017.24 3205 4016.09 3213.78 4017.24 3221.96 4020.63 3227.01 4024.51 3352.99 4024.51 3358.04 4020.63 3366.22 4017.24 3375 4016.09 3383.78 4017.24 3391.96 4020.63 3397.01 4024.51 3560 4024.51 3560 3985.3 3405 3985.3 3405 3985.3 3395.86 3984.1 3387.35 3980.57 3380.04 3974.96 3268.06 3862.99 3143.02 3988.02 3134.75 3993.55 3125 3995.49 2210.56 3995.49 2149.57 4056.48 2149.57 4104.57"/><path d="M 4715 3624.87 4704.68 3623.51 4695.07 3619.53 4686.81 3613.19 4680.47 3604.93 4676.49 3595.32 4675.13 3585 4676.49 3574.68 4680.47 3565.07 4686.81 3556.81 4695.07 3550.47 4704.68 3546.49 4715 3545.13 4725.32 3546.49 4734.93 3550.47 4743.19 3556.81 4749.53 3565.07 4753.51 3574.68 4754.87 3585 4753.51 3595.32 4749.53 3604.93 4743.19 3613.19 4734.93 3619.53 4725.32 3623.51 4715 3624.87"/><path d="M 4615 3624.87 4604.68 3623.51 4595.07 3619.53 4586.81 3613.19 4580.47 3604.93 4576.49 3595.32 4575.13 3585 4576.49 3574.68 4580.47 3565.07 4586.81 3556.81 4595.07 3550.47 4604.68 3546.49 4615 3545.13 4625.32 3546.49 4634.93 3550.47 4643.19 3556.81 4649.53 3565.07 4653.51 3574.68 4654.87 3585 4653.51 3595.32 4649.53 3604.93 4643.19 3613.19 4634.93 3619.53 4625.32 3623.51 4615 3624.87"/><path d="M 3515 3552.88 3505.19 3551.59 3496.06 3547.81 3488.21 3541.79 3482.19 3533.94 3478.41 3524.81 3477.12 3515 3478.41 3505.19 3482.19 3496.06 3488.21 3488.21 3496.06 3482.19 3505.19 3478.41 3515 3477.12 3524.81 3478.41 3533.94 3482.19 3541.79 3488.21 3547.81 3496.06 3551.59 3505.19 3552.88 3515 3551.59 3524.81 3547.81 3533.94 3541.79 3541.79 3533.94 3547.81 3524.81 3551.59 3515 3552.88"/><path d="M 4715 3524.87 4704.68 3523.51 4695.07 3519.53 4686.81 3513.19 4680.47 3504.93 4676.49 3495.32 4675.13 3485 4676.49 3474.68 4680.47 3465.07 4686.81 3456.81 4695.07 3450.47 4704.68 3446.49 4715 3445.13 4725.32 3446.49 4734.93 3450.47 4743.19 3456.81 4749.53 3465.07 4753.51 3474.68 4754.87 3485 4753.51 3495.32 4749.53 3504.93 4743.19 3513.19 4734.93 3519.53 4725.32 3523.51 4715 3524.87"/><path d="M 4439.53 3614.53 4360.47 3614.53 4360.47 3535.47 4414.6 3535.47 4577.26 3372.81 4580.47 3365.07 4586.81 3356.81 4595.07 3350.47 4604.68 3346.49 4615 3345.13 4625.32 3346.49 4634.93 3350.47 4643.19 3356.81 4649.53 3365.07 4653.51 3374.68 4654.87 3385 4653.51 3395.32 4649.53 3404.93 4643.19 3413.19 4634.93 3419.53 4627.19 3422.73 4609.05 3440.87 4611.39 3445.61 4615 3445.13 4625.32 3446.49 4634.93 3450.47 4643.19 3456.81 4649.53 3465.07 4653.51 3474.68 4654.87 3485 4653.51 3495.32 4649.53 3504.93 4643.19 3513.19 4634.93 3519.53 4625.32 3523.51 4615 3524.87 4604.68 3523.51 4595.07 3519.53 4586.81 3513.19 4580.47 3504.93 4576.49 3495.32 4575.13 3485 4575.61 3481.39 4570.87 3479.05 4449.96 3599.96 4442.65 3605.57 4439.53 3606.87 4439.53 3614.53"/><path d="M 4400 3514.87 4389.68 3513.51 4380.07 3509.53 4371.81 3503.19 4365.47 3494.93 4361.49 3485.32 4360.13 3475 4361.49 3464.68 4365.47 3455.07 4371.81 3446.81 4380.07 3440.47 4389.68 3436.49 4400 3435.13 4410.32 3436.49 4419.93 3440.47 4428.19 3446.81 4434.53 3455.07 4438.51 3464.68 4439.87 3475 4438.51 3485.32 4434.53 3494.93 4428.19 3503.19 4419.93 3509.53 4410.32 3513.51 4400 3514.87"/><path d="M 4715 3424.87 4704.68 3423.51 4695.07 3419.53 4686.81 3413.19 4680.47 3404.93 4676.49 3395.32 4675.13 3385 4676.49 3374.68 4680.47 3365.07 4686.81 3356.81 4695.07 3350.47 4704.68 3346.49 4715 3345.13 4725.32 3346.49 4734.93 3350.47 4743.19 3356.81 4749.53 3365.07 4753.51 3374.68 4754.87 3385 4753.51 3395.32 4749.53 3404.93 4743.19 3413.19 4734.93 3419.53 4725.32 3423.51 4715 3424.87"/><path d="M 4400 3414.87 4389.68 3413.51 4380.07 3409.53 4371.81 3403.19 4365.47 3394.93 4361.49 3385.32 4360.13 3375 4361.49 3364.68 4365.47 3355.07 4371.81 3346.81 4380.07 3340.47 4389.68 3336.49 4400 3335.13 4410.32 3336.49 4419.93 3340.47 4428.19 3346.81 4434.53 3355.07 4438.51 3364.68 4439.87 3375 4438.51 3385.32 4434.53 3394.93 4428.19 3403.19 4419.93 3409.53 4410.32 3413.51 4400 3414.87"/><path d="M 3245 3349.87 3234.68 3348.51 3225.07 3344.53 3216.81 3338.19 3210.47 3329.93 3206.49 3320.32 3205.13 3310 3206.49 3299.68 3210.47 3290.07 3216.81 3281.81 3225.07 3275.47 3234.68 3271.49 3245 3270.13 3255.32 3271.49 3264.93 3275.47 3273.19 3281.81 3279.53 3290.07 3283.51 3299.68 3284.87 3310 3283.51 3320.32 3279.53 3329.93 3273.19 3338.19 3264.93 3344.53 3255.32 3348.51 3245 3349.87"/><path d="M 2142.8 3332.79 2077.2 3332.79 2077.2 3267.2 2142.8 3267.2 2142.8 3332.79"/><path d="M 2410 3333.08 2401.44 3331.95 2393.46 3328.65 2386.61 3323.39 2381.35 3316.54 2378.05 3308.56 2376.92 3300 2378.05 3291.44 2381.35 3283.46 2386.61 3276.61 2393.46 3271.35 2401.44 3268.05 2410 3266.92 2418.56 3268.05 2426.54 3271.35 2433.39 3276.61 2438.65 3283.46 2441.95 3291.44 2443.08 3300 2441.95 3308.56 2438.65 3316.54 2433.39 3323.39 2426.54 3328.65 2418.56 3331.95 2410 3333.08"/><path d="M 4715 3324.87 4704.68 3323.51 4695.07 3319.53 4686.81 3313.19 4680.47 3304.93 4676.49 3295.32 4675.13 3285 4676.49 3274.68 4680.47 3265.07 4686.81 3256.81 4695.07 3250.47 4704.68 3246.49 4715 3245.13 4725.32 3246.49 4734.93 3250.47 4743.19 3256.81 4749.53 3265.07 4753.51 3274.68 4754.87 3285 4753.51 3295.32 4749.53 3304.93 4743.19 3313.19 4734.93 3319.53 4725.32 3323.51 4715 3324.87"/><path d="M 3245 3249.87 3234.68 3248.51 3225.07 3244.53 3216.81 3238.19 3210.47 3229.93 3206.49 3220.32 3205.13 3210 3206.49 3199.68 3210.47 3190.07 3216.81 3181.81 3225.07 3175.47 3234.68 3171.49 3245 3170.13 3255.32 3171.49 3264.93 3175.47 3273.19 3181.81 3279.53 3190.07 3283.51 3199.68 3284.87 3210 3283.51 3220.32 3279.53 3229.93 3273.19 3238.19 3264.93 3244.53 3255.32 3248.51 3245 3249.87"/><path d="M 2945 3249.87 2934.68 3248.51 2925.07 3244.53 2916.81 3238.19 2910.47 3229.93 2906.49 3220.32 2905.13 3210 2906.49 3199.68 2910.47 3190.07 2916.81 3181.81 2925.07 3175.47 2934.68 3171.49 2945 3170.13 2955.32 3171.49 2964.93 3175.47 2973.19 3181.81 2979.53 3190.07 2983.51 3199.68 2984.87 3210 2983.51 3220.32 2979.53 3229.93 2973.19 3238.19 2964.93 3244.53 2955.32 3248.51 2945 3249.87"/><path d="M 4240 3232.88 4230.2 3231.59 4221.06 3227.81 4213.21 3221.79 4207.19 3213.94 4203.41 3204.8 4202.12 3195 4203.41 3185.19 4207.19 3176.06 4213.21 3168.21 4221.06 3162.19 4230.2 3158.41 4240 3157.12 4249.8 3158.41 4258.94 3162.19 4266.79 3168.21 4272.81 3176.06 4276.59 3185.19 4277.88 3195 4276.59 3204.8 4272.81 3213.94 4266.79 3221.79 4258.94 3227.81 4249.8 3231.59 4240 3232.88"/><path d="M 3840 3232.88 3830.19 3231.59 3821.06 3227.81 3813.21 3221.79 3807.19 3213.94 3803.41 3204.8 3802.12 3195 3803.41 3185.19 3807.19 3176.06 3813.21 3168.21 3821.06 3162.19 3830.19 3158.41 3840 3157.12 3849.81 3158.41 3858.94 3162.19 3866.79 3168.21 3872.81 3176.06 3876.59 3185.19 3877.88 3195 3876.59 3204.8 3872.81 3213.94 3866.79 3221.79 3858.94 3227.81 3849.81 3231.59 3840 3232.88"/><path d="M 4715 3224.87 4704.68 3223.51 4695.07 3219.53 4686.81 3213.19 4680.47 3204.93 4676.49 3195.32 4675.13 3185 4676.49 3174.68 4680.47 3165.07 4686.81 3156.81 4695.07 3150.47 4704.68 3146.49 4715 3145.13 4725.32 3146.49 4734.93 3150.47 4743.19 3156.81 4749.53 3165.07 4753.51 3174.68 4754.87 3185 4753.51 3195.32 4749.53 3204.93 4743.19 3213.19 4734.93 3219.53 4725.32 3223.51 4715 3224.87"/><path d="M 3245 3149.87 3234.68 3148.51 3225.07 3144.53 3216.81 3138.19 3210.47 3129.93 3206.49 3120.32 3205.13 3110 3206.49 3099.68 3210.47 3090.07 3216.81 3081.81 3225.07 3075.47 3234.68 3071.49 3245 3070.13 3255.32 3071.49 3264.93 3075.47 3273.19 3081.81 3279.53 3090.07 3283.51 3099.68 3284.87 3110 3283.51 3120.32 3279.53 3129.93 3273.19 3138.19 3264.93 3144.53 3255.32 3148.51 3245 3149.87"/><path d="M 2945 3149.87 2934.68 3148.51 2925.07 3144.53 2916.81 3138.19 2910.47 3129.93 2906.49 3120.32 2905.13 3110 2906.49 3099.68 2910.47 3090.07 2916.81 3081.81 2925.07 3075.47 2934.68 3071.49 2945 3070.13 2955.32 3071.49 2964.93 3075.47 2973.19 3081.81 2979.53 3090.07 2983.51 3099.68 2984.87 3110 2983.51 3120.32 2979.53 3129.93 2973.19 3138.19 2964.93 3144.53 2955.32 3148.51 2945 3149.87"/><path d="M 4715 3124.87 4704.68 3123.51 4695.07 3119.53 4686.81 3113.19 4680.47 3104.93 4676.49 3095.32 4675.13 3085 4676.49 3074.68 4680.47 3065.07 4686.81 3056.81 4695.07 3050.47 4704.68 3046.49 4715 3045.13 4725.32 3046.49 4734.93 3050.47 4743.19 3056.81 4749.53 3065.07 4753.51 3074.68 4754.87 3085 4753.51 3095.32 4749.53 3104.93 4743.19 3113.19 4734.93 3119.53 4725.32 3123.51 4715 3124.87"/><path d="M 3840 3053.91 3831.22 3052.76 3823.04 3049.37 3816.02 3043.98 3810.63 3036.96 3807.24 3028.78 3806.09 3020 3807.24 3011.22 3810.63 3003.04 3816.02 2996.02 3823.04 2990.63 3831.22 2987.24 3840 2986.09 3848.78 2987.24 3856.96 2990.63 3863.98 2996.02 3869.37 3003.04 3872.76 3011.22 3873.91 3020 3872.76 3028.78 3869.37 3036.96 3863.98 3043.98 3856.96 3049.37 3848.78 3052.76 3840 3053.91"/><path d="M 3245 3049.87 3234.68 3048.51 3225.07 3044.53 3216.81 3038.19 3210.47 3029.93 3206.49 3020.32 3205.13 3010 3206.49 2999.68 3210.47 2990.07 3216.81 2981.81 3225.07 2975.47 3234.68 2971.49 3245 2970.13 3255.32 2971.49 3264.93 2975.47 3273.19 2981.81 3279.53 2990.07 3283.51 2999.68 3284.87 3010 3283.51 3020.32 3279.53 3029.93 3273.19 3038.19 3264.93 3044.53 3255.32 3048.51 3245 3049.87"/><path d="M 2945 3049.87 2934.68 3048.51 2925.07 3044.53 2916.81 3038.19 2910.47 3029.93 2906.49 3020.32 2905.13 3010 2906.49 2999.68 2910.47 2990.07 2916.81 2981.81 2925.07 2975.47 2934.68 2971.49 2945 2970.13 2955.32 2971.49 2964.93 2975.47 2973.19 2981.81 2979.53 2990.07 2983.51 2999.68 2984.87 3010 2983.51 3020.32 2979.53 3029.93 2973.19 3038.19 2964.93 3044.53 2955.32 3048.51 2945 3049.87"/><path d="M 3245 2949.87 3234.68 2948.51 3225.07 2944.53 3216.81 2938.19 3210.47 2929.93 3206.49 2920.32 3205.13 2910 3206.49 2899.68 3210.47 2890.07 3216.81 2881.81 3225.07 2875.47 3234.68 2871.49 3245 2870.13 3255.32 2871.49 3264.93 2875.47 3273.19 2881.81 3279.53 2890.07 3283.51 2899.68 3284.87 2910 3283.51 2920.32 3279.53 2929.93 3273.19 2938.19 3264.93 2944.53 3255.32 2948.51 3245 2949.87"/><path d="M 2945 2949.87 2934.68 2948.51 2925.07 2944.53 2916.81 2938.19 2910.47 2929.93 2906.49 2920.32 2905.13 2910 2906.49 2899.68 2910.47 2890.07 2916.81 2881.81 2925.07 2875.47 2934.68 2871.49 2945 2870.13 2955.32 2871.49 2964.93 2875.47 2973.19 2881.81 2979.53 2890.07 2983.51 2899.68 2984.87 2910 2983.51 2920.32 2979.53 2929.93 2973.19 2938.19 2964.93 2944.53 2955.32 2948.51 2945 2949.87"/><path d="M 3840 2857.88 3830.19 2856.59 3821.06 2852.81 3813.21 2846.79 3807.19 2838.94 3803.41 2829.8 3802.12 2820 3803.41 2810.19 3807.19 2801.06 3813.21 2793.21 3821.06 2787.19 3830.19 2783.41 3840 2782.12 3849.81 2783.41 3858.94 2787.19 3866.79 2793.21 3872.81 2801.06 3876.59 2810.19 3877.88 2820 3876.59 2829.8 3872.81 2838.94 3866.79 2846.79 3858.94 2852.81 3849.81 2856.59 3840 2857.88"/><path d="M 3245 2849.87 3234.68 2848.51 3225.07 2844.53 3216.81 2838.19 3210.47 2829.93 3206.49 2820.32 3205.13 2810 3206.49 2799.68 3210.47 2790.07 3216.81 2781.81 3225.07 2775.47 3234.68 2771.49 3245 2770.13 3255.32 2771.49 3264.93 2775.47 3273.19 2781.81 3279.53 2790.07 3283.51 2799.68 3284.87 2810 3283.51 2820.32 3279.53 2829.93 3273.19 2838.19 3264.93 2844.53 3255.32 2848.51 3245 2849.87"/><path d="M 2945 2849.87 2934.68 2848.51 2925.07 2844.53 2916.81 2838.19 2910.47 2829.93 2906.49 2820.32 2905.13 2810 2906.49 2799.68 2910.47 2790.07 2916.81 2781.81 2925.07 2775.47 2934.68 2771.49 2945 2770.13 2955.32 2771.49 2964.93 2775.47 2973.19 2781.81 2979.53 2790.07 2983.51 2799.68 2984.87 2810 2983.51 2820.32 2979.53 2829.93 2973.19 2838.19 2964.93 2844.53 2955.32 2848.51 2945 2849.87"/><path d="M 3245 2749.87 3234.68 2748.51 3225.07 2744.53 3216.81 2738.19 3210.47 2729.93 3206.49 2720.32 3205.13 2710 3206.49 2699.68 3210.47 2690.07 3216.81 2681.81 3225.07 2675.47 3234.68 2671.49 3245 2670.13 3255.32 2671.49 3264.93 2675.47 3273.19 2681.81 3279.53 2690.07 3283.51 2699.68 3284.87 2710 3283.51 2720.32 3279.53 2729.93 3273.19 2738.19 3264.93 2744.53 3255.32 2748.51 3245 2749.87"/><path d="M 2410 2733.08 2401.44 2731.95 2393.46 2728.65 2386.61 2723.39 2381.35 2716.54 2378.05 2708.56 2376.92 2700 2378.05 2691.44 2381.35 2683.46 2386.61 2676.61 2393.46 2671.35 2401.44 2668.05 2410 2666.92 2418.56 2668.05 2426.54 2671.35 2433.39 2676.61 2438.65 2683.46 2441.95 2691.44 2443.08 2700 2441.95 2708.56 2438.65 2716.54 2433.39 2723.39 2426.54 2728.65 2418.56 2731.95 2410 2733.08"/><path d="M 3840 2727.88 3830.19 2726.59 3821.06 2722.81 3813.21 2716.79 3807.19 2708.94 3803.41 2699.81 3802.12 2690 3803.41 2680.2 3807.19 2671.06 3813.21 2663.21 3821.06 2657.19 3830.19 2653.41 3840 2652.12 3849.81 2653.41 3858.94 2657.19 3866.79 2663.21 3872.81 2671.06 3876.59 2680.2 3877.88 2690 3876.59 2699.81 3872.81 2708.94 3866.79 2716.79 3858.94 2722.81 3849.81 2726.59 3840 2727.88"/><path d="M 3365 2533.91 3356.22 2532.76 3348.04 2529.37 3341.02 2523.98 3335.63 2516.96 3332.24 2508.78 3331.09 2500 3332.24 2491.22 3335.63 2483.04 3341.02 2476.02 3348.04 2470.63 3356.22 2467.24 3365 2466.09 3373.78 2467.24 3381.96 2470.63 3388.98 2476.02 3394.37 2483.04 3397.76 2491.22 3398.91 2500 3397.76 2508.78 3394.37 2516.96 3388.98 2523.98 3381.96 2529.37 3373.78 2532.76 3365 2533.91"/><path d="M 3065 2533.91 3056.22 2532.76 3048.04 2529.37 3041.02 2523.98 3035.63 2516.96 3032.24 2508.78 3031.09 2500 3032.24 2491.22 3035.63 2483.04 3041.02 2476.02 3048.04 2470.63 3056.22 2467.24 3065 2466.09 3073.78 2467.24 3081.96 2470.63 3088.98 2476.02 3094.37 2483.04 3097.76 2491.22 3098.91 2500 3097.76 2508.78 3094.37 2516.96 3088.98 2523.98 3081.96 2529.37 3073.78 2532.76 3065 2533.91"/><path d="M 2780 2532.88 2770.2 2531.59 2761.06 2527.81 2753.21 2521.79 2747.19 2513.94 2743.41 2504.81 2742.12 2495 2743.41 2485.19 2747.19 2476.06 2753.21 2468.21 2761.06 2462.19 2770.2 2458.41 2780 2457.12 2789.8 2458.41 2798.94 2462.19 2806.79 2468.21 2812.81 2476.06 2816.59 2485.19 2817.88 2495 2816.59 2504.81 2812.81 2513.94 2806.79 2521.79 2798.94 2527.81 2789.8 2531.59 2780 2532.88"/></g></mask><circle cx="0" cy="0" r="27.56" id="UkSYL9W7PTiKNHSIT0xF_pad-33"/><rect x="-29.53" y="-29.53" width="59.06" height="59.06" id="UkSYL9W7PTiKNHSIT0xF_pad-34"/><circle cx="0" cy="0" r="29.53" id="UkSYL9W7PTiKNHSIT0xF_pad-35"/><circle cx="0" cy="0" r="23.62" id="UkSYL9W7PTiKNHSIT0xF_pad-36"/><circle cx="0" cy="0" r="24.565" id="UkSYL9W7PTiKNHSIT0xF_pad-37"/><rect x="-24.565" y="-24.565" width="49.13" height="49.13" id="UkSYL9W7PTiKNHSIT0xF_pad-38"/><rect x="-40" y="-40" width="80" height="80" id="UkSYL9W7PTiKNHSIT0xF_pad-39"/><circle cx="0" cy="0" r="88.585" id="UkSYL9W7PTiKNHSIT0xF_pad-40"/><rect x="-29.53" y="-29.53" width="59.06" height="59.06" id="UkSYL9W7PTiKNHSIT0xF_pad-41"/><circle cx="0" cy="0" r="29.53" id="UkSYL9W7PTiKNHSIT0xF_pad-42"/><circle cx="0" cy="0" r="22.795" id="UkSYL9W7PTiKNHSIT0xF_pad-43"/><rect x="-22.795" y="-22.795" width="45.59" height="45.59" id="UkSYL9W7PTiKNHSIT0xF_pad-44"/><circle cx="0" cy="0" r="78.74" id="UkSYL9W7PTiKNHSIT0xF_pad-45"/><rect x="-155" y="-115" width="310" height="230" id="UkSYL9W7PTiKNHSIT0xF_pad-47"/></defs><g transform="translate(0,6675) scale(1,-1)" fill="currentColor" stroke="currentColor"><g mask="url(#UkSYL9W7PTiKNHSIT0xF_clear-1)"><path d="M 4810 2370.29 1895 2370.29 1895 4304.71 4810 4304.71 4810 2370.29"/></g><path d="M 4094.7 3625.38 4094.7 3602.92 4093.41 3599.81 4092.12 3590 4092.19 3589.43 4087.71 3587.22 3699.96 3974.96 3692.65 3980.57 3684.14 3984.1 3675 3985.3 3660 3985.3 3660 4011.66 3708.41 4011.66 4094.7 3625.38"/><path d="M 3177.86 3720.06 3179.51 3713.19 3179.51 3710.56 2983.6 3514.65 2978.68 3516.79 2977.76 3523.78 2977.07 3525.44 3173.05 3721.42 3177.86 3720.06"/><path d="M 2810 2925 2810 3270 3285 3745 M 4230 2820 4240 2820 M 4015 3035 4015 3120 M 4015 3035 4230 2820 M 3385 3750 4015 3120 M 4140 3020 4140 3060 M 3405 3795 4140 3060 M 3335 3795 3405 3795 M 3285 3745 3335 3795 M 3375 3750 3385 3750 M 3087.5 3772.5 3227.5 3772.5 M 3160 3870 3242.5 3787.5 M 2745 3870 3160 3870 M 2640 3765 2745 3870 M 2860 3810 3190 3810 3227.5 3772.5 M 2815 3765 2860 3810 M 2995 3680 3087.5 3772.5 M 2415 3680 2995 3680 M 3172.87 3742.87 3197.87 3742.87 M 2945 3515 3172.87 3742.87 M 3197.87 3742.87 3205 3750 M 2380 2495 2810 2925 M 3610 4050 3610 4050" fill="none" stroke-width="10"/><path d="M 4130 3590 4130 3640 M 4400 3575 4425 3575 4615 3385 M 3723.03 4046.97 4130 3640 M 3613.03 4046.97 3723.03 4046.97 M 3242.5 3787.5 3275 3820 M 3227.5 3772.5 3242.5 3787.5 M 3275 3820 3405 3950 M 3205 3750 3227.5 3772.5 M 3675 3950 4440 3185 M 3610 3950 3675 3950 M 4440 3185 4615 3185 4615 3285 M 4615 3085 4615 3185 M 3610 4050 3613.03 4046.97 M 3405 3950 3610 3950" fill="none" stroke-width="50"/><path d="M 2110 2700 2205 2700 3205 3700 3205 3750 M 3285 3640 3285 3695 M 3515 3115 3515 3240 M 3435 3320 3515 3240 M 3435 3320 3435 3545 M 3285 3695 3435 3545 M 2107.5 4062.5 2200 3970 3125 3970 M 4240 2705 4240 2820 M 3125 3970 3275 3820 M 3145 3500 3285 3640 M 3145 2910 3145 3500 M 2945 2710 3145 2910 M 3375 4050 3610 4050 M 3205 4050 3375 4050" fill="none" stroke-width="30"/><use xlink:href="#UkSYL9W7PTiKNHSIT0xF_pad-33" x="3840" y="2690"/><use xlink:href="#UkSYL9W7PTiKNHSIT0xF_pad-33" x="4240" y="2690"/><use xlink:href="#UkSYL9W7PTiKNHSIT0xF_pad-33" x="3515" y="3515"/><use xlink:href="#UkSYL9W7PTiKNHSIT0xF_pad-33" x="3515" y="3115"/><use xlink:href="#UkSYL9W7PTiKNHSIT0xF_pad-33" x="4130" y="3395"/><use xlink:href="#UkSYL9W7PTiKNHSIT0xF_pad-33" x="4130" y="3590"/><use xlink:href="#UkSYL9W7PTiKNHSIT0xF_pad-33" x="2780" y="2495"/><use xlink:href="#UkSYL9W7PTiKNHSIT0xF_pad-33" x="2380" y="2495"/><use xlink:href="#UkSYL9W7PTiKNHSIT0xF_pad-33" x="3840" y="2820"/><use xlink:href="#UkSYL9W7PTiKNHSIT0xF_pad-33" x="4240" y="2820"/><use xlink:href="#UkSYL9W7PTiKNHSIT0xF_pad-33" x="4240" y="3195"/><use xlink:href="#UkSYL9W7PTiKNHSIT0xF_pad-33" x="3840" y="3195"/><use xlink:href="#UkSYL9W7PTiKNHSIT0xF_pad-34" x="4615" y="3985"/><use xlink:href="#UkSYL9W7PTiKNHSIT0xF_pad-34" x="4400" y="3575"/><use xlink:href="#UkSYL9W7PTiKNHSIT0xF_pad-35" x="4615" y="3885"/><use xlink:href="#UkSYL9W7PTiKNHSIT0xF_pad-35" x="4615" y="3785"/><use xlink:href="#UkSYL9W7PTiKNHSIT0xF_pad-35" x="4615" y="3685"/><use xlink:href="#UkSYL9W7PTiKNHSIT0xF_pad-35" x="4615" y="3585"/><use xlink:href="#UkSYL9W7PTiKNHSIT0xF_pad-35" x="4615" y="3485"/><use xlink:href="#UkSYL9W7PTiKNHSIT0xF_pad-35" x="4615" y="3385"/><use xlink:href="#UkSYL9W7PTiKNHSIT0xF_pad-35" x="4615" y="3285"/><use xlink:href="#UkSYL9W7PTiKNHSIT0xF_pad-35" x="4615" y="3185"/><use xlink:href="#UkSYL9W7PTiKNHSIT0xF_pad-35" x="4615" y="3085"/><use xlink:href="#UkSYL9W7PTiKNHSIT0xF_pad-35" x="4715" y="3985"/><use xlink:href="#UkSYL9W7PTiKNHSIT0xF_pad-35" x="4715" y="3885"/><use xlink:href="#UkSYL9W7PTiKNHSIT0xF_pad-35" x="4715" y="3785"/><use xlink:href="#UkSYL9W7PTiKNHSIT0xF_pad-35" x="4715" y="3685"/><use xlink:href="#UkSYL9W7PTiKNHSIT0xF_pad-35" x="4715" y="3585"/><use xlink:href="#UkSYL9W7PTiKNHSIT0xF_pad-35" x="4715" y="3485"/><use xlink:href="#UkSYL9W7PTiKNHSIT0xF_pad-35" x="4715" y="3385"/><use xlink:href="#UkSYL9W7PTiKNHSIT0xF_pad-35" x="4715" y="3285"/><use xlink:href="#UkSYL9W7PTiKNHSIT0xF_pad-35" x="4715" y="3185"/><use xlink:href="#UkSYL9W7PTiKNHSIT0xF_pad-35" x="4715" y="3085"/><use xlink:href="#UkSYL9W7PTiKNHSIT0xF_pad-35" x="4400" y="3475"/><use xlink:href="#UkSYL9W7PTiKNHSIT0xF_pad-35" x="4400" y="3375"/><use xlink:href="#UkSYL9W7PTiKNHSIT0xF_pad-36" x="3065" y="2500"/><use xlink:href="#UkSYL9W7PTiKNHSIT0xF_pad-36" x="3365" y="2500"/><use xlink:href="#UkSYL9W7PTiKNHSIT0xF_pad-36" x="2415" y="3680"/><use xlink:href="#UkSYL9W7PTiKNHSIT0xF_pad-36" x="2115" y="3680"/><use xlink:href="#UkSYL9W7PTiKNHSIT0xF_pad-36" x="2815" y="3765"/><use xlink:href="#UkSYL9W7PTiKNHSIT0xF_pad-36" x="2815" y="4065"/><use xlink:href="#UkSYL9W7PTiKNHSIT0xF_pad-36" x="2945" y="3515"/><use xlink:href="#UkSYL9W7PTiKNHSIT0xF_pad-36" x="3245" y="3515"/><use xlink:href="#UkSYL9W7PTiKNHSIT0xF_pad-36" x="4140" y="3020"/><use xlink:href="#UkSYL9W7PTiKNHSIT0xF_pad-36" x="3840" y="3020"/><use xlink:href="#UkSYL9W7PTiKNHSIT0xF_pad-36" x="2640" y="3765"/><use xlink:href="#UkSYL9W7PTiKNHSIT0xF_pad-36" x="2640" y="4065"/><use xlink:href="#UkSYL9W7PTiKNHSIT0xF_pad-36" x="3205" y="3750"/><use xlink:href="#UkSYL9W7PTiKNHSIT0xF_pad-36" x="3205" y="4050"/><use xlink:href="#UkSYL9W7PTiKNHSIT0xF_pad-36" x="3375" y="3750"/><use xlink:href="#UkSYL9W7PTiKNHSIT0xF_pad-36" x="3375" y="4050"/><use xlink:href="#UkSYL9W7PTiKNHSIT0xF_pad-37" x="2315" y="4070"/><use xlink:href="#UkSYL9W7PTiKNHSIT0xF_pad-37" x="2215" y="4070"/><use xlink:href="#UkSYL9W7PTiKNHSIT0xF_pad-38" x="2115" y="4070"/><use xlink:href="#UkSYL9W7PTiKNHSIT0xF_pad-39" x="3610" y="4050"/><use xlink:href="#UkSYL9W7PTiKNHSIT0xF_pad-39" x="3610" y="3950"/><use xlink:href="#UkSYL9W7PTiKNHSIT0xF_pad-39" x="3610" y="3850"/><use xlink:href="#UkSYL9W7PTiKNHSIT0xF_pad-40" x="4310" y="3950"/><use xlink:href="#UkSYL9W7PTiKNHSIT0xF_pad-41" x="2945" y="3310"/><use xlink:href="#UkSYL9W7PTiKNHSIT0xF_pad-42" x="2945" y="3210"/><use xlink:href="#UkSYL9W7PTiKNHSIT0xF_pad-42" x="2945" y="3110"/><use xlink:href="#UkSYL9W7PTiKNHSIT0xF_pad-42" x="2945" y="3010"/><use xlink:href="#UkSYL9W7PTiKNHSIT0xF_pad-42" x="2945" y="2910"/><use xlink:href="#UkSYL9W7PTiKNHSIT0xF_pad-42" x="2945" y="2810"/><use xlink:href="#UkSYL9W7PTiKNHSIT0xF_pad-42" x="2945" y="2710"/><use xlink:href="#UkSYL9W7PTiKNHSIT0xF_pad-42" x="3245" y="3310"/><use xlink:href="#UkSYL9W7PTiKNHSIT0xF_pad-42" x="3245" y="3210"/><use xlink:href="#UkSYL9W7PTiKNHSIT0xF_pad-42" x="3245" y="3110"/><use xlink:href="#UkSYL9W7PTiKNHSIT0xF_pad-42" x="3245" y="3010"/><use xlink:href="#UkSYL9W7PTiKNHSIT0xF_pad-42" x="3245" y="2910"/><use xlink:href="#UkSYL9W7PTiKNHSIT0xF_pad-42" x="3245" y="2810"/><use xlink:href="#UkSYL9W7PTiKNHSIT0xF_pad-42" x="3245" y="2710"/><use xlink:href="#UkSYL9W7PTiKNHSIT0xF_pad-43" x="2410" y="3300"/><use xlink:href="#UkSYL9W7PTiKNHSIT0xF_pad-43" x="2410" y="2700"/><use xlink:href="#UkSYL9W7PTiKNHSIT0xF_pad-43" x="2110" y="2700"/><use xlink:href="#UkSYL9W7PTiKNHSIT0xF_pad-44" x="2110" y="3300"/><use xlink:href="#UkSYL9W7PTiKNHSIT0xF_pad-45" x="5070" y="3600"/><path d="M 3285 3745 3290 3745" fill="none" stroke-width="200"/><use xlink:href="#UkSYL9W7PTiKNHSIT0xF_pad-47" x="4295" y="3945"/></g></svg>