<svg version="1.1" xmlns="http://www.w3.org/2000/svg" xmlns:xlink="http://www.w3.org/1999/xlink" stroke-linecap="round" stroke-linejoin="round" stroke-width="0" fill-rule="evenodd" clip-rule="evenodd" id="JK_HSlTJHMVa95FYH59l_top" viewBox="1575 2355 3660 1965" width="3.66in" height="1.965in" class="w-100 h-100"><defs><style>.JK_HSlTJHMVa95FYH59l_fr4 {color: #666666;}
.JK_HSlTJHMVa95FYH59l_cu {color: #cccccc;}
.JK_HSlTJHMVa95FYH59l_cf {color: #cc9933;}
.JK_HSlTJHMVa95FYH59l_sm {color: #004200; opacity: 0.75;}
.JK_HSlTJHMVa95FYH59l_ss {color: #ffffff;}
.JK_HSlTJHMVa95FYH59l_sp {color: #999999;}
.JK_HSlTJHMVa95FYH59l_out {color: #000000;}</style><rect x="-301.5" y="-201.5" width="603" height="403" id="mbRmUiJZoyWt_qKeI8N6_pad-16"/><circle cx="0" cy="0" r="31.56" id="mbRmUiJZoyWt_qKeI8N6_pad-17"/><rect x="-33.53" y="-33.53" width="67.06" height="67.06" id="mbRmUiJZoyWt_qKeI8N6_pad-18"/><circle cx="0" cy="0" r="33.53" id="mbRmUiJZoyWt_qKeI8N6_pad-19"/><circle cx="0" cy="0" r="27.62" id="mbRmUiJZoyWt_qKeI8N6_pad-20"/><circle cx="0" cy="0" r="28.565" id="mbRmUiJZoyWt_qKeI8N6_pad-21"/><rect x="-28.565" y="-28.565" width="57.13" height="57.13" id="mbRmUiJZoyWt_qKeI8N6_pad-22"/><rect x="-44" y="-44" width="88" height="88" id="mbRmUiJZoyWt_qKeI8N6_pad-23"/><circle cx="0" cy="0" r="92.585" id="mbRmUiJZoyWt_qKeI8N6_pad-24"/><rect x="-33.53" y="-33.53" width="67.06" height="67.06" id="mbRmUiJZoyWt_qKeI8N6_pad-25"/><circle cx="0" cy="0" r="33.53" id="mbRmUiJZoyWt_qKeI8N6_pad-26"/><circle cx="0" cy="0" r="26.795" id="mbRmUiJZoyWt_qKeI8N6_pad-27"/><rect x="-26.795" y="-26.795" width="53.59" height="53.59" id="mbRmUiJZoyWt_qKeI8N6_pad-28"/><circle cx="0" cy="0" r="82.74" id="mbRmUiJZoyWt_qKeI8N6_pad-29"/><mask id="p59g58iCslOvQrYhqmai_clear-1" fill="#000" stroke="#000"><g><rect x="1895" y="2370.29" width="2915" height="1934.42" fill="#fff"/><path d="M 2215 4104.87 2205.98 4103.68 2197.57 4100.19 2190.35 4094.65 2184.81 4087.43 2181.32 4079.02 2180.31 4071.36 2154.19 4045.23 2149.57 4047.15 2149.57 4104.57 2080.43 4104.57 2080.43 4035.43 2137.85 4035.43 2139.77 4030.81 2096.98 3988.02 2091.45 3979.75 2089.51 3970 2089.51 3702.01 2085.63 3696.96 2082.24 3688.78 2081.09 3680 2082.24 3671.22 2085.63 3663.04 2089.51 3657.99 2089.51 3332.79 2077.2 3332.79 2077.2 3267.2 2142.8 3267.2 2142.8 3332.79 2140.49 3332.79 2140.49 3657.99 2144.37 3663.04 2147.76 3671.22 2148.91 3680 2147.76 3688.78 2144.37 3696.96 2140.49 3702.01 2140.49 3959.44 2216.36 4035.31 2224.02 4036.32 2232.43 4039.81 2239.65 4045.35 2245.19 4052.57 2248.68 4060.98 2249.87 4070 2248.68 4079.02 2245.19 4087.43 2239.65 4094.65 2232.43 4100.19 2224.02 4103.68 2215 4104.87"/><path d="M 3375 4083.91 3366.22 4082.76 3358.04 4079.37 3351.02 4073.98 3345.63 4066.96 3342.24 4058.78 3341.09 4050 3342.24 4041.22 3345.63 4033.04 3351.02 4026.02 3358.04 4020.63 3366.22 4017.24 3375 4016.09 3383.78 4017.24 3391.96 4020.63 3398.98 4026.02 3404.37 4033.04 3407.76 4041.22 3408.91 4050 3407.76 4058.78 3404.37 4066.96 3398.98 4073.98 3391.96 4079.37 3383.78 4082.76 3375 4083.91"/><path d="M 3205 4083.91 3196.22 4082.76 3188.04 4079.37 3181.02 4073.98 3175.63 4066.96 3172.24 4058.78 3171.09 4050 3172.24 4041.22 3175.63 4033.04 3181.02 4026.02 3188.04 4020.63 3196.22 4017.24 3205 4016.09 3213.78 4017.24 3221.96 4020.63 3228.98 4026.02 3234.37 4033.04 3237.76 4041.22 3238.91 4050 3237.76 4058.78 3234.37 4066.96 3228.98 4073.98 3221.96 4079.37 3213.78 4082.76 3205 4083.91"/><path d="M 4654.53 4024.53 4575.47 4024.53 4575.47 3945.47 4654.53 3945.47 4654.53 4024.53"/><path d="M 4715 4024.87 4704.68 4023.51 4695.07 4019.53 4686.81 4013.19 4680.47 4004.93 4676.49 3995.32 4675.13 3985 4676.49 3974.68 4680.47 3965.07 4686.81 3956.81 4695.07 3950.47 4704.68 3946.49 4715 3945.13 4725.32 3946.49 4734.93 3950.47 4743.19 3956.81 4749.53 3965.07 4753.51 3974.68 4754.87 3985 4753.51 3995.32 4749.53 4004.93 4743.19 4013.19 4734.93 4019.53 4725.32 4023.51 4715 4024.87"/><path d="M 4715 3924.87 4704.68 3923.51 4695.07 3919.53 4686.81 3913.19 4680.47 3904.93 4676.49 3895.32 4675.13 3885 4676.49 3874.68 4680.47 3865.07 4686.81 3856.81 4695.07 3850.47 4704.68 3846.49 4715 3845.13 4725.32 3846.49 4734.93 3850.47 4743.19 3856.81 4749.53 3865.07 4753.51 3874.68 4754.87 3885 4753.51 3895.32 4749.53 3904.93 4743.19 3913.19 4734.93 3919.53 4725.32 3923.51 4715 3924.87"/><path d="M 4615 3924.87 4604.68 3923.51 4595.07 3919.53 4586.81 3913.19 4580.47 3904.93 4576.49 3895.32 4575.13 3885 4576.49 3874.68 4580.47 3865.07 4586.81 3856.81 4595.07 3850.47 4604.68 3846.49 4615 3845.13 4625.32 3846.49 4634.93 3850.47 4643.19 3856.81 4649.53 3865.07 4653.51 3874.68 4654.87 3885 4653.51 3895.32 4649.53 3904.93 4643.19 3913.19 4634.93 3919.53 4625.32 3923.51 4615 3924.87"/><path d="M 4715 3824.87 4704.68 3823.51 4695.07 3819.53 4686.81 3813.19 4680.47 3804.93 4676.49 3795.32 4675.13 3785 4676.49 3774.68 4680.47 3765.07 4686.81 3756.81 4695.07 3750.47 4704.68 3746.49 4715 3745.13 4725.32 3746.49 4734.93 3750.47 4743.19 3756.81 4749.53 3765.07 4753.51 3774.68 4754.87 3785 4753.51 3795.32 4749.53 3804.93 4743.19 3813.19 4734.93 3819.53 4725.32 3823.51 4715 3824.87"/><path d="M 4615 3824.87 4604.68 3823.51 4595.07 3819.53 4586.81 3813.19 4580.47 3804.93 4576.49 3795.32 4575.13 3785 4576.49 3774.68 4580.47 3765.07 4586.81 3756.81 4595.07 3750.47 4604.68 3746.49 4615 3745.13 4625.32 3746.49 4634.93 3750.47 4643.19 3756.81 4649.53 3765.07 4653.51 3774.68 4654.87 3785 4653.51 3795.32 4649.53 3804.93 4643.19 3813.19 4634.93 3819.53 4625.32 3823.51 4615 3824.87"/><path d="M 4405 4155.2 3810 4155.2 3806.1 4154.42 3802.79 4152.21 3800.58 4148.9 3799.8 4145 3799.8 3750 3800.58 3746.1 3802.79 3742.79 3806.1 3740.58 3810 3739.8 4405 3739.8 4408.9 3740.58 4412.21 3742.79 4414.42 3746.1 4415.2 3750 4415.2 4145 4414.42 4148.9 4412.21 4152.21 4408.9 4154.42 4405 4155.2"/><path d="M 2815 3798.91 2806.22 3797.76 2798.04 3794.37 2791.02 3788.98 2785.63 3781.96 2782.24 3773.78 2781.09 3765 2782.24 3756.22 2785.63 3748.04 2791.02 3741.02 2798.04 3735.63 2806.22 3732.24 2815 3731.09 2823.78 3732.24 2831.96 3735.63 2838.98 3741.02 2844.37 3748.04 2847.76 3756.22 2848.91 3765 2847.76 3773.78 2844.37 3781.96 2838.98 3788.98 2831.96 3794.37 2823.78 3797.76 2815 3798.91"/><path d="M 2640 3798.91 2631.22 3797.76 2623.04 3794.37 2616.02 3788.98 2610.63 3781.96 2607.24 3773.78 2606.09 3765 2607.24 3756.22 2610.63 3748.04 2616.02 3741.02 2623.04 3735.63 2631.22 3732.24 2640 3731.09 2648.78 3732.24 2656.96 3735.63 2663.98 3741.02 2669.37 3748.04 2672.76 3756.22 2673.91 3765 2672.76 3773.78 2669.37 3781.96 2663.98 3788.98 2656.96 3794.37 2648.78 3797.76 2640 3798.91"/><path d="M 3375 3783.91 3366.22 3782.76 3358.04 3779.37 3351.02 3773.98 3345.63 3766.96 3342.24 3758.78 3341.09 3750 3342.24 3741.22 3345.63 3733.04 3351.02 3726.02 3358.04 3720.63 3366.22 3717.24 3375 3716.09 3383.78 3717.24 3391.96 3720.63 3398.98 3726.02 3404.37 3733.04 3407.76 3741.22 3408.91 3750 3407.76 3758.78 3404.37 3766.96 3398.98 3773.98 3391.96 3779.37 3383.78 3782.76 3375 3783.91"/><path d="M 3205 3783.91 3196.22 3782.76 3188.04 3779.37 3181.02 3773.98 3175.63 3766.96 3172.24 3758.78 3171.09 3750 3172.24 3741.22 3175.63 3733.04 3181.02 3726.02 3188.04 3720.63 3196.22 3717.24 3205 3716.09 3213.78 3717.24 3221.96 3720.63 3228.98 3726.02 3234.37 3733.04 3237.76 3741.22 3238.91 3750 3237.76 3758.78 3234.37 3766.96 3228.98 3773.98 3221.96 3779.37 3213.78 3782.76 3205 3783.91"/><path d="M 2415 3713.91 2406.22 3712.76 2398.04 3709.37 2391.02 3703.98 2385.63 3696.96 2382.24 3688.78 2381.09 3680 2382.24 3671.22 2385.63 3663.04 2391.02 3656.02 2398.04 3650.63 2406.22 3647.24 2415 3646.09 2423.78 3647.24 2431.96 3650.63 2438.98 3656.02 2444.37 3663.04 2447.76 3671.22 2448.91 3680 2447.76 3688.78 2444.37 3696.96 2438.98 3703.98 2431.96 3709.37 2423.78 3712.76 2415 3713.91"/><path d="M 4715 3724.87 4704.68 3723.51 4695.07 3719.53 4686.81 3713.19 4680.47 3704.93 4676.49 3695.32 4675.13 3685 4676.49 3674.68 4680.47 3665.07 4686.81 3656.81 4695.07 3650.47 4704.68 3646.49 4715 3645.13 4725.32 3646.49 4734.93 3650.47 4743.19 3656.81 4749.53 3665.07 4753.51 3674.68 4754.87 3685 4753.51 3695.32 4749.53 3704.93 4743.19 3713.19 4734.93 3719.53 4725.32 3723.51 4715 3724.87"/><path d="M 4615 3724.87 4604.68 3723.51 4595.07 3719.53 4586.81 3713.19 4580.47 3704.93 4576.49 3695.32 4575.13 3685 4576.49 3674.68 4578.41 3670.04 4479.19 3570.81 4475.87 3565.85 4474.71 3560 4474.71 3471.33 4414.96 3411.59 4410.32 3413.51 4400 3414.87 4396.39 3414.39 4394.05 3419.13 4412.19 3437.26 4419.93 3440.47 4428.19 3446.81 4434.53 3455.07 4438.51 3464.68 4439.87 3475 4438.51 3485.32 4434.53 3494.93 4428.19 3503.19 4419.93 3509.53 4410.32 3513.51 4400 3514.87 4389.68 3513.51 4380.07 3509.53 4371.81 3503.19 4365.47 3494.93 4362.27 3487.19 4305.38 3430.3 4142.92 3430.3 4139.8 3431.59 4130 3432.88 4120.19 3431.59 4111.06 3427.81 4103.21 3421.79 4097.19 3413.94 4093.41 3404.8 4092.12 3395 4093.41 3385.2 4097.19 3376.06 4103.21 3368.21 4111.06 3362.19 4120.19 3358.41 4130 3357.12 4139.8 3358.41 4142.92 3359.7 4320 3359.7 4329.14 3360.9 4337.65 3364.43 4344.96 3370.04 4355.87 3380.95 4360.61 3378.61 4360.13 3375 4361.49 3364.68 4365.47 3355.07 4371.1 3347.73 4253.45 3230.08 4249.8 3231.59 4240 3232.88 4230.2 3231.59 4221.06 3227.81 4213.21 3221.79 4207.19 3213.94 4203.41 3204.8 4202.12 3195 4203.41 3185.19 4207.19 3176.06 4213.21 3168.21 4221.06 3162.19 4230.2 3158.41 4240 3157.12 4249.8 3158.41 4258.94 3162.19 4266.79 3168.21 4272.81 3176.06 4276.59 3185.19 4277.88 3195 4276.59 3204.8 4275.08 3208.45 4402.03 3335.4 4410.32 3336.49 4419.93 3340.47 4428.19 3346.81 4434.53 3355.07 4438.51 3364.68 4439.87 3375 4438.51 3385.32 4436.59 3389.96 4500.81 3454.19 4504.13 3459.15 4505.29 3465 4505.29 3553.66 4600.04 3648.41 4604.68 3646.49 4615 3645.13 4625.32 3646.49 4634.93 3650.47 4643.19 3656.81 4649.53 3665.07 4653.51 3674.68 4654.87 3685 4653.51 3695.32 4649.53 3704.93 4643.19 3713.19 4634.93 3719.53 4625.32 3723.51 4615 3724.87"/><path d="M 4130 3627.88 4120.19 3626.59 4111.06 3622.81 4103.21 3616.79 4097.19 3608.94 4093.41 3599.81 4092.12 3590 4093.41 3580.19 4097.19 3571.06 4103.21 3563.21 4111.06 3557.19 4120.19 3553.41 4130 3552.12 4139.8 3553.41 4148.94 3557.19 4156.79 3563.21 4162.81 3571.06 4166.59 3580.19 4167.88 3590 4166.59 3599.81 4162.81 3608.94 4156.79 3616.79 4148.94 3622.81 4139.8 3626.59 4130 3627.88"/><path d="M 4715 3624.87 4704.68 3623.51 4695.07 3619.53 4686.81 3613.19 4680.47 3604.93 4676.49 3595.32 4675.13 3585 4676.49 3574.68 4680.47 3565.07 4686.81 3556.81 4695.07 3550.47 4704.68 3546.49 4715 3545.13 4725.32 3546.49 4734.93 3550.47 4743.19 3556.81 4749.53 3565.07 4753.51 3574.68 4754.87 3585 4753.51 3595.32 4749.53 3604.93 4743.19 3613.19 4734.93 3619.53 4725.32 3623.51 4715 3624.87"/><path d="M 4615 3624.87 4604.68 3623.51 4595.07 3619.53 4586.81 3613.19 4580.47 3604.93 4576.49 3595.32 4575.13 3585 4576.49 3574.68 4580.47 3565.07 4586.81 3556.81 4595.07 3550.47 4604.68 3546.49 4615 3545.13 4625.32 3546.49 4634.93 3550.47 4643.19 3556.81 4649.53 3565.07 4653.51 3574.68 4654.87 3585 4653.51 3595.32 4649.53 3604.93 4643.19 3613.19 4634.93 3619.53 4625.32 3623.51 4615 3624.87"/><path d="M 4439.53 3614.53 4360.47 3614.53 4360.47 3535.47 4439.53 3535.47 4439.53 3614.53"/><path d="M 2945 3548.91 2936.22 3547.76 2928.04 3544.37 2921.02 3538.98 2915.63 3531.96 2912.24 3523.78 2911.09 3515 2912.24 3506.22 2915.63 3498.04 2921.02 3491.02 2928.04 3485.63 2936.22 3482.24 2945 3481.09 2953.78 3482.24 2961.96 3485.63 2968.98 3491.02 2974.37 3498.04 2977.76 3506.22 2978.91 3515 2977.76 3523.78 2974.37 3531.96 2968.98 3538.98 2961.96 3544.37 2953.78 3547.76 2945 3548.91"/><path d="M 2315 4104.87 2305.98 4103.68 2297.57 4100.19 2290.35 4094.65 2284.81 4087.43 2281.32 4079.02 2280.13 4070 2281.32 4060.98 2284.81 4052.57 2290.35 4045.35 2297.57 4039.81 2305.98 4036.32 2315 4035.13 2324.02 4036.32 2331.72 4039.51 2571.93 4039.51 2573.84 4034.89 2511.98 3973.02 2506.45 3964.76 2504.51 3955 2504.51 3430.56 2406.58 3332.63 2401.44 3331.95 2393.46 3328.65 2386.61 3323.39 2381.35 3316.54 2378.05 3308.56 2376.92 3300 2378.05 3291.44 2381.35 3283.46 2386.61 3276.61 2393.46 3271.35 2401.44 3268.05 2410 3266.92 2418.56 3268.05 2426.54 3271.35 2433.39 3276.61 2438.65 3283.46 2441.95 3291.44 2442.63 3296.58 2548.02 3401.98 2553.55 3410.24 2555.49 3420 2555.49 3944.44 2642.46 4031.41 2648.78 4032.24 2656.96 4035.63 2662.01 4039.51 2792.99 4039.51 2798.04 4035.63 2806.22 4032.24 2812.54 4031.41 2984.51 3859.44 2984.51 3750 2986.45 3740.25 2991.98 3731.98 3211.41 3512.54 3212.24 3506.22 3215.63 3498.04 3219.51 3492.99 3219.51 3340.26 3216.81 3338.19 3210.47 3329.93 3206.49 3320.32 3205.13 3310 3206.49 3299.68 3210.47 3290.07 3216.81 3281.81 3225.07 3275.47 3234.68 3271.49 3245 3270.13 3255.32 3271.49 3264.93 3275.47 3273.19 3281.81 3279.53 3290.07 3283.51 3299.68 3284.87 3310 3283.51 3320.32 3279.53 3329.93 3273.19 3338.19 3270.49 3340.26 3270.49 3489.51 3487.22 3489.51 3488.21 3488.21 3496.06 3482.19 3505.19 3478.41 3515 3477.12 3524.81 3478.41 3533.94 3482.19 3541.79 3488.21 3547.81 3496.06 3551.59 3505.19 3552.88 3515 3551.59 3524.81 3547.81 3533.94 3541.79 3541.79 3540.49 3542.78 3540.49 3746.81 3593.68 3800 3660 3800 3660 3900 3660 4000 3660 4100 3560 4100 3560 4000 3560 3900 3560 3838.42 3496.98 3775.39 3491.45 3767.12 3489.51 3757.37 3489.51 3542.78 3488.21 3541.79 3487.22 3540.49 3267.01 3540.49 3261.96 3544.37 3253.78 3547.76 3247.46 3548.59 3035.49 3760.56 3035.49 3870 3033.55 3879.76 3028.02 3888.02 2848.59 4067.46 2847.76 4073.78 2844.37 4081.96 2838.98 4088.98 2831.96 4094.37 2823.78 4097.76 2815 4098.91 2806.22 4097.76 2798.04 4094.37 2792.99 4090.49 2662.01 4090.49 2656.96 4094.37 2648.78 4097.76 2640 4098.91 2631.22 4097.76 2623.04 4094.37 2617.99 4090.49 2342.85 4090.49 2339.65 4094.65 2332.43 4100.19 2324.02 4103.68 2315 4104.87"/><path d="M 4715 3524.87 4704.68 3523.51 4695.07 3519.53 4686.81 3513.19 4680.47 3504.93 4676.49 3495.32 4675.13 3485 4676.49 3474.68 4680.47 3465.07 4686.81 3456.81 4695.07 3450.47 4704.68 3446.49 4715 3445.13 4725.32 3446.49 4734.93 3450.47 4743.19 3456.81 4749.53 3465.07 4753.51 3474.68 4754.87 3485 4753.51 3495.32 4749.53 3504.93 4743.19 3513.19 4734.93 3519.53 4725.32 3523.51 4715 3524.87"/><path d="M 4615 3524.87 4604.68 3523.51 4595.07 3519.53 4586.81 3513.19 4584.69 3510.43 4575.24 3508.55 4566.98 3503.02 4496.98 3433.02 4491.45 3424.76 4489.51 3415 4489.51 2840.56 4174.44 2525.49 3387.01 2525.49 3381.96 2529.37 3373.78 2532.76 3365 2533.91 3356.22 2532.76 3348.04 2529.37 3341.02 2523.98 3335.63 2516.96 3332.24 2508.78 3331.09 2500 3332.24 2491.22 3335.63 2483.04 3341.02 2476.02 3348.04 2470.63 3356.22 2467.24 3365 2466.09 3373.78 2467.24 3381.96 2470.63 3387.01 2474.51 4185 2474.51 4194.76 2476.45 4203.02 2481.98 4533.02 2811.98 4538.55 2820.25 4540.49 2830 4540.49 3404.44 4590.23 3454.18 4595.07 3450.47 4604.68 3446.49 4615 3445.13 4625.32 3446.49 4634.93 3450.47 4643.19 3456.81 4649.53 3465.07 4653.51 3474.68 4654.87 3485 4653.51 3495.32 4649.53 3504.93 4643.19 3513.19 4634.93 3519.53 4625.32 3523.51 4615 3524.87"/><path d="M 4715 3424.87 4704.68 3423.51 4695.07 3419.53 4686.81 3413.19 4680.47 3404.93 4676.49 3395.32 4675.13 3385 4676.49 3374.68 4680.47 3365.07 4686.81 3356.81 4695.07 3350.47 4704.68 3346.49 4715 3345.13 4725.32 3346.49 4734.93 3350.47 4743.19 3356.81 4749.53 3365.07 4753.51 3374.68 4754.87 3385 4753.51 3395.32 4749.53 3404.93 4743.19 3413.19 4734.93 3419.53 4725.32 3423.51 4715 3424.87"/><path d="M 4615 3424.87 4604.68 3423.51 4595.07 3419.53 4586.81 3413.19 4580.47 3404.93 4576.49 3395.32 4575.13 3385 4576.49 3374.68 4580.47 3365.07 4586.81 3356.81 4595.07 3350.47 4604.68 3346.49 4615 3345.13 4625.32 3346.49 4634.93 3350.47 4643.19 3356.81 4649.53 3365.07 4653.51 3374.68 4654.87 3385 4653.51 3395.32 4649.53 3404.93 4643.19 3413.19 4634.93 3419.53 4625.32 3423.51 4615 3424.87"/><path d="M 4715 3324.87 4704.68 3323.51 4695.07 3319.53 4686.81 3313.19 4680.47 3304.93 4676.49 3295.32 4675.13 3285 4676.49 3274.68 4680.47 3265.07 4686.81 3256.81 4695.07 3250.47 4704.68 3246.49 4715 3245.13 4725.32 3246.49 4734.93 3250.47 4743.19 3256.81 4749.53 3265.07 4753.51 3274.68 4754.87 3285 4753.51 3295.32 4749.53 3304.93 4743.19 3313.19 4734.93 3319.53 4725.32 3323.51 4715 3324.87"/><path d="M 4615 3324.87 4604.68 3323.51 4595.07 3319.53 4586.81 3313.19 4580.47 3304.93 4576.49 3295.32 4575.13 3285 4576.49 3274.68 4580.47 3265.07 4586.81 3256.81 4595.07 3250.47 4604.68 3246.49 4615 3245.13 4625.32 3246.49 4634.93 3250.47 4643.19 3256.81 4649.53 3265.07 4653.51 3274.68 4654.87 3285 4653.51 3295.32 4649.53 3304.93 4643.19 3313.19 4634.93 3319.53 4625.32 3323.51 4615 3324.87"/><path d="M 2945 3249.87 2934.68 3248.51 2925.07 3244.53 2916.81 3238.19 2910.47 3229.93 2908.88 3226.08 2901.26 3224.56 2892.99 3219.04 2406.58 2732.63 2401.44 2731.95 2393.46 2728.65 2386.61 2723.39 2381.35 2716.54 2378.05 2708.56 2376.92 2700 2378.05 2691.44 2381.35 2683.46 2386.61 2676.61 2393.46 2671.35 2401.44 2668.05 2410 2666.92 2418.56 2668.05 2426.54 2671.35 2433.39 2676.61 2438.65 2683.46 2441.95 2691.44 2442.63 2696.58 2921.57 3175.52 2925 3175.52 2925.07 3175.47 2934.68 3171.49 2945 3170.13 2955.32 3171.49 2964.93 3175.47 2973.19 3181.81 2979.53 3190.07 2983.51 3199.68 2984.87 3210 2983.51 3220.32 2979.53 3229.93 2973.19 3238.19 2964.93 3244.53 2955.32 3248.51 2945 3249.87"/><path d="M 4715 3224.87 4704.68 3223.51 4695.07 3219.53 4686.81 3213.19 4680.47 3204.93 4676.49 3195.32 4675.13 3185 4676.49 3174.68 4680.47 3165.07 4686.81 3156.81 4695.07 3150.47 4704.68 3146.49 4715 3145.13 4725.32 3146.49 4734.93 3150.47 4743.19 3156.81 4749.53 3165.07 4753.51 3174.68 4754.87 3185 4753.51 3195.32 4749.53 3204.93 4743.19 3213.19 4734.93 3219.53 4725.32 3223.51 4715 3224.87"/><path d="M 4615 3224.87 4604.68 3223.51 4595.07 3219.53 4586.81 3213.19 4580.47 3204.93 4576.49 3195.32 4575.13 3185 4576.49 3174.68 4580.47 3165.07 4586.81 3156.81 4595.07 3150.47 4604.68 3146.49 4615 3145.13 4625.32 3146.49 4634.93 3150.47 4643.19 3156.81 4649.53 3165.07 4653.51 3174.68 4654.87 3185 4653.51 3195.32 4649.53 3204.93 4643.19 3213.19 4634.93 3219.53 4625.32 3223.51 4615 3224.87"/><path d="M 3515 3152.88 3505.19 3151.59 3496.06 3147.81 3488.21 3141.79 3482.19 3133.94 3478.41 3124.8 3477.12 3115 3478.41 3105.2 3482.19 3096.06 3488.21 3088.21 3496.06 3082.19 3505.19 3078.41 3515 3077.12 3524.81 3078.41 3533.94 3082.19 3541.79 3088.21 3547.81 3096.06 3551.59 3105.2 3552.88 3115 3551.59 3124.8 3547.81 3133.94 3541.79 3141.79 3533.94 3147.81 3524.81 3151.59 3515 3152.88"/><path d="M 4715 3124.87 4704.68 3123.51 4695.07 3119.53 4686.81 3113.19 4680.47 3104.93 4676.49 3095.32 4675.13 3085 4676.49 3074.68 4680.47 3065.07 4686.81 3056.81 4695.07 3050.47 4704.68 3046.49 4715 3045.13 4725.32 3046.49 4734.93 3050.47 4743.19 3056.81 4749.53 3065.07 4753.51 3074.68 4754.87 3085 4753.51 3095.32 4749.53 3104.93 4743.19 3113.19 4734.93 3119.53 4725.32 3123.51 4715 3124.87"/><path d="M 4615 3124.87 4604.68 3123.51 4595.07 3119.53 4586.81 3113.19 4580.47 3104.93 4576.49 3095.32 4575.13 3085 4576.49 3074.68 4580.47 3065.07 4586.81 3056.81 4595.07 3050.47 4604.68 3046.49 4615 3045.13 4625.32 3046.49 4634.93 3050.47 4643.19 3056.81 4649.53 3065.07 4653.51 3074.68 4654.87 3085 4653.51 3095.32 4649.53 3104.93 4643.19 3113.19 4634.93 3119.53 4625.32 3123.51 4615 3124.87"/><path d="M 4140 3053.91 4131.22 3052.76 4123.04 3049.37 4116.02 3043.98 4110.63 3036.96 4107.24 3028.78 4106.09 3020 4107.24 3011.22 4110.63 3003.04 4116.02 2996.02 4123.04 2990.63 4131.22 2987.24 4140 2986.09 4148.78 2987.24 4156.96 2990.63 4163.98 2996.02 4169.37 3003.04 4172.76 3011.22 4173.91 3020 4172.76 3028.78 4169.37 3036.96 4163.98 3043.98 4156.96 3049.37 4148.78 3052.76 4140 3053.91"/><path d="M 2945 3149.87 2934.68 3148.51 2925.07 3144.53 2916.81 3138.19 2910.47 3129.93 2906.49 3120.32 2905.13 3110 2906.49 3099.68 2910.47 3090.07 2916.81 3081.81 2919.51 3079.74 2919.51 3040.26 2916.81 3038.19 2910.47 3029.93 2906.49 3020.32 2905.13 3010 2906.49 2999.68 2910.47 2990.07 2916.81 2981.81 2919.51 2979.74 2919.51 2940.26 2916.81 2938.19 2910.47 2929.93 2906.49 2920.32 2905.13 2910 2906.49 2899.68 2910.47 2890.07 2916.81 2881.81 2925.07 2875.47 2934.68 2871.49 2945 2870.13 2955.32 2871.49 2964.93 2875.47 2973.19 2881.81 2979.53 2890.07 2983.51 2899.68 2984.87 2910 2983.51 2920.32 2979.53 2929.93 2973.19 2938.19 2970.49 2940.26 2970.49 2979.74 2973.19 2981.81 2979.53 2990.07 2983.51 2999.68 2984.87 3010 2983.51 3020.32 2979.53 3029.93 2973.19 3038.19 2970.49 3040.26 2970.49 3079.74 2973.19 3081.81 2979.53 3090.07 2983.51 3099.68 2984.87 3110 2983.51 3120.32 2979.53 3129.93 2973.19 3138.19 2964.93 3144.53 2955.32 3148.51 2945 3149.87"/><path d="M 4240 2857.88 4230.2 2856.59 4221.06 2852.81 4213.21 2846.79 4207.19 2838.94 4203.41 2829.8 4202.12 2820 4203.41 2810.19 4207.19 2801.06 4213.21 2793.21 4221.06 2787.19 4230.2 2783.41 4240 2782.12 4249.8 2783.41 4258.94 2787.19 4266.79 2793.21 4272.81 2801.06 4276.59 2810.19 4277.88 2820 4276.59 2829.8 4272.81 2838.94 4266.79 2846.79 4258.94 2852.81 4249.8 2856.59 4240 2857.88"/><path d="M 3245 3049.87 3234.68 3048.51 3225.07 3044.53 3216.81 3038.19 3210.47 3029.93 3206.49 3020.32 3205.13 3010 3206.49 2999.68 3210.47 2990.07 3216.81 2981.81 3219.51 2979.74 3219.51 2940.26 3216.81 2938.19 3210.47 2929.93 3206.49 2920.32 3205.13 2910 3206.49 2899.68 3210.47 2890.07 3216.81 2881.81 3219.51 2879.74 3219.51 2840.26 3216.81 2838.19 3210.47 2829.93 3206.49 2820.32 3205.13 2810 3206.49 2799.68 3210.47 2790.07 3216.81 2781.81 3225.07 2775.47 3234.68 2771.49 3245 2770.13 3255.32 2771.49 3264.93 2775.47 3273.19 2781.81 3279.53 2790.07 3283.51 2799.68 3284.87 2810 3283.51 2820.32 3279.53 2829.93 3273.19 2838.19 3270.49 2840.26 3270.49 2879.74 3273.19 2881.81 3279.53 2890.07 3283.51 2899.68 3284.87 2910 3283.51 2920.32 3279.53 2929.93 3273.19 2938.19 3270.49 2940.26 3270.49 2979.74 3273.19 2981.81 3279.53 2990.07 3283.51 2999.68 3284.87 3010 3283.51 3020.32 3279.53 3029.93 3273.19 3038.19 3264.93 3044.53 3255.32 3048.51 3245 3049.87"/><path d="M 2984.53 3349.53 2905.47 3349.53 2905.47 3270.47 2948.48 3270.47 3039.51 3179.44 3039.51 2890 3041.45 2880.24 3046.98 2871.98 3205.58 2713.38 3205.13 2710 3206.49 2699.68 3210.47 2690.07 3216.81 2681.81 3225.07 2675.47 3234.68 2671.49 3245 2670.13 3255.32 2671.49 3264.93 2675.47 3273.19 2681.81 3279.53 2690.07 3283.51 2699.68 3284.87 2710 3283.51 2720.32 3279.53 2729.93 3273.19 2738.19 3264.93 2744.53 3255.32 2748.51 3245 2749.87 3241.62 2749.42 3090.49 2900.56 3090.49 3190 3088.55 3199.75 3083.02 3208.02 2984.53 3306.52 2984.53 3349.53"/><path d="M 2945 2749.87 2934.68 2748.51 2925.07 2744.53 2916.81 2738.19 2910.47 2729.93 2906.49 2720.32 2905.13 2710 2906.49 2699.68 2910.47 2690.07 2916.81 2681.81 2925.07 2675.47 2934.68 2671.49 2945 2670.13 2955.32 2671.49 2964.93 2675.47 2973.19 2681.81 2979.53 2690.07 2983.51 2699.68 2984.87 2710 2983.51 2720.32 2979.53 2729.93 2973.19 2738.19 2964.93 2744.53 2955.32 2748.51 2945 2749.87"/><path d="M 2110 2733.08 2101.44 2731.95 2093.46 2728.65 2086.61 2723.39 2081.35 2716.54 2078.05 2708.56 2076.92 2700 2078.05 2691.44 2081.35 2683.46 2086.61 2676.61 2093.46 2671.35 2101.44 2668.05 2110 2666.92 2118.56 2668.05 2126.54 2671.35 2133.39 2676.61 2138.65 2683.46 2141.95 2691.44 2143.08 2700 2141.95 2708.56 2138.65 2716.54 2133.39 2723.39 2126.54 2728.65 2118.56 2731.95 2110 2733.08"/><path d="M 4240 2727.88 4230.2 2726.59 4221.06 2722.81 4213.21 2716.79 4207.19 2708.94 4203.41 2699.81 4202.12 2690 4203.41 2680.2 4207.19 2671.06 4213.21 2663.21 4221.06 2657.19 4230.2 2653.41 4240 2652.12 4249.8 2653.41 4258.94 2657.19 4266.79 2663.21 4272.81 2671.06 4276.59 2680.2 4277.88 2690 4276.59 2699.81 4272.81 2708.94 4266.79 2716.79 4258.94 2722.81 4249.8 2726.59 4240 2727.88"/><path d="M 3675 3385.49 3395 3385.49 3385.25 3383.55 3376.98 3378.02 3248.38 3249.42 3245 3249.87 3234.68 3248.51 3225.07 3244.53 3216.81 3238.19 3210.47 3229.93 3206.49 3220.32 3205.13 3210 3206.49 3199.68 3210.47 3190.07 3216.81 3181.81 3219.51 3179.74 3219.51 3140.26 3216.81 3138.19 3210.47 3129.93 3206.49 3120.32 3205.13 3110 3206.49 3099.68 3210.47 3090.07 3216.81 3081.81 3225.07 3075.47 3234.68 3071.49 3245 3070.13 3255.32 3071.49 3264.93 3075.47 3273.19 3081.81 3279.53 3090.07 3283.51 3099.68 3284.87 3110 3283.51 3120.32 3279.53 3129.93 3273.19 3138.19 3270.49 3140.26 3270.49 3179.74 3273.19 3181.81 3279.53 3190.07 3283.51 3199.68 3284.87 3210 3284.42 3213.38 3405.56 3334.51 3664.44 3334.51 3802.33 3196.62 3802.12 3195 3803.41 3185.19 3807.19 3176.06 3813.21 3168.21 3814.51 3167.22 3814.51 3042.01 3810.63 3036.96 3807.24 3028.78 3806.09 3020 3807.24 3011.22 3810.63 3003.04 3814.51 2997.99 3814.51 2847.78 3813.21 2846.79 3807.19 2838.94 3803.41 2829.8 3802.12 2820 3803.41 2810.19 3807.19 2801.06 3813.21 2793.21 3814.51 2792.22 3814.51 2717.78 3813.21 2716.79 3807.19 2708.94 3803.41 2699.81 3802.12 2690 3803.41 2680.2 3807.19 2671.06 3813.21 2663.21 3821.06 2657.19 3830.19 2653.41 3840 2652.12 3849.81 2653.41 3858.94 2657.19 3866.79 2663.21 3872.81 2671.06 3876.59 2680.2 3877.88 2690 3876.59 2699.81 3872.81 2708.94 3866.79 2716.79 3865.49 2717.78 3865.49 2792.22 3866.79 2793.21 3872.81 2801.06 3876.59 2810.19 3877.88 2820 3876.59 2829.8 3872.81 2838.94 3866.79 2846.79 3865.49 2847.78 3865.49 2997.99 3869.37 3003.04 3872.76 3011.22 3873.91 3020 3872.76 3028.78 3869.37 3036.96 3865.49 3042.01 3865.49 3167.22 3866.79 3168.21 3872.81 3176.06 3876.59 3185.19 3877.88 3195 3876.59 3204.8 3872.81 3213.94 3866.79 3221.79 3858.94 3227.81 3849.81 3231.59 3840 3232.88 3838.38 3232.67 3693.02 3378.02 3684.76 3383.55 3675 3385.49"/><path d="M 2945 2849.87 2934.68 2848.51 2925.07 2844.53 2916.81 2838.19 2910.47 2829.93 2906.49 2820.32 2905.13 2810 2906.49 2799.68 2910.47 2790.07 2916.81 2781.81 2925.07 2775.47 2934.68 2771.49 2945 2770.13 2948.38 2770.58 3039.51 2679.44 3039.51 2522.99 2805.22 2522.99 2798.94 2527.81 2789.8 2531.59 2780 2532.88 2770.2 2531.59 2761.06 2527.81 2753.21 2521.79 2747.19 2513.94 2743.41 2504.81 2742.12 2495 2743.41 2485.19 2747.19 2476.06 2753.21 2468.21 2761.06 2462.19 2770.2 2458.41 2780 2457.12 2789.8 2458.41 2798.94 2462.19 2806.79 2468.21 2809.7 2472.01 3046.25 2472.01 3048.04 2470.63 3056.22 2467.24 3065 2466.09 3073.78 2467.24 3081.96 2470.63 3088.98 2476.02 3094.37 2483.04 3097.76 2491.22 3098.91 2500 3097.76 2508.78 3094.37 2516.96 3090.49 2522.01 3090.49 2690 3088.55 2699.75 3083.02 2708.02 2984.42 2806.62 2984.87 2810 2983.51 2820.32 2979.53 2829.93 2973.19 2838.19 2964.93 2844.53 2955.32 2848.51 2945 2849.87"/><path d="M 2380 2532.88 2370.19 2531.59 2361.06 2527.81 2353.21 2521.79 2347.19 2513.94 2343.41 2504.81 2342.12 2495 2343.41 2485.19 2347.19 2476.06 2353.21 2468.21 2361.06 2462.19 2370.19 2458.41 2380 2457.12 2389.81 2458.41 2398.94 2462.19 2406.79 2468.21 2412.81 2476.06 2416.59 2485.19 2417.88 2495 2416.59 2504.81 2412.81 2513.94 2406.79 2521.79 2398.94 2527.81 2389.81 2531.59 2380 2532.88"/></g></mask><rect x="-297.5" y="-197.5" width="595" height="395" id="p59g58iCslOvQrYhqmai_pad-15"/><circle cx="0" cy="0" r="27.56" id="p59g58iCslOvQrYhqmai_pad-33"/><rect x="-29.53" y="-29.53" width="59.06" height="59.06" id="p59g58iCslOvQrYhqmai_pad-34"/><circle cx="0" cy="0" r="29.53" id="p59g58iCslOvQrYhqmai_pad-35"/><circle cx="0" cy="0" r="23.62" id="p59g58iCslOvQrYhqmai_pad-36"/><circle cx="0" cy="0" r="24.565" id="p59g58iCslOvQrYhqmai_pad-37"/><rect x="-24.565" y="-24.565" width="49.13" height="49.13" id="p59g58iCslOvQrYhqmai_pad-38"/><rect x="-40" y="-40" width="80" height="80" id="p59g58iCslOvQrYhqmai_pad-39"/><circle cx="0" cy="0" r="88.585" id="p59g58iCslOvQrYhqmai_pad-40"/><rect x="-29.53" y="-29.53" width="59.06" height="59.06" id="p59g58iCslOvQrYhqmai_pad-41"/><circle cx="0" cy="0" r="29.53" id="p59g58iCslOvQrYhqmai_pad-42"/><circle cx="0" cy="0" r="22.795" id="p59g58iCslOvQrYhqmai_pad-43"/><rect x="-22.795" y="-22.795" width="45.59" height="45.59" id="p59g58iCslOvQrYhqmai_pad-44"/><circle cx="0" cy="0" r="78.74" id="p59g58iCslOvQrYhqmai_pad-45"/><rect x="-297.5" y="-197.5" width="595" height="395" id="r_3MQ-Qnleng3BkZdHRH_pad-15"/><circle cx="0" cy="0" r="12.795" id="fvgaOPBp-BsG6FRZScR0_pad-1"/><circle cx="0" cy="0" r="13.78" id="fvgaOPBp-BsG6FRZScR0_pad-2"/><circle cx="0" cy="0" r="14.565" id="fvgaOPBp-BsG6FRZScR0_pad-3"/><circle cx="0" cy="0" r="16.73" id="fvgaOPBp-BsG6FRZScR0_pad-4"/><circle cx="0" cy="0" r="17.715" id="fvgaOPBp-BsG6FRZScR0_pad-5"/><circle cx="0" cy="0" r="20" id="fvgaOPBp-BsG6FRZScR0_pad-7"/><circle cx="0" cy="0" r="24" id="fvgaOPBp-BsG6FRZScR0_pad-8"/><circle cx="0" cy="0" r="59.055" id="fvgaOPBp-BsG6FRZScR0_pad-9"/><circle cx="0" cy="0" r="68.9" id="fvgaOPBp-BsG6FRZScR0_pad-10"/><g id="JK_HSlTJHMVa95FYH59l_top_soldermask"><use xlink:href="#mbRmUiJZoyWt_qKeI8N6_pad-16" x="4107.5" y="3947.5"/><use xlink:href="#mbRmUiJZoyWt_qKeI8N6_pad-17" x="3840" y="2690"/><use xlink:href="#mbRmUiJZoyWt_qKeI8N6_pad-17" x="4240" y="2690"/><use xlink:href="#mbRmUiJZoyWt_qKeI8N6_pad-17" x="3515" y="3515"/><use xlink:href="#mbRmUiJZoyWt_qKeI8N6_pad-17" x="3515" y="3115"/><use xlink:href="#mbRmUiJZoyWt_qKeI8N6_pad-17" x="4130" y="3395"/><use xlink:href="#mbRmUiJZoyWt_qKeI8N6_pad-17" x="4130" y="3590"/><use xlink:href="#mbRmUiJZoyWt_qKeI8N6_pad-17" x="2780" y="2495"/><use xlink:href="#mbRmUiJZoyWt_qKeI8N6_pad-17" x="2380" y="2495"/><use xlink:href="#mbRmUiJZoyWt_qKeI8N6_pad-17" x="3840" y="2820"/><use xlink:href="#mbRmUiJZoyWt_qKeI8N6_pad-17" x="4240" y="2820"/><use xlink:href="#mbRmUiJZoyWt_qKeI8N6_pad-17" x="4240" y="3195"/><use xlink:href="#mbRmUiJZoyWt_qKeI8N6_pad-17" x="3840" y="3195"/><use xlink:href="#mbRmUiJZoyWt_qKeI8N6_pad-18" x="4615" y="3985"/><use xlink:href="#mbRmUiJZoyWt_qKeI8N6_pad-18" x="4400" y="3575"/><use xlink:href="#mbRmUiJZoyWt_qKeI8N6_pad-19" x="4615" y="3885"/><use xlink:href="#mbRmUiJZoyWt_qKeI8N6_pad-19" x="4615" y="3785"/><use xlink:href="#mbRmUiJZoyWt_qKeI8N6_pad-19" x="4615" y="3685"/><use xlink:href="#mbRmUiJZoyWt_qKeI8N6_pad-19" x="4615" y="3585"/><use xlink:href="#mbRmUiJZoyWt_qKeI8N6_pad-19" x="4615" y="3485"/><use xlink:href="#mbRmUiJZoyWt_qKeI8N6_pad-19" x="4615" y="3385"/><use xlink:href="#mbRmUiJZoyWt_qKeI8N6_pad-19" x="4615" y="3285"/><use xlink:href="#mbRmUiJZoyWt_qKeI8N6_pad-19" x="4615" y="3185"/><use xlink:href="#mbRmUiJZoyWt_qKeI8N6_pad-19" x="4615" y="3085"/><use xlink:href="#mbRmUiJZoyWt_qKeI8N6_pad-19" x="4715" y="3985"/><use xlink:href="#mbRmUiJZoyWt_qKeI8N6_pad-19" x="4715" y="3885"/><use xlink:href="#mbRmUiJZoyWt_qKeI8N6_pad-19" x="4715" y="3785"/><use xlink:href="#mbRmUiJZoyWt_qKeI8N6_pad-19" x="4715" y="3685"/><use xlink:href="#mbRmUiJZoyWt_qKeI8N6_pad-19" x="4715" y="3585"/><use xlink:href="#mbRmUiJZoyWt_qKeI8N6_pad-19" x="4715" y="3485"/><use xlink:href="#mbRmUiJZoyWt_qKeI8N6_pad-19" x="4715" y="3385"/><use xlink:href="#mbRmUiJZoyWt_qKeI8N6_pad-19" x="4715" y="3285"/><use xlink:href="#mbRmUiJZoyWt_qKeI8N6_pad-19" x="4715" y="3185"/><use xlink:href="#mbRmUiJZoyWt_qKeI8N6_pad-19" x="4715" y="3085"/><use xlink:href="#mbRmUiJZoyWt_qKeI8N6_pad-19" x="4400" y="3475"/><use xlink:href="#mbRmUiJZoyWt_qKeI8N6_pad-19" x="4400" y="3375"/><use xlink:href="#mbRmUiJZoyWt_qKeI8N6_pad-20" x="3065" y="2500"/><use xlink:href="#mbRmUiJZoyWt_qKeI8N6_pad-20" x="3365" y="2500"/><use xlink:href="#mbRmUiJZoyWt_qKeI8N6_pad-20" x="2415" y="3680"/><use xlink:href="#mbRmUiJZoyWt_qKeI8N6_pad-20" x="2115" y="3680"/><use xlink:href="#mbRmUiJZoyWt_qKeI8N6_pad-20" x="2815" y="3765"/><use xlink:href="#mbRmUiJZoyWt_qKeI8N6_pad-20" x="2815" y="4065"/><use xlink:href="#mbRmUiJZoyWt_qKeI8N6_pad-20" x="2945" y="3515"/><use xlink:href="#mbRmUiJZoyWt_qKeI8N6_pad-20" x="3245" y="3515"/><use xlink:href="#mbRmUiJZoyWt_qKeI8N6_pad-20" x="4140" y="3020"/><use xlink:href="#mbRmUiJZoyWt_qKeI8N6_pad-20" x="3840" y="3020"/><use xlink:href="#mbRmUiJZoyWt_qKeI8N6_pad-20" x="2640" y="3765"/><use xlink:href="#mbRmUiJZoyWt_qKeI8N6_pad-20" x="2640" y="4065"/><use xlink:href="#mbRmUiJZoyWt_qKeI8N6_pad-20" x="3205" y="3750"/><use xlink:href="#mbRmUiJZoyWt_qKeI8N6_pad-20" x="3205" y="4050"/><use xlink:href="#mbRmUiJZoyWt_qKeI8N6_pad-20" x="3375" y="3750"/><use xlink:href="#mbRmUiJZoyWt_qKeI8N6_pad-20" x="3375" y="4050"/><use xlink:href="#mbRmUiJZoyWt_qKeI8N6_pad-21" x="2315" y="4070"/><use xlink:href="#mbRmUiJZoyWt_qKeI8N6_pad-21" x="2215" y="4070"/><use xlink:href="#mbRmUiJZoyWt_qKeI8N6_pad-22" x="2115" y="4070"/><use xlink:href="#mbRmUiJZoyWt_qKeI8N6_pad-23" x="3610" y="4050"/><use xlink:href="#mbRmUiJZoyWt_qKeI8N6_pad-23" x="3610" y="3950"/><use xlink:href="#mbRmUiJZoyWt_qKeI8N6_pad-23" x="3610" y="3850"/><use xlink:href="#mbRmUiJZoyWt_qKeI8N6_pad-24" x="4310" y="3950"/><use xlink:href="#mbRmUiJZoyWt_qKeI8N6_pad-25" x="2945" y="3310"/><use xlink:href="#mbRmUiJZoyWt_qKeI8N6_pad-26" x="2945" y="3210"/><use xlink:href="#mbRmUiJZoyWt_qKeI8N6_pad-26" x="2945" y="3110"/><use xlink:href="#mbRmUiJZoyWt_qKeI8N6_pad-26" x="2945" y="3010"/><use xlink:href="#mbRmUiJZoyWt_qKeI8N6_pad-26" x="2945" y="2910"/><use xlink:href="#mbRmUiJZoyWt_qKeI8N6_pad-26" x="2945" y="2810"/><use xlink:href="#mbRmUiJZoyWt_qKeI8N6_pad-26" x="2945" y="2710"/><use xlink:href="#mbRmUiJZoyWt_qKeI8N6_pad-26" x="3245" y="3310"/><use xlink:href="#mbRmUiJZoyWt_qKeI8N6_pad-26" x="3245" y="3210"/><use xlink:href="#mbRmUiJZoyWt_qKeI8N6_pad-26" x="3245" y="3110"/><use xlink:href="#mbRmUiJZoyWt_qKeI8N6_pad-26" x="3245" y="3010"/><use xlink:href="#mbRmUiJZoyWt_qKeI8N6_pad-26" x="3245" y="2910"/><use xlink:href="#mbRmUiJZoyWt_qKeI8N6_pad-26" x="3245" y="2810"/><use xlink:href="#mbRmUiJZoyWt_qKeI8N6_pad-26" x="3245" y="2710"/><use xlink:href="#mbRmUiJZoyWt_qKeI8N6_pad-27" x="2410" y="3300"/><use xlink:href="#mbRmUiJZoyWt_qKeI8N6_pad-27" x="2410" y="2700"/><use xlink:href="#mbRmUiJZoyWt_qKeI8N6_pad-27" x="2110" y="2700"/><use xlink:href="#mbRmUiJZoyWt_qKeI8N6_pad-28" x="2110" y="3300"/><use xlink:href="#mbRmUiJZoyWt_qKeI8N6_pad-29" x="5070" y="3600"/></g><g id="JK_HSlTJHMVa95FYH59l_top_copper"><g mask="url(#p59g58iCslOvQrYhqmai_clear-1)"><path d="M 4810 2370.29 1895 2370.29 1895 4304.71 4810 4304.71 4810 2370.29"/></g><path d="M 4240 3195 4400 3355 4400 3375 4490 3465 4490 3560 4615 3685 M 2936.01 3201.01 2945 3210 M 3062.5 2497.5 3065 2500 M 2780 2495 2782.5 2497.5 M 2110 3300 2115 3305 M 2315 4070 2320 4065" fill="none" stroke-width="10"/><use xlink:href="#p59g58iCslOvQrYhqmai_pad-15" x="4107.5" y="3947.5"/><path d="M 4130 3395 4320 3395 4400 3475" fill="none" stroke-width="50"/><path d="M 3245 3515 3322.37 3515 M 3370 3515 3515 3515 M 3322.37 3515 3370 3515 M 3515 3515 3515 3757.37 3607.63 3850 M 3245 2910 3245 3010 M 3245 2810 3245 2910 M 4515 2830 4515 3415 M 4585 3485 4615 3485 M 4515 3415 4585 3485 M 4185 2500 4515 2830 M 2115 3970 2215 4070 M 3365 2500 4185 2500 M 2410 2700 2911.01 3201.01 2936.01 3201.01 M 3065 2890 3065 3190 M 2945 3310 3065 3190 M 3395 3360 3675 3360 3840 3195 M 3840 3020 3840 3195 M 3840 2705 3840 2820 3840 3020 M 3245 3210 3395 3360 M 3065 2890 3245 2710 M 2782.5 2497.5 3062.5 2497.5 M 3065 2500 3065 2690 M 2945 2810 3065 2690 M 2945 3010 2945 3110 M 2945 2910 2945 3010 M 3245 3110 3245 3210 M 2115 3680 2115 3970 M 2115 3305 2115 3680 M 3010 3750 3245 3515 M 3010 3750 3010 3870 M 2815 4065 3010 3870 M 2530 3420 2530 3955 M 2410 3300 2530 3420 M 2530 3955 2640 4065 M 2320 4065 2640 4065 2815 4065 M 3245 3310 3245 3515" fill="none" stroke-width="30"/><path d="M 4405 3685 4405 4185 M 3800.58 3746.1 4458.9 3746.1 M 3810 3705 3810 4145 M 3806.1 4154.42 4405.78 4154.42" fill="none" stroke-width="60"/><use xlink:href="#p59g58iCslOvQrYhqmai_pad-33" x="3840" y="2690"/><use xlink:href="#p59g58iCslOvQrYhqmai_pad-33" x="4240" y="2690"/><use xlink:href="#p59g58iCslOvQrYhqmai_pad-33" x="3515" y="3515"/><use xlink:href="#p59g58iCslOvQrYhqmai_pad-33" x="3515" y="3115"/><use xlink:href="#p59g58iCslOvQrYhqmai_pad-33" x="4130" y="3395"/><use xlink:href="#p59g58iCslOvQrYhqmai_pad-33" x="4130" y="3590"/><use xlink:href="#p59g58iCslOvQrYhqmai_pad-33" x="2780" y="2495"/><use xlink:href="#p59g58iCslOvQrYhqmai_pad-33" x="2380" y="2495"/><use xlink:href="#p59g58iCslOvQrYhqmai_pad-33" x="3840" y="2820"/><use xlink:href="#p59g58iCslOvQrYhqmai_pad-33" x="4240" y="2820"/><use xlink:href="#p59g58iCslOvQrYhqmai_pad-33" x="4240" y="3195"/><use xlink:href="#p59g58iCslOvQrYhqmai_pad-33" x="3840" y="3195"/><use xlink:href="#p59g58iCslOvQrYhqmai_pad-34" x="4615" y="3985"/><use xlink:href="#p59g58iCslOvQrYhqmai_pad-34" x="4400" y="3575"/><use xlink:href="#p59g58iCslOvQrYhqmai_pad-35" x="4615" y="3885"/><use xlink:href="#p59g58iCslOvQrYhqmai_pad-35" x="4615" y="3785"/><use xlink:href="#p59g58iCslOvQrYhqmai_pad-35" x="4615" y="3685"/><use xlink:href="#p59g58iCslOvQrYhqmai_pad-35" x="4615" y="3585"/><use xlink:href="#p59g58iCslOvQrYhqmai_pad-35" x="4615" y="3485"/><use xlink:href="#p59g58iCslOvQrYhqmai_pad-35" x="4615" y="3385"/><use xlink:href="#p59g58iCslOvQrYhqmai_pad-35" x="4615" y="3285"/><use xlink:href="#p59g58iCslOvQrYhqmai_pad-35" x="4615" y="3185"/><use xlink:href="#p59g58iCslOvQrYhqmai_pad-35" x="4615" y="3085"/><use xlink:href="#p59g58iCslOvQrYhqmai_pad-35" x="4715" y="3985"/><use xlink:href="#p59g58iCslOvQrYhqmai_pad-35" x="4715" y="3885"/><use xlink:href="#p59g58iCslOvQrYhqmai_pad-35" x="4715" y="3785"/><use xlink:href="#p59g58iCslOvQrYhqmai_pad-35" x="4715" y="3685"/><use xlink:href="#p59g58iCslOvQrYhqmai_pad-35" x="4715" y="3585"/><use xlink:href="#p59g58iCslOvQrYhqmai_pad-35" x="4715" y="3485"/><use xlink:href="#p59g58iCslOvQrYhqmai_pad-35" x="4715" y="3385"/><use xlink:href="#p59g58iCslOvQrYhqmai_pad-35" x="4715" y="3285"/><use xlink:href="#p59g58iCslOvQrYhqmai_pad-35" x="4715" y="3185"/><use xlink:href="#p59g58iCslOvQrYhqmai_pad-35" x="4715" y="3085"/><use xlink:href="#p59g58iCslOvQrYhqmai_pad-35" x="4400" y="3475"/><use xlink:href="#p59g58iCslOvQrYhqmai_pad-35" x="4400" y="3375"/><use xlink:href="#p59g58iCslOvQrYhqmai_pad-36" x="3065" y="2500"/><use xlink:href="#p59g58iCslOvQrYhqmai_pad-36" x="3365" y="2500"/><use xlink:href="#p59g58iCslOvQrYhqmai_pad-36" x="2415" y="3680"/><use xlink:href="#p59g58iCslOvQrYhqmai_pad-36" x="2115" y="3680"/><use xlink:href="#p59g58iCslOvQrYhqmai_pad-36" x="2815" y="3765"/><use xlink:href="#p59g58iCslOvQrYhqmai_pad-36" x="2815" y="4065"/><use xlink:href="#p59g58iCslOvQrYhqmai_pad-36" x="2945" y="3515"/><use xlink:href="#p59g58iCslOvQrYhqmai_pad-36" x="3245" y="3515"/><use xlink:href="#p59g58iCslOvQrYhqmai_pad-36" x="4140" y="3020"/><use xlink:href="#p59g58iCslOvQrYhqmai_pad-36" x="3840" y="3020"/><use xlink:href="#p59g58iCslOvQrYhqmai_pad-36" x="2640" y="3765"/><use xlink:href="#p59g58iCslOvQrYhqmai_pad-36" x="2640" y="4065"/><use xlink:href="#p59g58iCslOvQrYhqmai_pad-36" x="3205" y="3750"/><use xlink:href="#p59g58iCslOvQrYhqmai_pad-36" x="3205" y="4050"/><use xlink:href="#p59g58iCslOvQrYhqmai_pad-36" x="3375" y="3750"/><use xlink:href="#p59g58iCslOvQrYhqmai_pad-36" x="3375" y="4050"/><use xlink:href="#p59g58iCslOvQrYhqmai_pad-37" x="2315" y="4070"/><use xlink:href="#p59g58iCslOvQrYhqmai_pad-37" x="2215" y="4070"/><use xlink:href="#p59g58iCslOvQrYhqmai_pad-38" x="2115" y="4070"/><use xlink:href="#p59g58iCslOvQrYhqmai_pad-39" x="3610" y="4050"/><use xlink:href="#p59g58iCslOvQrYhqmai_pad-39" x="3610" y="3950"/><use xlink:href="#p59g58iCslOvQrYhqmai_pad-39" x="3610" y="3850"/><use xlink:href="#p59g58iCslOvQrYhqmai_pad-40" x="4310" y="3950"/><use xlink:href="#p59g58iCslOvQrYhqmai_pad-41" x="2945" y="3310"/><use xlink:href="#p59g58iCslOvQrYhqmai_pad-42" x="2945" y="3210"/><use xlink:href="#p59g58iCslOvQrYhqmai_pad-42" x="2945" y="3110"/><use xlink:href="#p59g58iCslOvQrYhqmai_pad-42" x="2945" y="3010"/><use xlink:href="#p59g58iCslOvQrYhqmai_pad-42" x="2945" y="2910"/><use xlink:href="#p59g58iCslOvQrYhqmai_pad-42" x="2945" y="2810"/><use xlink:href="#p59g58iCslOvQrYhqmai_pad-42" x="2945" y="2710"/><use xlink:href="#p59g58iCslOvQrYhqmai_pad-42" x="3245" y="3310"/><use xlink:href="#p59g58iCslOvQrYhqmai_pad-42" x="3245" y="3210"/><use xlink:href="#p59g58iCslOvQrYhqmai_pad-42" x="3245" y="3110"/><use xlink:href="#p59g58iCslOvQrYhqmai_pad-42" x="3245" y="3010"/><use xlink:href="#p59g58iCslOvQrYhqmai_pad-42" x="3245" y="2910"/><use xlink:href="#p59g58iCslOvQrYhqmai_pad-42" x="3245" y="2810"/><use xlink:href="#p59g58iCslOvQrYhqmai_pad-42" x="3245" y="2710"/><use xlink:href="#p59g58iCslOvQrYhqmai_pad-43" x="2410" y="3300"/><use xlink:href="#p59g58iCslOvQrYhqmai_pad-43" x="2410" y="2700"/><use xlink:href="#p59g58iCslOvQrYhqmai_pad-43" x="2110" y="2700"/><use xlink:href="#p59g58iCslOvQrYhqmai_pad-44" x="2110" y="3300"/><use xlink:href="#p59g58iCslOvQrYhqmai_pad-45" x="5070" y="3600"/></g><g id="JK_HSlTJHMVa95FYH59l_top_silkscreen"><path d="M 4316.81 3495 4316.55 3505.03 4315.74 3515.03 4314.4 3524.97 4312.52 3534.82 4310.12 3544.56 4307.2 3554.16 4303.77 3563.59 4299.84 3572.81 4295.42 3581.82 4290.52 3590.57 4285.16 3599.05 4279.35 3607.23 4273.11 3615.08 4266.46 3622.59 4259.41 3629.73 4251.99 3636.48 4244.22 3642.83 4236.12 3648.75 4227.72 3654.22 4219.03 3659.24 4210.09 3663.78 4200.91 3667.83 4191.53 3671.39 4181.97 3674.44 4172.27 3676.97 4162.44 3678.98 4152.52 3680.45 4142.53 3681.4 4132.51 3681.8 4122.48 3681.66 4112.47 3680.99 4102.51 3679.78 4092.63 3678.04 4082.86 3675.77 4073.23 3672.98 4063.76 3669.68 4054.47 3665.87 4045.41 3661.57 4036.59 3656.79 4028.04 3651.54 4019.79 3645.84 4011.85 3639.71 4004.25 3633.16 3997.02 3626.21 3990.17 3618.88 3983.72 3611.2 3977.69 3603.18 3972.11 3594.85 3966.97 3586.23 3962.31 3577.34 3958.13 3568.23 3954.45 3558.9 3951.27 3549.38 3948.61 3539.71 3946.48 3529.91 3944.87 3520.01 3943.79 3510.03 3943.25 3500.02 3943.25 3489.98 3943.79 3479.97 3944.87 3470 3946.48 3460.09 3948.61 3450.29 3951.27 3440.62 3954.45 3431.11 3958.13 3421.78 3962.31 3412.66 3966.97 3403.77 3972.11 3395.15 3977.69 3386.82 3983.72 3378.8 3990.17 3371.12 3997.02 3363.79 4004.25 3356.84 4011.85 3350.29 4019.79 3344.16 4028.04 3338.46 4036.59 3333.21 4045.41 3328.43 4054.47 3324.13 4063.75 3320.32 4073.23 3317.02 4082.86 3314.23 4092.63 3311.96 4102.51 3310.22 4112.47 3309.01 4122.48 3308.34 4132.51 3308.2 4142.53 3308.6 4152.52 3309.55 4162.44 3311.02 4172.27 3313.03 4181.97 3315.56 4191.53 3318.61 4200.91 3322.17 4210.09 3326.22 4219.03 3330.76 4227.72 3335.78 4236.12 3341.25 4244.22 3347.17 4251.99 3353.52 4259.41 3360.27 4266.46 3367.41 4273.11 3374.92 4279.35 3382.77 4285.16 3390.95 4290.52 3399.43 4295.42 3408.18 4299.84 3417.19 4303.77 3426.42 4307.2 3435.84 4310.12 3445.44 4312.52 3455.18 4314.4 3465.03 4315.74 3474.97 4316.55 3484.97 4316.81 3495 M 4224.99 2619.98 4214.99 2629.98 4195 2629.98 4185 2619.98 4185 2580 4195 2570 4214.99 2570 4224.99 2580 4224.99 2599.99 4204.99 2599.99 M 4244.98 2570 4244.98 2629.98 4284.97 2570 4284.97 2629.98 M 4304.96 2629.98 4304.96 2570 4334.95 2570 4344.95 2580 4344.95 2619.98 4334.95 2629.98 4304.96 2629.98 M 3479.99 3044.98 3469.99 3054.98 3450 3054.98 3440 3044.98 3440 3005 3450 2995 3469.99 2995 3479.99 3005 3479.99 3024.99 3459.99 3024.99 M 3499.98 2995 3499.98 3054.98 3539.97 2995 3539.97 3054.98 M 3559.96 3054.98 3559.96 2995 3589.95 2995 3599.95 3005 3599.95 3044.98 3589.95 3054.98 3559.96 3054.98 M 4020 3519.99 3980.01 3519.99 3980.01 3490 4000.01 3490 3980.01 3490 3980.01 3460.01 M 4039.99 3460.01 4059.99 3460.01 4049.99 3460.01 4049.99 3519.99 4039.99 3509.99 M 3654.99 3399.97 3595.01 3399.97 3595.01 3429.96 3605.01 3439.96 3625 3439.96 3635 3429.96 3635 3399.97 M 3595.01 3379.98 3595.01 3359.98 3595.01 3369.98 3635 3369.98 3635 3379.98 M 3595.01 3319.99 3595.01 3300 3605.01 3290 3625 3290 3635 3300 3635 3319.99 3625 3329.99 3605.01 3329.99 3595.01 3319.99 M 3654.99 3230.02 3595.01 3230.02 3595.01 3260.02 3605.01 3270.01 3625 3270.01 3635 3260.02 3635 3230.02 M 3595.01 3180.04 3595.01 3200.03 3605.01 3210.03 3625 3210.03 3635 3200.03 3635 3180.04 3625 3170.04 3615 3170.04 3615 3210.03 M 4345.03 2729.99 4345.03 2670.01 4315.04 2670.01 4305.04 2680.01 4305.04 2700 4315.04 2710 4345.03 2710 M 4365.02 2670.01 4385.02 2670.01 4375.02 2670.01 4375.02 2710 4365.02 2710 M 4425 2670.01 4445 2670.01 4455 2680.01 4455 2700 4445 2710 4425 2710 4415.01 2700 4415.01 2680.01 4425 2670.01 M 4514.98 2729.99 4514.98 2670.01 4484.98 2670.01 4474.99 2680.01 4474.99 2700 4484.98 2710 4514.98 2710 M 4564.96 2670.01 4544.97 2670.01 4534.97 2680.01 4534.97 2700 4544.97 2710 4564.96 2710 4574.96 2700 4574.96 2690 4534.97 2690 M 2545.01 3334.99 2545.01 3324.99 2565.01 3305 2585 3324.99 2585 3334.99 M 2565.01 3305 2565.01 3275.01 M 2604.99 3275.01 2624.99 3275.01 2614.99 3275.01 2614.99 3334.99 2604.99 3324.99 M 2760.02 2954.99 2760.02 2905.01 2770.01 2895.01 2790.01 2895.01 2800 2905.01 2800 2954.99 M 2859.98 2895.01 2820 2895.01 2859.98 2935 2859.98 2944.99 2849.99 2954.99 2829.99 2954.99 2820 2944.99 M 4055.01 4259.99 4055.01 4210.01 4065.01 4200.01 4085 4200.01 4095 4210.01 4095 4259.99 M 4114.99 4200.01 4134.99 4200.01 4124.99 4200.01 4124.99 4259.99 4114.99 4249.99 M 2210.02 2465.01 2210.02 2524.99 2240.01 2524.99 2250 2514.99 2250 2495 2240.01 2485 2210.02 2485 M 2230.01 2485 2250 2465.01 M 2309.98 2524.99 2270 2524.99 2270 2495 2289.99 2505 2299.99 2505 2309.98 2495 2309.98 2475.01 2299.99 2465.01 2279.99 2465.01 2270 2475.01 M 4300.02 2790.01 4300.02 2849.99 4330.01 2849.99 4340 2839.99 4340 2820 4330.01 2810 4300.02 2810 M 4320.01 2810 4340 2790.01 M 4389.99 2790.01 4389.99 2849.99 4360 2820 4399.98 2820 M 2160.02 4205.01 2160.02 4264.99 2190.01 4264.99 2200 4254.99 2200 4235 2190.01 4225 2160.02 4225 M 2180.01 4225 2200 4205.01 M 2259.98 4205.01 2220 4205.01 2259.98 4245 2259.98 4254.99 2249.99 4264.99 2229.99 4264.99 2220 4254.99 M 4300.01 3165.01 4300.01 3224.99 4330 3224.99 4340 3214.99 4340 3195 4330 3185 4300.01 3185 M 4320.01 3185 4340 3165.01 M 4359.99 3165.01 4379.99 3165.01 4369.99 3165.01 4369.99 3224.99 4359.99 3214.99 M 4350.02 3650.01 4350.02 3709.99 4380.01 3709.99 4390 3699.99 4390 3680 4380.01 3670 4350.02 3670 M 4449.98 3650.01 4410 3650.01 4449.98 3690 4449.98 3699.99 4439.99 3709.99 4419.99 3709.99 4410 3699.99 M 4571 4143 4571 4202.98 4600.99 4202.98 4610.99 4192.98 4610.99 4172.99 4600.99 4162.99 4571 4162.99 M 4630.98 4143 4650.97 4143 4640.98 4143 4640.98 4202.98 4630.98 4192.98 M 3510 2524.99 3500.01 2534.99 3480.01 2534.99 3470.02 2524.99 3470.02 2485.01 3480.01 2475.01 3500.01 2475.01 3510 2485.01 M 3530 2524.99 3539.99 2534.99 3559.99 2534.99 3569.98 2524.99 3569.98 2515 3559.99 2505 3569.98 2495 3569.98 2485.01 3559.99 2475.01 3539.99 2475.01 3530 2485.01 3530 2495 3539.99 2505 3530 2515 3530 2524.99 M 3539.99 2505 3559.99 2505 M 4330 3029.99 4320.01 3039.99 4300.01 3039.99 4290.02 3029.99 4290.02 2990.01 4300.01 2980.01 4320.01 2980.01 4330 2990.01 M 4350 3039.99 4389.98 3039.99 4389.98 3029.99 4350 2990.01 4350 2980.01 M 2250 3824.99 2240.01 3834.99 2220.01 3834.99 2210.02 3824.99 2210.02 3785.01 2220.01 3775.01 2240.01 3775.01 2250 3785.01 M 2309.98 3834.99 2289.99 3824.99 2270 3805 2270 3785.01 2279.99 3775.01 2299.99 3775.01 2309.98 3785.01 2309.98 3795 2299.99 3805 2270 3805 M 2780 3529.99 2770.01 3539.99 2750.01 3539.99 2740.02 3529.99 2740.02 3490.01 2750.01 3480.01 2770.01 3480.01 2780 3490.01 M 2839.98 3539.99 2800 3539.99 2800 3510 2819.99 3520 2829.99 3520 2839.98 3510 2839.98 3490.01 2829.99 3480.01 2809.99 3480.01 2800 3490.01 M 2805 4229.99 2795.01 4239.99 2775.01 4239.99 2765.02 4229.99 2765.02 4190.01 2775.01 4180.01 2795.01 4180.01 2805 4190.01 M 2854.99 4180.01 2854.99 4239.99 2825 4210 2864.98 4210 M 2620 4229.99 2610.01 4239.99 2590.01 4239.99 2580.02 4229.99 2580.02 4190.01 2590.01 4180.01 2610.01 4180.01 2620 4190.01 M 2640 4229.99 2649.99 4239.99 2669.99 4239.99 2679.98 4229.99 2679.98 4220 2669.99 4210 2659.99 4210 2669.99 4210 2679.98 4200 2679.98 4190.01 2669.99 4180.01 2649.99 4180.01 2640 4190.01 M 3190 4199.99 3180.01 4209.99 3160.01 4209.99 3150.02 4199.99 3150.02 4160.01 3160.01 4150.01 3180.01 4150.01 3190 4160.01 M 3249.98 4150.01 3210 4150.01 3249.98 4190 3249.98 4199.99 3239.99 4209.99 3219.99 4209.99 3210 4199.99 M 3375 4199.99 3365 4209.99 3345.01 4209.99 3335.01 4199.99 3335.01 4160.01 3345.01 4150.01 3365 4150.01 3375 4160.01 M 3394.99 4150.01 3414.99 4150.01 3404.99 4150.01 3404.99 4209.99 3394.99 4199.99" fill="none" stroke-width="10"/><path d="M 2010.67 4070 2002.79 4070 2010.67 4070 M 3070 3397.79 3071.9 3388.23 3077.32 3380.12 3085.43 3374.7 3095 3372.8 3104.57 3374.7 3112.68 3380.12 3118.1 3388.23 3120 3397.79 M 2106.46 3433.07 2098.58 3433.07 2106.46 3433.07 M 3880 2690 3910 2690 M 4170 2690 4200 2690 M 3960 2640 3960 2740 M 3910 2640 4170 2640 M 3910 2640 3910 2740 4170 2740 M 4170 2640 4170 2740 M 3515 3445 3515 3475 M 3515 3155 3515 3185 M 3465 3395 3565 3395 M 3465 3185 3465 3445 3565 3445 M 3565 3185 3565 3445 M 3465 3185 3565 3185 M 4565 3035 4765 3035 M 4565 3035 4565 4035 4765 4035 M 4765 3035 4765 4035 M 4130 3435 4160 3435 4160 3550 M 4100 3550 4160 3550 M 4100 3435 4100 3550 M 4100 3435 4130 3435 M 2990 2575 3440 2575 M 2990 2425 2990 2575 M 2990 2425 3440 2425 3440 2575 M 4350 3325 4350 3625 M 4350 3325 4450 3325 4450 3625 M 4350 3625 4450 3625 M 2990.67 3397.79 3070 3397.79 M 3120 3397.79 3199.33 3397.79 M 2990.67 2622.21 3199.33 2622.21 M 2990.67 2622.21 2990.67 3397.79 M 3199.33 2622.21 3199.33 3397.79 M 2040 3605 2490 3605 2490 3755 M 2040 3755 2490 3755 M 2040 3605 2040 3755 M 2740 3690 2740 4140 M 2740 3690 2890 3690 2890 4140 M 2740 4140 2890 4140 M 2700 2495 2740 2495 M 2420 2495 2460 2495 M 2460 2455 2700 2455 2700 2535 M 2460 2535 2700 2535 M 2460 2455 2460 2535 M 2870 3590 3320 3590 M 2870 3440 2870 3590 M 2870 3440 3320 3440 3320 3590 M 3880 2820 3920 2820 M 4160 2820 4200 2820 M 3920 2860 4160 2860 M 3920 2780 3920 2860 M 3920 2780 4160 2780 4160 2860 M 3765 2945 4215 2945 4215 3095 M 3765 3095 4215 3095 M 3765 2945 3765 3095 M 4160 3195 4200 3195 M 3880 3195 3920 3195 M 3920 3155 4160 3155 4160 3235 M 3920 3235 4160 3235 M 3920 3155 3920 3235 M 2565 3690 2565 4140 M 2565 3690 2715 3690 2715 4140 M 2565 4140 2715 4140 M 3130 3675 3130 4125 M 3130 3675 3280 3675 3280 4125 M 3130 4125 3280 4125 M 3300 3675 3300 4125 M 3300 3675 3450 3675 3450 4125 M 3300 4125 3450 4125" fill="none" stroke-width="7.87"/><path d="M 2469.05 2589.37 2478.96 2590.34 2488.49 2593.24 2497.27 2597.93 2504.97 2604.24 2511.29 2611.94 2515.98 2620.72 2518.87 2630.25 2519.84 2640.16 M 2000.16 2640.16 2001.13 2630.25 2004.02 2620.72 2008.72 2611.94 2015.03 2604.24 2022.73 2597.93 2031.51 2593.24 2041.04 2590.34 2050.95 2589.37 M 2519.84 3359.84 2518.87 3369.75 2515.98 3379.28 2511.29 3388.06 2504.97 3395.76 2497.27 3402.07 2488.49 3406.76 2478.96 3409.66 2469.05 3410.63 M 2027.4 4165.28 2402.6 4165.28 M 2027.4 3975.12 2027.4 4165.28 M 2027.4 3975.12 2402.6 3975.12 2402.6 4165.28 M 2360 2589.37 2468.66 2589.37 M 2519.84 2639.76 2519.84 2750 M 2051.34 2589.37 2160 2589.37 M 2000.16 2639.76 2000.16 2750 M 2000.16 3300 2000.16 3410.63 2110 3410.63 M 2360 3410.63 2468.66 3410.63 M 2519.84 3250 2519.84 3360.24 M 3325 2820.97 3325 2850.96 3339.99 2850.96 3344.99 2845.96 3344.99 2835.97 3339.99 2830.97 3325 2830.97 M 3374.98 2820.97 3354.99 2820.97 3374.98 2840.97 3374.98 2845.96 3369.99 2850.96 3359.99 2850.96 3354.99 2845.96 M 3384.98 2840.97 3389.98 2840.97 3389.98 2835.97 3384.98 2835.97 3384.98 2840.97 M 3384.98 2825.97 3389.98 2825.97 3389.98 2820.97 3384.98 2820.97 3384.98 2825.97 M 3325 2772.98 3335 2772.98 3330 2772.98 3330 2802.98 3325 2797.98 M 3349.99 2787.98 3369.99 2787.98 M 3399.98 2772.98 3379.98 2772.98 3399.98 2792.98 3399.98 2797.98 3394.98 2802.98 3384.98 2802.98 3379.98 2797.98 M 3439.96 2782.98 3459.96 2782.98 M 3439.96 2792.98 3459.96 2792.98 M 3514.94 2802.98 3504.94 2802.98 3499.94 2797.98 3499.94 2777.98 3504.94 2772.98 3514.94 2772.98 3519.94 2777.98 3519.94 2797.98 3514.94 2802.98 M 3529.93 2772.98 3529.93 2802.98 3549.93 2772.98 3549.93 2802.98 M 3559.92 2772.98 3579.92 2792.98 M 3609.91 2797.98 3604.91 2802.98 3594.91 2802.98 3589.91 2797.98 3589.91 2792.98 3594.91 2787.98 3604.91 2787.98 3609.91 2782.98 3609.91 2777.98 3604.91 2772.98 3594.91 2772.98 3589.91 2777.98 M 3624.9 2797.98 3624.9 2792.98 3619.9 2792.98 3629.9 2792.98 3624.9 2792.98 3624.9 2777.98 3629.9 2772.98 M 3649.89 2792.98 3659.89 2792.98 3664.89 2787.98 3664.89 2772.98 3649.89 2772.98 3644.9 2777.98 3649.89 2782.98 3664.89 2782.98 M 3674.89 2772.98 3674.89 2792.98 3689.88 2792.98 3694.88 2787.98 3694.88 2772.98 M 3724.87 2802.98 3724.87 2772.98 3709.88 2772.98 3704.88 2777.98 3704.88 2787.98 3709.88 2792.98 3724.87 2792.98 M 3734.87 2802.98 3734.87 2772.98 3749.86 2772.98 3754.86 2777.98 3754.86 2782.98 3754.86 2787.98 3749.86 2792.98 3734.87 2792.98 M 3764.86 2792.98 3764.86 2777.98 3769.86 2772.98 3784.85 2772.98 3784.85 2767.99 3779.85 2762.99 3774.85 2762.99 M 3784.85 2772.98 3784.85 2792.98 M 3344.99 2715 3325 2715 3344.99 2734.99 3344.99 2739.99 3339.99 2744.99 3330 2744.99 3325 2739.99 M 3354.99 2730 3374.98 2730 M 3384.98 2739.99 3389.98 2744.99 3399.98 2744.99 3404.97 2739.99 3404.97 2734.99 3399.98 2730 3394.98 2730 3399.98 2730 3404.97 2725 3404.97 2720 3399.98 2715 3389.98 2715 3384.98 2720 M 3444.96 2725 3464.96 2725 M 3444.96 2734.99 3464.96 2734.99 M 3519.94 2744.99 3509.94 2744.99 3504.94 2739.99 3504.94 2720 3509.94 2715 3519.94 2715 3524.94 2720 3524.94 2739.99 3519.94 2744.99 M 3534.93 2715 3534.93 2744.99 3554.93 2715 3554.93 2744.99 M 3564.92 2715 3584.92 2734.99 M 3609.91 2744.99 3599.91 2744.99 3594.91 2739.99 3594.91 2720 3599.91 2715 3609.91 2715 3614.91 2720 3614.91 2739.99 3609.91 2744.99 M 3644.9 2744.99 3624.9 2744.99 3624.9 2730 3634.9 2730 3624.9 2730 3624.9 2715 M 3674.89 2744.99 3654.89 2744.99 3654.89 2730 3664.89 2730 3654.89 2730 3654.89 2715" fill="none" stroke-width="5"/><path d="M 3670 3850 3810 3850 M 3670 3950 3810 3950 M 3670 4050 3810 4050 M 4360 4150 4410 4150 M 4360 4100 4360 4150 M 4260 4100 4360 4100 M 4260 4100 4260 4150 M 3810 4150 4260 4150 M 3810 3750 3810 4150 M 3810 3750 4260 3750 4260 3800 4360 3800 M 4360 3750 4360 3800 M 4360 3750 4410 3750 4410 4150" fill="none" stroke-width="12"/><path d="M 4575 4065 4575 4048.34 4575 4056.67 4624.98 4056.67 4616.65 4065 M 4695 4105 4695 4088.34 4695 4096.67 4744.98 4096.67 4736.65 4105 M 4695 4065 4695 4048.34 4695 4056.67 4744.98 4056.67 4736.65 4065 M 4595 3025 4595 3008.34 4595 3016.67 4644.98 3016.67 4636.65 3025 M 4636.65 2983.35 4644.98 2975.02 4644.98 2958.35 4636.65 2950.02 4603.33 2950.02 4595 2958.35 4595 2975.02 4603.33 2983.35 4636.65 2983.35 M 4695 2991.68 4695 3025 4728.32 2991.68 4736.65 2991.68 4744.98 3000.01 4744.98 3016.67 4736.65 3025 M 4736.65 2975.02 4744.98 2966.69 4744.98 2950.02 4736.65 2941.69 4703.33 2941.69 4695 2950.02 4695 2966.69 4703.33 2975.02 4736.65 2975.02" fill="none" stroke-width="8"/></g><g id="JK_HSlTJHMVa95FYH59l_top_solderpaste"><use xlink:href="#r_3MQ-Qnleng3BkZdHRH_pad-15" x="4107.5" y="3947.5"/></g><g id="JK_HSlTJHMVa95FYH59l_top_drill1"><use xlink:href="#fvgaOPBp-BsG6FRZScR0_pad-1" x="2110" y="2700"/><use xlink:href="#fvgaOPBp-BsG6FRZScR0_pad-1" x="2410" y="2700"/><use xlink:href="#fvgaOPBp-BsG6FRZScR0_pad-1" x="2410" y="3300"/><use xlink:href="#fvgaOPBp-BsG6FRZScR0_pad-1" x="2110" y="3300"/><use xlink:href="#fvgaOPBp-BsG6FRZScR0_pad-2" x="3365" y="2500"/><use xlink:href="#fvgaOPBp-BsG6FRZScR0_pad-2" x="3840" y="3020"/><use xlink:href="#fvgaOPBp-BsG6FRZScR0_pad-2" x="4140" y="3020"/><use xlink:href="#fvgaOPBp-BsG6FRZScR0_pad-2" x="3065" y="2500"/><use xlink:href="#fvgaOPBp-BsG6FRZScR0_pad-2" x="2945" y="3515"/><use xlink:href="#fvgaOPBp-BsG6FRZScR0_pad-2" x="2815" y="3765"/><use xlink:href="#fvgaOPBp-BsG6FRZScR0_pad-2" x="2640" y="3765"/><use xlink:href="#fvgaOPBp-BsG6FRZScR0_pad-2" x="2640" y="4065"/><use xlink:href="#fvgaOPBp-BsG6FRZScR0_pad-2" x="2815" y="4065"/><use xlink:href="#fvgaOPBp-BsG6FRZScR0_pad-2" x="2415" y="3680"/><use xlink:href="#fvgaOPBp-BsG6FRZScR0_pad-2" x="2115" y="3680"/><use xlink:href="#fvgaOPBp-BsG6FRZScR0_pad-2" x="3205" y="3750"/><use xlink:href="#fvgaOPBp-BsG6FRZScR0_pad-2" x="3375" y="3750"/><use xlink:href="#fvgaOPBp-BsG6FRZScR0_pad-2" x="3375" y="4050"/><use xlink:href="#fvgaOPBp-BsG6FRZScR0_pad-2" x="3205" y="4050"/><use xlink:href="#fvgaOPBp-BsG6FRZScR0_pad-2" x="3245" y="3515"/><use xlink:href="#fvgaOPBp-BsG6FRZScR0_pad-3" x="2115" y="4070"/><use xlink:href="#fvgaOPBp-BsG6FRZScR0_pad-3" x="2215" y="4070"/><use xlink:href="#fvgaOPBp-BsG6FRZScR0_pad-3" x="2315" y="4070"/><use xlink:href="#fvgaOPBp-BsG6FRZScR0_pad-4" x="3840" y="2690"/><use xlink:href="#fvgaOPBp-BsG6FRZScR0_pad-4" x="3840" y="2820"/><use xlink:href="#fvgaOPBp-BsG6FRZScR0_pad-4" x="4240" y="2820"/><use xlink:href="#fvgaOPBp-BsG6FRZScR0_pad-4" x="4240" y="2690"/><use xlink:href="#fvgaOPBp-BsG6FRZScR0_pad-4" x="3515" y="3115"/><use xlink:href="#fvgaOPBp-BsG6FRZScR0_pad-4" x="2780" y="2495"/><use xlink:href="#fvgaOPBp-BsG6FRZScR0_pad-4" x="2380" y="2495"/><use xlink:href="#fvgaOPBp-BsG6FRZScR0_pad-4" x="3515" y="3515"/><use xlink:href="#fvgaOPBp-BsG6FRZScR0_pad-4" x="3840" y="3195"/><use xlink:href="#fvgaOPBp-BsG6FRZScR0_pad-4" x="4240" y="3195"/><use xlink:href="#fvgaOPBp-BsG6FRZScR0_pad-4" x="4130" y="3395"/><use xlink:href="#fvgaOPBp-BsG6FRZScR0_pad-4" x="4130" y="3590"/><use xlink:href="#fvgaOPBp-BsG6FRZScR0_pad-5" x="3245" y="2710"/><use xlink:href="#fvgaOPBp-BsG6FRZScR0_pad-5" x="3245" y="2810"/><use xlink:href="#fvgaOPBp-BsG6FRZScR0_pad-5" x="3245" y="2910"/><use xlink:href="#fvgaOPBp-BsG6FRZScR0_pad-5" x="3245" y="3010"/><use xlink:href="#fvgaOPBp-BsG6FRZScR0_pad-5" x="3245" y="3110"/><use xlink:href="#fvgaOPBp-BsG6FRZScR0_pad-5" x="2945" y="3110"/><use xlink:href="#fvgaOPBp-BsG6FRZScR0_pad-5" x="2945" y="3010"/><use xlink:href="#fvgaOPBp-BsG6FRZScR0_pad-5" x="2945" y="2910"/><use xlink:href="#fvgaOPBp-BsG6FRZScR0_pad-5" x="2945" y="2810"/><use xlink:href="#fvgaOPBp-BsG6FRZScR0_pad-5" x="2945" y="2710"/><use xlink:href="#fvgaOPBp-BsG6FRZScR0_pad-5" x="2945" y="3210"/><use xlink:href="#fvgaOPBp-BsG6FRZScR0_pad-5" x="2945" y="3310"/><use xlink:href="#fvgaOPBp-BsG6FRZScR0_pad-5" x="3245" y="3310"/><use xlink:href="#fvgaOPBp-BsG6FRZScR0_pad-5" x="3245" y="3210"/><use xlink:href="#fvgaOPBp-BsG6FRZScR0_pad-7" x="4615" y="3085"/><use xlink:href="#fvgaOPBp-BsG6FRZScR0_pad-7" x="4615" y="3185"/><use xlink:href="#fvgaOPBp-BsG6FRZScR0_pad-7" x="4615" y="3285"/><use xlink:href="#fvgaOPBp-BsG6FRZScR0_pad-7" x="4615" y="3385"/><use xlink:href="#fvgaOPBp-BsG6FRZScR0_pad-7" x="4615" y="3485"/><use xlink:href="#fvgaOPBp-BsG6FRZScR0_pad-7" x="4615" y="3585"/><use xlink:href="#fvgaOPBp-BsG6FRZScR0_pad-7" x="4615" y="3685"/><use xlink:href="#fvgaOPBp-BsG6FRZScR0_pad-7" x="4615" y="3785"/><use xlink:href="#fvgaOPBp-BsG6FRZScR0_pad-7" x="4615" y="3885"/><use xlink:href="#fvgaOPBp-BsG6FRZScR0_pad-7" x="4615" y="3985"/><use xlink:href="#fvgaOPBp-BsG6FRZScR0_pad-7" x="4400" y="3575"/><use xlink:href="#fvgaOPBp-BsG6FRZScR0_pad-7" x="4400" y="3475"/><use xlink:href="#fvgaOPBp-BsG6FRZScR0_pad-7" x="4400" y="3375"/><use xlink:href="#fvgaOPBp-BsG6FRZScR0_pad-8" x="4715" y="3085"/><use xlink:href="#fvgaOPBp-BsG6FRZScR0_pad-8" x="4715" y="3185"/><use xlink:href="#fvgaOPBp-BsG6FRZScR0_pad-8" x="4715" y="3285"/><use xlink:href="#fvgaOPBp-BsG6FRZScR0_pad-8" x="4715" y="3385"/><use xlink:href="#fvgaOPBp-BsG6FRZScR0_pad-8" x="4715" y="3485"/><use xlink:href="#fvgaOPBp-BsG6FRZScR0_pad-8" x="4715" y="3585"/><use xlink:href="#fvgaOPBp-BsG6FRZScR0_pad-8" x="4715" y="3685"/><use xlink:href="#fvgaOPBp-BsG6FRZScR0_pad-8" x="4715" y="3785"/><use xlink:href="#fvgaOPBp-BsG6FRZScR0_pad-8" x="4715" y="3885"/><use xlink:href="#fvgaOPBp-BsG6FRZScR0_pad-8" x="4715" y="3985"/><use xlink:href="#fvgaOPBp-BsG6FRZScR0_pad-9" x="4310" y="3950"/><use xlink:href="#fvgaOPBp-BsG6FRZScR0_pad-10" x="5070" y="3600"/></g><g id="JK_HSlTJHMVa95FYH59l_top_drill2"><path d="M 3610 3859.84 3610 3840.16 M 3610 3959.84 3610 3940.16 M 3610 4059.84 3610 4040.16" fill="none" stroke-width="39.37"/></g><clipPath id="JK_HSlTJHMVa95FYH59l_top_outline"><path d="M 5235 2355 5235 4320 1575 4320 1575 2355 5235 2355" fill="none" stroke-width="10"/></clipPath><mask id="JK_HSlTJHMVa95FYH59l_top_mech-mask"><g fill="#000" stroke="#000"><rect x="1575" y="2355" width="3660" height="1965" fill="#fff"/><use xlink:href="#JK_HSlTJHMVa95FYH59l_top_drill1"/><use xlink:href="#JK_HSlTJHMVa95FYH59l_top_drill2"/></g></mask><mask id="JK_HSlTJHMVa95FYH59l_top_cf-mask"><g fill="#fff" stroke="#fff"><use xlink:href="#JK_HSlTJHMVa95FYH59l_top_soldermask"/></g></mask><mask id="JK_HSlTJHMVa95FYH59l_top_sm-mask"><g fill="#000" stroke="#000"><rect x="1575" y="2355" width="3660" height="1965" fill="#fff"/><use xlink:href="#JK_HSlTJHMVa95FYH59l_top_soldermask"/></g></mask></defs><g transform="translate(0,6675) scale(1,-1)"><g mask="url(#JK_HSlTJHMVa95FYH59l_top_mech-mask)" clip-path="url(#JK_HSlTJHMVa95FYH59l_top_outline)"><rect x="1575" y="2355" width="3660" height="1965" fill="currentColor" class="JK_HSlTJHMVa95FYH59l_fr4"/><use xlink:href="#JK_HSlTJHMVa95FYH59l_top_copper" fill="currentColor" stroke="currentColor" class="JK_HSlTJHMVa95FYH59l_cu"/><use xlink:href="#JK_HSlTJHMVa95FYH59l_top_copper" fill="currentColor" stroke="currentColor" class="JK_HSlTJHMVa95FYH59l_cf" mask="url(#JK_HSlTJHMVa95FYH59l_top_cf-mask)"/><g mask="url(#JK_HSlTJHMVa95FYH59l_top_sm-mask)"><rect x="1575" y="2355" width="3660" height="1965" fill="currentColor" class="JK_HSlTJHMVa95FYH59l_sm"/><use xlink:href="#JK_HSlTJHMVa95FYH59l_top_silkscreen" fill="currentColor" stroke="currentColor" class="JK_HSlTJHMVa95FYH59l_ss"/></g><use xlink:href="#JK_HSlTJHMVa95FYH59l_top_solderpaste" fill="currentColor" stroke="currentColor" class="JK_HSlTJHMVa95FYH59l_sp"/></g></g></svg>